<?xml version="1.0" encoding="UTF-8"?>
<svg id="Isolation_Mode" data-name="Isolation Mode" xmlns="http://www.w3.org/2000/svg" viewBox="0 0 280 40">
  <defs>
    <style>
      .cls-1 {
        fill: #f7fc8c;
      }
    </style>
  </defs>
  <path class="cls-1" d="m274.95,10.97c1.33,2.36,2.29,5.02,3.19,7.69.72,2.12,1.28,4.3,1.73,6.49.42,2.01-.19,2.81-2.18,3.35-1.04.29-2.12.5-3.12-.07-3.48-1.97-7.39-2.57-11.19-3.4-13.35-2.88-26.84-4.99-40.39-6.56-7.3-.85-14.64-1.37-22.01-1.37-9.13,0-18.25-.29-27.38-.14-6.87.11-13.73.67-20.59,1.11-4.25.27-8.51.59-12.74,1.08-6.59.77-13.17,1.63-19.74,2.57-8.92,1.28-17.81,2.71-26.63,4.58-5.71,1.21-11.2,3.07-16.52,5.41-1.5.66-2.86,1.65-4.25,2.54-1.98,1.26-3.16,1.14-4.59-.64-.59-.73-1.19-1.51-1.53-2.37-.62-1.53-1.1-3.08-2.39-4.27-.47-.44-.57-1.27-.84-1.92-.4-.96-.8-1.91-1.23-2.94-1.03.09-1.86.1-2.65.25-11.9,2.23-23.7,4.9-35.12,8.94-4.79,1.7-9.45,3.8-13.53,6.96-.56.43-1.12.89-1.74,1.22-1.84.97-2.97.61-4.2-1.16-1.89-2.71-3.24-5.71-4.5-8.73-1.55-3.72-1-5.72,2.49-7.74,3.37-1.96,6.85-3.81,10.48-5.2,5.08-1.94,10.3-3.6,15.56-5.02,11.9-3.22,23.98-5.73,36.19-7.5,5.86-.85,11.79-1.17,17.68-1.81,1.41-.15,2.3.53,3.02,1.47.79,1.03,1.49,2.15,2.03,3.32.79,1.73,2.04,2.11,3.77,1.78,2.68-.5,5.37-.93,8.06-1.38,17.19-2.91,34.44-5.38,51.85-6.48,12.66-.8,25.33-1.32,38.03-.86,5.56.2,11.14.05,16.7.37,7.93.45,15.87.79,23.71,2.35,2.55.51,5.17.62,7.76.94,12.15,1.49,24.08,4.15,36.02,6.77.22.05.42.2.79.38Z"/>
</svg>