<?xml version="1.0" encoding="UTF-8"?>
<svg id="_レイヤー_1" data-name="レイヤー 1" xmlns="http://www.w3.org/2000/svg" viewBox="0 0 659 58.05">
  <defs>
    <style>
      .cls-1 {
        fill: #fff;
      }

      .cls-2 {
        fill: #bb94f7;
      }
    </style>
  </defs>
  <g>
    <path class="cls-2" d="m15.55,56.25c-1.19,0-2.36-.42-3.28-1.23l-5.8-5.05c-1.37-1.19-1.99-3.04-1.61-4.81.38-1.78,1.69-3.21,3.43-3.74,3.13-.95,5.85-2.08,8.08-3.36,1.31-.75,2.51-1.52,3.61-2.32-1.18-.81-2.27-1.53-3.25-2.16-1.13.93-2.29,1.81-3.48,2.63-.86.6-1.86.89-2.85.89-1.08,0-2.15-.35-3.05-1.04l-5.4-4.15C.65,30.92-.07,29.34,0,27.71c.08-1.64.96-3.13,2.34-4,2.61-1.63,4.84-3.35,6.62-5.1,1.84-1.81,3.38-3.57,4.58-5.22,1.25-1.73,2.26-3.26,3-4.56.06-.1.12-.2.19-.3.14-.2.43-.69.86-1.67.35-.79.61-1.5.78-2.1.36-1.3,1.24-2.4,2.42-3.04.74-.4,1.56-.61,2.39-.61.5,0,1,.07,1.48.22l7.25,2.25c1.52.47,2.73,1.64,3.24,3.14.19.56.28,1.15.27,1.73h2.05c.59,0,1.17-.04,1.74-.11.67-.09,1-.18,1.12-.21.49-.15.99-.23,1.49-.23.92,0,1.83.25,2.63.75l5.1,3.15c1.14.71,1.95,1.84,2.25,3.15.3,1.31.06,2.68-.67,3.81-.18.28-.38.65-.59,1.09-.2.42-.37.85-.5,1.27-.57,1.74-1.32,3.64-2.23,5.67-.89,1.97-1.95,3.99-3.15,6.02.71.54,1.35,1.06,1.94,1.54,1.03.85,1.68,2.07,1.8,3.4.12,1.33-.29,2.65-1.15,3.68l-4.75,5.65c-.88,1.04-2.14,1.68-3.49,1.77-.11,0-.22.01-.33.01-1.24,0-2.44-.46-3.36-1.3-.49-.45-1.05-.94-1.67-1.46-.91.81-1.86,1.6-2.84,2.38-3.7,2.94-8.24,5.45-13.5,7.46-.58.22-1.18.33-1.78.33Z"/>
    <path class="cls-2" d="m80.55,55.15c-1.47,0-2.86-.65-3.81-1.77-.95-1.12-1.36-2.6-1.12-4.05.01-.08.06-.42.12-1.24.05-.7.09-1.47.12-2.28.03-.79.05-1.53.05-2.21v-8.13c-.97.42-1.96.83-2.95,1.22-2.71,1.08-5.49,2.05-8.24,2.89-.48.15-.97.22-1.45.22-1.85,0-3.61-1.03-4.47-2.76l-3.15-6.3c-.67-1.35-.7-2.93-.08-4.31.62-1.37,1.84-2.39,3.3-2.77,4.24-1.1,8.12-2.39,11.53-3.84,3.4-1.44,6.42-2.97,8.96-4.53,1.56-.96,3.15-2.08,4.74-3.34,1.63-1.29,3.18-2.63,4.61-3.98,1.38-1.3,2.54-2.54,3.46-3.69.88-1.09,2.17-1.77,3.57-1.87.11,0,.22-.01.34-.01,1.28,0,2.52.49,3.45,1.38l5.4,5.15c.98.94,1.54,2.23,1.55,3.59,0,1.36-.53,2.66-1.5,3.61-1.61,1.58-3.4,3.19-5.3,4.8-1.91,1.62-3.93,3.18-6,4.65-.22.15-.43.31-.65.46v17.57c0,.67.02,1.41.05,2.21.03.78.07,1.5.13,2.17.06.7.12.95.12.96.35,1.49,0,3.08-.94,4.28-.95,1.19-2.38,1.93-3.91,1.93h-7.9Z"/>
    <path class="cls-2" d="m125.5,55.75c-1.13,0-2.24-.38-3.15-1.12l-5.85-4.75c-1.42-1.15-2.09-2.98-1.77-4.78.33-1.8,1.61-3.27,3.34-3.85.57-.19,1.21-.46,1.89-.8.64-.32,1.3-.73,1.96-1.22.05-.04.1-.07.14-.1,1.19-.82,2.13-1.66,2.8-2.5.65-.82,1.14-1.68,1.49-2.63.4-1.07.67-2.29.83-3.6.18-1.52.27-3.22.27-5.05,0-.69-.02-1.35-.04-2-.02-.42-.08-.9-.18-1.4h-3.47c-.91,0-1.78.03-2.6.09-.91.07-1.94.15-3.08.24-.14.01-.29.02-.43.02-1.25,0-2.46-.47-3.38-1.32-1.03-.95-1.62-2.28-1.62-3.68v-6.95c0-1.45.63-2.82,1.71-3.77.92-.8,2.08-1.23,3.29-1.23.23,0,.46.02.68.05.9.12,1.83.23,2.8.33.87.08,1.75.13,2.62.13h26.95c.4,0,.88-.02,1.45-.04.58-.03,1.15-.07,1.71-.13.2-.02.36-.04.49-.06.48-.14.96-.21,1.45-.21,1.25,0,2.48.47,3.42,1.35l3.95,3.7c1.91,1.79,2.12,4.74.48,6.77-.25.32-.57.72-.95,1.21-.34.44-.54.72-.65.89-.85,1.44-1.97,3.07-3.31,4.85-1.36,1.81-2.89,3.63-4.53,5.4-1.75,1.89-3.61,3.53-5.51,4.89-.87.62-1.89.93-2.91.93-.81,0-1.63-.2-2.36-.59-.05.29-.11.57-.17.86-.54,2.54-1.42,4.99-2.6,7.28-1.22,2.36-2.91,4.61-5.02,6.67-2.07,2.03-4.69,3.9-7.81,5.55-.74.39-1.54.58-2.34.58Z"/>
    <path class="cls-2" d="m185.95,57.6c-1.32,0-2.61-.52-3.57-1.5l-5.25-5.35c-1.24-1.27-1.72-3.1-1.26-4.81.46-1.71,1.8-3.05,3.51-3.52,1.53-.42,3.19-1.06,4.94-1.9s3.47-1.89,5.11-3.1c.5-.37.99-.76,1.44-1.15-.18.02-.35.03-.53.03-.57,0-1.15-.1-1.69-.29-.45.41-.99.75-1.59.97l-6.1,2.3c-.57.21-1.17.32-1.76.32-.76,0-1.52-.17-2.22-.52-1.24-.61-2.17-1.72-2.57-3.04-.17-.57-.44-1.36-.79-2.35-.37-1.02-.77-2.1-1.22-3.23-.45-1.15-.88-2.21-1.29-3.19-.45-1.07-.7-1.57-.82-1.77-.72-1.28-.84-2.82-.33-4.2.51-1.38,1.61-2.46,3-2.96l6-2.15c.55-.2,1.12-.29,1.69-.29.81,0,1.61.2,2.32.57.51-.45,1.11-.8,1.77-1.02l5.95-1.95c.52-.17,1.04-.25,1.56-.25,1.94,0,3.77,1.14,4.58,3,.25.58.59,1.4,1,2.46l.72,1.85c.07-.47.12-.93.17-1.4.15-1.51.97-2.86,2.23-3.7.83-.54,1.78-.82,2.75-.82.51,0,1.03.08,1.53.24l7,2.25c1.27.41,2.33,1.31,2.93,2.5.6,1.19.7,2.58.28,3.84-.26.78-.48,1.45-.66,2-.17.52-.33,1-.48,1.46-.69,2.73-1.64,5.48-2.82,8.18-1.26,2.88-2.88,5.61-4.82,8.13-2.64,3.39-5.66,6.3-9,8.65-3.28,2.32-6.63,4.13-9.95,5.37-.57.21-1.17.32-1.76.32Z"/>
    <path class="cls-2" d="m236.45,55.75c-1.39,0-2.74-.58-3.7-1.64l-5.45-6c-1.19-1.31-1.6-3.15-1.08-4.83s1.89-2.98,3.61-3.39c2.97-.71,5.52-1.58,7.58-2.58,2.02-.98,3.78-2.1,5.24-3.33,1.53-1.28,2.89-2.67,4.05-4.11.83-1.06,1.59-2.28,2.21-3.58.38-.79.73-1.59,1.03-2.39h-16.75c-1.12,0-2.19.02-3.22.05-1.19.04-1.85.09-2.2.13-.17.02-.35.03-.52.03-1.23,0-2.42-.45-3.35-1.28-1.05-.95-1.65-2.3-1.65-3.72v-7.05c0-1.44.62-2.81,1.71-3.76.92-.8,2.09-1.24,3.29-1.24.22,0,.44.01.67.04.44.06.98.12,1.62.18.64.06,1.29.1,1.96.13.67.03,1.24.04,1.71.04h21.59c.23-.6.51-1.18.85-1.75.98-1.63,2.3-2.95,3.91-3.91,1.68-.99,3.53-1.5,5.5-1.5s3.85.5,5.54,1.48c1.67.97,3.01,2.31,3.98,3.98.98,1.69,1.48,3.55,1.48,5.54s-.5,3.82-1.5,5.5c-.96,1.62-2.27,2.94-3.9,3.92-.69.42-1.42.75-2.17,1-.2.79-.42,1.62-.67,2.49-.47,1.63-1.02,3.34-1.66,5.08-.66,1.81-1.46,3.63-2.36,5.4-.94,1.84-2.02,3.59-3.21,5.2-1.73,2.31-3.74,4.45-6,6.41-2.24,1.94-4.76,3.71-7.51,5.27-2.74,1.56-5.79,2.89-9.07,3.96-.51.17-1.03.25-1.55.25Z"/>
    <path class="cls-2" d="m302.7,57.8c-.3,0-.61-.03-.91-.08-1.41-.26-2.64-1.11-3.38-2.34-.11-.18-.32-.49-.69-.93-.12-.15-.25-.29-.38-.43l-2.05.21c-2.9.3-5.68.58-8.35.83-2.63.25-5.03.49-7.22.72-.18.02-.36.03-.53.03-2.47,0-4.6-1.82-4.95-4.31l-.7-5.05c-.19-1.38.2-2.77,1.08-3.85.09-.11.18-.21.28-.31,0-.07,0-.15,0-.23v-4.25c0-.51.08-1.01.22-1.48-.01-.16-.02-.31-.02-.47v-14.14c-.81-.89-1.3-2.07-1.3-3.36v-4.35c0-1.08.34-2.08.93-2.9-.12-.32-.22-.56-.3-.71-.75-1.51-.7-3.29.15-4.75.85-1.46,2.37-2.39,4.06-2.48,1.83-.1,3.71-.22,5.64-.37,1.9-.15,3.81-.32,5.69-.51,1.84-.19,3.6-.41,5.25-.65,1.6-.23,3.06-.49,4.35-.77.35-.07.7-.11,1.05-.11,1.67,0,3.25.84,4.18,2.26.92-1.05,2.26-1.71,3.77-1.71h5.75c2.76,0,5,2.24,5,5,0,1.86,0,3.7-.02,5.5h5.12c2.76,0,5,2.24,5,5,0,0,0,2.74,0,2.78-.13,5.08-.27,9.5-.4,13.13-.14,3.63-.28,6.66-.43,8.99-.17,2.59-.42,4.61-.75,6.17-.44,2-1.02,3.47-1.82,4.62-.95,1.4-2.11,2.51-3.39,3.24-1.08.61-2.31,1.06-3.66,1.33-.04,0-.09.02-.13.02-1.03.18-2.2.28-3.58.3-.39,0-.78,0-1.18,0-.8,0-1.63-.01-2.48-.03-1.64-.04-3.09-.88-3.97-2.15-.58.53-1.18,1.04-1.81,1.53-.89.69-1.97,1.06-3.08,1.06Z"/>
    <path class="cls-2" d="m336.05,57.45c-2.76,0-5-2.24-5-5V17.67c-.96-.91-1.55-2.19-1.55-3.62v-5.6c0-2.76,2.24-5,5-5h45.05c2.76,0,5,2.24,5,5v5.6c0,1.42-.59,2.71-1.55,3.62v34.68c0,2.76-2.24,5-5,5h-5.8c-1.99,0-3.71-1.16-4.52-2.85h-21.22c-.78,1.74-2.53,2.95-4.56,2.95h-5.85Z"/>
    <path class="cls-2" d="m414.3,55.3c-1.7,0-3.3-.87-4.23-2.33l-2.29-3.64c-2.23,1.62-4.78,2.47-7.43,2.47-3,0-5.76-1-8.21-2.98-2.2-1.77-3.94-4.18-5.18-7.15-1.17-2.8-1.76-5.97-1.76-9.42s.74-7.06,2.2-10.27c1.43-3.14,3.44-5.96,5.98-8.38,2.53-2.41,5.51-4.32,8.86-5.68,3.37-1.37,7.04-2.07,10.91-2.07s7.17.63,10.24,1.86c3.1,1.25,5.81,3.02,8.04,5.25,2.25,2.25,3.98,4.91,5.17,7.9,1.16,2.95,1.75,6.14,1.75,9.49,0,4.29-.91,8.23-2.71,11.7-1.84,3.54-4.57,6.49-8.12,8.76-3.39,2.16-7.57,3.65-12.43,4.42-.26.04-.52.06-.79.06Zm5.54-30.92c-.52,2.51-1.18,5.05-1.96,7.58-.63,2.21-1.36,4.28-2.16,6.19.55-.21,1.07-.45,1.57-.72.91-.49,1.67-1.08,2.34-1.8.61-.66,1.08-1.42,1.44-2.34.35-.91.53-1.97.53-3.14,0-1.37-.2-2.6-.59-3.68-.29-.79-.67-1.48-1.17-2.09Z"/>
    <path class="cls-2" d="m448.35,58.05c-1.55,0-3.01-.72-3.96-1.95-.01-.01-.18-.22-.68-.63-.63-.52-1.26-1.03-1.89-1.53-.4-.32-.58-.42-.59-.42-1.35-.58-2.34-1.7-2.78-3.1-.43-1.4-.2-2.9.58-4.14.96-1.52,1.68-3.27,2.13-5.19.52-2.2.86-4.46,1-6.71.16-2.41.24-4.68.24-6.72v-14.7c0-2.76,2.24-5,5-5h15.34c-.02-.8-.03-1.61-.04-2.41-.01-1.33.51-2.62,1.45-3.56.94-.95,2.22-1.48,3.55-1.48h6.3c.72,0,1.43.16,2.07.45.86-.62,1.89-.95,2.93-.95.76,0,1.53.17,2.24.53,1.06.53,2.18,1.15,3.32,1.86,1.09.67,2.15,1.34,3.14,2,1.24.83,2.25,1.64,3.09,2.48.42.42.75.9.99,1.41,1.88.72,3.22,2.54,3.22,4.67v5.9c0,1.92-1.08,3.58-2.66,4.42-.03.41-.1.82-.23,1.22-1,3.1-2.17,6.05-3.52,8.86.07.06.14.12.21.19.49.46,1.09.94,1.8,1.41.78.52,1.31.77,1.61.88,2.12.79,3.44,2.91,3.22,5.16-.34,3.55-.87,6.28-1.62,8.37-.98,2.75-2.47,4.78-4.43,6.02-1.81,1.15-4.01,1.73-6.53,1.73-2.97,0-5.77-1.05-8.11-3.04-.41-.35-.82-.73-1.21-1.14-1.61,1.3-3.3,2.5-5.05,3.58-.8.49-1.71.75-2.63.75-.39,0-.77-.04-1.15-.13-1.29-.31-2.41-1.11-3.1-2.24-.04-.07-.23-.35-.73-.93-.5-.58-1.02-1.16-1.55-1.74-.47-.51-.88-.93-1.21-1.24-.24-.23-.46-.47-.65-.74-.66,0-1.34,0-2.06-.03-.78,2.04-1.75,3.92-2.88,5.62-.89,1.34-2.38,2.17-3.99,2.22-.06,0-.11,0-.17,0Z"/>
    <path class="cls-2" d="m516.6,57.5c-.45,0-.9-.06-1.34-.18-1.31-.37-2.42-1.26-3.07-2.46-.07-.14-.26-.44-.65-.95-.4-.51-.83-1.02-1.28-1.51-.36-.39-.57-.55-.63-.59-1.45-.97-2.3-2.62-2.22-4.37,0-.15.02-.31.04-.46-2.31.64-4.46,1.23-6.41,1.75-.42.11-.85.17-1.28.17-.9,0-1.79-.24-2.58-.72-1.16-.7-1.99-1.84-2.29-3.15l-1.45-6.25c-.31-1.32-.06-2.71.67-3.85s1.9-1.93,3.24-2.19c.96-.19,2.02-.41,3.16-.67v-10.52h-1.5c-2.76,0-5-2.24-5-5v-5.7c0-2.76,2.24-5,5-5h18.9c1.01,0,1.96.3,2.75.82,0-.15,0-.31,0-.46.02-2.74,2.26-4.96,5-4.96h6.1c1.33,0,2.61.53,3.55,1.48.94.95,1.46,2.23,1.45,3.56-.01,1.62-.03,3.23-.05,4.81h7.45c2.76,0,5,2.24,5,5v1.7c0,.52-.02.97-.06,1.38-.13,5-.28,9.33-.45,12.85-.17,3.62-.36,6.65-.56,9.02-.22,2.59-.52,4.61-.89,6.2-.48,2.01-1.12,3.5-2.02,4.67-1.08,1.55-2.33,2.69-3.72,3.4-1.12.57-2.41.99-3.82,1.25-.1.02-.21.03-.31.04-1.02.12-2.22.19-3.67.23-.47.01-.94.02-1.42.02-.95,0-1.94-.02-2.93-.07-2.32-.11-4.21-1.79-4.66-4-1.62,1.45-3.46,2.79-5.5,4-.78.46-1.66.7-2.55.7Zm-.15-29.46l.69-.18c.42-.11.84-.16,1.26-.16.45,0,.89.06,1.32.18.05-.34.11-.68.15-1.03h-1.28c-.77,0-1.5-.17-2.15-.48v1.67Z"/>
    <path class="cls-2" d="m568.3,57.6c-2.4,0-4.46-1.71-4.91-4.06-.04-.19-.14-.61-.47-1.36-.37-.85-.66-1.37-.84-1.65-.09-.14-.17-.28-.24-.42h-3.28c-2.76,0-5-2.24-5-5v-1.66c-2.6-.18-4.65-2.34-4.65-4.99v-4.55c0-2.76,2.24-5,5-5h.05v-1.2c0-1.24.45-2.38,1.2-3.25v-6h-.1c-2.76,0-5-2.24-5-5v-4.7c0-2.76,2.24-5,5-5h14c.7-1.92,2.54-3.3,4.7-3.3h6.1c2.16,0,4.01,1.38,4.7,3.3h14.5c2.76,0,5,2.24,5,5v4.7c0,2.74-2.21,4.97-4.95,5v6.46c.54.8.85,1.76.85,2.79v1.2h.25c2.76,0,5,2.24,5,5v4.55c0,2.76-2.24,5-5,5h-.25v3.8c0,2.76-2.24,5-5,5h-6.1c-1.7,0-3.21-.85-4.11-2.15h-.24c-.2.85-.48,1.61-.86,2.29-.93,1.71-2.41,3.03-4.39,3.92-.09.04-.18.08-.28.11-1.44.55-3.07.88-5,1.01-1.53.11-3.44.16-5.68.16Z"/>
    <path class="cls-2" d="m642.95,57.5c-2.52,0-4.65-1.88-4.96-4.38-.04-.35-.17-1-.5-2.09-.27-.9-.56-1.66-.85-2.27-.31-.64-.47-1.32-.49-2.01-2.45,4.05-5.34,7.31-8.65,9.73-.87.63-1.9.97-2.96.97-.39,0-.79-.05-1.18-.14-.59-.14-1.14-.39-1.64-.73-.79.52-1.73.82-2.74.82h-5.5c-2.76,0-5-2.24-5-5v-16.45c-1.4-.59-2.48-1.81-2.88-3.31-.04-.13-.16-.54-.5-1.38-.29-.72-.62-1.46-.98-2.2-.35-.73-.65-1.33-.9-1.76-1.02-1.81-.81-4.06.52-5.65,1.17-1.41,2.33-3.05,3.45-4.88,1.13-1.85,2.17-3.87,3.11-6.02.94-2.16,1.74-4.37,2.38-6.58.37-1.28,1.23-2.36,2.4-3,.74-.41,1.57-.61,2.4-.61.48,0,.96.07,1.42.21l5.55,1.65c.22.07.44.15.65.24h15.23c1.41,0,2.69.58,3.6,1.53.83-1.62,2.51-2.73,4.45-2.73h5.6c2.76,0,5,2.24,5,5v39.2c0,2.23-.29,4.04-.89,5.52-.81,2-2.3,3.59-4.32,4.6-1.39.72-3.09,1.2-5.13,1.44-1.63.19-3.5.28-5.71.28Z"/>
  </g>
  <g>
    <path class="cls-1" d="m30.45,8.35c-.6.87-1.19,1.8-1.78,2.8-.58,1-1.02,1.77-1.32,2.3-1.13,2-2.57,4.12-4.3,6.38-1.73,2.25-3.67,4.44-5.82,6.58-2.15,2.13-4.43,4.03-6.83,5.7l-5.4-4.15c2.93-1.83,5.42-3.76,7.48-5.77,2.05-2.02,3.76-3.97,5.12-5.85,1.37-1.88,2.47-3.56,3.3-5.02.4-.6.83-1.41,1.27-2.42.45-1.02.79-1.94,1.03-2.77l7.25,2.25Zm16.5,7.7c-.3.47-.6,1.02-.9,1.65-.3.63-.55,1.27-.75,1.9-.5,1.53-1.17,3.24-2.02,5.12-.85,1.88-1.86,3.8-3.02,5.75-1.17,1.95-2.5,3.86-4,5.72-2.37,2.93-5.21,5.72-8.52,8.35-3.32,2.63-7.38,4.87-12.18,6.7l-5.8-5.05c3.5-1.07,6.53-2.33,9.1-3.8,2.57-1.47,4.79-3.03,6.67-4.7,1.88-1.67,3.52-3.33,4.93-5,1.13-1.3,2.21-2.76,3.22-4.38,1.02-1.62,1.9-3.23,2.65-4.85.75-1.62,1.27-3.06,1.57-4.33h-16.9l2.3-5.7h14.2c.8,0,1.59-.05,2.38-.15.78-.1,1.44-.23,1.98-.4l5.1,3.15Zm-23.5,8.5c1.53.87,3.21,1.89,5.02,3.08,1.82,1.18,3.66,2.41,5.52,3.67,1.87,1.27,3.62,2.5,5.27,3.7,1.65,1.2,3.04,2.27,4.18,3.2l-4.75,5.65c-1.1-1-2.46-2.16-4.08-3.48-1.62-1.32-3.36-2.67-5.23-4.05-1.87-1.38-3.71-2.71-5.52-3.97-1.82-1.27-3.44-2.35-4.88-3.25l4.45-4.55Z"/>
    <path class="cls-1" d="m60.1,28.5c4.5-1.17,8.57-2.52,12.23-4.08,3.65-1.55,6.86-3.17,9.62-4.88,1.73-1.07,3.47-2.29,5.22-3.67,1.75-1.38,3.4-2.81,4.95-4.27s2.86-2.87,3.92-4.2l5.4,5.15c-1.53,1.5-3.21,3.02-5.03,4.55-1.82,1.53-3.71,3-5.67,4.4-1.97,1.4-3.92,2.68-5.85,3.85-1.9,1.1-4.02,2.23-6.38,3.4-2.35,1.17-4.82,2.27-7.42,3.3-2.6,1.03-5.22,1.95-7.85,2.75l-3.15-6.3Zm20.8-5.75l7.1-1.65v22.5c0,.73.02,1.53.05,2.4.03.87.08,1.67.15,2.42.07.75.15,1.33.25,1.73h-7.9c.07-.4.12-.98.18-1.73.05-.75.09-1.56.12-2.42.03-.87.05-1.67.05-2.4v-20.85Z"/>
    <path class="cls-1" d="m159.75,14.1c-.27.33-.6.76-1,1.27-.4.52-.72.96-.95,1.32-.77,1.3-1.78,2.79-3.05,4.48-1.27,1.68-2.67,3.35-4.2,5s-3.12,3.06-4.75,4.23l-5.2-4.15c1-.6,1.98-1.3,2.95-2.1s1.86-1.64,2.68-2.52c.82-.88,1.53-1.73,2.15-2.52.62-.8,1.09-1.52,1.42-2.15h-26.05c-1.03,0-2.02.03-2.95.1-.93.07-1.98.15-3.15.25v-6.95c.97.13,1.97.25,3,.35,1.03.1,2.07.15,3.1.15h26.95c.47,0,1.03-.02,1.7-.05.67-.03,1.33-.08,1.98-.15.65-.07,1.12-.15,1.42-.25l3.95,3.7Zm-20.4,6.75c0,2.47-.05,4.85-.15,7.15-.1,2.3-.38,4.51-.83,6.62-.45,2.12-1.17,4.12-2.15,6.02-.98,1.9-2.34,3.7-4.08,5.4-1.73,1.7-3.95,3.27-6.65,4.7l-5.85-4.75c.8-.27,1.65-.62,2.55-1.08.9-.45,1.8-1.01,2.7-1.67,1.6-1.1,2.89-2.27,3.88-3.5.98-1.23,1.74-2.58,2.27-4.02.53-1.45.9-3.03,1.1-4.75.2-1.72.3-3.59.3-5.62,0-.77-.02-1.51-.05-2.23-.03-.72-.13-1.48-.3-2.27h7.25Z"/>
    <path class="cls-1" d="m180.65,20.9c.33.63.71,1.45,1.12,2.45.42,1,.84,2.05,1.27,3.15.43,1.1.86,2.17,1.28,3.2.42,1.03.74,1.9.97,2.6l-6.1,2.3c-.2-.67-.49-1.53-.88-2.6-.38-1.07-.81-2.19-1.28-3.38-.47-1.18-.91-2.27-1.32-3.27-.42-1-.77-1.77-1.08-2.3l6-2.15Zm30.05,1c-.27.8-.49,1.48-.68,2.05-.18.57-.36,1.1-.52,1.6-.63,2.53-1.5,5.06-2.6,7.58-1.1,2.52-2.5,4.88-4.2,7.07-2.33,3-4.98,5.54-7.93,7.62-2.95,2.08-5.89,3.68-8.82,4.78l-5.25-5.35c1.83-.5,3.77-1.24,5.8-2.23,2.03-.98,4-2.17,5.9-3.58,1.9-1.4,3.53-2.95,4.9-4.65,1.13-1.43,2.14-3.07,3.03-4.92.88-1.85,1.62-3.83,2.2-5.95.58-2.12.98-4.21,1.18-6.27l7,2.25Zm-18.45-3.65c.23.53.54,1.29.92,2.27.38.98.79,2.03,1.23,3.15.43,1.12.82,2.18,1.15,3.18.33,1,.6,1.78.8,2.35l-6,2.1c-.13-.63-.37-1.43-.7-2.4-.33-.97-.7-1.99-1.1-3.08-.4-1.08-.8-2.12-1.2-3.12s-.75-1.83-1.05-2.5l5.95-1.95Z"/>
    <path class="cls-1" d="m265.15,15.25c-.23.47-.43,1.02-.6,1.67-.17.65-.33,1.24-.5,1.77-.27,1.23-.62,2.61-1.05,4.12-.43,1.52-.95,3.09-1.55,4.73-.6,1.63-1.31,3.25-2.12,4.85-.82,1.6-1.74,3.1-2.78,4.5-1.5,2-3.25,3.87-5.25,5.6-2,1.73-4.23,3.3-6.7,4.7-2.47,1.4-5.18,2.58-8.15,3.55l-5.45-6c3.33-.8,6.2-1.78,8.6-2.95,2.4-1.17,4.49-2.5,6.27-4,1.78-1.5,3.36-3.1,4.73-4.8,1.1-1.4,2.04-2.92,2.82-4.55.78-1.63,1.43-3.27,1.95-4.92.52-1.65.88-3.19,1.08-4.62h-23.25c-1.17,0-2.29.02-3.38.05-1.08.03-1.94.08-2.58.15v-7.05c.5.07,1.11.13,1.83.2.72.07,1.45.12,2.2.15.75.03,1.39.05,1.93.05h23.15c.5,0,1.11-.02,1.82-.05.72-.03,1.41-.15,2.08-.35l4.9,3.2Zm-6.05-3.95c0-1.1.27-2.11.82-3.02.55-.92,1.28-1.64,2.18-2.17s1.88-.8,2.95-.8,2.11.27,3.03.8c.92.53,1.64,1.26,2.17,2.17.53.92.8,1.92.8,3.02s-.27,2.05-.8,2.95c-.53.9-1.26,1.62-2.17,2.17-.92.55-1.93.83-3.03.83s-2.05-.27-2.95-.83c-.9-.55-1.62-1.27-2.18-2.17-.55-.9-.82-1.88-.82-2.95Zm3.1,0c0,.8.28,1.48.85,2.02.57.55,1.23.83,2,.83s1.48-.27,2.05-.83c.57-.55.85-1.22.85-2.02s-.28-1.48-.85-2.05c-.57-.57-1.25-.85-2.05-.85s-1.43.28-2,.85-.85,1.25-.85,2.05Z"/>
    <path class="cls-1" d="m278.5,45.75c2.1-.13,4.5-.3,7.2-.5,2.7-.2,5.56-.43,8.57-.68,3.02-.25,6.02-.51,9.02-.77l.05,4.55c-2.83.3-5.69.6-8.58.9-2.88.3-5.65.57-8.3.82s-5.08.49-7.27.73l-.7-5.05Zm.3-31.75h25v4.35h-25v-4.35Zm21.8-8.25l2.6,4.45c-2.1.43-4.46.81-7.08,1.12-2.62.32-5.29.57-8.02.75-2.73.18-5.35.31-7.85.38-.1-.63-.27-1.36-.52-2.17-.25-.82-.52-1.52-.83-2.12,1.87-.1,3.78-.23,5.75-.38,1.97-.15,3.91-.33,5.83-.52,1.92-.2,3.73-.43,5.45-.68s3.28-.52,4.68-.82Zm-20.7,32.05h23.35v4.25h-23.35v-4.25Zm.2-17.5h22.9v15.55h-22.9v-15.55Zm4.75,3.75v2.25h13.2v-2.25h-13.2Zm0,5.8v2.25h13.2v-2.25h-13.2Zm3.85-19.35h5.45v35.85h-5.45V10.5Zm19.85-4.2h5.75c0,4.27-.04,8.32-.12,12.15-.08,3.83-.3,7.44-.65,10.83-.35,3.38-.93,6.52-1.75,9.4-.82,2.88-1.96,5.51-3.42,7.88-1.47,2.37-3.35,4.45-5.65,6.25-.3-.5-.69-1.03-1.18-1.6-.48-.57-.98-1.11-1.5-1.62s-1.02-.94-1.52-1.27c2.1-1.6,3.8-3.44,5.1-5.52,1.3-2.08,2.3-4.4,3-6.95.7-2.55,1.18-5.35,1.45-8.4.27-3.05.42-6.33.45-9.85.03-3.52.05-7.27.05-11.27Zm-4.8,10.5h17.35v5.5h-17.35v-5.5Zm14.9,0h5.75v2.65c-.13,5.13-.27,9.49-.4,13.08-.13,3.58-.27,6.53-.42,8.85-.15,2.32-.37,4.12-.65,5.42-.28,1.3-.62,2.23-1.02,2.8-.57.83-1.16,1.42-1.77,1.77-.62.35-1.34.61-2.17.77-.77.13-1.7.21-2.8.23-1.1.02-2.25,0-3.45-.02-.03-.83-.21-1.8-.53-2.9-.32-1.1-.71-2.05-1.17-2.85,1.07.1,2.05.17,2.95.2.9.03,1.58.05,2.05.05.4,0,.73-.07,1-.2.27-.13.52-.35.75-.65.27-.4.5-1.18.7-2.33.2-1.15.38-2.8.52-4.95.15-2.15.28-4.93.4-8.33.12-3.4.21-7.52.27-12.35v-1.25Z"/>
    <path class="cls-1" d="m334.5,8.45h45.05v5.6h-45.05v-5.6Zm1.55,8.9h5.85v35.1h-5.85V17.35Zm3.35,26.45h35.1v5.7h-35.1v-5.7Zm5.65-25.7h23.85v22.8h-23.85v-22.8Zm4.9,4.9v4.2h13.8v-4.2h-13.8Zm0,8.75v4.25h13.8v-4.25h-13.8Zm3.85-21.65h6.05v10.25h-6.05v-10.25Zm.45,10.25h5.15v18.65h-5.15v-18.65Zm17.95-3h5.8v35h-5.8V17.35Z"/>
    <path class="cls-1" d="m416.55,13.7c-.33,2.53-.77,5.23-1.3,8.1-.53,2.87-1.25,5.77-2.15,8.7-.97,3.37-2.1,6.27-3.4,8.7-1.3,2.43-2.73,4.31-4.28,5.62-1.55,1.32-3.24,1.98-5.07,1.98s-3.52-.62-5.08-1.88c-1.55-1.25-2.78-2.98-3.7-5.17-.92-2.2-1.38-4.7-1.38-7.5s.58-5.63,1.75-8.2c1.17-2.57,2.79-4.84,4.88-6.82,2.08-1.98,4.52-3.54,7.3-4.68,2.78-1.13,5.79-1.7,9.02-1.7s5.89.5,8.38,1.5c2.48,1,4.61,2.38,6.38,4.15,1.77,1.77,3.12,3.83,4.05,6.2.93,2.37,1.4,4.92,1.4,7.65,0,3.5-.72,6.63-2.15,9.4-1.43,2.77-3.56,5.05-6.38,6.85-2.82,1.8-6.33,3.03-10.53,3.7l-3.75-5.95c.97-.1,1.82-.22,2.55-.35.73-.13,1.43-.28,2.1-.45,1.6-.4,3.09-.98,4.47-1.73,1.38-.75,2.59-1.68,3.62-2.8,1.03-1.12,1.84-2.42,2.43-3.92.58-1.5.88-3.15.88-4.95,0-1.97-.3-3.77-.9-5.4-.6-1.63-1.48-3.06-2.65-4.27-1.17-1.22-2.58-2.15-4.25-2.8-1.67-.65-3.58-.98-5.75-.98-2.67,0-5.02.48-7.05,1.43-2.03.95-3.75,2.17-5.15,3.67s-2.46,3.12-3.18,4.85c-.72,1.73-1.07,3.38-1.07,4.95,0,1.67.2,3.06.6,4.17.4,1.12.89,1.95,1.47,2.5.58.55,1.21.83,1.88.83.7,0,1.39-.36,2.08-1.08.68-.72,1.36-1.81,2.02-3.27.67-1.47,1.33-3.32,2-5.55.77-2.4,1.42-4.97,1.95-7.7.53-2.73.92-5.4,1.15-8l6.8.2Z"/>
    <path class="cls-1" d="m447.4,12.95h6.3v14.75c0,1.87-.07,3.91-.2,6.12-.13,2.22-.38,4.48-.75,6.8-.37,2.32-.91,4.54-1.62,6.67-.72,2.13-1.64,4.05-2.77,5.75-.33-.43-.83-.92-1.48-1.45-.65-.53-1.3-1.06-1.95-1.58-.65-.52-1.21-.88-1.67-1.08,1.27-2,2.19-4.24,2.77-6.72.58-2.48.96-4.99,1.12-7.53.17-2.53.25-4.88.25-7.05v-14.7Zm3.7,11.35h11.55v5.45h-11.55v-5.45Zm.3-11.35h38.6v5.9h-38.6v-5.9Zm8.95,11.35h5.8v2.2c-.07,3.53-.15,6.42-.25,8.67s-.26,4-.48,5.25-.51,2.12-.88,2.62c-.5.63-1.02,1.08-1.57,1.35-.55.27-1.19.47-1.93.6-.67.13-1.51.21-2.52.23-1.02.02-2.12,0-3.32-.03-.03-.87-.2-1.83-.5-2.9-.3-1.07-.67-1.97-1.1-2.7.9.07,1.74.12,2.52.15.78.03,1.38.05,1.77.05.33,0,.62-.04.88-.12.25-.08.46-.24.62-.48.23-.3.41-.92.52-1.88.12-.95.21-2.4.28-4.35.07-1.95.12-4.54.15-7.78v-.9Zm20.9-2.8l6.1,1.45c-2.1,6.5-4.97,12.24-8.6,17.23-3.63,4.98-7.93,9.01-12.9,12.08-.27-.43-.67-.96-1.2-1.58-.53-.62-1.08-1.23-1.65-1.85-.57-.62-1.07-1.12-1.5-1.52,4.8-2.6,8.87-6.11,12.2-10.52,3.33-4.42,5.85-9.51,7.55-15.27Zm-13.55-16h6.3c-.07,4.1.05,8.12.35,12.05.3,3.93.74,7.61,1.32,11.02.58,3.42,1.28,6.43,2.08,9.05.8,2.62,1.68,4.66,2.65,6.12.97,1.47,1.95,2.2,2.95,2.2.57,0,1.01-.68,1.32-2.05.32-1.37.54-3.62.68-6.75.7.67,1.52,1.32,2.48,1.95.95.63,1.82,1.1,2.62,1.4-.3,3.1-.75,5.49-1.35,7.17-.6,1.68-1.4,2.84-2.4,3.48-1,.63-2.28.95-3.85.95-1.8,0-3.43-.62-4.88-1.85-1.45-1.23-2.73-2.95-3.85-5.15-1.12-2.2-2.08-4.78-2.88-7.75s-1.46-6.18-1.98-9.65c-.52-3.47-.9-7.07-1.15-10.82s-.39-7.54-.42-11.38Zm7.65,3.1l3.65-3.6c.93.47,1.92,1.02,2.95,1.65,1.03.63,2.02,1.27,2.97,1.9.95.63,1.73,1.25,2.33,1.85l-3.85,4c-.57-.57-1.3-1.2-2.2-1.9-.9-.7-1.87-1.39-2.9-2.08-1.03-.68-2.02-1.29-2.95-1.82Z"/>
    <path class="cls-1" d="m498.3,37.65c1.7-.33,3.65-.77,5.85-1.3,2.2-.53,4.52-1.12,6.95-1.75,2.43-.63,4.87-1.27,7.3-1.9l.75,5.7c-3.33,1-6.71,1.98-10.12,2.95-3.42.97-6.51,1.82-9.27,2.55l-1.45-6.25Zm.7-26.8h18.9v5.7h-18.9v-5.7Zm6.5,2.35h5.95v25.15h-5.95V13.2Zm20.15-6.95h6.1c-.03,4.17-.1,8.16-.2,11.98-.1,3.82-.39,7.41-.88,10.77-.48,3.37-1.25,6.5-2.3,9.4s-2.52,5.52-4.4,7.88c-1.88,2.35-4.34,4.42-7.38,6.23-.27-.5-.64-1.06-1.12-1.68-.48-.62-.99-1.22-1.52-1.8-.53-.58-1.05-1.04-1.55-1.38,2.77-1.53,4.99-3.33,6.68-5.4,1.68-2.07,2.98-4.38,3.9-6.93.92-2.55,1.56-5.33,1.92-8.35.37-3.02.58-6.25.62-9.7.05-3.45.09-7.12.12-11.02Zm-7.05,9.85h22.45v5.75h-22.45v-5.75Zm19.65,0h5.9v1.7c0,.43-.02.78-.05,1.05-.13,5.07-.28,9.38-.45,12.95-.17,3.57-.35,6.51-.55,8.83-.2,2.32-.46,4.14-.77,5.48-.32,1.33-.71,2.28-1.18,2.85-.63.93-1.29,1.58-1.98,1.93-.68.35-1.49.61-2.42.77-.87.1-1.94.17-3.23.2-1.28.03-2.61.02-3.98-.05-.03-.87-.22-1.86-.57-2.98-.35-1.12-.79-2.09-1.33-2.92,1.33.1,2.57.16,3.7.17,1.13.02,1.98.03,2.55.03.47,0,.85-.06,1.15-.18.3-.12.58-.34.85-.67.3-.37.58-1.14.83-2.33.25-1.18.47-2.88.65-5.07.18-2.2.34-4.98.48-8.35.13-3.37.27-7.42.4-12.15v-1.25Z"/>
    <path class="cls-1" d="m553.9,33.9h46.3v4.55h-46.3v-4.55Zm1.15-25.15h44v4.7h-44v-4.7Zm3.5,32h33.6v4.35h-33.6v-4.35Zm.4-13.05h36v19.55h-6.1v-15.5h-29.9v-4.05Zm1.2-12.2h33.95v9.95h-33.95v-9.95Zm5.75,3.8v2.35h22.05v-2.35h-22.05Zm7.85-13.85h6.1v41.25c0,1.47-.2,2.57-.6,3.3-.4.73-1.08,1.32-2.05,1.75-.97.37-2.16.6-3.58.7-1.42.1-3.19.15-5.33.15-.13-.7-.4-1.51-.8-2.43-.4-.92-.8-1.69-1.2-2.32.83.03,1.67.06,2.5.07.83.02,1.59.02,2.28.02h1.42c.47-.03.79-.13.98-.3.18-.17.27-.48.27-.95V5.45Z"/>
    <path class="cls-1" d="m617.5,5.55l5.55,1.65c-.93,2.9-2.06,5.83-3.38,8.78-1.32,2.95-2.75,5.75-4.3,8.4s-3.19,4.98-4.92,6.98c-.13-.5-.37-1.16-.7-1.98-.33-.82-.7-1.64-1.1-2.48-.4-.83-.75-1.52-1.05-2.05,1.33-1.6,2.62-3.43,3.88-5.48,1.25-2.05,2.39-4.26,3.42-6.62,1.03-2.37,1.9-4.77,2.6-7.2Zm-4,13.75l5.4-5.4.1.1v38.4h-5.5V19.3Zm12.75-9.75l5.7.75c-.37,2.3-.81,4.68-1.33,7.12-.52,2.45-1.15,4.85-1.9,7.2s-1.65,4.57-2.7,6.65c-1.05,2.08-2.27,3.96-3.67,5.62-.23-.43-.56-.92-.98-1.45-.42-.53-.85-1.05-1.3-1.55-.45-.5-.86-.92-1.23-1.25,1.13-1.4,2.12-3.02,2.98-4.88.85-1.85,1.57-3.83,2.15-5.92.58-2.1,1.06-4.2,1.42-6.3.37-2.1.65-4.1.85-6Zm7.6,8.75h1.1l.95-.15,3.45,1c-.9,8.13-2.62,15.01-5.18,20.62-2.55,5.62-5.76,9.84-9.62,12.67-.23-.47-.57-1-1.02-1.6-.45-.6-.92-1.18-1.4-1.73-.48-.55-.92-.98-1.33-1.27,3.63-2.47,6.55-6.09,8.75-10.88,2.2-4.78,3.63-10.62,4.3-17.53v-1.15Zm-11.3-10.65h17.8v5.25h-17.8v-5.25Zm2,24.45l2.55-4.5c.67.43,1.36.93,2.07,1.5.72.57,1.39,1.12,2.03,1.67.63.55,1.13,1.06,1.5,1.52l-2.65,5c-.33-.5-.82-1.06-1.45-1.67-.63-.62-1.3-1.23-2-1.85-.7-.62-1.38-1.17-2.05-1.67Zm3.05-13.8h8.5v5.2h-10.1l1.6-5.2Zm12.4-7h5.3v29.25h-5.3V11.3Zm8.4-4.85h5.6v39.2c0,1.57-.17,2.78-.52,3.65-.35.87-.99,1.53-1.93,2-.9.47-2.06.78-3.47.95-1.42.17-3.12.25-5.12.25-.1-.8-.33-1.77-.68-2.93-.35-1.15-.73-2.14-1.12-2.97,1.33.07,2.59.11,3.77.12,1.18.02,1.98,0,2.38-.03.4-.03.68-.12.85-.27.17-.15.25-.42.25-.82V6.45Z"/>
  </g>
</svg>