<?xml version="1.0" encoding="UTF-8"?>
<svg id="_レイヤー_1" data-name="レイヤー 1" xmlns="http://www.w3.org/2000/svg" viewBox="0 0 149.77 118.74">
  <defs>
    <style>
      .cls-1 {
        fill: #fac03d;
      }

      .cls-1, .cls-2, .cls-3, .cls-4, .cls-5, .cls-6 {
        stroke: #2f2f2f;
        stroke-linejoin: round;
      }

      .cls-1, .cls-3, .cls-4, .cls-5, .cls-6 {
        stroke-width: 2.98px;
      }

      .cls-2 {
        stroke-width: 2.98px;
      }

      .cls-2, .cls-6 {
        fill: #fff;
      }

      .cls-3 {
        fill: none;
      }

      .cls-4 {
        fill: #b0e0de;
      }

      .cls-4, .cls-6 {
        stroke-linecap: round;
      }

      .cls-5 {
        fill: #fce09e;
      }
    </style>
  </defs>
  <g>
    <rect class="cls-1" x="14.34" y="22.2" width="121.1" height="84.91" rx="10.58" ry="10.58"/>
    <rect class="cls-2" x="21.27" y="29.38" width="107.23" height="67.9"/>
    <g>
      <path class="cls-5" d="m140.08,117.25c4.53,0,8.2-3.67,8.2-8.2H1.49c0,4.53,3.67,8.2,8.2,8.2h130.39Z"/>
      <rect class="cls-2" x="1.49" y="103.75" width="146.8" height="5.3"/>
    </g>
  </g>
  <g>
    <path class="cls-4" d="m109.28,89v-5.51c-.16-40.26-18.74-39.79-35.8-39.79s-35.64-.47-35.8,39.79v5.51"/>
    <circle class="cls-4" cx="73.47" cy="25.34" r="16.74" transform="translate(31.86 90.98) rotate(-76.65)"/>
    <line class="cls-6" x1="51.87" y1="67.02" x2="51.87" y2="89"/>
    <line class="cls-6" x1="93.8" y1="67.02" x2="93.8" y2="89"/>
  </g>
  <g>
    <line class="cls-3" x1="99.43" y1="12.5" x2="108.08" y2="12.5"/>
    <line class="cls-3" x1="103.75" y1="8.18" x2="103.75" y2="16.82"/>
  </g>
  <g>
    <line class="cls-3" x1="43.3" y1="6.17" x2="55.65" y2="6.17"/>
    <line class="cls-3" x1="49.47" x2="49.47" y2="12.35"/>
  </g>
  <g>
    <line class="cls-3" x1="28.55" y1="43.07" x2="40.9" y2="43.07"/>
    <line class="cls-3" x1="34.73" y1="36.9" x2="34.73" y2="49.24"/>
  </g>
  <g>
    <line class="cls-3" x1="1.31" y1="71.84" x2="9.95" y2="71.84"/>
    <line class="cls-3" x1="5.63" y1="67.52" x2="5.63" y2="76.16"/>
  </g>
  <g>
    <line class="cls-3" x1="112.02" y1="63.33" x2="124.37" y2="63.33"/>
    <line class="cls-3" x1="118.19" y1="57.16" x2="118.19" y2="69.51"/>
  </g>
</svg>