<?xml version="1.0" encoding="UTF-8"?>
<svg id="_レイヤー_1" data-name="レイヤー 1" xmlns="http://www.w3.org/2000/svg" viewBox="0 0 147.17 148.65">
  <defs>
    <style>
      .cls-1, .cls-2, .cls-3, .cls-4 {
        fill: #fff;
      }

      .cls-5 {
        stroke: #231815;
      }

      .cls-5, .cls-2, .cls-6, .cls-7, .cls-8, .cls-3, .cls-4 {
        stroke-width: 2.98px;
      }

      .cls-5, .cls-6 {
        fill: none;
      }

      .cls-5, .cls-6, .cls-7, .cls-8, .cls-3, .cls-4 {
        stroke-linejoin: round;
      }

      .cls-2 {
        stroke-miterlimit: 10;
      }

      .cls-2, .cls-6, .cls-7, .cls-8, .cls-3, .cls-4 {
        stroke: #2f2f2f;
      }

      .cls-7 {
        fill: #b0e0de;
      }

      .cls-7, .cls-8, .cls-4 {
        stroke-linecap: round;
      }

      .cls-8 {
        fill: #fce09e;
      }

      .cls-9 {
        fill: #fac03d;
      }
    </style>
  </defs>
  <g>
    <path class="cls-1" d="m110.96,85.32c8.14-8.9,13.11-20.76,13.11-33.77,0-27.65-22.41-50.06-50.06-50.06S23.95,23.9,23.95,51.55c0,13.02,4.97,24.87,13.11,33.77l-2.59,14.18,11.92-6.2c7.92,5.25,17.41,8.31,27.62,8.31s19.7-3.06,27.62-8.31l11.92,6.2-2.59-14.18Z"/>
    <path class="cls-5" d="m110.96,85.32c8.14-8.9,13.11-20.76,13.11-33.77,0-27.65-22.41-50.06-50.06-50.06S23.95,23.9,23.95,51.55c0,13.02,4.97,24.87,13.11,33.77l-2.59,14.18,11.92-6.2c7.92,5.25,17.41,8.31,27.62,8.31s19.7-3.06,27.62-8.31l11.92,6.2-2.59-14.18Z"/>
  </g>
  <g>
    <path class="cls-8" d="m42.6,147.16v-2.62c-.11-26.95-10.74-25.73-20.56-25.73s-20.45-1.23-20.56,25.73v2.62"/>
    <circle class="cls-8" cx="22.04" cy="108.27" r="9.61"/>
    <line class="cls-4" x1="9.64" y1="135.09" x2="9.64" y2="147.16"/>
    <line class="cls-4" x1="33.71" y1="135.09" x2="33.71" y2="147.16"/>
  </g>
  <g>
    <path class="cls-7" d="m145.68,147.03v-2.62c-.11-26.95-10.74-25.73-20.56-25.73s-20.45-1.23-20.56,25.73v2.62"/>
    <circle class="cls-7" cx="125.13" cy="108.14" r="9.61"/>
    <line class="cls-4" x1="112.73" y1="134.95" x2="112.73" y2="147.03"/>
    <line class="cls-4" x1="136.79" y1="134.95" x2="136.79" y2="147.03"/>
  </g>
  <g>
    <g>
      <path class="cls-9" d="m54.66,46.76c0,11.51,5.67,11.51,8.76,21.33.96,3.04.96,6.73.96,6.73h19.27s0-3.69.96-6.73c3.08-9.81,8.76-9.81,8.76-21.33s-7.76-19.7-19.35-19.7-19.35,7.94-19.35,19.7Z"/>
      <path class="cls-6" d="m82.51,28.73c-2.5-1.09-5.36-1.67-8.5-1.67-11.58,0-19.35,7.94-19.35,19.7,0,10.56,4.77,11.44,7.94,19.08,0,0,.39.55.82,2.25.78,3.09.96,6.73.96,6.73h19.27s0-3.69.96-6.73c3.08-9.81,8.76-9.81,8.76-21.33,0-7.5-3.16-13.45-8.45-16.77l-2.4-1.26Z"/>
      <rect class="cls-4" x="67.24" y="82.36" width="13.55" height="6.02" rx="1.14" ry="1.14"/>
      <polygon class="cls-2" points="64.37 74.81 64.37 81.91 66.19 83.74 81.84 83.74 83.65 81.91 83.65 74.81 64.37 74.81"/>
      <path class="cls-3" d="m60.94,49.95c.07,1,.2,1.86.39,2.63"/>
      <path class="cls-6" d="m75.78,32.83c-9.05,0-14.9,5.99-14.9,15.25"/>
    </g>
    <line class="cls-6" x1="74.01" y1="11.59" x2="74.01" y2="20.71"/>
    <line class="cls-6" x1="54.32" y1="17.89" x2="59.68" y2="25.27"/>
    <line class="cls-6" x1="42.08" y1="34.56" x2="50.76" y2="37.38"/>
    <line class="cls-6" x1="93.71" y1="17.89" x2="88.34" y2="25.27"/>
    <line class="cls-6" x1="105.94" y1="34.56" x2="97.26" y2="37.38"/>
  </g>
</svg>