<?xml version="1.0" encoding="UTF-8"?>
<svg id="_レイヤー_1" data-name="レイヤー 1" xmlns="http://www.w3.org/2000/svg" viewBox="0 0 327.3 58">
  <defs>
    <style>
      .cls-1 {
        fill: #fff;
      }

      .cls-2 {
        fill: #21a48f;
      }
    </style>
  </defs>
  <g>
    <path class="cls-2" d="m22.2,55.95c-4.42,0-8.07-.5-11.14-1.54-3.43-1.15-6.13-2.92-8.02-5.24-2.02-2.49-3.04-5.51-3.04-8.97,0-1.74.15-3.4.44-4.92.23-1.2.42-2.25.59-3.17.43-2.4,2.52-4.11,4.92-4.11.15,0,.3,0,.46.02l6.6.6c1.47.13,2.81.91,3.65,2.12.84,1.21,1.11,2.73.73,4.16-.21.76-.38,1.51-.52,2.23-.08.4-.13.81-.15,1.21.02.02.05.03.08.05.13.08,1.32.76,5.16.76,2.13,0,4.21-.08,6.18-.23,2-.16,3.88-.37,5.62-.63,1.66-.25,3.15-.56,4.44-.91.43-.12.87-.18,1.31-.18,1.08,0,2.14.35,3.02,1.02,1.24.94,1.97,2.4,1.98,3.95l.05,7c.02,2.34-1.59,4.38-3.87,4.91-1.56.36-3.34.69-5.28.98-1.94.28-4.03.51-6.22.67-2.19.16-4.54.24-6.98.24Zm-.2-31.35c-2.69,0-5.22-.06-7.51-.18-2.26-.12-4.41-.24-6.47-.38-2.63-.17-4.67-2.36-4.67-4.99v-6.65c0-1.44.62-2.8,1.7-3.75.92-.81,2.09-1.25,3.3-1.25.21,0,.42.01.63.04,1.68.21,3.63.37,5.79.46,2.21.1,4.63.14,7.18.14,1.62,0,3.27-.03,4.91-.1.69-.03,1.37-.06,2.04-.09.03-.15.07-.3.11-.45.44-1.45,1.51-2.63,2.91-3.2l3.95-1.6c.43-.17.87-.28,1.3-.33.21-.12.43-.23.67-.33l4-1.6c.6-.24,1.23-.36,1.85-.36,1.61,0,3.18.78,4.13,2.18.49.71,1.01,1.54,1.56,2.45.5.84,1,1.67,1.49,2.5.56.95,1,1.74,1.35,2.44.62,1.23.7,2.67.22,3.96s-1.47,2.33-2.74,2.88l-4,1.7c-.51.22-1.03.34-1.55.38-.14.08-.28.14-.42.21l-2.33,1.01c-.33,2.33-2.25,4.16-4.66,4.29-1.16.07-2.57.15-4.21.25-1.69.1-3.44.19-5.26.25-1.81.07-3.58.1-5.26.1Z"/>
    <path class="cls-2" d="m87.15,57.7c-2.54,0-4.67-1.9-4.97-4.42-.02-.14-.07-.48-.26-1.08-.2-.65-.43-1.32-.68-1.96-.21-.55-.41-1.02-.62-1.41-.69-1.31-.76-2.85-.22-4.2-.07-.03-.14-.05-.21-.08-.9,1.03-2.2,1.64-3.59,1.69-.05,0-.11,0-.17,0-.1,0-.2,0-.3,0v6.41c0,2.76-2.24,5-5,5h-5.85c-2.76,0-5-2.24-5-5v-1.96c-.79.5-1.71.76-2.65.76-.37,0-.75-.04-1.12-.13-1.7-.39-3.08-1.64-3.63-3.3-.11-.34-.29-.74-.53-1.21-.35-.67-.71-1.34-1.08-2.02-.33-.61-.64-1.14-.93-1.61-1.25-2-.93-4.6.77-6.24.89-.86,1.79-1.88,2.69-3.05.66-.85,1.3-1.76,1.92-2.71-2.75-.01-4.98-2.25-4.98-5v-5.55c0-1.32.51-2.52,1.35-3.41-.06-.22-.11-.45-.15-.68-.02-.14-.1-.53-.39-1.28-.36-.89-.62-1.42-.78-1.7-.79-1.42-.84-3.14-.13-4.6.71-1.46,2.08-2.49,3.68-2.76,1.78-.3,3.58-.62,5.36-.97,1.79-.35,3.56-.74,5.26-1.15,1.65-.4,3.23-.84,4.68-1.31,1.37-.44,2.6-.9,3.63-1.38.67-.31,1.38-.46,2.09-.46,1.37,0,2.71.56,3.67,1.61l3.97,4.29h4.96c.36,0,.71.04,1.05.11v-.26c0-2.76,2.24-5,5-5h5.95c2.76,0,5,2.24,5,5v38.7c0,2.51-.35,4.5-1.07,6.09-.9,1.98-2.48,3.56-4.55,4.56-.04.02-.08.04-.12.06-1.56.71-3.41,1.15-5.66,1.35-1.8.16-3.96.25-6.4.25Z"/>
    <path class="cls-2" d="m114.2,57.99c-1.48-.07-2.85-.8-3.74-1.98-.02-.03-.17-.19-.56-.52-.54-.45-1.08-.88-1.64-1.3-.61-.46-.98-.71-1.19-.83-1.27-.78-2.12-2.09-2.33-3.56s.25-2.96,1.25-4.06c1.01-1.11,1.78-2.29,2.37-3.62.65-1.47,1.13-3.02,1.44-4.6.34-1.72.56-3.46.67-5.18.11-1.85.17-3.62.17-5.28V9.1c0-2.76,2.24-5,5-5h38c2.76,0,5,2.24,5,5v36.55c0,2.34-.34,4.24-1.04,5.79-.9,1.99-2.51,3.55-4.64,4.52-1.5.7-3.31,1.14-5.49,1.33-1.4.12-3.05.18-4.91.18-.45,0-.91,0-1.38-.01-.86-.01-1.68-.24-2.39-.64-.53.19-1.1.29-1.69.29h-6.05c-2.76,0-5-2.24-5-5v-9h-1.17c-.54,2.16-1.25,4.25-2.14,6.24-1.17,2.62-2.72,4.99-4.61,7.05-.95,1.03-2.29,1.62-3.68,1.62-.08,0-.17,0-.25,0Z"/>
    <path class="cls-2" d="m190.85,55.6c-1.7,0-3.3-.87-4.23-2.33l-2.29-3.64c-2.23,1.62-4.78,2.47-7.43,2.47-3,0-5.76-1-8.21-2.98-2.2-1.77-3.94-4.18-5.18-7.14-1.17-2.8-1.76-5.97-1.76-9.42s.74-7.06,2.2-10.27c1.43-3.14,3.44-5.96,5.98-8.38,2.53-2.41,5.51-4.32,8.86-5.68,3.37-1.37,7.04-2.07,10.91-2.07s7.17.63,10.24,1.86c3.1,1.25,5.81,3.02,8.04,5.25,2.25,2.25,3.99,4.91,5.17,7.9,1.16,2.95,1.75,6.14,1.75,9.49,0,4.29-.91,8.23-2.71,11.7-1.84,3.54-4.57,6.49-8.12,8.76-3.39,2.16-7.57,3.65-12.43,4.42-.26.04-.53.06-.79.06Zm5.54-30.92c-.52,2.5-1.18,5.05-1.96,7.58-.63,2.21-1.36,4.28-2.16,6.18.55-.21,1.07-.45,1.57-.72.91-.49,1.67-1.08,2.34-1.8.61-.66,1.08-1.42,1.44-2.34.36-.91.54-1.97.54-3.14,0-1.37-.2-2.61-.59-3.68-.29-.79-.67-1.48-1.17-2.09Z"/>
    <path class="cls-2" d="m236.65,57.55c-.28,0-.57-.02-.85-.07-1.35-.23-2.55-1.01-3.31-2.15,0,0-.13-.2-.53-.59-.23-.23-.46-.45-.71-.67-.09.16-.18.31-.27.47-.7,1.23-1.89,2.1-3.27,2.4-.35.08-.71.12-1.07.12-1.03,0-2.05-.32-2.91-.93l-5.25-3.75c-2.17-1.55-2.74-4.52-1.3-6.77.79-1.24,1.71-2.73,2.71-4.42,1-1.69,2.03-3.52,3.06-5.42.62-1.15,1.23-2.31,1.81-3.47-.24-.17-.53-.37-.88-.59-.91-.57-1.9-1.14-2.93-1.67-1-.52-1.98-.98-2.89-1.35-1.41-.57-2.48-1.76-2.91-3.22s-.17-3.04.71-4.29l3.2-4.55c.49-.7,1.14-1.24,1.87-1.6-.05-.02-.09-.04-.14-.06-1.38-.62-2.4-1.83-2.78-3.29-.38-1.46-.08-3.02.82-4.23l3.25-4.4c.96-1.3,2.47-2.03,4.02-2.03.61,0,1.22.11,1.81.34,1.16.45,2.4,1,3.68,1.63,1.26.62,2.46,1.26,3.57,1.9,1.1.63,2.04,1.27,2.84,1.94h4.15v-1.05c0-2.76,2.24-5,5-5h6.1c2.76,0,5,2.24,5,5v1.05h8.35c2.76,0,5,2.24,5,5v5.35c0,1.83-.99,3.44-2.46,4.31,1.14,1.48,2.06,2.91,2.73,4.26,1.21,2.42.27,5.37-2.11,6.65l-3.81,2.04v2.14c.38.2.73.45,1.05.75.02.02.24.21.82.52.56.3,1.05.52,1.48.67,2.06.72,3.41,2.69,3.35,4.87-.04,1.21-.12,2.46-.25,3.71-.14,1.4-.3,2.42-.5,3.2-.02.1-.05.19-.08.29-.71,2.26-2.07,4.03-3.95,5.12-.74.45-1.64.79-2.69,1.03-.89.2-1.75.3-2.58.3h-2.6c-1.08,0-2.19-.18-3.31-.53-.92-.29-1.76-.71-2.5-1.25-.56.21-1.16.33-1.79.33h-5.25c-1.67,0-3.15-.82-4.06-2.08-1,1.09-2.15,2.12-3.45,3.09-.87.65-1.92.99-2.99.99Z"/>
    <path class="cls-2" d="m285.5,55.8c-1.42,0-2.78-.61-3.72-1.67-.95-1.06-1.4-2.47-1.25-3.89,0-.03,0-.06.01-.1-.32.07-.66.1-.99.1h-.02c-1.59,0-3.09-.78-4.02-2.07l-3.95-5.45c-1.31-1.81-1.26-4.28.13-6.04.62-.79,1.34-1.7,2.15-2.74.8-1.04,1.65-2.14,2.54-3.31.65-.86,1.29-1.71,1.92-2.56-.08,0-.16.02-.24.03-.2.02-.4.04-.6.04-1.13,0-2.23-.38-3.12-1.1-1.05-.84-1.72-2.06-1.85-3.4l-.65-6.4c-.15-1.45.34-2.88,1.34-3.94.95-1,2.26-1.56,3.63-1.56.08,0,.15,0,.23,0,.41.02.81.03,1.19.03.18,0,.36,0,.53,0,.6-.02,1.3-.04,2.1-.07.4-.03.83-.07,1.3-.12v-1.61c0-.46-.04-.94-.13-1.42-.26-1.48.17-3,1.16-4.14.95-1.09,2.33-1.72,3.77-1.72.06,0,7.47.25,7.47.25,1.52.05,2.93.79,3.84,2.01s1.21,2.78.83,4.25c-.11.41-.28,1.23-.52,2.8,0,0,0,.01,0,.02.81-.4,1.63-.75,2.45-1.06,1.98-.74,3.96-1.12,5.89-1.12,2.67,0,4.98.55,6.89,1.62,2.02,1.14,3.55,2.73,4.57,4.74.92,1.82,1.39,3.85,1.39,6.04,0,1.47-.09,3.07-.28,4.77-.17,1.57-.38,3.19-.63,4.82-.14.93-.26,1.86-.37,2.78.88-.67,1.94-1.02,3.03-1.02.54,0,1.08.09,1.61.27,1.83.62,3.14,2.25,3.35,4.17l.8,7.05c.18,1.59-.41,3.17-1.59,4.25-1.54,1.41-3.34,2.59-5.34,3.51-2.18,1-4.68,1.5-7.43,1.5-3.31,0-6.17-1.26-8.27-3.64-1.98-2.24-2.98-5.24-2.98-8.91,0-1.52.1-3.17.31-4.91.18-1.57.4-3.19.64-4.82.23-1.53.43-2.99.61-4.38.05-.4.09-.78.13-1.15-1.08.64-2.21,1.46-3.37,2.44-1.1.93-2.18,1.93-3.2,2.97-.02.69-.03,1.36-.03,2.01,0,1.35,0,2.71.02,4.09.02,1.38.04,2.8.07,4.25.03,1.38.1,2.84.19,4.35.03.36.08.95.14,1.71.06.73.12,1.35.18,1.87.17,1.42-.28,2.84-1.23,3.9-.95,1.07-2.31,1.68-3.74,1.68h-6.9Z"/>
  </g>
  <g>
    <path class="cls-1" d="m12.55,33.6c-.23.87-.43,1.72-.6,2.55-.17.83-.25,1.67-.25,2.5,0,1.63.81,2.96,2.42,3.97,1.62,1.02,4.22,1.53,7.83,1.53,2.27,0,4.46-.08,6.57-.25s4.11-.39,5.98-.68c1.87-.28,3.53-.62,5-1.02l.05,7c-1.43.33-3.06.63-4.88.9-1.82.27-3.77.48-5.85.62-2.08.15-4.29.23-6.62.23-3.83,0-7.02-.42-9.55-1.28-2.53-.85-4.44-2.07-5.72-3.65s-1.92-3.53-1.92-5.83c0-1.43.12-2.76.35-3.98.23-1.22.43-2.29.6-3.22l6.6.6Zm-4.2-21.2c1.83.23,3.9.4,6.2.5,2.3.1,4.77.15,7.4.15,1.67,0,3.37-.03,5.1-.1,1.73-.07,3.42-.16,5.05-.28,1.63-.12,3.08-.22,4.35-.33v6.65c-1.17.07-2.58.15-4.23.25-1.65.1-3.37.18-5.15.25-1.78.07-3.48.1-5.08.1-2.6,0-5.02-.06-7.25-.17-2.23-.12-4.37-.24-6.4-.38v-6.65Zm29.4-5.15c.43.6.89,1.32,1.38,2.15.48.83.96,1.67,1.42,2.5s.87,1.57,1.2,2.2l-4.05,1.75c-.5-1.03-1.11-2.22-1.83-3.55-.72-1.33-1.41-2.48-2.08-3.45l3.95-1.6Zm5.95-2.25c.43.63.9,1.37,1.4,2.2s.99,1.66,1.48,2.47c.48.82.88,1.53,1.17,2.12l-4,1.7c-.53-1.03-1.17-2.21-1.9-3.53-.73-1.32-1.45-2.44-2.15-3.38l4-1.6Z"/>
    <path class="cls-1" d="m65.25,23.25l4.05,1.8c-.63,1.87-1.38,3.79-2.22,5.78-.85,1.98-1.78,3.93-2.78,5.85-1,1.92-2.06,3.72-3.17,5.4-1.12,1.68-2.28,3.14-3.48,4.38-.2-.6-.48-1.25-.85-1.95-.37-.7-.74-1.4-1.12-2.1-.38-.7-.74-1.32-1.08-1.85,1.07-1.03,2.12-2.23,3.17-3.6,1.05-1.37,2.05-2.83,3-4.38.95-1.55,1.81-3.12,2.58-4.73.77-1.6,1.4-3.13,1.9-4.6Zm10.1-17.3l4.25,4.6c-2.1.83-4.43,1.58-7,2.25-2.57.67-5.19,1.25-7.88,1.75-2.68.5-5.29.93-7.83,1.3-.1-.7-.33-1.51-.7-2.42-.37-.92-.72-1.67-1.05-2.27,1.8-.3,3.63-.63,5.5-1s3.69-.77,5.48-1.2c1.78-.43,3.46-.9,5.02-1.4s2.97-1.03,4.2-1.6Zm-19.6,14.7h23.95v5.55h-23.95v-5.55Zm9.55-9.95h5.85v41.95h-5.85V10.7Zm5,17.6c.47.33,1.15.86,2.05,1.58.9.72,1.87,1.49,2.9,2.33,1.03.83,1.97,1.61,2.83,2.33.85.72,1.46,1.22,1.82,1.52l-3.45,5.2c-.53-.7-1.2-1.49-2-2.38-.8-.88-1.64-1.79-2.53-2.72-.88-.93-1.74-1.81-2.58-2.62s-1.57-1.51-2.2-2.08l3.15-3.15Zm11.85-16.45h5.8v28.1h-5.8V11.85Zm11.85-5.15h5.95v38.7c0,1.77-.21,3.11-.62,4.02-.42.92-1.14,1.62-2.18,2.12-1.03.47-2.38.78-4.05.92-1.67.15-3.65.23-5.95.23-.07-.57-.22-1.23-.45-1.98-.23-.75-.49-1.5-.78-2.25s-.58-1.41-.88-1.97c1.63.07,3.18.11,4.65.12,1.47.02,2.45.03,2.95.03.47-.03.81-.14,1.03-.33.22-.18.33-.51.33-.98V6.7Z"/>
    <path class="cls-1" d="m115.65,9.1h5.9v18c0,1.97-.08,4.12-.25,6.45-.17,2.33-.49,4.67-.97,7.03-.48,2.35-1.2,4.59-2.15,6.72s-2.19,4.03-3.72,5.7c-.3-.4-.75-.85-1.35-1.35-.6-.5-1.21-.98-1.83-1.45-.62-.47-1.14-.83-1.57-1.1,1.37-1.5,2.45-3.16,3.25-4.97.8-1.82,1.39-3.7,1.77-5.65.38-1.95.63-3.9.75-5.85.12-1.95.17-3.81.17-5.58V9.1Zm3.35,23.35h31.05v5.65h-31.05v-5.65Zm.1-23.35h30.65v5.75h-30.65v-5.75Zm0,11.55h30.75v5.6h-30.75v-5.6Zm11.95-9.25h6.05v40.7h-6.05V11.4Zm16.6-2.3h6v36.55c0,1.6-.2,2.84-.6,3.72-.4.88-1.12,1.56-2.15,2.03-1,.47-2.28.77-3.85.9-1.57.13-3.5.18-5.8.15-.1-.8-.35-1.77-.75-2.9-.4-1.13-.8-2.08-1.2-2.85.97.03,1.93.06,2.9.08.97.02,1.82.02,2.57.02h1.62c.47,0,.79-.08.98-.25.18-.17.27-.48.27-.95V9.1Z"/>
    <path class="cls-1" d="m193.1,14c-.33,2.53-.77,5.23-1.3,8.1-.53,2.87-1.25,5.77-2.15,8.7-.97,3.37-2.1,6.27-3.4,8.7-1.3,2.43-2.73,4.31-4.28,5.62-1.55,1.32-3.24,1.97-5.08,1.97s-3.52-.62-5.07-1.88c-1.55-1.25-2.78-2.97-3.7-5.17-.92-2.2-1.38-4.7-1.38-7.5s.58-5.63,1.75-8.2c1.17-2.57,2.79-4.84,4.88-6.82,2.08-1.98,4.52-3.54,7.3-4.68,2.78-1.13,5.79-1.7,9.03-1.7s5.89.5,8.38,1.5c2.48,1,4.61,2.38,6.38,4.15,1.77,1.77,3.12,3.83,4.05,6.2.93,2.37,1.4,4.92,1.4,7.65,0,3.5-.72,6.63-2.15,9.4-1.43,2.77-3.56,5.05-6.38,6.85-2.82,1.8-6.33,3.03-10.53,3.7l-3.75-5.95c.97-.1,1.82-.22,2.55-.35.73-.13,1.43-.28,2.1-.45,1.6-.4,3.09-.97,4.47-1.72,1.38-.75,2.59-1.68,3.62-2.8,1.03-1.12,1.84-2.42,2.42-3.92s.88-3.15.88-4.95c0-1.97-.3-3.77-.9-5.4-.6-1.63-1.48-3.06-2.65-4.27s-2.58-2.15-4.25-2.8c-1.67-.65-3.58-.97-5.75-.97-2.67,0-5.02.47-7.05,1.42s-3.75,2.17-5.15,3.67c-1.4,1.5-2.46,3.12-3.17,4.85s-1.08,3.38-1.08,4.95c0,1.67.2,3.06.6,4.17.4,1.12.89,1.95,1.47,2.5s1.21.83,1.88.83c.7,0,1.39-.36,2.08-1.08.68-.72,1.36-1.81,2.03-3.28.67-1.47,1.33-3.32,2-5.55.77-2.4,1.42-4.97,1.95-7.7.53-2.73.92-5.4,1.15-8l6.8.2Z"/>
    <path class="cls-1" d="m219.95,24.05l3.2-4.55c1.07.37,2.18.82,3.35,1.35,1.17.53,2.28,1.1,3.35,1.7,1.07.6,1.93,1.18,2.6,1.75l-3.45,5c-.6-.57-1.42-1.17-2.45-1.83-1.03-.65-2.12-1.27-3.28-1.88-1.15-.6-2.26-1.12-3.32-1.55Zm1.45,24.25c.83-1.3,1.77-2.83,2.8-4.58,1.03-1.75,2.08-3.61,3.15-5.57,1.07-1.97,2.07-3.93,3-5.9l4.55,3.75c-.83,1.77-1.71,3.58-2.62,5.45-.92,1.87-1.85,3.69-2.8,5.47-.95,1.78-1.89,3.49-2.83,5.12l-5.25-3.75Zm1.45-37.9l3.25-4.4c1.03.4,2.12.88,3.28,1.45,1.15.57,2.25,1.15,3.3,1.75,1.05.6,1.89,1.2,2.53,1.8l-3.45,4.9c-.6-.6-1.4-1.23-2.4-1.9-1-.67-2.08-1.32-3.22-1.95-1.15-.63-2.24-1.18-3.28-1.65Zm16,19.55h5.35v4.95c0,1.4-.08,2.87-.23,4.4-.15,1.53-.48,3.08-1,4.65-.52,1.57-1.27,3.08-2.27,4.52-1,1.45-2.35,2.81-4.05,4.08-.27-.4-.65-.85-1.15-1.35s-1.03-.98-1.58-1.45-1.06-.83-1.53-1.1c1.93-1.4,3.35-2.9,4.25-4.5.9-1.6,1.49-3.22,1.78-4.85.28-1.63.42-3.17.42-4.6v-4.75Zm-3.9-18.15h31.65v5.35h-31.65v-5.35Zm.3,11.3c2.2-.03,4.73-.09,7.6-.17,2.87-.08,5.9-.17,9.1-.25,3.2-.08,6.38-.19,9.55-.33l-.15,5.05c-3,.17-6.02.33-9.08.5-3.05.17-5.97.32-8.77.45-2.8.13-5.35.25-7.65.35l-.6-5.6Zm9.05-8.35l6.3,1.8c-.63,1.17-1.28,2.35-1.95,3.55-.67,1.2-1.32,2.34-1.95,3.43-.63,1.08-1.23,2.04-1.8,2.88l-4.85-1.7c.53-.9,1.07-1.93,1.6-3.1.53-1.17,1.04-2.35,1.53-3.55.48-1.2.86-2.3,1.12-3.3Zm2.85-9h6.1v8.6h-6.1V5.75Zm0,24.7h5.25v20.1h-5.25v-20.1Zm7-10.65l4.6-2.4c1.1,1,2.21,2.12,3.33,3.38,1.12,1.25,2.15,2.49,3.1,3.72.95,1.23,1.69,2.38,2.22,3.45l-5.05,2.7c-.43-1-1.1-2.13-2-3.4-.9-1.27-1.89-2.55-2.97-3.85-1.08-1.3-2.16-2.5-3.23-3.6Zm1.25,10.15h5.55v15.6c0,.83.05,1.32.15,1.45.07.07.14.12.23.17.08.05.17.08.27.08h.8c.13,0,.27-.02.4-.05.13-.03.22-.08.25-.15.17-.1.3-.53.4-1.3.03-.4.06-1.02.07-1.85s.04-1.82.08-2.95c.47.43,1.09.86,1.88,1.27.78.42,1.51.74,2.17.98-.03,1.1-.11,2.22-.22,3.35-.12,1.13-.24,1.97-.38,2.5-.33,1.07-.9,1.83-1.7,2.3-.33.2-.76.36-1.27.48-.52.12-1.01.17-1.48.17h-2.6c-.57,0-1.17-.1-1.8-.3-.63-.2-1.15-.52-1.55-.95-.43-.43-.75-1.01-.95-1.72-.2-.72-.3-1.93-.3-3.62v-15.45Z"/>
    <path class="cls-1" d="m287.75,21.8c-.53.07-1.22.15-2.05.25-.83.1-1.73.22-2.68.35-.95.13-1.91.27-2.88.4-.97.13-1.87.25-2.7.35l-.65-6.4c.73.03,1.42.04,2.08.03.65-.02,1.41-.04,2.27-.08.8-.07,1.76-.16,2.88-.28,1.12-.12,2.25-.26,3.4-.42,1.15-.17,2.22-.35,3.22-.55s1.78-.4,2.35-.6l2,2.55c-.3.4-.64.9-1.03,1.5-.38.6-.77,1.21-1.17,1.82-.4.62-.75,1.16-1.05,1.62l-2.95,9.4c-.53.77-1.19,1.73-1.97,2.9-.78,1.17-1.61,2.4-2.48,3.7-.87,1.3-1.72,2.55-2.55,3.75-.83,1.2-1.58,2.25-2.25,3.15l-3.95-5.45c.63-.8,1.36-1.72,2.17-2.77.82-1.05,1.68-2.17,2.58-3.35.9-1.18,1.78-2.37,2.65-3.55.87-1.18,1.67-2.3,2.42-3.35.75-1.05,1.38-1.96,1.88-2.73l.1-1.3.35-.95Zm-.6-9.6v-2.23c0-.75-.07-1.51-.2-2.27l7.3.25c-.2.77-.41,1.88-.62,3.33-.22,1.45-.43,3.11-.65,4.97-.22,1.87-.42,3.83-.6,5.88-.18,2.05-.33,4.09-.45,6.12-.12,2.03-.17,3.93-.17,5.7,0,1.37,0,2.75.02,4.15.02,1.4.04,2.83.08,4.3s.1,2.98.2,4.55c.03.43.08,1.04.15,1.83.07.78.13,1.46.2,2.02h-6.9c.07-.6.11-1.27.12-2,.02-.73.02-1.3.02-1.7.03-1.63.07-3.15.1-4.55.03-1.4.06-2.88.08-4.45.02-1.57.06-3.38.12-5.45.03-.77.08-1.74.15-2.93.07-1.18.14-2.48.23-3.9.08-1.42.17-2.86.27-4.33.1-1.47.19-2.84.28-4.12.08-1.28.15-2.38.2-3.3.05-.92.07-1.54.07-1.88Zm35.15,33.45c-1.17,1.07-2.52,1.95-4.05,2.65-1.53.7-3.32,1.05-5.35,1.05-1.87,0-3.38-.65-4.52-1.95-1.15-1.3-1.73-3.17-1.73-5.6,0-1.33.09-2.77.28-4.33.18-1.55.39-3.11.62-4.67.23-1.57.44-3.06.62-4.47.18-1.42.28-2.69.28-3.83,0-1.23-.3-2.16-.9-2.78-.6-.62-1.43-.92-2.5-.92-1.17,0-2.47.41-3.9,1.23s-2.9,1.86-4.4,3.12-2.92,2.62-4.28,4.05c-1.35,1.43-2.52,2.8-3.52,4.1l-.05-7.7c.6-.67,1.39-1.45,2.38-2.35s2.1-1.83,3.35-2.8,2.57-1.88,3.95-2.73c1.38-.85,2.78-1.54,4.2-2.07s2.79-.8,4.12-.8c1.8,0,3.28.33,4.43.98,1.15.65,2.01,1.53,2.57,2.65.57,1.12.85,2.38.85,3.78,0,1.3-.08,2.71-.25,4.22-.17,1.52-.37,3.06-.6,4.62-.23,1.57-.42,3.12-.57,4.65-.15,1.53-.23,2.93-.23,4.2,0,.67.17,1.21.5,1.62s.8.62,1.4.62c.93,0,1.97-.31,3.1-.92,1.13-.62,2.27-1.51,3.4-2.68l.8,7.05Z"/>
  </g>
</svg>