<?xml version="1.0" encoding="UTF-8"?>
<svg id="_レイヤー_1" data-name="レイヤー 1" xmlns="http://www.w3.org/2000/svg" viewBox="0 0 138.88 136.96">
  <defs>
    <style>
      .cls-1 {
        fill: #fac03d;
      }

      .cls-1, .cls-2, .cls-3, .cls-4, .cls-5, .cls-6 {
        stroke: #2f2f2f;
      }

      .cls-1, .cls-2, .cls-3, .cls-4, .cls-6 {
        stroke-linejoin: round;
      }

      .cls-1, .cls-3, .cls-4 {
        stroke-width: 2.98px;
      }

      .cls-2, .cls-5, .cls-6 {
        fill: #fff;
        stroke-width: 2.98px;
      }

      .cls-3 {
        fill: #61c1be;
      }

      .cls-4 {
        fill: #b0e0de;
      }

      .cls-4, .cls-6 {
        stroke-linecap: round;
      }

      .cls-5 {
        stroke-miterlimit: 10;
      }
    </style>
  </defs>
  <g>
    <g>
      <path class="cls-2" d="m57.23,54.72c-1.88-1.58-4.58-1.47-6.35.13l3.46-4.2c1.7-2.06,1.4-5.1-.66-6.8-2.06-1.69-5.1-1.4-6.8.66l-1.6,1.95,1.77-2.67c1.47-2.22.86-5.22-1.36-6.69-2.22-1.47-5.22-.86-6.69,1.36l-1.29,1.94c.07-1.71-.75-3.4-2.32-4.34-2.29-1.37-5.26-.63-6.63,1.65l-15.55,25.89-2.18-9.4c-.6-2.6-3.2-4.22-5.8-3.61-2.6.6-4.22,3.2-3.61,5.8l3.88,16.73v8.79c0,1.28.51,2.51,1.41,3.42l5.53,5.53v22.62h27.13v-15.32s8.86-12.18,8.86-18.72v-6.78l9.39-11.14c1.72-2.04,1.46-5.09-.58-6.81Z"/>
      <rect class="cls-2" x="11.04" y="102.96" width="29.33" height="16.99"/>
      <polyline class="cls-4" points="8.4 135.47 8.4 107.57 43.01 107.57 43.01 135.47"/>
    </g>
    <line class="cls-6" x1="37.7" y1="40.41" x2="27.95" y2="55.65"/>
    <line class="cls-6" x1="45.27" y1="46.46" x2="35.05" y2="61.7"/>
    <line class="cls-6" x1="50.88" y1="54.85" x2="41.95" y2="66.76"/>
  </g>
  <g>
    <rect class="cls-3" x="17.52" y="1.49" width="109.18" height="71.5" rx="2.62" ry="2.62"/>
    <rect class="cls-2" x="22.95" y="6.92" width="98.33" height="60.65"/>
  </g>
  <g>
    <path class="cls-2" d="m134.06,88.83c1.74-3.32,3.2-6.91,3.2-9.57v-7.62c.08-.35.13-.71.13-1.08v-4.13c0-2.67-2.16-4.83-4.83-4.83-1.64,0-3.08.82-3.95,2.06v-3.73c0-2.67-2.16-4.83-4.83-4.83-1.64,0-3.08.82-3.95,2.06v-1.95c0-2.67-2.16-4.83-4.83-4.83-1.88,0-3.49,1.08-4.29,2.65v-17.29c0-2.67-2.16-4.83-4.83-4.83s-4.83,2.16-4.83,4.83v28.95l-2.8-6.35c-1.08-2.44-3.93-3.55-6.37-2.47-2.44,1.08-3.55,3.93-2.47,6.37l4.92,11.16v8.32c0,1.28.51,2.51,1.41,3.42l5.53,5.53v22.62h27.13v-15.32s1.61-2.21,3.45-5.25l2.21-3.9Z"/>
    <rect class="cls-2" x="99.88" y="102.78" width="29.33" height="16.99"/>
    <polyline class="cls-4" points="97.25 135.3 97.25 107.4 131.85 107.4 131.85 135.3"/>
  </g>
  <path class="cls-6" d="m21.07,86.53s2.17-5.82-1.78-12.7c-3.94-6.88-4.77-4.69-6.15-10.22"/>
  <circle class="cls-5" cx="72.11" cy="36.59" r="20.17"/>
  <polygon class="cls-1" points="64.19 48.2 84.99 36.59 64.19 24.99 64.19 48.2"/>
</svg>