<?xml version="1.0" encoding="UTF-8"?>
<svg id="_レイヤー_1" data-name="レイヤー 1" xmlns="http://www.w3.org/2000/svg" viewBox="0 0 138.42 134.98">
  <defs>
    <style>
      .cls-1 {
        stroke-width: 2.98px;
      }

      .cls-1, .cls-2, .cls-3, .cls-4, .cls-5, .cls-6, .cls-7, .cls-8 {
        stroke: #2f2f2f;
      }

      .cls-1, .cls-2, .cls-3, .cls-4, .cls-6, .cls-7, .cls-8 {
        stroke-linejoin: round;
      }

      .cls-1, .cls-6, .cls-8 {
        fill: #fff;
      }

      .cls-2 {
        fill: #61c1be;
      }

      .cls-2, .cls-3, .cls-4, .cls-5, .cls-6, .cls-7, .cls-8 {
        stroke-width: 2.98px;
      }

      .cls-3, .cls-5 {
        fill: none;
      }

      .cls-4 {
        fill: #fac03d;
      }

      .cls-4, .cls-5, .cls-8 {
        stroke-linecap: round;
      }

      .cls-5 {
        stroke-miterlimit: 10;
      }

      .cls-7 {
        fill: #fce09e;
      }
    </style>
  </defs>
  <g>
    <rect class="cls-1" x="10.62" y="1.49" width="83.04" height="109.77"/>
    <g>
      <g>
        <polygon class="cls-1" points="1.49 11.79 71.52 11.79 84.53 24.8 84.53 121.56 1.49 121.56 1.49 11.79"/>
        <polygon class="cls-1" points="84.53 24.8 71.52 24.8 71.52 11.79 84.53 24.8"/>
      </g>
      <line class="cls-5" x1="14.84" y1="90.86" x2="54.58" y2="90.86"/>
      <line class="cls-5" x1="14.84" y1="97.81" x2="27.2" y2="97.81"/>
      <line class="cls-5" x1="34.23" y1="97.81" x2="70.21" y2="97.81"/>
      <line class="cls-5" x1="64.91" y1="104.76" x2="70.21" y2="104.76"/>
      <line class="cls-5" x1="14.84" y1="104.76" x2="60.08" y2="104.76"/>
      <line class="cls-5" x1="14.84" y1="111.7" x2="39.55" y2="111.7"/>
      <line class="cls-5" x1="60.08" y1="90.86" x2="70.21" y2="90.86"/>
    </g>
    <g>
      <circle class="cls-4" cx="43.01" cy="52.25" r="29.7" transform="translate(-16.72 20.44) rotate(-22.5)"/>
      <path class="cls-8" d="m43.01,51.51c-9.01,0-18.81,1.46-18.9,23.65,5.13,4.24,11.72,6.79,18.9,6.79s13.76-2.55,18.9-6.79c-.09-22.18-9.89-23.65-18.9-23.65Z"/>
      <circle class="cls-8" cx="43.01" cy="39.88" r="8.84"/>
      <line class="cls-8" x1="31.61" y1="66.47" x2="31.61" y2="79.52"/>
      <line class="cls-8" x1="53.73" y1="66.47" x2="53.73" y2="79.52"/>
    </g>
  </g>
  <g>
    <rect class="cls-1" x="101.27" y="92.92" width="4.47" height="14.28" transform="translate(-40.44 102.5) rotate(-45)"/>
    <rect class="cls-7" x="116.6" y="96.13" width="6.88" height="40.92" transform="translate(-47.28 119.03) rotate(-45)"/>
    <circle class="cls-2" cx="80.45" cy="76.36" r="28.12"/>
    <circle class="cls-6" cx="80.45" cy="76.36" r="20.92"/>
    <path class="cls-1" d="m72.62,89.26c.83.56,1.71,1.02,2.61,1.4"/>
    <path class="cls-3" d="m70.26,65.46c-6.04,6.04-6.04,15.82,0,21.86"/>
  </g>
</svg>