<?xml version="1.0" encoding="UTF-8"?>
<svg id="_レイヤー_1" data-name="レイヤー 1" xmlns="http://www.w3.org/2000/svg" viewBox="0 0 443.5 398.58">
  <defs>
    <style>
      .cls-1 {
        fill: #fff;
      }

      .cls-2 {
        fill: #f794c9;
      }
    </style>
  </defs>
  <g>
    <path class="cls-2" d="m239.58,398.58c-.68,0-1.36-.1-2.03-.3-2.62-.8-4.54-3.05-4.9-5.77-.02-.18-2.2-16.16-6.95-32.16-8.09,3.32-16.8,5.06-25.59,5.06-19.68,0-38.5-8.76-51.2-23.64-5.07.84-10.25,1.26-15.46,1.26-52.69,0-95.56-42.87-95.56-95.56,0-.92.01-1.82.04-2.72-19.06-16.93-29.92-41.02-29.92-66.64,0-21.43,7.7-42.13,21.68-58.31,12.8-14.8,30.07-24.96,49.05-28.94,5.78-22.02,18.56-41.92,36.32-56.44,19.27-15.75,43.61-24.42,68.55-24.42,27.06,0,52.62,9.86,72.57,27.87,12.9-7.1,27.37-10.83,42.15-10.83,39.1,0,73.23,25.75,84.07,63,37.78,20.41,61.11,59.38,61.11,102.46,0,50.97-33.46,96.11-81.85,111.13-10.39,31.54-40.09,53.25-73.59,53.25-6.71,0-13.31-.85-19.71-2.54-3.58,11.84-10.43,27.02-23.52,41.87-1.35,1.53-3.27,2.37-5.25,2.37Z"/>
    <path class="cls-2" d="m376.44,94.82c-8.82-34.92-40.44-60.78-78.12-60.78-15.84,0-30.66,4.62-43.14,12.54-18.36-18.3-43.62-29.58-71.58-29.58-48.66,0-89.28,34.26-99.12,79.92-39.36,6.06-69.48,40.08-69.48,81.18,0,25.62,11.7,48.48,30.06,63.54-.12,1.92-.18,3.84-.18,5.82,0,48.9,39.66,88.56,88.56,88.56,6.3,0,12.42-.66,18.3-1.92,10.98,14.76,28.56,24.3,48.36,24.3,10.8,0,21-2.88,29.76-7.86,6.78,19.02,9.72,41.04,9.72,41.04,14.76-16.74,21.12-33.78,23.88-46.14,7.68,2.88,15.96,4.44,24.6,4.44,32.46,0,59.82-22.02,67.98-51.9,46.44-12.72,80.46-55.14,80.46-105.48,0-42.66-24.42-79.62-60.06-97.68Z"/>
  </g>
  <g>
    <path class="cls-2" d="m231.58,388.58c-.68,0-1.36-.1-2.03-.3-2.62-.8-4.54-3.05-4.9-5.77-.02-.18-2.2-16.16-6.95-32.16-8.09,3.32-16.8,5.06-25.59,5.06-19.68,0-38.5-8.76-51.2-23.64-5.07.84-10.25,1.26-15.46,1.26-52.69,0-95.56-42.87-95.56-95.56,0-.92.01-1.82.04-2.72C10.86,217.82,0,193.73,0,168.1c0-21.43,7.7-42.13,21.68-58.31,12.8-14.8,30.07-24.96,49.05-28.94,5.78-22.02,18.56-41.92,36.32-56.44C126.32,8.67,150.67,0,175.6,0c27.06,0,52.62,9.86,72.57,27.87,12.9-7.1,27.37-10.83,42.15-10.83,39.1,0,73.23,25.75,84.07,63,37.78,20.41,61.11,59.38,61.11,102.46,0,50.97-33.46,96.11-81.85,111.13-10.39,31.54-40.09,53.25-73.59,53.25-6.71,0-13.31-.85-19.71-2.54-3.58,11.84-10.43,27.02-23.52,41.87-1.35,1.53-3.27,2.37-5.25,2.37Z"/>
    <path class="cls-1" d="m368.44,84.82c-8.82-34.92-40.44-60.78-78.12-60.78-15.84,0-30.66,4.62-43.14,12.54-18.36-18.3-43.62-29.58-71.58-29.58-48.66,0-89.28,34.26-99.12,79.92C37.12,92.98,7,127,7,168.1c0,25.62,11.7,48.48,30.06,63.54-.12,1.92-.18,3.84-.18,5.82,0,48.9,39.66,88.56,88.56,88.56,6.3,0,12.42-.66,18.3-1.92,10.98,14.76,28.56,24.3,48.36,24.3,10.8,0,21-2.88,29.76-7.86,6.78,19.02,9.72,41.04,9.72,41.04,14.76-16.74,21.12-33.78,23.88-46.14,7.68,2.88,15.96,4.44,24.6,4.44,32.46,0,59.82-22.02,67.98-51.9,46.44-12.72,80.46-55.14,80.46-105.48,0-42.66-24.42-79.62-60.06-97.68Z"/>
  </g>
</svg>