<?xml version="1.0" encoding="UTF-8"?>
<svg id="_レイヤー_1" data-name="レイヤー 1" xmlns="http://www.w3.org/2000/svg" viewBox="0 0 485.55 344.62">
  <defs>
    <style>
      .cls-1 {
        fill: #fff;
      }

      .cls-2 {
        fill: #f794c9;
      }
    </style>
  </defs>
  <g>
    <path class="cls-2" d="m331.5,344.62c-.91,0-1.81-.16-2.67-.48-12.51-4.61-24.78-13.3-36.49-25.85-14.13,5.79-29.76,8.83-45.54,8.83-22.82,0-45.11-6.35-63.14-17.95-8.37,1.85-17.02,2.79-25.77,2.79-3.86,0-7.78-.19-11.65-.55-43.19-4.04-79.57-30.12-91.51-65.28-29.33-17.23-46.74-46.03-46.74-77.57s17.39-60.25,46.67-77.56c11.94-35.18,48.32-61.26,91.52-65.3,3.86-.36,7.78-.55,11.64-.55,8.75,0,17.4.94,25.78,2.79,18.09-11.59,40.37-17.95,63.13-17.95s45.11,6.35,63.14,17.95c8.37-1.85,17.02-2.79,25.77-2.79,3.86,0,7.78.19,11.65.55,43.19,4.04,79.57,30.12,91.51,65.28,29.33,17.23,46.74,46.03,46.74,77.57s-17.39,60.32-46.68,77.56c-11.94,35.18-48.32,61.26-91.52,65.29-3.79.36-7.65.54-11.47.54-1.31,0-2.62-.02-3.94-.06,1.36,9.62,3.42,16.94,5.96,21.06,1.47,2.27,1.62,5.12.37,7.54-1.31,2.55-3.91,4.14-6.78,4.14Z"/>
    <path class="cls-2" d="m432.97,95.72c-9.86-32.88-43.86-59.08-86.33-63.05-13.3-1.26-26.2-.2-38.11,2.78-16.74-11.51-38.3-18.46-61.79-18.46s-44.99,6.95-61.79,18.46c-11.91-2.98-24.81-4.04-38.11-2.78-42.54,3.97-76.47,30.17-86.33,63.05-27.32,15.22-45.51,42.14-45.51,72.84s18.19,57.69,45.58,72.84c9.86,32.88,43.86,59.08,86.33,63.05,13.3,1.26,26.2.2,38.11-2.78,16.74,11.51,38.3,18.46,61.79,18.46,17.21,0,33.34-3.74,47.36-10.27,9.01,10.34,21.84,22.1,37.12,27.73.53.2,1.06-.4.73-.86-4.82-7.71-6.99-21.49-7.98-32.38,7.35.76,14.94.83,22.67.1,42.54-3.97,76.47-30.17,86.33-63.05,27.32-15.15,45.51-42.14,45.51-72.84s-18.19-57.69-45.58-72.84Z"/>
  </g>
  <g>
    <path class="cls-2" d="m323.5,334.62c-.91,0-1.81-.16-2.67-.48-12.51-4.61-24.78-13.3-36.49-25.85-14.13,5.79-29.76,8.83-45.54,8.83-22.82,0-45.11-6.35-63.14-17.95-8.37,1.85-17.02,2.79-25.77,2.79-3.86,0-7.78-.19-11.65-.55-43.19-4.04-79.57-30.12-91.51-65.28C17.42,218.9,0,190.1,0,158.56s17.39-60.25,46.67-77.56c11.94-35.18,48.32-61.26,91.52-65.3,3.86-.36,7.78-.55,11.64-.55,8.75,0,17.4.94,25.78,2.79C193.69,6.35,215.98,0,238.74,0s45.11,6.35,63.14,17.95c8.37-1.85,17.02-2.79,25.77-2.79,3.86,0,7.78.19,11.65.55,43.19,4.04,79.57,30.12,91.51,65.28,29.33,17.23,46.74,46.03,46.74,77.57s-17.39,60.32-46.68,77.56c-11.94,35.18-48.32,61.26-91.52,65.29-3.79.36-7.65.54-11.47.54-1.31,0-2.62-.02-3.94-.06,1.36,9.62,3.42,16.94,5.96,21.06,1.47,2.27,1.62,5.12.37,7.54-1.31,2.55-3.91,4.14-6.78,4.14Z"/>
    <path class="cls-1" d="m424.97,85.72c-9.86-32.88-43.86-59.08-86.33-63.05-13.3-1.26-26.2-.2-38.11,2.78-16.74-11.51-38.3-18.46-61.79-18.46s-44.99,6.95-61.79,18.46c-11.91-2.98-24.81-4.04-38.11-2.78-42.54,3.97-76.47,30.17-86.33,63.05C25.19,100.94,7,127.86,7,158.56s18.19,57.69,45.58,72.84c9.86,32.88,43.86,59.08,86.33,63.05,13.3,1.26,26.2.2,38.11-2.78,16.74,11.51,38.3,18.46,61.79,18.46,17.21,0,33.34-3.74,47.36-10.27,9.01,10.34,21.84,22.1,37.12,27.73.53.2,1.06-.4.73-.86-4.82-7.71-6.99-21.49-7.98-32.38,7.35.76,14.94.83,22.67.1,42.54-3.97,76.47-30.17,86.33-63.05,27.32-15.15,45.51-42.14,45.51-72.84s-18.19-57.69-45.58-72.84Z"/>
  </g>
</svg>