<?xml version="1.0" encoding="UTF-8"?>
<svg id="_レイヤー_1" data-name="レイヤー 1" xmlns="http://www.w3.org/2000/svg" viewBox="0 0 338.81 333.38">
  <defs>
    <style>
      .cls-1 {
        fill: #fff;
      }

      .cls-2 {
        fill: #f794c9;
      }
    </style>
  </defs>
  <g>
    <path class="cls-2" d="m193.78,333.38c-.83,0-1.67-.15-2.47-.45-1.1-.42-24.26-9.36-39.79-29.6-6.71,5.21-17.2,8.05-30.42,8.05s-29.03-2.98-43.28-8.38c-18.44-7.01-35.9-21.45-49.17-40.66-12.64-18.3-20.15-39.3-20.61-57.6-.51-20.36,7.36-36.23,22.34-45.42-11.06-26.62-8.73-53.76,6.85-78.89C62.53,39.62,120.24,10,174.44,10c51.03,0,85.07,26.67,92.57,71.83,3.54-.75,7.07-1.13,10.58-1.13,26.8,0,50.31,22.08,58.5,54.96,7.27,29.15,1.56,70.46-36.9,94.54,4.11,10.12,3.03,22.4-3.27,34.78-10.58,20.8-37.63,43.19-72,43.2h0c-9.11,0-18.09-1.6-26.84-4.76.72,8.14,2.58,17.37,3.52,21.35.6,2.52-.25,5.16-2.19,6.87-1.3,1.14-2.95,1.74-4.62,1.74Z"/>
    <path class="cls-2" d="m80.3,296.45c-55.44-21.06-91.98-111.56-40.81-134.01C-21.4,39.68,248.01-54.86,261.11,90.85c63.09-23.9,107.23,94.95,28.67,136.71,22.68,31.14-37.98,96.93-99.72,65.16-1.48,11.66,3.73,33.66,3.73,33.66,0,0-28.08-10.62-41.76-34.92-5.62,15.62-40.54,16.83-71.73,5Z"/>
  </g>
  <g>
    <path class="cls-2" d="m185.78,323.38c-.83,0-1.67-.15-2.47-.45-1.1-.42-24.26-9.36-39.79-29.6-6.71,5.21-17.2,8.05-30.42,8.05s-29.03-2.98-43.28-8.38c-18.44-7.01-35.9-21.45-49.17-40.66C8,234.03.49,213.04.02,194.74c-.51-20.36,7.36-36.23,22.34-45.42-11.06-26.62-8.73-53.76,6.85-78.89C54.53,29.62,112.24,0,166.44,0c51.03,0,85.07,26.67,92.57,71.83,3.54-.75,7.07-1.13,10.58-1.13,26.8,0,50.31,22.08,58.5,54.96,7.27,29.15,1.56,70.46-36.9,94.54,4.11,10.12,3.03,22.4-3.27,34.78-10.58,20.8-37.63,43.19-72,43.2h0c-9.11,0-18.09-1.6-26.84-4.76.72,8.14,2.58,17.37,3.52,21.35.6,2.52-.25,5.16-2.19,6.87-1.3,1.14-2.95,1.74-4.62,1.74Z"/>
    <path class="cls-1" d="m72.3,286.45c-55.44-21.06-91.98-111.56-40.81-134.01C-29.4,29.68,240.01-64.86,253.11,80.85c63.09-23.9,107.23,94.95,28.67,136.71,22.68,31.14-37.98,96.93-99.72,65.16-1.48,11.66,3.73,33.66,3.73,33.66,0,0-28.08-10.62-41.76-34.92-5.62,15.62-40.54,16.83-71.73,5Z"/>
  </g>
</svg>