<?xml version="1.0" encoding="UTF-8"?>
<svg id="_レイヤー_1" data-name="レイヤー 1" xmlns="http://www.w3.org/2000/svg" viewBox="0 0 338.12 337.78">
  <defs>
    <style>
      .cls-1 {
        fill: #fff;
      }

      .cls-2 {
        fill: #f794c9;
      }
    </style>
  </defs>
  <g>
    <path class="cls-2" d="m158.68,337.78c-31.65,0-61.39-14.86-80.45-39.97l-27.94,4.99c-.41.07-.82.11-1.23.11-1.89,0-3.72-.77-5.05-2.16-1.62-1.69-2.29-4.08-1.78-6.37l5.89-26.45c-20.4-18.63-32.02-44.88-32.02-72.69,0-4.52.31-9.05.91-13.5-5.9-11.47-9.01-24.29-9.01-37.21,0-37.9,26.25-70.74,62.85-79.26,10.41-16.18,24.63-29.74,41.29-39.34,18.1-10.42,38.77-15.93,59.78-15.93,30.67,0,59.65,11.46,81.94,32.33.57-.01,1.14-.02,1.72-.02,44.88,0,81.38,36.51,81.38,81.39,0,11.62-2.51,23.22-7.29,33.76,5.62,13.9,8.46,28.54,8.46,43.55,0,63.96-52.03,115.99-115.99,115.99-.7,0-1.39,0-2.07-.02-17.56,13.44-39.25,20.81-61.38,20.81Z"/>
    <path class="cls-2" d="m55.86,265.4l-6.79,30.51,32.27-5.76c16.96,24.57,45.27,40.63,77.35,40.63,22.37,0,42.89-7.83,59.04-20.88,1.48.05,2.92.09,4.41.09,60.17,0,108.99-48.78,108.99-108.99,0-15.57-3.28-30.33-9.13-43.74,5.08-10.08,7.97-21.51,7.97-33.57,0-41.08-33.3-74.38-74.39-74.38-1.49,0-2.97.05-4.41.14-20.38-20.07-48.37-32.45-79.25-32.45-41,0-76.86,21.82-96.7,54.5-34.29,6.61-60.21,36.81-60.21,73.04,0,13.05,3.37,25.29,9.27,35.95-.76,4.77-1.17,9.72-1.17,14.76,0,28.17,12.69,53.37,32.76,70.16Z"/>
  </g>
  <g>
    <path class="cls-2" d="m150.68,327.78c-31.65,0-61.39-14.86-80.45-39.97l-27.94,4.99c-.41.07-.82.11-1.23.11-1.89,0-3.72-.77-5.05-2.16-1.62-1.69-2.29-4.08-1.78-6.37l5.89-26.45c-20.4-18.63-32.02-44.88-32.02-72.69,0-4.52.31-9.05.91-13.5-5.9-11.47-9.01-24.29-9.01-37.21C0,96.63,26.25,63.79,62.85,55.27c10.41-16.18,24.63-29.74,41.29-39.34C122.24,5.51,142.91,0,163.91,0c30.67,0,59.65,11.46,81.94,32.33.57-.01,1.14-.02,1.72-.02,44.88,0,81.38,36.51,81.38,81.39,0,11.62-2.51,23.22-7.29,33.76,5.62,13.9,8.46,28.54,8.46,43.55,0,63.96-52.03,115.99-115.99,115.99-.7,0-1.39,0-2.07-.02-17.56,13.44-39.25,20.81-61.38,20.81Z"/>
    <path class="cls-1" d="m47.86,255.4l-6.79,30.51,32.27-5.76c16.96,24.57,45.27,40.63,77.35,40.63,22.37,0,42.89-7.83,59.04-20.88,1.48.05,2.92.09,4.41.09,60.17,0,108.99-48.78,108.99-108.99,0-15.57-3.28-30.33-9.13-43.74,5.08-10.08,7.97-21.51,7.97-33.57,0-41.08-33.3-74.38-74.39-74.38-1.49,0-2.97.05-4.41.14-20.38-20.07-48.37-32.45-79.25-32.45-41,0-76.86,21.82-96.7,54.5-34.29,6.61-60.21,36.81-60.21,73.04,0,13.05,3.37,25.29,9.27,35.95-.76,4.77-1.17,9.72-1.17,14.76,0,28.17,12.69,53.37,32.76,70.16Z"/>
  </g>
</svg>