<?xml version="1.0" encoding="UTF-8"?>
<svg id="_レイヤー_1" data-name="レイヤー 1" xmlns="http://www.w3.org/2000/svg" viewBox="0 0 220 212">
  <defs>
    <style>
      .cls-1 {
        fill: #fff;
      }

      .cls-2 {
        fill: #69b2ed;
      }

      .cls-3 {
        fill: #f7fc8c;
      }
    </style>
  </defs>
  <path class="cls-2" d="m16.82,109.68c0-22.78,6.15-45.22,17.22-63.81C13.14,64.67,0,92.07,0,122.29c0,55.86,44.83,89.71,100.75,89.71,37.21,0,72.36-15.01,91.73-41.51-21.06,19.25-51.69,30.11-82.79,30.11-55.92,0-92.87-35.07-92.87-90.92Z"/>
  <path class="cls-3" d="m220,109.68C220,53.83,165.6,0,109.68,0c-33.11,0-59.57,18.88-75.64,45.87,17.73-15.95,41.04-25.72,66.71-25.72,55.92,0,107.22,46.29,107.22,102.15,0,18.68-5.76,34.89-15.49,48.2,16.8-15.35,27.52-36.03,27.52-60.81Z"/>
  <path class="cls-1" d="m100.75,20.15c-25.66,0-48.98,9.77-66.71,25.72-11.07,18.59-17.22,41.03-17.22,63.81,0,55.86,36.95,90.92,92.87,90.92,31.11,0,61.73-10.87,82.79-30.11,9.73-13.32,15.49-29.52,15.49-48.2,0-55.86-51.31-102.15-107.22-102.15Z"/>
</svg>