<?xml version="1.0" encoding="utf-8"?>
<!-- Generator: Adobe Illustrator 27.3.1, SVG Export Plug-In . SVG Version: 6.00 Build 0)  -->
<svg version="1.1" id="Layer_2_00000059310239473027633070000001605261581123145644_"
	 xmlns="http://www.w3.org/2000/svg" xmlns:xlink="http://www.w3.org/1999/xlink" x="0px" y="0px" viewBox="0 0 83 86"
	 style="enable-background:new 0 0 83 86;" xml:space="preserve">
<style type="text/css">
	.st0{fill:#FFFFFF;}
	.st1{fill:none;stroke:#FFFFFF;stroke-width:2.2;stroke-linejoin:round;}
</style>
<g>
	<path class="st0" d="M16.7,17.9h3.9l2.6-12.3H20l0.4-1.7c1.7-0.3,3-0.7,4.1-1.3h2.1l-3.2,15.4h3.5l-0.5,2.3H16.3L16.7,17.9
		L16.7,17.9z"/>
	<path class="st0" d="M30.4,13.7c0.9-4.3,4.2-6.9,7.1-6.9c1.5,0,2.3,0.6,3.2,1.5L41.1,6l1-4.9h2.8l-4,19.1h-2.2l0.1-1.5h-0.1
		c-1.2,1-2.7,1.8-4.2,1.8C31.1,20.5,29.5,18,30.4,13.7L30.4,13.7z M38.9,16.7l1.4-6.4C39.4,9.3,38.6,9,37.6,9
		c-1.8,0-3.7,1.7-4.3,4.6c-0.6,3,0.2,4.7,2.2,4.7C36.6,18.3,37.7,17.8,38.9,16.7z"/>
	<path class="st0" d="M45,16.7c0.6-2.8,3.3-4.3,8.9-4.9c0.3-1.5,0-2.9-1.9-2.9c-1.4,0-2.8,0.6-4.1,1.3l-0.6-1.9
		c1.6-0.9,3.6-1.7,5.7-1.7c3.3,0,4.3,2.1,3.6,5.6l-1.7,7.9h-2.2l0.1-1.5h-0.1c-1.4,1-3,1.8-4.6,1.8C45.8,20.5,44.5,19,45,16.7
		L45,16.7z M52.9,16.8l0.7-3.2c-4,0.5-5.5,1.5-5.8,2.9c-0.3,1.3,0.5,1.8,1.7,1.8C50.6,18.4,51.6,17.8,52.9,16.8L52.9,16.8z"/>
	<path class="st0" d="M64.4,21c-1.6,2.8-3.4,4.7-6.2,4.7c-0.7,0-1.2-0.1-1.6-0.3l1-2.2c0.2,0.1,0.6,0.2,0.9,0.2c1.4,0,2.5-1,3.3-2.5
		l0.5-0.9L59.8,7h2.8l1,6.8c0.1,1.2,0.3,2.5,0.4,3.7h0.1l1.8-3.7L69.5,7h2.7L64.4,21L64.4,21z"/>
</g>
<g>
	<polygon class="st1" points="50.5,84.5 68.7,84.5 68.7,52.9 73.4,54.1 80.4,38.7 61.9,30.3 51.8,30.3 41.6,30.3 23.1,38.7 
		30.2,54.1 34.9,52.9 34.9,84.5 53,84.5 	"/>
	<path class="st1" d="M61.9,30.3c-0.7,4.3-6,7-10.2,7s-9.5-2.8-10.2-7"/>
	<rect x="2.6" y="62" class="st1" width="20.5" height="22.5"/>
	<line class="st1" x1="23.1" y1="78.8" x2="34.5" y2="78.8"/>
</g>
<path class="st1" d="M35.9,32.9c2.4,5.5,1.9,14.5-1,20.6"/>
<path class="st1" d="M67.6,32.9c-2.4,5.5-1.9,14.5,1,20.6"/>
</svg>
