<?xml version="1.0" encoding="utf-8"?>
<!-- Generator: Adobe Illustrator 27.3.1, SVG Export Plug-In . SVG Version: 6.00 Build 0)  -->
<svg version="1.1" id="_レイヤー_1" xmlns="http://www.w3.org/2000/svg" xmlns:xlink="http://www.w3.org/1999/xlink" x="0px"
	 y="0px" viewBox="0 0 83 86" style="enable-background:new 0 0 83 86;" xml:space="preserve">
<style type="text/css">
	.st0{fill:#FFFFFF;}
	.st1{fill:none;stroke:#FFFFFF;stroke-width:2.2;stroke-linejoin:round;}
	.st2{fill:#FFFFFF;stroke:#FFFFFF;stroke-width:2.2;stroke-linejoin:round;}
</style>
<g>
	<path class="st0" d="M6.9,18h3.9l2.6-12.3h-3.2L10.6,4c1.7-0.3,3-0.7,4.1-1.3h2.1L13.6,18H17l-0.5,2.3H6.5L6.9,18L6.9,18z"/>
	<path class="st0" d="M21.5,7.1h2.8l0.2,7.2c0,1.3,0,2.5-0.1,3.8h0.1c0.6-1.3,1.1-2.5,1.7-3.8l3.4-7.2h2.6l0.4,7.2
		c0,1.3,0,2.5,0.1,3.8h0.1c0.5-1.3,1-2.5,1.6-3.8l3.2-7.2h2.6l-6.2,13.2h-3.3l-0.3-6.5c0-1.3,0-2.5,0-3.8h-0.1
		c-0.6,1.4-1.1,2.6-1.7,3.9l-3,6.5h-3.2L21.5,7.1L21.5,7.1z"/>
	<path class="st0" d="M40.4,13.7c0.9-4.3,4.4-7,7.5-7c3.5,0,4.9,2.5,4.1,6.3c-0.1,0.5-0.3,1.1-0.4,1.4H43c-0.3,2.5,0.9,4,3.2,4
		c1.2,0,2.3-0.4,3.4-1l0.6,1.8c-1.4,0.8-3,1.4-4.8,1.4C41.8,20.6,39.5,18.1,40.4,13.7L40.4,13.7z M49.7,12.5
		c0.5-2.3-0.3-3.6-2.2-3.6c-1.7,0-3.4,1.3-4.2,3.6H49.7L49.7,12.5z"/>
	<path class="st0" d="M54,13.7c0.9-4.3,4.4-7,7.5-7c3.5,0,4.9,2.5,4.1,6.3c-0.1,0.5-0.3,1.1-0.4,1.4h-8.6c-0.3,2.5,0.9,4,3.2,4
		c1.2,0,2.3-0.4,3.4-1l0.6,1.8c-1.4,0.8-3,1.4-4.8,1.4C55.4,20.6,53.1,18.1,54,13.7L54,13.7z M63.3,12.5c0.5-2.3-0.3-3.6-2.2-3.6
		c-1.7,0-3.4,1.3-4.2,3.6H63.3L63.3,12.5z"/>
	<path class="st0" d="M71.2,1.2h2.7l-2.6,12.4h0.1l6.6-6.4h3.1l-5.6,5.4l3.3,7.9h-3l-2.3-6l-2.8,2.6l-0.7,3.4h-2.7L71.2,1.2
		L71.2,1.2z"/>
</g>
<g>
	<polygon class="st1" points="50.2,84.9 68.4,84.9 68.4,53.1 73.1,54.4 80.2,38.9 61.6,30.4 51.4,30.4 41.2,30.4 22.7,38.9 
		29.8,54.4 34.5,53.1 34.5,84.9 52.7,84.9 	"/>
	<path class="st1" d="M61.6,30.4c-0.7,4.3-6,7.1-10.2,7.1s-9.5-2.8-10.2-7.1"/>
	<rect x="2.1" y="62.2" class="st1" width="20.6" height="22.6"/>
	<line class="st1" x1="22.7" y1="79.2" x2="34.2" y2="79.2"/>
</g>
<path class="st2" d="M35.5,33c2.4,5.6,1.9,14.6-1.1,20.6"/>
<path class="st2" d="M67.4,33c-2.4,5.6-1.9,14.6,1.1,20.6"/>
</svg>
