<?xml version="1.0" encoding="utf-8"?>
<!-- Generator: Adobe Illustrator 27.3.1, SVG Export Plug-In . SVG Version: 6.00 Build 0)  -->
<svg version="1.1" id="Layer_1" xmlns="http://www.w3.org/2000/svg" xmlns:xlink="http://www.w3.org/1999/xlink" x="0px" y="0px"
	 viewBox="0 0 679.5 497.1" style="enable-background:new 0 0 679.5 497.1;" xml:space="preserve">
<style type="text/css">
	.st0{
    fill:#00BAFF;
    filter: drop-shadow(0 0 20px rgb(0 0 0 / .5));
    }
</style>
<path class="st0" d="M582.5,155.3c-0.1-1.9-0.2-3.8-0.4-5.6c-6.8-38.1-40.2-67.1-80.3-67.1h-322c-6.3,0.4-12,0.9-17.2,1.4
	c-32.8,6.2-58.7,32-64.9,64.8c-0.7,9.7-1.2,20.6-1.4,31.5v152.7c0,45,36.5,81.4,81.6,81.4h297.8c15.5-0.3,30-0.8,41.8-1.5
	c31.2-6,56-29.8,63.6-60.3c0.1-0.7,0.2-1.3,0.2-2c1-9.8,1.7-20.8,2.2-31.6V181.9C583.1,172.8,582.8,163.7,582.5,155.3L582.5,155.3z
	 M408.2,260.7l-109.6,57.6c-5.1,2.7-11.2-1-11.2-6.8V196.3c0-5.7,6.1-9.4,11.2-6.8l109.6,57.6C413.6,250,413.6,257.8,408.2,260.7
	L408.2,260.7z"/>
</svg>
