<?xml version="1.0" encoding="UTF-8"?>
<svg id="_レイヤー_1" data-name="レイヤー 1" xmlns="http://www.w3.org/2000/svg" viewBox="0 0 74.46 83.25">
  <defs>
    <style>
      .cls-1 {
        fill: #2f2f2f;
      }

      .cls-2 {
        fill: #fcc3de;
      }
    </style>
  </defs>
  <path class="cls-1" d="m27.1,52.31c-.42,0-.83-.16-1.15-.48l-10.87-10.87c-2.12-2.12-2.12-5.58,0-7.71L46.75,1.59c2.12-2.12,5.58-2.12,7.71,0l10.87,10.87c.64.64.64,1.67,0,2.3L28.25,51.84c-.32.32-.73.48-1.15.48ZM50.6,3.25c-.56,0-1.12.21-1.55.64l-31.67,31.67c-.86.86-.86,2.25,0,3.1l9.72,9.72L61.87,13.61l-9.72-9.72c-.43-.43-.99-.64-1.55-.64Z"/>
  <g>
    <path class="cls-2" d="m71.77,14.91l-6.88-6.88L24.13,48.81c-1.24,1.24-1.24,3.24,0,4.48h0L3.14,73.22c-1.99,1.89-2.03,5.04-.09,6.98h0c1.94,1.94,5.09,1.9,6.98-.09l20.22-21.28c1.25.39,2.67.09,3.66-.9l37.86-37.86c1.42-1.42,1.42-3.73,0-5.15Z"/>
    <path class="cls-1" d="m6.5,83.25c-1.74,0-3.36-.67-4.59-1.9C.65,80.1-.02,78.44,0,76.67c.02-1.77.74-3.41,2.02-4.63l19.98-18.99c-.29-.62-.44-1.3-.44-2.01,0-1.28.5-2.49,1.41-3.39L63.75,6.89c.63-.64,1.67-.64,2.3,0l6.88,6.88c2.05,2.05,2.05,5.4,0,7.45l-37.86,37.86c-1.13,1.13-2.7,1.67-4.25,1.52l-19.61,20.64c-1.22,1.28-2.86,2-4.63,2.02-.03,0-.06,0-.09,0ZM64.9,10.34L25.28,49.96c-.29.29-.45.68-.45,1.09s.16.8.45,1.09c.31.31.48.73.48,1.17s-.19.86-.51,1.16l-20.98,19.93c-.64.61-1,1.43-1.01,2.31-.01.88.33,1.71.95,2.34.62.62,1.42.96,2.34.95.88-.01,1.7-.37,2.31-1.01l20.22-21.28c.43-.45,1.07-.62,1.66-.43.72.22,1.5.03,2.03-.5l37.86-37.86c.79-.79.79-2.06,0-2.85l-5.73-5.73Z"/>
  </g>
  <path class="cls-1" d="m23.26,38.24c-.28,0-.56-.11-.77-.32l-4.48-4.48c-.42-.42-.42-1.11,0-1.53.42-.42,1.11-.42,1.53,0l4.48,4.48c.42.42.42,1.11,0,1.53-.21.21-.49.32-.77.32Z"/>
  <path class="cls-1" d="m27.85,33.65c-.28,0-.56-.11-.77-.32l-4.48-4.48c-.42-.42-.42-1.11,0-1.53.42-.42,1.11-.42,1.53,0l4.48,4.48c.42.42.42,1.11,0,1.53-.21.21-.49.32-.77.32Z"/>
  <path class="cls-1" d="m32.44,29.06c-.28,0-.56-.11-.77-.32l-4.48-4.48c-.42-.42-.42-1.11,0-1.53.42-.42,1.11-.42,1.53,0l4.48,4.48c.42.42.42,1.11,0,1.53-.21.21-.49.32-.77.32Z"/>
  <path class="cls-1" d="m37.03,24.47c-.28,0-.56-.11-.77-.32l-4.48-4.48c-.42-.42-.42-1.11,0-1.53.42-.42,1.11-.42,1.53,0l4.48,4.48c.42.42.42,1.11,0,1.53-.21.21-.49.32-.77.32Z"/>
  <path class="cls-1" d="m41.62,19.88c-.28,0-.56-.11-.77-.32l-4.48-4.48c-.42-.42-.42-1.11,0-1.53.42-.42,1.11-.42,1.53,0l4.48,4.48c.42.42.42,1.11,0,1.53-.21.21-.49.32-.77.32Z"/>
  <path class="cls-1" d="m46.21,15.29c-.28,0-.56-.11-.77-.32l-4.48-4.48c-.42-.42-.42-1.11,0-1.53.42-.42,1.11-.42,1.53,0l4.48,4.48c.42.42.42,1.11,0,1.53-.21.21-.49.32-.77.32Z"/>
  <path class="cls-1" d="m50.8,10.7c-.28,0-.56-.11-.77-.32l-4.48-4.48c-.42-.42-.42-1.11,0-1.53.42-.42,1.11-.42,1.53,0l4.48,4.48c.42.42.42,1.11,0,1.53-.21.21-.49.32-.77.32Z"/>
</svg>