<?xml version="1.0" encoding="UTF-8"?>
<svg id="_レイヤー_1" data-name="レイヤー 1" xmlns="http://www.w3.org/2000/svg" viewBox="0 0 30 28.5">
  <defs>
    <style>
      .cls-1 {
        fill: #979797;
      }
    </style>
  </defs>
  <path class="cls-1" d="m.92,28.5c-.12,0-.24-.02-.35-.07-.34-.14-.57-.47-.57-.84V5.95C0,2.67,2.72,0,6.04,0h17.91c3.32,0,6.04,2.67,6.04,5.95v10.19c0,3.28-2.72,5.95-6.04,5.95H7.81l-6.24,6.14c-.18.17-.41.27-.65.27ZM6.04,1.82C3.73,1.82,1.85,3.67,1.84,5.96v19.44l4.94-4.86c.17-.17.41-.27.65-.27h16.52c2.31,0,4.2-1.86,4.2-4.14V5.95c0-2.28-1.89-4.14-4.2-4.14H6.04Z"/>
  <g>
    <path class="cls-1" d="m22.12,8.78H7.87c-.51,0-.92-.41-.92-.91s.41-.91.92-.91h14.25c.51,0,.92.41.92.91s-.41.91-.92.91Z"/>
    <path class="cls-1" d="m16.66,15.42H7.87c-.51,0-.92-.41-.92-.91s.41-.91.92-.91h8.78c.51,0,.92.41.92.91s-.41.91-.92.91Z"/>
  </g>
</svg>