<?xml version="1.0" encoding="UTF-8"?>
<svg id="_レイヤー_1" data-name="レイヤー 1" xmlns="http://www.w3.org/2000/svg" viewBox="0 0 46.52 82.89">
  <defs>
    <style>
      .cls-1 {
        fill: #2f2f2f;
      }

      .cls-2 {
        fill: #fcc3de;
      }
    </style>
  </defs>
  <path class="cls-1" d="m36.27,33.23H10.06c-.4,0-.78-.17-1.06-.46s-.41-.69-.39-1.09c0-.05.38-5.52.94-11.64.45-4.92.08-9.38-1.31-15.89-.22-1.02.03-2.07.69-2.88.65-.81,1.62-1.27,2.66-1.27h3.89c.71,0,1.32.52,1.43,1.23.28,1.84.75,4.1,1.84,5.19.51.52,1.8,1.44,3.53,2.53.53.34,1.22.34,1.75,0,2.37-1.5,3.23-2.23,3.53-2.53,1.09-1.09,1.56-3.35,1.84-5.19.11-.71.71-1.23,1.43-1.23h3.89c1.04,0,2.01.46,2.66,1.27.65.81.91,1.86.69,2.88-1.39,6.51-1.76,10.97-1.31,15.89.56,6.12.93,11.59.94,11.64.03.4-.11.79-.39,1.09-.27.29-.66.46-1.06.46Zm-24.66-2.89h23.11c-.15-2.05-.45-5.89-.82-10.03-.55-6.04.15-11.07,1.36-16.76.05-.22-.05-.38-.11-.45-.06-.07-.19-.2-.42-.2h-2.67c-.4,2.06-1.05,4.17-2.44,5.57-.69.69-2.04,1.67-4.03,2.93-1.47.93-3.37.93-4.84,0-1.99-1.26-3.34-2.24-4.03-2.93-1.4-1.4-2.05-3.5-2.44-5.57h-2.67c-.22,0-.36.12-.42.2-.06.07-.15.23-.11.45,1.22,5.69,1.91,10.72,1.36,16.76-.38,4.14-.67,7.98-.82,10.03Z"/>
  <g>
    <path class="cls-2" d="m9.12,35.83L1.45,79.08l7.68-2.25s10.67,2.25,14.04,2.25,10.11,3.37,15.73,2.06c5.62-1.31,6.18-2.62,6.18-2.62l-8.24-42.69H9.12Z"/>
    <path class="cls-1" d="m36.08,82.89c-2.98,0-5.99-.8-8.53-1.47-1.73-.46-3.36-.89-4.39-.89-3.16,0-12.06-1.8-13.99-2.2l-7.33,2.15c-.48.14-1,.02-1.37-.31-.37-.33-.55-.84-.46-1.33l7.68-43.25c.12-.69.72-1.19,1.42-1.19h27.71c.69,0,1.29.49,1.42,1.17l8.24,42.69c.05.28.02.58-.09.84-.39.9-1.95,2.24-7.18,3.46-1.03.24-2.08.34-3.14.34Zm-26.96-7.5c.1,0,.2.01.3.03,2.93.62,11.11,2.22,13.75,2.22,1.41,0,3.13.46,5.13.99,3.13.83,7.03,1.87,10.27,1.11,2.99-.7,4.36-1.37,4.93-1.73l-7.86-40.73H10.33l-7.06,39.77,5.44-1.59c.13-.04.27-.06.41-.06Z"/>
  </g>
  <path class="cls-1" d="m10.53,71.72c-.06,0-.12,0-.18-.02-.52-.1-.87-.6-.77-1.12l5.62-30.43c.1-.52.6-.87,1.12-.77.52.1.87.6.77,1.12l-5.62,30.43c-.09.46-.49.79-.95.79Z"/>
  <path class="cls-1" d="m23.92,73.44c-.53,0-.96-.43-.96-.96v-32.14c0-.53.43-.96.96-.96s.96.43.96.96v32.14c0,.53-.43.96-.96.96Z"/>
  <path class="cls-1" d="m37.96,76.68c-.45,0-.86-.32-.95-.79l-6.67-35.38c-.1-.52.25-1.03.77-1.13.53-.1,1.03.25,1.13.77l6.67,35.38c.1.52-.25,1.03-.77,1.13-.06.01-.12.02-.18.02Z"/>
</svg>