<?xml version="1.0" encoding="UTF-8"?>
<svg id="_レイヤー_1" data-name="レイヤー 1" xmlns="http://www.w3.org/2000/svg" viewBox="0 0 44.15 83.05">
  <defs>
    <style>
      .cls-1 {
        fill: #2f2f2f;
      }

      .cls-2 {
        fill: #fcc3de;
      }
    </style>
  </defs>
  <path class="cls-1" d="m37.21,83.05H6.94c-1.29,0-2.38-1.01-2.47-2.3L0,20.59c-.05-.62.17-1.23.59-1.69.42-.46,1.02-.72,1.64-.72h39.67c.62,0,1.22.26,1.64.72.42.46.64,1.07.6,1.69l-4.46,60.15c-.1,1.29-1.18,2.3-2.48,2.3Zm-29.7-2.52h0s0,0,0,0Zm-.04-.52h29.22l4.36-58.77H3.11l4.36,58.77Z"/>
  <path class="cls-1" d="m26.54,36.07c-.84,0-1.52-.68-1.52-1.52V10.1c0-1.36.8-2.59,2.04-3.15L40.72.16c.75-.37,1.67-.07,2.04.69.37.75.07,1.67-.69,2.04l-13.72,6.82c-.2.09-.29.23-.29.39v24.45c0,.84-.68,1.52-1.52,1.52Z"/>
  <path class="cls-2" d="m8.32,39.33l2.34,36.78c.02.38.31.67.67.67h21.5c.35,0,.64-.29.67-.67l2.34-36.78c.04-.69-.46-1.28-1.1-1.28H9.42c-.64,0-1.15.59-1.1,1.28Z"/>
</svg>