<?xml version="1.0" encoding="UTF-8"?>
<svg id="_レイヤー_1" data-name="レイヤー 1" xmlns="http://www.w3.org/2000/svg" viewBox="0 0 71.29 83.04">
  <defs>
    <style>
      .cls-1 {
        fill: #fff;
      }

      .cls-2 {
        fill: #2f2f2f;
      }

      .cls-3 {
        fill: #fcc3de;
      }
    </style>
  </defs>
  <path class="cls-2" d="m53.86,83.04c-.11,0-.22-.01-.33-.04l-.82-.18c-5.69-1.25-9.33-2.61-12.54-14.38-.22-.81.26-1.64,1.07-1.86.81-.22,1.64.26,1.86,1.07,2.89,10.59,5.51,11.17,10.26,12.21l.84.19c.82.18,1.33,1,1.15,1.82-.16.71-.79,1.18-1.48,1.18Z"/>
  <g>
    <path class="cls-3" d="m22.1,49.82c4.88,9.44,12.05,18.72,14.63,21.93.58.72,1.53,1.01,2.41.74l6.75-2.07c.93-.29,1.5-1.24,1.3-2.19l-5.5-26.46-19.58,8.05Z"/>
    <path class="cls-2" d="m38.47,74.11c-1.12,0-2.2-.5-2.93-1.41-2.82-3.52-9.9-12.71-14.79-22.18-.2-.38-.22-.82-.08-1.22s.46-.72.85-.88l19.58-8.05c.42-.17.89-.15,1.29.06s.68.59.77,1.03l5.5,26.46c.36,1.74-.65,3.43-2.34,3.95l-6.75,2.07c-.37.11-.74.17-1.11.17Zm-14.24-23.52c4.72,8.7,11.08,16.95,13.69,20.21.19.23.49.33.78.24l6.75-2.07c.18-.06.29-.24.25-.43l-5.13-24.67-16.34,6.72Z"/>
  </g>
  <g>
    <path class="cls-3" d="m60.62,1.52c-20.42,2.97-42.8,6.55-42.8,6.55l14.41,33.32,35.17-17.75s4.07-4.12,1.54-12.37c-2.53-8.25-8.32-9.76-8.32-9.76Z"/>
    <path class="cls-2" d="m32.23,42.91c-.17,0-.35-.03-.52-.09-.39-.14-.71-.44-.88-.82L16.43,8.67c-.19-.43-.16-.92.06-1.33.23-.41.63-.69,1.09-.77.22-.04,22.63-3.61,42.82-6.55.2-.03.4-.02.6.03.27.07,6.65,1.82,9.39,10.78,2.76,9.01-1.72,13.68-1.92,13.88-.12.12-.25.21-.4.29l-35.17,17.75c-.21.11-.45.16-.68.16ZM19.99,9.26l12.99,30.04,33.47-16.89c.62-.76,3.01-4.27,1.04-10.7-1.96-6.4-5.96-8.26-7-8.65-16.63,2.43-34.67,5.27-40.5,6.19Z"/>
  </g>
  <path class="cls-2" d="m67.4,25.16c-.29,0-.59-.09-.85-.26-6.93-4.73-10-17.5-7.33-23.96.32-.77,1.21-1.14,1.98-.82.78.32,1.14,1.21.82,1.98-2.14,5.16.72,16.53,6.23,20.29.69.47.87,1.42.4,2.11-.29.43-.77.66-1.26.66Z"/>
  <g>
    <path class="cls-3" d="m46.6,23.35c3.73,12.17-3.11,25.05-15.28,28.78-12.17,3.73-25.05-3.11-28.78-15.28-3.73-12.17,3.11-25.05,15.28-28.78,1.11-.34,2.22-.59,3.33-.76,11.11-1.68,22.06,4.98,25.45,16.04Z"/>
    <path class="cls-2" d="m24.54,54.67c-3.96,0-7.89-.97-11.49-2.88-5.79-3.08-10.04-8.22-11.96-14.5-1.92-6.27-1.29-12.92,1.79-18.71,3.08-5.79,8.22-10.04,14.5-11.96,1.16-.36,2.35-.63,3.54-.81,11.92-1.81,23.59,5.54,27.13,17.09h0c3.97,12.95-3.34,26.71-16.29,30.67-2.38.73-4.81,1.09-7.23,1.09Zm0-46.09c-1.05,0-2.11.08-3.17.24-1.04.16-2.09.4-3.11.71-5.5,1.68-10.01,5.41-12.7,10.48-2.7,5.08-3.25,10.9-1.57,16.4,1.68,5.5,5.41,10.01,10.48,12.7,5.08,2.7,10.9,3.25,16.4,1.57,11.35-3.48,17.75-15.53,14.27-26.88h0c-2.79-9.1-11.32-15.22-20.61-15.22Z"/>
  </g>
  <g>
    <circle class="cls-1" cx="24.57" cy="30.1" r="12.94"/>
    <path class="cls-2" d="m24.58,44.05c-5.97,0-11.51-3.87-13.35-9.87-1.09-3.56-.73-7.34,1.02-10.63,1.75-3.29,4.67-5.71,8.24-6.8,7.36-2.25,15.17,1.9,17.43,9.25h0c2.25,7.36-1.9,15.17-9.25,17.43-1.36.42-2.73.61-4.08.61Zm-.01-25.88c-1.15,0-2.33.17-3.49.52-3.05.93-5.55,3-7.04,5.81-1.49,2.81-1.8,6.04-.87,9.09,1.93,6.29,8.61,9.84,14.9,7.91,6.29-1.93,9.84-8.61,7.91-14.9h0c-1.57-5.13-6.31-8.44-11.41-8.44Z"/>
  </g>
</svg>