<?xml version="1.0" encoding="UTF-8"?>
<svg id="_レイヤー_1" data-name="レイヤー 1" xmlns="http://www.w3.org/2000/svg" viewBox="0 0 28.5 30">
  <defs>
    <style>
      .cls-1 {
        fill: #979797;
      }
    </style>
  </defs>
  <path class="cls-1" d="m27.97,13.69c-.49-.84-1.28-1.4-2.22-1.58-1-.19-3.03-.19-4.98-.19-.94,0-1.83,0-2.51-.03-.08,0-.16-.03-.21-.09-.04-.04-.04-.08-.04-.11l1.2-7.33v-.02c.03-.21.27-2.12-.81-3.36-.39-.45-1.11-.98-2.33-.98h0c-2.1,0-2.64,1.54-3.21,3.16-.13.37-.27.76-.43,1.17-.05.13-.12.3-.2.52-.39,1.04-1.13,2.98-2.07,4.72-1.37,2.54-2.35,3.1-2.82,3.2l-.3.04v1.76s.58-.08.58-.08h.05c1.37-.29,2.68-1.62,4.02-4.09,1-1.84,1.76-3.86,2.17-4.94.08-.21.14-.37.19-.5.18-.45.33-.87.46-1.24.65-1.84.85-2,1.57-2h0c.46,0,.79.12,1.01.37.48.54.45,1.61.41,1.97l-1.2,7.37v.06c-.06.53.11,1.04.46,1.44.36.41.9.66,1.46.67.71.02,1.61.03,2.57.03,1.79,0,3.82,0,4.67.17.75.14,1.45.89,1.32,2.25l-1.55,9.73c-.32,1.25-.89,1.61-1.83,1.83-1.36.32-4.99.44-9.04.3h-.05c-.5,0-2.59-.45-4.27-.81-1.03-.22-2.08-.45-2.97-.62v1.77c.8.16,1.71.35,2.6.54,2.45.53,3.99.85,4.65.85h0c1.1.04,2.17.05,3.17.05,2.86,0,5.19-.14,6.31-.4,1.73-.4,2.7-1.37,3.13-3.14v-.03s1.58-9.83,1.58-9.83v-.05c.1-.93-.08-1.85-.5-2.58Z"/>
  <path class="cls-1" d="m1.61,30c-.42,0-.82-.16-1.12-.46-.3-.3-.47-.7-.47-1.12L0,12.79c0-.42.16-.82.46-1.12.3-.3.7-.47,1.13-.47h4.7s0,0,0,0c.42,0,.82.16,1.12.46.3.3.47.7.47,1.12l.02,15.63c0,.87-.71,1.59-1.59,1.59H1.62s0,0,0,0Zm.13-17.06l.02,15.32h4.39s-.02-15.33-.02-15.33H1.75Z"/>
</svg>