<?xml version="1.0" encoding="UTF-8"?>
<svg id="_レイヤー_1" data-name="レイヤー 1" xmlns="http://www.w3.org/2000/svg" viewBox="0 0 59.71 83.46">
  <defs>
    <style>
      .cls-1 {
        fill: #fff;
      }

      .cls-2 {
        fill: #2f2f2f;
      }

      .cls-3 {
        fill: #fcc3de;
      }
    </style>
  </defs>
  <path class="cls-2" d="m53.58,63.4h-15.28c-.96,0-1.73-.78-1.73-1.73v-22.91c0-.96.78-1.73,1.73-1.73h15.28c.96,0,1.73.78,1.73,1.73v22.91c0,.96-.78,1.73-1.73,1.73Zm-13.54-3.46h11.81v-19.45h-11.81v19.45Z"/>
  <g>
    <path class="cls-3" d="m20.25,26.65H7.29v-12.58c0-2.58,1.18-5.01,3.21-6.61l6.78-5.33c1.2-.95,2.97-.09,2.97,1.44v23.08Z"/>
    <path class="cls-2" d="m20.25,28.38H7.29c-.96,0-1.73-.78-1.73-1.73v-12.58c0-3.13,1.41-6.03,3.87-7.97L16.21.77c1.08-.85,2.53-1,3.76-.4,1.24.6,2.01,1.83,2.01,3.21v23.08c0,.96-.78,1.73-1.73,1.73Zm-11.23-3.46h9.5V3.57s0-.06-.06-.09c-.06-.03-.08,0-.11.01l-6.78,5.33c-1.62,1.27-2.55,3.18-2.55,5.24v10.85Z"/>
  </g>
  <g>
    <path class="cls-1" d="m50.19,81.73h-8.5c-4.3,0-7.79-3.49-7.79-7.79v-29.71h24.07v29.71c0,4.3-3.49,7.79-7.79,7.79Z"/>
    <path class="cls-2" d="m50.19,83.46h-8.5c-5.25,0-9.52-4.27-9.52-9.52v-29.71c0-.96.78-1.73,1.73-1.73h24.07c.96,0,1.73.78,1.73,1.73v29.71c0,5.25-4.27,9.52-9.52,9.52Zm-14.55-37.5v27.98c0,3.34,2.72,6.05,6.05,6.05h8.5c3.34,0,6.05-2.72,6.05-6.05v-27.98h-20.61Z"/>
  </g>
  <g>
    <rect class="cls-1" x="6.13" y="22.94" width="15.28" height="34.26"/>
    <path class="cls-2" d="m21.41,58.93H6.13c-.96,0-1.73-.78-1.73-1.73V22.94c0-.96.78-1.73,1.73-1.73h15.28c.96,0,1.73.78,1.73,1.73v34.26c0,.96-.78,1.73-1.73,1.73Zm-13.54-3.46h11.81v-30.79H7.86v30.79Z"/>
  </g>
  <g>
    <path class="cls-1" d="m18.02,81.73h-8.5c-4.3,0-7.79-3.49-7.79-7.79v-21.84h24.07v21.84c0,4.3-3.49,7.79-7.79,7.79Z"/>
    <path class="cls-2" d="m18.02,83.46h-8.5c-5.25,0-9.52-4.27-9.52-9.52v-21.84c0-.96.78-1.73,1.73-1.73h24.07c.96,0,1.73.78,1.73,1.73v21.84c0,5.25-4.27,9.52-9.52,9.52ZM3.46,53.84v20.11c0,3.34,2.72,6.05,6.05,6.05h8.5c3.34,0,6.05-2.72,6.05-6.05v-20.11H3.46Z"/>
  </g>
</svg>