<?xml version="1.0" encoding="UTF-8"?>
<svg id="_レイヤー_1" data-name="レイヤー 1" xmlns="http://www.w3.org/2000/svg" viewBox="0 0 83.14 65.05">
  <defs>
    <style>
      .cls-1 {
        fill: #2f2f2f;
      }

      .cls-2 {
        fill: #fcc3de;
      }
    </style>
  </defs>
  <path class="cls-2" d="m33.31,27.25c-.6,0-1.17-.34-1.43-.92-.36-.79,0-1.72.78-2.07l35.01-15.8c.79-.36,1.72,0,2.08.78.36.79,0,1.72-.78,2.07l-35.01,15.8c-.21.09-.43.14-.64.14Z"/>
  <path class="cls-1" d="m71.05,41.72c-.58,0-1.14-.32-1.41-.88-.38-.78-.06-1.72.72-2.1l8.85-4.35c.7-.34.98-1.19.64-1.88l-14.04-28.59c-.17-.34-.45-.59-.81-.71s-.74-.1-1.07.07L20.42,24.64c-.78.38-1.72.06-2.1-.72-.38-.78-.06-1.72.72-2.1L62.56.47c1.09-.53,2.32-.61,3.47-.22,1.15.39,2.08,1.21,2.61,2.3l14.04,28.59c1.1,2.25.17,4.98-2.08,6.08l-8.85,4.35c-.22.11-.46.16-.69.16Z"/>
  <path class="cls-1" d="m65.15,65.05H4.51c-2.49,0-4.51-2.02-4.51-4.51v-31.92c0-2.49,2.02-4.51,4.51-4.51h60.64c2.49,0,4.51,2.02,4.51,4.51v31.92c0,2.49-2.02,4.51-4.51,4.51ZM4.51,27.25c-.76,0-1.37.62-1.37,1.37v31.92c0,.76.62,1.37,1.37,1.37h60.64c.76,0,1.37-.62,1.37-1.37v-31.92c0-.76-.62-1.37-1.37-1.37H4.51Z"/>
  <path class="cls-2" d="m35.47,45.17l-.54,3.05c-.03.19.18.32.33.21l2.46-1.94,8.58.82-3.11,9.81s2.73-.88,3.07-1.22c.81-.8,2.84-3.77,4.55-8.37l5.6.29c1.31,0,2.82-1.56,2.82-2.48v-.35c0-.92-1.51-2.48-2.82-2.48l-5.6.29c-1.7-4.6-3.74-7.56-4.55-8.37-.34-.34-3.07-1.22-3.07-1.22l3.11,9.81-8.58.82-2.46-1.94c-.15-.11-.36.02-.33.21l.54,3.05Z"/>
  <path class="cls-1" d="m27.4,39.03H2.03c-.58,0-1.05-.47-1.05-1.05s.47-1.05,1.05-1.05h25.37c.58,0,1.05.47,1.05,1.05s-.47,1.05-1.05,1.05Z"/>
  <path class="cls-1" d="m22.34,46.2H2.03c-.58,0-1.05-.47-1.05-1.05s.47-1.05,1.05-1.05h20.31c.58,0,1.05.47,1.05,1.05s-.47,1.05-1.05,1.05Z"/>
  <path class="cls-1" d="m27.65,53.37H2.03c-.58,0-1.05-.47-1.05-1.05s.47-1.05,1.05-1.05h25.62c.58,0,1.05.47,1.05,1.05s-.47,1.05-1.05,1.05Z"/>
</svg>