<?xml version="1.0" encoding="UTF-8"?>
<svg id="_レイヤー_1" data-name="レイヤー 1" xmlns="http://www.w3.org/2000/svg" viewBox="0 0 80 59.18">
  <defs>
    <style>
      .cls-1 {
        fill: #f2387b;
      }
    </style>
  </defs>
  <path class="cls-1" d="m80,22.6c.02-.89-.57-1.69-1.44-1.92L2.46.06C2.28.01,2.11,0,1.93,0c-.03,0-.06,0-.1,0-.34.02-.67.13-.95.32-.03.02-.06.04-.1.07-.14.1-.26.22-.37.35,0,0,0,0,0,0,0,0,0,0,0,.01-.07.1-.14.2-.2.31-.02.04-.03.08-.04.12-.02.04-.03.08-.05.13-.05.15-.09.3-.1.46,0,.01,0,.02,0,.03-.01.17,0,.33.03.5,0,.04.02.08.03.12.04.16.1.32.18.47,0,0,0,0,0,0h0s0,0,0,0l30.67,55.29c.28.5.76.85,1.31.96.09.02.19.03.28.04.67.04,1.31-.27,1.69-.82l8.25-11.71,11.8-16.74,2.12-.48,22.11-4.97c.87-.2,1.5-.96,1.52-1.86Zm-27.33,3.67c-.47.11-.89.38-1.16.78l-18.69,26.52L6.72,6.53l40.4,20.42c.16.08.32.14.49.17.84.17,1.72-.23,2.12-1.03.48-.96.1-2.13-.86-2.61l-29.04-14.68,50.12,13.58-17.29,3.89Z"/>
  <path class="cls-1" d="m53.76,32.55l-3.62,17.78-4.83-3.62c-.78-.59-1.86-.49-2.54.19-.07.06-.13.13-.19.2-.64.86-.47,2.08.39,2.73l7.29,5.46c.23.18.5.29.78.35.36.07.73.05,1.08-.09.62-.24,1.08-.78,1.21-1.43l4.23-20.79c.21-1.05-.46-2.08-1.52-2.29,0,0-.01,0-.02,0-1.05-.2-2.06.47-2.28,1.52Z"/>
</svg>