<?xml version="1.0" encoding="UTF-8"?>
<svg id="_レイヤー_1" data-name="レイヤー 1" xmlns="http://www.w3.org/2000/svg" viewBox="0 0 101 101">
  <defs>
    <style>
      .cls-1 {
        opacity: .7;
      }

      .cls-2 {
        fill: #fff;
      }
    </style>
  </defs>
  <g class="cls-1">
    <path class="cls-2" d="m50.5.5C22.93.5.5,22.93.5,50.5s22.43,50,50,50,50-22.43,50-50S78.07.5,50.5.5Zm0,95.19c-24.92,0-45.19-20.27-45.19-45.19S25.58,5.31,50.5,5.31s45.19,20.27,45.19,45.19-20.27,45.19-45.19,45.19Z"/>
    <path class="cls-2" d="m76.31,48.15l-37.07-21.42c-.74-.43-1.66-.43-2.41,0-.74.43-1.2,1.22-1.2,2.08v42.82c0,.86.46,1.65,1.2,2.08.37.22.79.32,1.2.32s.83-.11,1.2-.32l37.07-21.4c.74-.43,1.2-1.22,1.2-2.08s-.46-1.65-1.2-2.08Z"/>
  </g>
</svg>