<?xml version="1.0" encoding="UTF-8"?>
<svg id="_レイヤー_1" data-name="レイヤー 1" xmlns="http://www.w3.org/2000/svg" viewBox="0 0 79.57 83.09">
  <defs>
    <style>
      .cls-1 {
        fill: #2f2f2f;
      }

      .cls-2 {
        fill: #fcc3de;
      }
    </style>
  </defs>
  <g>
    <g>
      <path class="cls-2" d="m27.3,81.55H10.44c-2.57,0-4.65-2.08-4.65-4.65v-8.05h26.15v8.05c0,2.57-2.08,4.65-4.65,4.65Z"/>
      <path class="cls-1" d="m27.3,83.09H10.44c-3.42,0-6.2-2.78-6.2-6.2v-8.05c0-.85.69-1.55,1.55-1.55h26.15c.85,0,1.55.69,1.55,1.55v8.05c0,3.42-2.78,6.2-6.2,6.2Zm-19.96-12.7v6.5c0,1.71,1.39,3.1,3.1,3.1h16.86c1.71,0,3.1-1.39,3.1-3.1v-6.5H7.34Z"/>
    </g>
    <path class="cls-1" d="m31.66,70.4H6.27c-.81,0-1.48-.63-1.54-1.43L0,4.85c-.06-.84.23-1.67.8-2.29.57-.62,1.38-.97,2.22-.97h31.86c.84,0,1.65.35,2.22.97.57.62.86,1.45.8,2.29l-4.71,64.12c-.06.81-.73,1.43-1.54,1.43Zm-23.96-3.09h22.52l4.61-62.68-31.8.07,4.67,62.62Z"/>
    <path class="cls-1" d="m34.98,9.28H2.76c-.57,0-1.03-.46-1.03-1.03s.46-1.03,1.03-1.03h32.22c.57,0,1.03.46,1.03,1.03s-.46,1.03-1.03,1.03Z"/>
  </g>
  <g>
    <path class="cls-1" d="m74.64,83.09h-26.55c-1.94,0-3.51-1.52-3.55-3.47l-1.36-53.43c-.05-1.94.67-3.78,2.03-5.17,1.36-1.39,3.17-2.16,5.12-2.16h22.11c1.94,0,3.76.77,5.12,2.16,1.36,1.39,2.08,3.23,2.03,5.17l-1.36,53.43c-.05,1.94-1.61,3.47-3.55,3.47Zm-24.33-61.12c-1.1,0-2.13.43-2.9,1.22-.77.79-1.18,1.83-1.15,2.93l1.36,53.43c0,.25.21.45.46.45h26.55c.25,0,.46-.2.46-.45l1.37-53.43c.03-1.1-.38-2.14-1.15-2.93-.77-.79-1.8-1.22-2.9-1.22h-22.11Z"/>
    <g>
      <path class="cls-2" d="m68.57,15.96h-14.41V6.74c0-2.87,2.33-5.2,5.2-5.2h4.02c2.87,0,5.2,2.33,5.2,5.2v9.21Z"/>
      <path class="cls-1" d="m68.57,17.5h-14.41c-.85,0-1.55-.69-1.55-1.55V6.74c0-3.72,3.03-6.74,6.74-6.74h4.02c3.72,0,6.74,3.02,6.74,6.74v9.21c0,.85-.69,1.55-1.55,1.55Zm-12.86-3.09h11.32v-7.67c0-2.01-1.64-3.65-3.65-3.65h-4.02c-2.01,0-3.65,1.64-3.65,3.65v7.67Z"/>
    </g>
  </g>
</svg>