<?xml version="1.0" encoding="UTF-8"?>
<svg id="_レイヤー_1" data-name="レイヤー 1" xmlns="http://www.w3.org/2000/svg" viewBox="0 0 83.78 70.75">
  <defs>
    <style>
      .cls-1 {
        fill: #fff;
      }

      .cls-2 {
        fill: #2f2f2f;
      }

      .cls-3 {
        fill: #fcc3de;
      }
    </style>
  </defs>
  <g>
    <rect class="cls-3" x="1.89" y="14.54" width="80" height="54.33" rx="7.47" ry="7.47"/>
    <path class="cls-2" d="m74.42,70.75H9.35c-5.16,0-9.35-4.2-9.35-9.35V22c0-5.16,4.2-9.35,9.35-9.35h65.07c5.16,0,9.35,4.2,9.35,9.35v39.4c0,5.16-4.2,9.35-9.35,9.35ZM9.35,16.43c-3.08,0-5.58,2.5-5.58,5.58v39.4c0,3.08,2.5,5.58,5.58,5.58h65.07c3.08,0,5.58-2.5,5.58-5.58V22c0-3.08-2.5-5.58-5.58-5.58H9.35Z"/>
  </g>
  <g>
    <rect class="cls-1" x="11.19" y="23.84" width="48" height="37.21" rx="1.81" ry="1.81"/>
    <path class="cls-2" d="m57.38,62.31H13c-1.69,0-3.06-1.37-3.06-3.06V25.65c0-1.69,1.38-3.06,3.06-3.06h44.39c1.69,0,3.06,1.37,3.06,3.06v33.6c0,1.69-1.38,3.06-3.06,3.06ZM13,25.1c-.3,0-.55.25-.55.55v33.6c0,.3.25.55.55.55h44.39c.3,0,.55-.25.55-.55V25.65c0-.3-.25-.55-.55-.55H13Z"/>
  </g>
  <g>
    <circle class="cls-1" cx="70.54" cy="32.21" r="3.16"/>
    <path class="cls-2" d="m70.54,36.64c-2.44,0-4.42-1.98-4.42-4.42s1.98-4.42,4.42-4.42,4.42,1.98,4.42,4.42-1.98,4.42-4.42,4.42Zm0-6.33c-1.05,0-1.9.85-1.9,1.9s.85,1.9,1.9,1.9,1.9-.85,1.9-1.9-.85-1.9-1.9-1.9Z"/>
  </g>
  <g>
    <circle class="cls-1" cx="70.54" cy="50.08" r="3.16"/>
    <path class="cls-2" d="m70.54,54.5c-2.44,0-4.42-1.98-4.42-4.42s1.98-4.42,4.42-4.42,4.42,1.98,4.42,4.42-1.98,4.42-4.42,4.42Zm0-6.33c-1.05,0-1.9.85-1.9,1.9s.85,1.9,1.9,1.9,1.9-.85,1.9-1.9-.85-1.9-1.9-1.9Z"/>
  </g>
  <path class="cls-2" d="m38.73,16.43c-.6,0-1.17-.29-1.52-.77L27.9,3.01c-.62-.84-.44-2.02.4-2.64.84-.62,2.02-.44,2.64.4l7.77,10.57L46.37.78c.61-.84,1.79-1.03,2.64-.42.84.61,1.03,1.79.42,2.64l-9.17,12.65c-.35.49-.92.78-1.52.78h0Z"/>
</svg>