<?xml version="1.0" encoding="UTF-8"?>
<svg id="_レイヤー_1" data-name="レイヤー 1" xmlns="http://www.w3.org/2000/svg" viewBox="0 0 50.12 40.73">
  <defs>
    <style>
      .cls-1 {
        fill: #2f2f2f;
      }
    </style>
  </defs>
  <path class="cls-1" d="m50.12,4.82c-1.85.82-3.83,1.37-5.91,1.62,2.12-1.27,3.76-3.29,4.52-5.69-1.98,1.18-4.19,2.03-6.53,2.49C40.21,1.12,37.32-.15,34.14.01c-4.71.25-8.76,3.82-9.57,8.46-.25,1.44-.19,2.84.11,4.15-8.55-.43-16.12-4.52-21.2-10.75-.89,1.52-1.39,3.29-1.39,5.17,0,3.57,1.81,6.71,4.57,8.56-1.69-.05-3.27-.52-4.66-1.29v.13c0,4.98,3.55,9.14,8.25,10.09-.86.23-1.77.36-2.71.36-.66,0-1.31-.06-1.94-.19,1.31,4.08,5.11,7.06,9.61,7.14-3.52,2.76-7.95,4.4-12.77,4.4-.83,0-1.65-.05-2.45-.14,4.55,2.92,9.95,4.62,15.76,4.62,18.91,0,29.26-15.67,29.26-29.25,0-.45-.01-.89-.03-1.33,2.01-1.45,3.75-3.26,5.13-5.32Z"/>
</svg>