<?xml version="1.0" encoding="UTF-8"?>
<svg id="_レイヤー_1" data-name="レイヤー 1" xmlns="http://www.w3.org/2000/svg" viewBox="0 0 30 30">
  <defs>
    <style>
      .cls-1 {
        fill: #979797;
      }
    </style>
  </defs>
  <path class="cls-1" d="m15,0C6.72,0,0,6.72,0,15s6.72,15,15,15,15-6.72,15-15S23.28,0,15,0Zm9.69,22.88c-.33-.73-.99-1.24-2.34-1.55-2.87-.66-5.53-1.24-4.24-3.68,3.93-7.43,1.04-11.4-3.11-11.4s-7.06,4.12-3.11,11.4c1.33,2.46-1.43,3.03-4.24,3.68-1.36.31-2.01.82-2.33,1.56-1.76-2.15-2.81-4.9-2.81-7.89,0-6.89,5.61-12.5,12.5-12.5s12.5,5.61,12.5,12.5c0,2.99-1.06,5.73-2.81,7.88Z"/>
</svg>