<?xml version="1.0" encoding="UTF-8"?>
<svg id="_レイヤー_1" data-name="レイヤー 1" xmlns="http://www.w3.org/2000/svg" viewBox="0 0 246 246">
  <defs>
    <style>
      .cls-1 {
        fill: #f2387b;
      }

      .cls-2 {
        fill: #fff;
      }
    </style>
  </defs>
  <circle class="cls-2" cx="123" cy="123" r="111.01"/>
  <path class="cls-2" d="m123.01,3c3.15,0,6.04,5.69,9.14,5.95.07,0,.14,0,.21,0,2.94,0,6.43-4.47,9.33-4.47.14,0,.28.01.42.03,3.11.49,5.06,6.58,8.09,7.31.24.06.48.08.74.08,2.69,0,6.22-3,8.89-3,.32,0,.62.04.91.14,2.97.98,3.94,7.31,6.81,8.53.39.16.81.23,1.28.23,2.33,0,5.49-1.75,7.82-1.75.53,0,1.02.09,1.45.31,2.68,1.38,2.54,7.72,5.1,9.31.58.36,1.33.48,2.15.48,1.89,0,4.23-.65,6.12-.65.91,0,1.73.15,2.33.6,2.44,1.77,1.34,8.01,3.62,9.98,2.28,1.95,8.29-.08,10.42,2.05,2.13,2.13.1,8.13,2.05,10.42,1.97,2.28,8.21,1.18,10,3.62,1.77,2.42-1.16,8.05.41,10.61,1.59,2.56,7.94,2.42,9.31,5.12,1.4,2.66-2.38,7.76-1.2,10.55,1.22,2.86,7.54,3.82,8.53,6.79.96,2.95-3.53,7.5-2.78,10.55.73,3.01,6.81,4.96,7.3,8.07.49,3.07-4.67,6.83-4.41,9.96.24,3.09,5.93,5.99,5.93,9.14s-5.69,6.06-5.93,9.16c-.26,3.13,4.9,6.89,4.41,9.96-.49,3.09-6.58,5.06-7.3,8.07-.75,3.05,3.74,7.6,2.78,10.55-.98,2.97-7.31,3.94-8.53,6.79-1.18,2.8,2.6,7.9,1.2,10.55-1.38,2.68-7.72,2.56-9.29,5.12-1.59,2.56,1.34,8.17-.43,10.61-1.79,2.42-8.03,1.32-10,3.62-1.95,2.28.08,8.29-2.05,10.42-1.06,1.06-3.1,1.08-5.15,1.08h-.24c-1.97,0-3.93.02-5.03.96-2.28,1.97-1.18,8.21-3.62,9.98-.6.44-1.41.59-2.31.59-1.89,0-4.23-.65-6.12-.65-.84,0-1.59.13-2.18.49-2.56,1.59-2.42,7.93-5.1,9.31-.43.22-.91.31-1.44.31-2.34,0-5.49-1.74-7.83-1.74-.46,0-.9.07-1.28.23-2.87,1.2-3.84,7.52-6.81,8.51-.29.1-.6.14-.93.14-2.67,0-6.2-3-8.89-3-.25,0-.49.03-.72.08-3.03.75-4.98,6.83-8.09,7.32-.14.02-.28.03-.42.03-2.9,0-6.39-4.47-9.33-4.47-.07,0-.14,0-.21,0-3.09.26-5.99,5.95-9.14,5.95s-6.06-5.69-9.16-5.95c-.07,0-.14,0-.21,0-2.94,0-6.41,4.47-9.33,4.47-.14,0-.28-.01-.42-.03-3.09-.49-5.06-6.58-8.07-7.32-.23-.06-.47-.08-.72-.08-2.69,0-6.24,3-8.91,3-.32,0-.63-.04-.93-.14-2.97-.98-3.94-7.31-6.79-8.51-.39-.16-.82-.23-1.28-.23-2.34,0-5.49,1.74-7.83,1.74-.53,0-1.02-.09-1.44-.31-2.68-1.38-2.56-7.72-5.12-9.31-.59-.37-1.34-.49-2.18-.49-1.89,0-4.22.65-6.12.65-.91,0-1.71-.15-2.32-.59-2.42-1.77-1.32-8.01-3.6-9.98-1.11-.95-3.07-.96-5.04-.96h-.24c-2.05,0-4.09-.02-5.16-1.08-2.13-2.13-.08-8.13-2.05-10.42-1.95-2.3-8.19-1.2-9.98-3.62-1.77-2.44,1.16-8.05-.43-10.61-1.58-2.56-7.92-2.44-9.31-5.12-1.38-2.66,2.38-7.76,1.2-10.55-1.2-2.86-7.52-3.82-8.51-6.79-.98-2.95,3.52-7.5,2.78-10.55-.75-3.01-6.83-4.98-7.32-8.07-.49-3.07,4.69-6.83,4.43-9.96-.24-3.09-5.95-6.01-5.95-9.16s5.71-6.05,5.95-9.14c.26-3.13-4.92-6.89-4.43-9.96.49-3.11,6.58-5.06,7.32-8.09.75-3.03-3.76-7.58-2.78-10.53.98-2.97,7.3-3.94,8.51-6.79,1.18-2.8-2.58-7.9-1.2-10.55,1.4-2.7,7.74-2.56,9.31-5.12,1.6-2.56-1.34-8.19.43-10.61,1.79-2.44,8.03-1.34,9.98-3.62,1.97-2.28-.08-8.29,2.05-10.42,2.15-2.13,8.13-.1,10.44-2.05,2.28-1.97,1.18-8.21,3.6-9.98.61-.45,1.43-.6,2.34-.6,1.9,0,4.23.65,6.12.65.83,0,1.57-.12,2.15-.48,2.56-1.59,2.44-7.93,5.12-9.31.43-.22.92-.31,1.45-.31,2.34,0,5.49,1.75,7.82,1.75.46,0,.89-.07,1.28-.23,2.85-1.22,3.82-7.54,6.79-8.53.29-.09.59-.14.91-.14,2.67,0,6.22,3,8.91,3,.25,0,.5-.03.74-.08,3.01-.73,4.98-6.81,8.07-7.31.14-.02.28-.03.42-.03,2.92,0,6.38,4.47,9.33,4.47.07,0,.14,0,.21,0,3.09-.26,6.01-5.95,9.16-5.95m0-3c-2.83,0-4.94,2.04-6.81,3.84-.77.74-2.04,1.97-2.59,2.12-.58-.05-2.05-1.08-2.93-1.7-1.86-1.3-3.96-2.77-6.36-2.77-.3,0-.61.02-.9.07-2.78.44-4.54,2.78-6.08,4.85-.65.86-1.73,2.31-2.24,2.51-.67,0-2.06-.68-3.18-1.21-1.83-.88-3.72-1.79-5.74-1.79-.64,0-1.26.1-1.84.28-2.69.89-4.05,3.49-5.24,5.78-.49.94-1.3,2.49-1.78,2.82-.02,0-.06,0-.11,0-.7,0-1.92-.39-3-.73-1.57-.5-3.19-1.02-4.82-1.02-1.05,0-2.01.22-2.84.66-2.46,1.27-3.34,4.02-4.11,6.45-.3.95-.81,2.52-1.2,2.96-.08.02-.25.05-.57.05-.71,0-1.63-.14-2.6-.29-1.15-.18-2.34-.36-3.52-.36-1.69,0-3.03.39-4.12,1.18-2.24,1.64-2.68,4.49-3.06,7-.15,1-.41,2.65-.73,3.12-.47.23-2.16.23-3.18.23-2.54,0-5.43,0-7.4,1.96-1.97,1.97-1.97,4.86-1.97,7.4,0,1.01,0,2.67-.25,3.19-.47.32-2.11.57-3.1.73-2.52.39-5.38.83-7.02,3.08-1.64,2.24-1.2,5.09-.81,7.6.15,1,.41,2.66.24,3.2-.41.39-1.99.89-2.94,1.19-2.43.77-5.19,1.65-6.48,4.13-1.27,2.46-.4,5.2.36,7.62.31.98.82,2.6.73,3.16-.32.48-1.88,1.29-2.82,1.78-2.29,1.2-4.88,2.55-5.77,5.23-.89,2.66.38,5.29,1.5,7.61.47.98,1.27,2.62,1.2,3.17-.18.47-1.64,1.56-2.51,2.21-2.07,1.55-4.42,3.31-4.86,6.11-.44,2.76,1.23,5.14,2.7,7.25.63.9,1.68,2.4,1.7,2.96-.11.5-1.37,1.8-2.11,2.57-1.8,1.86-3.84,3.96-3.84,6.79s2.04,4.94,3.84,6.8c.75.78,2.01,2.08,2.12,2.61-.02.53-1.07,2.03-1.7,2.93-1.47,2.1-3.14,4.49-2.7,7.25.44,2.78,2.79,4.54,4.86,6.09.87.65,2.32,1.74,2.52,2.25.06.5-.74,2.16-1.22,3.15-1.12,2.32-2.39,4.95-1.5,7.61.88,2.67,3.48,4.03,5.76,5.22.94.49,2.5,1.3,2.82,1.78.1.56-.42,2.18-.73,3.16-.77,2.42-1.64,5.16-.36,7.62,1.29,2.47,4.04,3.35,6.46,4.12.96.31,2.55.81,2.96,1.2.17.54-.09,2.2-.24,3.19-.39,2.51-.83,5.35.8,7.6,1.66,2.25,4.5,2.69,7.01,3.07,1,.16,2.66.41,3.12.74.25.51.25,2.18.25,3.2,0,2.54,0,5.43,1.96,7.39,1.98,1.96,4.92,1.96,7.28,1.96h.12s.12,0,.12,0c.85,0,2.59,0,3.09.26.3.41.55,2.1.71,3.11.39,2.52.83,5.37,3.07,7.01,1.09.79,2.42,1.17,4.09,1.17,1.18,0,2.37-.18,3.52-.36.97-.15,1.88-.29,2.6-.29.36,0,.54.04.6.06.36.36.88,1.98,1.19,2.96.78,2.43,1.66,5.19,4.13,6.46.83.43,1.77.64,2.81.64,1.63,0,3.25-.51,4.82-1.01,1.08-.34,2.31-.73,3.01-.73.06,0,.1,0,.13,0,.46.3,1.28,1.87,1.78,2.81,1.2,2.29,2.55,4.88,5.23,5.77.58.19,1.21.29,1.87.29,2.02,0,3.91-.91,5.74-1.79,1.12-.54,2.51-1.21,3.17-1.21.49.18,1.57,1.64,2.22,2.5,1.55,2.07,3.31,4.42,6.09,4.86.29.05.59.07.9.07,2.4,0,4.51-1.47,6.36-2.77.89-.62,2.36-1.65,2.94-1.7.55.15,1.83,1.38,2.59,2.12,1.86,1.8,3.98,3.84,6.81,3.84s4.94-2.04,6.8-3.84c.76-.74,2.03-1.96,2.58-2.11.58.05,2.06,1.08,2.95,1.71,1.86,1.3,3.96,2.76,6.35,2.76.3,0,.6-.02.9-.07,2.79-.44,4.55-2.79,6.1-4.86.64-.85,1.69-2.26,2.22-2.5.7.01,2.07.67,3.17,1.2,1.83.88,3.72,1.79,5.74,1.79.66,0,1.29-.1,1.87-.3,2.67-.88,4.02-3.47,5.22-5.75.5-.94,1.32-2.52,1.8-2.83.02,0,.07,0,.13,0,.7,0,1.93.39,3.01.73,1.57.5,3.19,1.01,4.82,1.01,1.04,0,1.99-.22,2.81-.64,2.48-1.27,3.35-4.03,4.12-6.46.3-.96.8-2.53,1.19-2.96.08-.02.25-.05.59-.05.72,0,1.64.14,2.61.29,1.15.18,2.34.36,3.51.36,1.67,0,3.01-.38,4.08-1.17,2.25-1.63,2.69-4.49,3.08-7.02.15-.99.41-2.63.73-3.11.52-.24,2.23-.24,3.07-.24h.24c2.37,0,5.31,0,7.27-1.96,1.96-1.96,1.97-4.85,1.97-7.4,0-1.02,0-2.7.25-3.2.41-.3,2.1-.56,3.12-.72,2.51-.39,5.35-.83,6.99-3.05,1.64-2.27,1.21-5.11.82-7.62-.15-1-.41-2.65-.24-3.19.41-.39,2-.9,2.95-1.2,2.43-.78,5.18-1.66,6.45-4.13,1.28-2.44.41-5.2-.37-7.63-.31-.97-.82-2.59-.73-3.14.3-.46,1.88-1.28,2.82-1.78,2.29-1.2,4.89-2.55,5.78-5.23.87-2.66-.39-5.28-1.5-7.59-.48-.99-1.28-2.66-1.21-3.21.19-.48,1.64-1.56,2.5-2.21,2.07-1.55,4.41-3.3,4.85-6.09.44-2.76-1.22-5.14-2.69-7.25-.63-.9-1.68-2.41-1.69-2.96.11-.51,1.36-1.81,2.11-2.59,1.79-1.86,3.82-3.97,3.82-6.8s-2.03-4.93-3.83-6.79c-.75-.77-2-2.07-2.11-2.6.02-.53,1.07-2.03,1.7-2.93,1.47-2.1,3.13-4.49,2.69-7.25-.44-2.79-2.79-4.55-4.86-6.1-.86-.64-2.3-1.72-2.5-2.23-.07-.52.74-2.18,1.21-3.18,1.11-2.31,2.37-4.93,1.51-7.58-.89-2.69-3.49-4.05-5.78-5.24-.94-.49-2.49-1.3-2.83-1.78-.09-.56.42-2.17.73-3.14.77-2.43,1.65-5.18.35-7.65-1.26-2.46-4.02-3.34-6.46-4.12-.95-.3-2.52-.8-2.95-1.19-.16-.56.1-2.19.25-3.18.39-2.52.84-5.38-.8-7.62-1.65-2.25-4.51-2.69-7.03-3.08-.99-.15-2.62-.41-3.11-.73-.24-.53-.24-2.18-.24-3.18,0-2.55,0-5.44-1.97-7.4-1.96-1.96-4.85-1.97-7.4-1.97-1,0-2.65,0-3.18-.24-.32-.48-.57-2.11-.73-3.1-.39-2.52-.83-5.38-3.09-7.02-1.06-.79-2.41-1.17-4.1-1.17-1.18,0-2.37.18-3.52.36-.97.15-1.89.29-2.6.29-.32,0-.49-.03-.57-.05-.39-.44-.89-2-1.19-2.95-.77-2.43-1.64-5.19-4.12-6.46-.82-.43-1.77-.65-2.83-.65-1.63,0-3.26.52-4.82,1.02-1.08.34-2.3.73-3,.73-.06,0-.1,0-.12,0-.47-.3-1.3-1.89-1.8-2.84-1.2-2.29-2.55-4.88-5.23-5.76-.59-.19-1.21-.29-1.85-.29-2.02,0-3.9.91-5.73,1.79-1.11.54-2.5,1.21-3.16,1.21-.53-.19-1.61-1.64-2.26-2.5-1.55-2.07-3.3-4.41-6.1-4.85-.28-.05-.59-.07-.89-.07-2.39,0-4.49,1.47-6.35,2.76-.89.62-2.37,1.65-2.95,1.71-.55-.15-1.82-1.38-2.58-2.11-1.86-1.8-3.97-3.84-6.8-3.84h0Z"/>
  <g>
    <path class="cls-1" d="m216.81,83.38c-5.13-12.12-12.47-23.01-21.82-32.37-9.36-9.35-20.25-16.7-32.36-21.82-12.54-5.3-25.87-7.99-39.62-7.99s-27.08,2.69-39.62,7.99c-12.12,5.12-23.01,12.46-32.36,21.82-9.36,9.36-16.7,20.25-21.82,32.37-5.31,12.54-8,25.87-8,39.62s2.69,27.08,8,39.62c5.13,12.12,12.47,23.01,21.82,32.36,9.35,9.35,20.24,16.69,32.36,21.82,12.54,5.3,25.87,7.99,39.62,7.99s27.08-2.69,39.62-7.99c12.12-5.13,23.01-12.47,32.36-21.82,9.35-9.35,16.69-20.24,21.82-32.36,5.3-12.54,7.99-25.87,7.99-39.62s-2.69-27.08-7.99-39.62Z"/>
    <path class="cls-1" d="m243,122.99c0-3.15-5.69-6.04-5.93-9.14-.26-3.13,4.9-6.89,4.41-9.96-.49-3.11-6.58-5.06-7.31-8.07-.75-3.05,3.74-7.6,2.78-10.55-.98-2.97-7.31-3.94-8.53-6.79-1.18-2.8,2.6-7.9,1.2-10.55-1.38-2.7-7.72-2.56-9.31-5.12-1.58-2.56,1.36-8.19-.41-10.61-1.79-2.44-8.03-1.34-10-3.62-1.95-2.28.08-8.29-2.05-10.42-2.13-2.13-8.13-.1-10.42-2.05-2.28-1.97-1.18-8.21-3.62-9.98-2.42-1.79-8.05,1.14-10.61-.43-2.56-1.59-2.42-7.94-5.1-9.31-2.68-1.4-7.78,2.38-10.55,1.2-2.87-1.22-3.84-7.54-6.81-8.53-2.95-.96-7.48,3.52-10.53,2.78-3.03-.73-4.98-6.81-8.09-7.31-3.05-.49-6.83,4.67-9.96,4.43-3.09-.26-5.99-5.95-9.14-5.95s-6.06,5.69-9.16,5.95c-3.13.24-6.89-4.92-9.96-4.43-3.09.49-5.06,6.58-8.07,7.31-3.05.75-7.6-3.74-10.55-2.78-2.97.98-3.94,7.31-6.79,8.53-2.78,1.18-7.88-2.6-10.55-1.2-2.68,1.38-2.56,7.72-5.12,9.31-2.56,1.58-8.17-1.36-10.61.43-2.42,1.77-1.32,8.01-3.6,9.98-2.3,1.95-8.29-.08-10.44,2.05-2.13,2.13-.08,8.13-2.05,10.42-1.95,2.28-8.19,1.18-9.98,3.62-1.77,2.42,1.16,8.05-.43,10.61-1.58,2.56-7.92,2.42-9.31,5.12-1.38,2.66,2.38,7.76,1.2,10.55-1.2,2.86-7.52,3.82-8.51,6.79-.98,2.95,3.52,7.5,2.78,10.53-.75,3.03-6.83,4.98-7.32,8.09-.49,3.07,4.69,6.83,4.43,9.96-.24,3.09-5.95,5.99-5.95,9.14s5.71,6.06,5.95,9.16c.26,3.13-4.92,6.89-4.43,9.96.49,3.09,6.58,5.06,7.32,8.07.75,3.05-3.76,7.6-2.78,10.55.98,2.97,7.3,3.94,8.51,6.79,1.18,2.8-2.58,7.9-1.2,10.55,1.4,2.68,7.74,2.56,9.31,5.12,1.6,2.56-1.34,8.17.43,10.61,1.79,2.42,8.03,1.32,9.98,3.62,1.97,2.28-.08,8.29,2.05,10.42,2.15,2.13,8.13.08,10.44,2.05,2.28,1.97,1.18,8.21,3.6,9.98,2.44,1.77,8.05-1.16,10.61.43,2.56,1.59,2.44,7.93,5.12,9.31,2.68,1.38,7.78-2.38,10.55-1.2,2.85,1.2,3.82,7.52,6.79,8.51,2.95.98,7.5-3.5,10.55-2.78,3.01.75,4.98,6.83,8.07,7.32,3.07.49,6.83-4.67,9.96-4.43,3.09.26,6.01,5.95,9.16,5.95s6.04-5.69,9.14-5.95c3.13-.24,6.91,4.92,9.96,4.43,3.11-.49,5.06-6.58,8.09-7.32,3.05-.73,7.58,3.76,10.53,2.78,2.97-.98,3.94-7.31,6.81-8.51,2.78-1.18,7.88,2.58,10.55,1.2,2.68-1.38,2.54-7.72,5.1-9.31,2.56-1.59,8.19,1.34,10.61-.43,2.44-1.77,1.34-8.01,3.62-9.98,2.28-1.97,8.29.08,10.42-2.05,2.13-2.13.1-8.13,2.05-10.42,1.97-2.3,8.21-1.2,10-3.62,1.77-2.44-1.16-8.05.43-10.61,1.57-2.56,7.92-2.44,9.29-5.12,1.4-2.66-2.38-7.76-1.2-10.55,1.22-2.86,7.54-3.82,8.53-6.79.96-2.95-3.52-7.5-2.78-10.55.73-3.01,6.81-4.98,7.31-8.07.49-3.07-4.67-6.83-4.41-9.96.24-3.09,5.93-6.01,5.93-9.16Zm-13.83,0c0,14.35-2.81,28.26-8.34,41.33-5.33,12.63-12.99,23.98-22.76,33.75-9.72,9.74-21.07,17.39-33.75,22.76-13.08,5.53-26.98,8.34-41.32,8.34s-28.24-2.81-41.33-8.33c-12.66-5.37-24.02-13.03-33.75-22.76-9.74-9.73-17.39-21.09-22.76-33.75-5.53-13.08-8.34-26.99-8.34-41.33s2.81-28.24,8.33-41.31c5.37-12.66,13.03-24.02,22.76-33.75s21.12-17.43,33.75-22.76c13.08-5.53,26.98-8.34,41.33-8.34s28.24,2.81,41.32,8.34c12.65,5.35,24.01,13,33.75,22.76,9.77,9.77,17.43,21.12,22.76,33.75,5.53,13.08,8.34,26.98,8.34,41.32Z"/>
  </g>
</svg>