<?xml version="1.0" encoding="UTF-8"?>
<svg id="_レイヤー_1" data-name=" レイヤー 1" xmlns="http://www.w3.org/2000/svg" viewBox="0 0 372.01 39.99">
  <defs>
    <style>
      .cls-1 {
        fill: #f9f963;
      }
    </style>
  </defs>
  <path class="cls-1" d="m173.57,2.12c-1.29,2.11-2.32,4.42-3.87,6.2-8.71,9.99-17.5,19.9-26.41,29.68-1.05,1.15-3,1.35-4.53,1.99.63-1.47.96-3.24,1.93-4.36,9.93-11.47,19.96-22.85,29.99-34.21.56-.64,1.44-.96,2.18-1.42.22.65.44,1.31.71,2.13h0Z"/>
  <path class="cls-1" d="m341.3,3.3c-.8,1.54-1.4,3.59-2.65,4.94-8.84,9.49-17.78,18.89-26.83,28.16-.94.97-2.82.88-4.26,1.28.59-1.37.88-3.06,1.81-4.07,9.64-10.42,19.37-20.74,29.12-31.04.53-.56,1.49-.64,2.25-.95.15.45.29.9.55,1.68h.01Z"/>
  <path class="cls-1" d="m279.37,38.41c0-1.88-.45-3.43.07-4.09,2.41-3.01,5.07-5.8,7.68-8.62,6.86-7.41,13.71-14.83,20.63-22.16,1.01-1.07,2.43-1.69,3.66-2.52-.36,1.34-.36,3.06-1.15,3.98-9.01,10.38-18.13,20.65-27.27,30.89-.76.86-1.89,1.34-3.62,2.52h0Z"/>
  <path class="cls-1" d="m294.37,37.92c-.58-.51-1.52-1.06-1.46-1.33.27-1.14.61-2.45,1.34-3.26,5.19-5.68,10.44-11.31,15.76-16.85,4.32-4.49,8.75-8.88,13.2-13.22.85-.83,2.08-1.22,3.13-1.82-.44,1.31-.56,2.95-1.37,3.89-6.3,7.29-12.69,14.49-19.13,21.63-2.73,3.03-5.64,5.89-8.52,8.76-.83.82-1.87,1.4-2.96,2.19h0Z"/>
  <path class="cls-1" d="m95.36,38.11c0-1.36-.46-2.95.06-3.56,9.11-10.63,18.33-21.15,27.57-31.64.48-.54,1.44-.59,2.18-.87-.03.69.2,1.63-.14,2.03-9.19,11.15-18.43,22.25-27.69,33.33-.26.32-.85.32-1.99.71h.01Z"/>
  <path class="cls-1" d="m33.06,37.81c-.24-1.33-.88-2.65-.54-3.54.6-1.57,1.65-3.04,2.78-4.27,7.98-8.71,16.01-17.37,24.07-26,.6-.64,1.53-.94,2.3-1.4,0,.89.33,2.12-.08,2.63-8.58,10.52-17.23,20.97-25.91,31.39-.42.5-1.25.59-2.61,1.18h0Z"/>
  <path class="cls-1" d="m372,4.53c-1.15,1.77-2.07,3.53-3.29,5.01-6.8,8.23-13.62,16.44-20.57,24.52-.96,1.11-2.65,1.49-4.01,2.21.36-1.74.2-3.98,1.17-5.14,7.61-9.12,15.42-18.05,23.22-26.99.58-.66,1.52-1.04,2.37-1.27.21-.06.68.98,1.12,1.65h0Z"/>
  <path class="cls-1" d="m282.38,2.87c.67.14,1.08.23,1.49.31-.18.9-.11,2.02-.59,2.67-3.72,5.12-7.46,10.23-11.37,15.17-3.77,4.76-7.67,9.4-11.7,13.9-.89.99-2.57,1.17-3.88,1.73.25-1.37.07-3.14.81-4.04,6.47-7.85,13.09-15.54,19.68-23.27,1.87-2.2,3.77-4.38,5.57-6.48h0Z"/>
  <path class="cls-1" d="m242.94,35.32c-.56-.31-1.64-.64-1.64-.96.02-.93.2-2.12.77-2.74,8.12-8.88,16.29-17.71,24.55-26.44.68-.72,2.09-.63,3.16-.92-.17,1.08.01,2.54-.58,3.2-8.05,8.96-16.21,17.82-24.36,26.67-.47.51-1.18.75-1.9,1.19h0Z"/>
  <path class="cls-1" d="m241.93,3.6c-.73,1.25-1.21,2.43-1.98,3.32-8.36,9.67-16.72,19.34-25.21,28.87-.92,1.03-2.67,1.19-4.04,1.76.46-1.47.55-3.3,1.44-4.34,8.65-10.05,17.43-19.97,26.22-29.88.57-.64,1.53-1.01,2.37-1.18.29-.06.76.88,1.2,1.45Z"/>
  <path class="cls-1" d="m227.53,36.32c-.42-.32-1.39-.81-1.34-1.06.24-1.17.52-2.52,1.23-3.37,4.19-5,8.47-9.92,12.78-14.8,3.67-4.16,7.37-8.29,11.2-12.28.81-.84,2.22-1.01,3.35-1.49-.18,1.13,0,2.63-.6,3.34-8.33,9.68-16.77,19.24-25.2,28.82-.3.34-.8.48-1.41.84h0Z"/>
  <path class="cls-1" d="m44.92,5.67c-.73,1.14-1.37,2.53-2.33,3.57-8.03,8.65-16.08,17.29-24.27,25.77-.91.95-2.71.92-4.09,1.34.58-1.49.81-3.37,1.8-4.41,8.65-9.03,17.43-17.93,26.21-26.81.56-.57,1.52-.68,2.29-1,.11.45.23.91.39,1.54Z"/>
  <path class="cls-1" d="m109.38,37.12c-.08-1.83-.61-3.46-.1-4.02,8.92-9.8,17.95-19.49,27.02-29.13.56-.59,1.6-.67,2.41-.98-.09.86.12,2.03-.32,2.54-8.56,9.88-17.19,19.69-25.85,29.48-.6.68-1.53,1.04-3.16,2.11Z"/>
  <path class="cls-1" d="m155.86,4.06c-.79,1.04-1.58,2.27-2.54,3.33-8.38,9.34-16.74,18.71-25.25,27.92-1.08,1.17-2.97,1.49-4.49,2.21.67-1.67.96-3.75,2.07-4.95,8.84-9.54,17.83-18.93,26.82-28.31.76-.79,1.89-1.17,2.85-1.74.15.43.3.86.53,1.54h0Z"/>
  <path class="cls-1" d="m185.68,5.95c-1.04,1.39-1.87,2.59-2.79,3.72-6.31,7.71-12.59,15.44-18.99,23.06-.99,1.19-2.52,1.85-3.81,2.76.29-1.77.02-4.06.96-5.22,6.74-8.27,13.7-16.33,20.68-24.37.72-.83,2.02-1.09,3.1-1.47.11-.04.53.97.83,1.52h.02Z"/>
  <path class="cls-1" d="m325.79,34.14c.61-.84,1.21-1.88,2-2.72,8.5-9.1,17.02-18.19,25.6-27.21.49-.52,1.53-.44,2.31-.63-.07.92.17,2.1-.27,2.72-2.51,3.57-4.92,7.28-7.86,10.42-5.59,5.97-11.48,11.63-17.35,17.29-.93.9-2.39,1.17-3.64,1.64-.07.03-.41-.76-.8-1.52h0Z"/>
  <path class="cls-1" d="m270.23,35.95c-.65-.39-1.37-.77-1.35-.83.48-1.29.78-2.81,1.63-3.76,5.46-6.14,11.07-12.13,16.59-18.21,1.79-1.97,3.37-4.15,5.22-6.04,1.32-1.36,2.93-2.4,4.41-3.58-.59,1.79-.74,4-1.83,5.3-7.19,8.51-14.56,16.84-21.93,25.17-.76.86-1.88,1.36-2.72,1.95h-.02Z"/>
  <path class="cls-1" d="m54.52,36.13c-.52-1.85-1.36-3.39-1.01-3.83,7.52-9.38,15.17-18.66,22.85-27.89.28-.34,1.14-.12,1.74-.16-.26,1.13-.22,2.52-.83,3.35-5.74,7.79-11.56,15.53-17.46,23.19-1.3,1.69-2.98,3.04-5.28,5.34h0Z"/>
  <path class="cls-1" d="m198.84,36.75c-.66-.8-1.48-1.43-1.38-1.75.33-1.12.8-2.31,1.53-3.14,5.61-6.33,11.3-12.58,16.97-18.85,1.13-1.25,2.23-2.55,3.43-3.73,2.15-2.13,4.37-4.18,6.56-6.27-1.36,2.88-2.25,6.19-4.16,8.56-5.93,7.36-12.21,14.41-18.45,21.48-1.23,1.4-2.87,2.38-4.5,3.7h0Z"/>
  <path class="cls-1" d="m171.93,37.34c-.62-.46-1.64-1.01-1.58-1.21.33-1.14.7-2.4,1.44-3.25,5.53-6.43,11.18-12.73,16.71-19.15,2.84-3.3,5.44-6.84,8.3-10.12.62-.7,1.89-.75,2.86-1.1-.18.9-.09,2.05-.58,2.66-8.2,10.19-16.47,20.33-24.77,30.44-.59.71-1.51,1.11-2.37,1.72h-.01Z"/>
  <path class="cls-1" d="m80.45,36.43c-.47-.27-1.54-.7-1.5-.9.17-.92.46-1.98,1.04-2.63,3.7-4.1,7.54-8.05,11.25-12.14,4.68-5.15,9.28-10.39,13.97-15.54.59-.65,1.51-.96,2.27-1.43.02.89.4,2.16,0,2.63-8.49,9.79-17.06,19.48-25.64,29.18-.3.34-.8.49-1.38.83h-.01Z"/>
  <path class="cls-1" d="m94.2,2.97c-.31,1.99-.15,3.19-.64,3.78-8.38,10.08-16.83,20.09-25.34,30.04-.46.53-1.63.36-2.46.52.13-1.12-.11-2.58.46-3.3,3.75-4.78,7.58-9.5,11.57-14.05,4.15-4.73,8.5-9.26,12.79-13.85.81-.86,1.77-1.55,3.61-3.14h0Z"/>
  <path class="cls-1" d="m211.42,4.72c-1.03,2.06-1.78,4.59-3.28,6.39-6.84,8.18-13.86,16.2-20.92,24.16-.76.86-2.25.96-3.41,1.41.27-1.11.22-2.52.85-3.3,8.14-9.93,16.36-19.78,24.61-29.61.35-.42,1.11-.44,1.68-.65.13.46.27.91.47,1.59h0Z"/>
  <path class="cls-1" d="m.2,34c0-1.73-.49-3.5.07-4.07,7.68-7.87,15.5-15.59,23.34-23.28.3-.29,1.17.1,1.77.17-.14.45-.17,1.02-.45,1.33-7.37,8.26-14.76,16.5-22.17,24.72-.29.32-.84.39-2.56,1.13Z"/>
</svg>