<?xml version="1.0" encoding="UTF-8"?>
<svg id="_レイヤー_1" data-name=" レイヤー 1" xmlns="http://www.w3.org/2000/svg" viewBox="0 0 60 120.01">
  <defs>
    <style>
      .cls-1 {
        fill: #fff;
      }
    </style>
  </defs>
  <path class="cls-1" d="m36.61,9.45c-.42,0-.85-.01-1.28-.04-.31-.02-.59-.04-.84-.06.09-.28.19-.53.29-.78.19-.45.42-.91.67-1.36.14-.25.27-.47.4-.68.14-.21.29-.42.44-.64.36-.49.69-.9,1.01-1.26,1.51-1.65,3.45-2.98,5.61-3.86.56-.22,1.14-.41,1.71-.58.48-.12.97-.19,1.44-.19.14,0,.28,0,.42.02.49.04.97.2,1.43.45.76.43,1.31,1.14,1.54,2,.23.85.15,1.76-.22,2.57-.18.39-.44.76-.82,1.15-.35.36-.8.66-1.33.91-.46.23-.92.43-1.38.6-1.89.76-3.87,1.28-5.9,1.53-.57.08-1.04.13-1.48.15-.25.02-.5.03-.75.03-.26.01-.51.02-.75.02h-.21v.02Z"/>
  <path class="cls-1" d="m30.39,20.6c-.41,0-.83-.01-1.25-.03-.55-.02-1.05-.05-1.51-.1-.5-.05-1.01-.11-1.51-.19-.31-.05-.59-.1-.86-.15,0-.02.02-.04.02-.06.08-.18.18-.38.31-.62.25-.48.5-.88.74-1.24.64-.9,1.29-1.62,1.96-2.2,1.57-1.41,3.47-2.42,5.48-2.92.3-.08.54-.14.79-.18.26-.05.53-.09.8-.12.21-.03.42-.04.63-.04.88,0,1.69.27,2.36.77.7.52,1.21,1.3,1.46,2.18.23.82.19,1.65-.12,2.32-.15.34-.38.64-.66.87-.35.3-.74.5-1.2.64-.11.03-.23.07-.34.1-.32.09-.64.19-.97.27-.24.06-.47.11-.71.15-.25.06-.48.1-.72.15-.43.08-.88.14-1.32.19l-.14.02c-.98.13-2.01.17-2.98.19h-.26Z"/>
  <path class="cls-1" d="m18.25,22.76c-.11-.27-.21-.54-.3-.81-.16-.48-.29-.99-.4-1.52-.11-.53-.19-1.07-.25-1.62-.05-.51-.06-1.06-.05-1.68.03-2.35.65-4.81,1.78-7.12.34-.68.63-1.21.92-1.67.41-.64.88-1.18,1.4-1.62.47-.37.98-.65,1.5-.82.34-.11.69-.17,1.04-.17.12,0,.25,0,.37.02.44.05.85.18,1.21.4.73.44,1.25,1.18,1.45,2.1.11.49.13,1.01.06,1.56-.09.65-.26,1.27-.52,1.84-.11.24-.22.48-.33.72l-.05.1c-.13.28-.25.55-.39.82-.48.93-1.05,2.02-1.7,2.99-.56.92-1.16,1.72-1.9,2.66-.67.8-1.34,1.58-2.09,2.27-.56.56-1.16,1.07-1.76,1.55h0Z"/>
  <path class="cls-1" d="m15.43,36.14c.11-1.64.6-3.33,1.45-4.93.94-1.8,2.38-3.4,4.17-4.63.42-.28.88-.58,1.38-.83.54-.27,1.09-.44,1.63-.49.12-.01.23-.02.35-.02.36,0,.72.06,1.09.16.83.25,1.58.81,2.11,1.55.25.35.43.72.54,1.1.12.4.17.78.14,1.13-.08.81-.49,1.49-1.25,2.06-.35.28-.72.54-1.11.79-.41.28-.81.54-1.23.78l-.48.27-.17.09c-.22.12-.43.24-.65.35-.46.24-.94.45-1.35.63-.45.2-.91.39-1.38.57-1.73.65-3.48,1.13-5.22,1.43h-.02Z"/>
  <path class="cls-1" d="m9.74,41.05c-.56-.63-1.05-1.28-1.45-1.94-.62-1.01-1.09-2.02-1.4-2.99-.18-.55-.34-1.12-.48-1.7-.11-.52-.2-1.09-.28-1.79-.08-.68-.11-1.29-.1-1.87,0-.74.04-1.38.11-1.97.08-.62.18-1.26.31-1.9.14-.68.39-1.34.77-2,.29-.5.67-.93,1.13-1.29.4-.31.83-.53,1.28-.64.24-.06.48-.09.73-.09.18,0,.37.02.55.05.84.16,1.57.68,2.07,1.47.39.63.84,1.73.71,3.35-.04.58-.08,1.19-.16,1.8-.52,4.36-1.79,8.22-3.78,11.5h0Z"/>
  <path class="cls-1" d="m11.63,54.59c-.17-.62-.3-1.33-.4-2.17-.05-.46-.05-.94-.04-1.44.01-.46.04-.98.13-1.5.08-.52.18-1.03.31-1.53.13-.47.3-.97.5-1.48.16-.42.36-.86.68-1.44.29-.52.53-.95.85-1.36.33-.45.67-.88,1.03-1.29.84-.91,1.87-1.39,2.97-1.39.8,0,1.61.26,2.28.73.7.49,1.21,1.17,1.39,1.85.05.17.07.35.08.53.01.21,0,.4-.03.58-.06.36-.22.76-.53,1.28-.23.36-.49.74-.77,1.11-.56.82-1.26,1.6-1.88,2.29-.29.32-.62.65-1.05,1.06-.35.35-.72.69-1.1,1.02-.68.57-1.5,1.25-2.39,1.87-.59.42-1.26.84-2.03,1.28Z"/>
  <path class="cls-1" d="m7.94,61.18c-1.6-.85-3.07-2.08-4.36-3.66-.7-.9-1.34-1.92-1.88-3-.55-1.2-.98-2.42-1.28-3.6-.14-.61-.26-1.25-.35-1.88-.1-.69-.09-1.39.05-2.14.1-.58.31-1.11.62-1.6.27-.43.6-.78.98-1.05.35-.24.76-.41,1.18-.48.16-.03.32-.04.49-.04,1.7,0,3.14,1.38,3.76,3.6.19.65.34,1.21.46,1.74,1,4.3,1.11,8.37.33,12.11Z"/>
  <path class="cls-1" d="m14.26,73.25c-.14-.21-.28-.42-.41-.63-.25-.4-.48-.83-.7-1.27-.2-.42-.36-.87-.52-1.37-.14-.43-.29-.94-.39-1.45-.4-2.14-.31-4.31.26-6.26.15-.53.33-1.06.52-1.56.47-1.06,1.2-1.84,2.12-2.25.48-.21,1-.32,1.55-.32.35,0,.7.04,1.04.13.84.22,1.53.67,1.94,1.26.1.15.18.31.25.47.09.22.14.4.17.56.08.41.05.86-.07,1.35-.09.44-.2.89-.33,1.34-.08.3-.19.61-.3.9-.06.17-.12.34-.18.51-.15.44-.33.9-.53,1.36-.42.93-.82,1.82-1.33,2.7-.17.31-.37.63-.56.94-.08.13-.16.26-.24.39-.26.42-.54.85-.83,1.26-.41.59-.89,1.21-1.47,1.91v.03Z"/>
  <path class="cls-1" d="m13.04,80.72c-.28-.04-.56-.08-.85-.14-.57-.11-1.06-.24-1.5-.39-1.01-.34-2.02-.8-2.99-1.38-.94-.59-1.88-1.32-2.79-2.17-.41-.4-.82-.86-1.25-1.38-.41-.5-.82-1.01-1.16-1.56-.34-.54-.67-1.1-.97-1.67-.35-.63-.57-1.31-.68-2.03-.09-.62-.08-1.2.03-1.74.23-.96.77-1.74,1.54-2.18.44-.25.96-.39,1.49-.39.34,0,.69.05,1.03.16.47.15.93.39,1.36.73.23.18.45.38.65.6.24.25.46.51.67.78.35.48.69.98,1,1.47,2.43,3.77,3.88,7.46,4.42,11.27v.02Z"/>
  <path class="cls-1" d="m23.07,89.86c-.21-.14-.41-.28-.59-.43-.38-.31-.74-.63-1.08-.97-.17-.17-.34-.35-.51-.53-.15-.18-.31-.38-.45-.56-.3-.4-.59-.81-.86-1.24-.13-.2-.25-.41-.36-.64-.12-.24-.23-.47-.34-.71-.24-.53-.43-.98-.58-1.45-.15-.51-.28-1.03-.39-1.56-.05-.26-.1-.53-.14-.8-.03-.25-.05-.52-.07-.8-.04-.55-.05-1.11-.03-1.64.07-1.45.71-2.35,1.22-2.85.62-.6,1.47-.99,2.37-1.08.14-.01.28-.02.42-.02.71,0,1.34.18,1.82.53.33.25.58.52.75.82.19.32.32.75.4,1.32.06.44.11.89.13,1.36.01.24.02.49.02.74.01.26.02.5.02.74,0,.48-.01.97-.04,1.48-.05.82-.13,1.9-.33,3-.2,1.21-.4,2.13-.64,3-.25.88-.49,1.63-.73,2.31v-.02Z"/>
  <path class="cls-1" d="m21.53,97.63c-.84,0-1.74-.09-2.74-.28-2.26-.44-4.55-1.47-6.62-2.99-.53-.38-1.02-.83-1.46-1.22-1.04-.93-1.7-2.1-1.88-3.31-.07-.48-.04-.96.1-1.43.12-.43.33-.82.6-1.15.55-.66,1.36-1.04,2.29-1.09h.2c.43,0,.87.07,1.32.21.63.2,1.2.48,1.71.83.34.22.65.46.98.7.16.12.31.23.47.35,3.47,2.6,6.13,5.64,7.94,9.04-.77.17-1.58.27-2.39.31-.17,0-.34.01-.51.01v.02Z"/>
  <path class="cls-1" d="m36.95,102.42c-.24-.06-.49-.13-.73-.2-.4-.11-.78-.29-1.18-.47l-.13-.06c-.43-.2-.87-.44-1.29-.69-.38-.25-.79-.55-1.2-.87-.71-.54-1.39-1.24-2.16-2.2-.34-.41-.62-.87-.88-1.31-.28-.48-.54-.96-.76-1.44-.21-.49-.4-1.02-.56-1.53-.19-.6-.26-1.15-.21-1.69.04-.51.17-.98.39-1.42.39-.79,1.05-1.44,1.87-1.84.51-.25,1.04-.38,1.55-.38.25,0,.49.03.72.09.37.09.7.26.98.5.14.12.28.28.42.47.16.2.29.4.41.63.2.39.39.81.57,1.24.22.49.4.93.55,1.37.1.28.19.58.28.86.06.19.12.39.18.58.14.45.27.93.39,1.43.08.32.14.66.21.99.03.17.07.34.1.51.19.97.32,1.99.39,3.03.07.8.1,1.61.1,2.4h0Z"/>
  <path class="cls-1" d="m33.17,111.15c-.37,0-.76-.01-1.23-.04-.69-.05-1.3-.12-1.86-.22-.61-.12-1.25-.28-1.87-.46-.51-.15-1.17-.35-1.77-.62-.71-.3-1.32-.68-1.84-1.12-.42-.38-.78-.84-1.05-1.36-.23-.45-.37-.92-.4-1.38-.03-.42.03-.87.19-1.28.51-1.35,1.84-2.16,3.58-2.16.51,0,1.04.07,1.6.21.21.06.43.12.66.18.35.09.71.19,1.06.29,4.11,1.25,7.64,3.19,10.51,5.77-.66.42-1.37.79-2.13,1.1-.54.22-1.04.4-1.53.54-.52.14-1.06.26-1.62.34-.56.09-1.14.15-1.73.19-.18,0-.36.01-.55.01h-.02Z"/>
  <path class="cls-1" d="m52.77,109.47c-.23-.01-.47-.03-.71-.05-1.14-.11-2.05-.3-2.87-.6-.49-.17-.97-.36-1.44-.56-.43-.22-.89-.48-1.34-.76-.8-.47-1.58-1.11-2.48-2.02-.41-.4-.77-.87-1.05-1.23-.36-.49-.62-1-.77-1.52-.13-.47-.16-.96-.11-1.46.1-.88.5-1.72,1.14-2.38.59-.61,1.3-.98,2.05-1.07.07,0,.15-.01.23-.01.28,0,.56.05.83.16.46.18.82.41,1.15.73.19.18.38.37.57.57.14.14.28.29.42.42.32.33.64.69.95,1.07l.46.59c.16.19.31.38.45.58.57.76,1.1,1.62,1.61,2.45l.04.07c.44.73.88,1.59,1.4,2.71.34.72.64,1.47.9,2.22-.25.03-.5.05-.75.06-.19,0-.39.02-.58.02h-.12.02Z"/>
  <path class="cls-1" d="m47.36,120.01c-.17,0-.34,0-.5-.01-1.52-.09-2.75-.55-3.53-1.31-.73-.69-1.13-1.55-1.13-2.42s.38-1.69,1.06-2.33c.77-.74,1.86-1.19,3.13-1.31.5-.06,1.14-.13,1.78-.17.66-.04,1.32-.06,1.97-.06,3.54,0,6.86.61,9.86,1.82-.48.63-1.03,1.22-1.63,1.78-.4.37-.82.72-1.26,1.04-.43.31-.91.61-1.4.88-.5.28-1.02.54-1.56.78-.55.25-1.12.42-1.68.59-.58.17-1.2.32-1.82.44-.64.12-1.29.18-1.91.22-.41.02-.9.05-1.39.05h0Z"/>
</svg>