<?xml version="1.0" encoding="UTF-8"?>
<svg id="_レイヤー_1" data-name="レイヤー 1" xmlns="http://www.w3.org/2000/svg" viewBox="0 0 80 80">
  <defs>
    <style>
      .cls-1 {
        fill: #2f2f2f;
      }

      .cls-2 {
        fill: #f9f963;
      }
    </style>
  </defs>
  <path class="cls-2" d="m0,40c0,22.09,17.91,40,40,40s40-17.91,40-40c0-4.68-.81-9.16-2.29-13.33H2.29c-1.47,4.17-2.29,8.66-2.29,13.33Z"/>
  <path class="cls-1" d="m40,0C22.59,0,7.78,11.13,2.29,26.67h75.43C72.22,11.13,57.41,0,40,0Z"/>
  <g>
    <path class="cls-2" d="m27.78,16.38c-.24.43-.61.78-1.1,1.04-.5.26-1.11.4-1.84.4h-1.36v3.23h-2.19v-8.99h3.55c.72,0,1.32.12,1.82.37s.87.59,1.11,1.02c.25.44.37.93.37,1.5,0,.52-.12,1-.36,1.43Zm-2.18-.6c.2-.2.31-.47.31-.83s-.1-.64-.31-.83c-.21-.2-.52-.29-.93-.29h-1.19v2.25h1.19c.42,0,.73-.1.93-.29Z"/>
    <path class="cls-2" d="m31.2,20.55c-.7-.39-1.26-.94-1.68-1.65s-.62-1.5-.62-2.37.21-1.67.62-2.37.97-1.25,1.68-1.64c.7-.39,1.48-.59,2.32-.59s1.62.2,2.32.59c.7.39,1.26.94,1.66,1.64s.61,1.49.61,2.37-.2,1.67-.61,2.37c-.41.7-.96,1.25-1.66,1.65-.7.39-1.47.59-2.32.59s-1.62-.2-2.32-.59Zm4.04-2.12c.43-.48.65-1.11.65-1.89s-.22-1.43-.65-1.9c-.43-.47-1-.71-1.72-.71s-1.3.23-1.73.7c-.43.47-.65,1.11-.65,1.91s.22,1.43.65,1.9,1.01.71,1.73.71,1.29-.24,1.72-.72Z"/>
    <path class="cls-2" d="m41.52,12.06v8.99h-2.19v-8.99h2.19Z"/>
    <path class="cls-2" d="m51.15,21.05h-2.19l-3.66-5.54v5.54h-2.19v-8.99h2.19l3.66,5.57v-5.57h2.19v8.99Z"/>
    <path class="cls-2" d="m59.2,12.06v1.75h-2.38v7.23h-2.19v-7.23h-2.38v-1.75h6.95Z"/>
  </g>
  <path class="cls-1" d="m32.74,37.47c1.76-1.55,4.15-2.32,7.16-2.32,2,0,3.71.35,5.14,1.04,1.43.69,2.51,1.64,3.24,2.84s1.1,2.55,1.1,4.04c0,1.76-.44,3.19-1.32,4.3-.88,1.11-1.91,1.86-3.08,2.26v.16c1.52.51,2.72,1.35,3.6,2.52.88,1.17,1.32,2.68,1.32,4.52,0,1.65-.38,3.11-1.14,4.38s-1.87,2.26-3.32,2.98c-1.45.72-3.18,1.08-5.18,1.08-3.2,0-5.75-.79-7.66-2.36-1.91-1.57-2.91-3.95-3.02-7.12h6.64c.03,1.17.36,2.1,1,2.78s1.57,1.02,2.8,1.02c1.04,0,1.85-.3,2.42-.9.57-.6.86-1.39.86-2.38,0-1.28-.41-2.21-1.22-2.78-.81-.57-2.11-.86-3.9-.86h-1.28v-5.56h1.28c1.36,0,2.46-.23,3.3-.7.84-.47,1.26-1.3,1.26-2.5,0-.96-.27-1.71-.8-2.24-.53-.53-1.27-.8-2.2-.8-1.01,0-1.77.31-2.26.92-.49.61-.78,1.37-.86,2.28h-6.68c.11-2.85,1.04-5.05,2.8-6.6Z"/>
</svg>