<?xml version="1.0" encoding="UTF-8"?>
<svg id="_レイヤー_1" data-name="レイヤー 1" xmlns="http://www.w3.org/2000/svg" viewBox="0 0 80 80">
  <defs>
    <style>
      .cls-1 {
        fill: #2f2f2f;
      }

      .cls-2 {
        fill: #f9f963;
      }
    </style>
  </defs>
  <path class="cls-2" d="m0,40c0,22.09,17.91,40,40,40s40-17.91,40-40c0-4.68-.81-9.16-2.29-13.33H2.29c-1.47,4.17-2.29,8.66-2.29,13.33Z"/>
  <path class="cls-1" d="m40,0C22.59,0,7.78,11.13,2.29,26.67h75.43C72.22,11.13,57.41,0,40,0Z"/>
  <g>
    <path class="cls-2" d="m27.78,16.38c-.24.43-.61.78-1.1,1.04-.5.26-1.11.4-1.84.4h-1.36v3.23h-2.19v-8.99h3.55c.72,0,1.32.12,1.82.37s.87.59,1.11,1.02c.25.44.37.93.37,1.5,0,.52-.12,1-.36,1.43Zm-2.18-.6c.2-.2.31-.47.31-.83s-.1-.64-.31-.83c-.21-.2-.52-.29-.93-.29h-1.19v2.25h1.19c.42,0,.73-.1.93-.29Z"/>
    <path class="cls-2" d="m31.2,20.55c-.7-.39-1.26-.94-1.68-1.65s-.62-1.5-.62-2.37.21-1.67.62-2.37.97-1.25,1.68-1.64c.7-.39,1.48-.59,2.32-.59s1.62.2,2.32.59c.7.39,1.26.94,1.66,1.64s.61,1.49.61,2.37-.2,1.67-.61,2.37c-.41.7-.96,1.25-1.66,1.65-.7.39-1.47.59-2.32.59s-1.62-.2-2.32-.59Zm4.04-2.12c.43-.48.65-1.11.65-1.89s-.22-1.43-.65-1.9c-.43-.47-1-.71-1.72-.71s-1.3.23-1.73.7c-.43.47-.65,1.11-.65,1.91s.22,1.43.65,1.9,1.01.71,1.73.71,1.29-.24,1.72-.72Z"/>
    <path class="cls-2" d="m41.52,12.06v8.99h-2.19v-8.99h2.19Z"/>
    <path class="cls-2" d="m51.15,21.05h-2.19l-3.66-5.54v5.54h-2.19v-8.99h2.19l3.66,5.57v-5.57h2.19v8.99Z"/>
    <path class="cls-2" d="m59.2,12.06v1.75h-2.38v7.23h-2.19v-7.23h-2.38v-1.75h6.95Z"/>
  </g>
  <path class="cls-1" d="m31.38,58.55c2.61-2.16,4.67-3.93,6.18-5.32,1.51-1.39,2.78-2.84,3.82-4.36s1.56-3,1.56-4.44c0-1.09-.25-1.95-.76-2.56-.51-.61-1.27-.92-2.28-.92s-1.81.38-2.38,1.14c-.57.76-.86,1.83-.86,3.22h-6.6c.05-2.27.54-4.16,1.46-5.68s2.13-2.64,3.64-3.36c1.51-.72,3.18-1.08,5.02-1.08,3.17,0,5.57.81,7.18,2.44,1.61,1.63,2.42,3.75,2.42,6.36,0,2.85-.97,5.5-2.92,7.94s-4.43,4.82-7.44,7.14h10.8v5.56h-20.08v-5.08c.91-.72,1.32-1.05,1.24-1Z"/>
</svg>