<?xml version="1.0" encoding="UTF-8"?>
<svg id="_レイヤー_1" data-name="レイヤー 1" xmlns="http://www.w3.org/2000/svg" viewBox="0 0 127.5 80.2">
  <defs>
    <style>
      .cls-1 {
        fill: #2f2f2f;
      }

      .cls-2 {
        fill: #f7fc8c;
      }
    </style>
  </defs>
  <g>
    <path class="cls-1" d="m5,80.2c-2.76,0-5-2.24-5-5V5C0,2.24,2.24,0,5,0h27.7c6.36,0,11.89,1.15,16.44,3.43,4.75,2.38,8.39,5.74,10.81,10,2.36,4.15,3.55,8.92,3.55,14.17,0,4.91-1.15,9.47-3.43,13.57-2.33,4.21-5.91,7.62-10.62,10.14-4.58,2.45-10.22,3.69-16.76,3.69h-5.6v20.2c0,2.76-2.24,5-5,5H5ZM31.4,31.4c1.84,0,3.24-.33,3.84-.91.22-.21.86-.83.86-2.89s-.65-2.69-.86-2.89c-.6-.58-2-.91-3.84-.91h-4.3v7.6h4.3Z"/>
    <path class="cls-1" d="m103.2,80.2c-1.82,0-3.5-.99-4.38-2.59l-9.32-16.92v14.51c0,2.76-2.24,5-5,5h-17.1c-2.76,0-5-2.24-5-5V5c0-2.76,2.24-5,5-5h28.7c6.28,0,11.79,1.15,16.37,3.42,4.78,2.37,8.44,5.71,10.86,9.94,2.37,4.12,3.57,8.75,3.57,13.74,0,5.71-1.64,10.9-4.89,15.42-2.18,3.03-5.02,5.48-8.5,7.33l13.31,22.84c.9,1.55.91,3.46.01,5.01s-2.54,2.51-4.33,2.51h-19.3Zm-8.1-48.6c1.72,0,2.98-.31,3.55-.87.21-.2.85-.83.85-2.93,0-1.9-.62-2.5-.85-2.73-.57-.56-1.83-.87-3.55-.87h-5.6v7.4h5.6Z"/>
  </g>
  <g>
    <path class="cls-2" d="m55.7,38.75c-1.87,3.37-4.73,6.08-8.6,8.15-3.87,2.07-8.67,3.1-14.4,3.1h-10.6v25.2H5V5h27.7c5.6,0,10.33.97,14.2,2.9,3.87,1.93,6.77,4.6,8.7,8,1.93,3.4,2.9,7.3,2.9,11.7,0,4.07-.93,7.78-2.8,11.15Zm-17-4.65c1.6-1.53,2.4-3.7,2.4-6.5s-.8-4.97-2.4-6.5c-1.6-1.53-4.03-2.3-7.3-2.3h-9.3v17.6h9.3c3.27,0,5.7-.77,7.3-2.3Z"/>
    <path class="cls-2" d="m103.2,75.2l-14.6-26.5h-4.1v26.5h-17.1V5h28.7c5.53,0,10.25.97,14.15,2.9,3.9,1.93,6.82,4.58,8.75,7.95,1.93,3.37,2.9,7.12,2.9,11.25,0,4.67-1.32,8.83-3.95,12.5-2.63,3.67-6.52,6.27-11.65,7.8l16.2,27.8h-19.3Zm-18.7-38.6h10.6c3.13,0,5.48-.77,7.05-2.3,1.57-1.53,2.35-3.7,2.35-6.5s-.78-4.77-2.35-6.3c-1.57-1.53-3.92-2.3-7.05-2.3h-10.6v17.4Z"/>
  </g>
</svg>