<?xml version="1.0" encoding="UTF-8"?>
<svg id="_レイヤー_1" data-name="レイヤー 1" xmlns="http://www.w3.org/2000/svg" viewBox="0 0 934 57.8">
  <defs>
    <style>
      .cls-1 {
        fill: #fff;
      }

      .cls-2 {
        fill: #2f2f2f;
      }
    </style>
  </defs>
  <g>
    <path class="cls-2" d="m30.2,9.3c-.6.87-1.18,1.8-1.75,2.8-.57,1-1,1.77-1.3,2.3-1.13,2-2.52,4.07-4.17,6.22-1.65,2.15-3.52,4.23-5.62,6.25-2.1,2.02-4.33,3.86-6.7,5.53l-5.65-4.15c2.2-1.37,4.14-2.77,5.83-4.2,1.68-1.43,3.14-2.86,4.38-4.28,1.23-1.42,2.29-2.78,3.17-4.1.88-1.32,1.64-2.49,2.27-3.53.4-.63.82-1.46,1.25-2.47s.77-1.94,1-2.78l7.3,2.4Zm16.3,7.9c-.27.47-.55,1.02-.85,1.67-.3.65-.57,1.29-.8,1.93-.43,1.47-1.04,3.14-1.83,5.03s-1.75,3.83-2.9,5.85c-1.15,2.02-2.48,3.96-3.98,5.82-2.4,2.87-5.19,5.47-8.38,7.8s-7.12,4.43-11.82,6.3l-5.9-5.3c3.4-1,6.33-2.15,8.8-3.45,2.47-1.3,4.62-2.69,6.45-4.17,1.83-1.48,3.47-3.06,4.9-4.72,1.17-1.3,2.23-2.78,3.2-4.43s1.8-3.29,2.5-4.93c.7-1.63,1.17-3.07,1.4-4.3h-16.85l2.3-5.65h14.3c.77,0,1.54-.05,2.33-.15.78-.1,1.46-.25,2.02-.45l5.1,3.15Z"/>
    <path class="cls-2" d="m70.5,9.9c-.03.6-.07,1.19-.1,1.78s-.05,1.28-.05,2.07v16.9c0,.63.02,1.37.05,2.2.03.83.07,1.55.1,2.15h-7.25c.03-.47.08-1.13.15-2,.07-.87.1-1.67.1-2.4V13.75c0-.47-.02-1.07-.05-1.82-.03-.75-.08-1.43-.15-2.03h7.2Zm23.2-.4c-.03.7-.08,1.46-.12,2.28-.05.82-.08,1.72-.08,2.72v9.9c0,2.67-.12,5-.38,7s-.62,3.75-1.12,5.25-1.11,2.82-1.83,3.97-1.54,2.24-2.47,3.28c-1.1,1.2-2.37,2.28-3.8,3.22-1.43.95-2.88,1.75-4.32,2.4-1.45.65-2.79,1.18-4.03,1.57l-5.25-5.5c2.5-.57,4.76-1.36,6.78-2.38,2.02-1.02,3.77-2.32,5.27-3.92.87-.97,1.57-1.93,2.1-2.9.53-.97.94-2.04,1.22-3.22s.48-2.53.6-4.03.18-3.22.18-5.15v-9.5c0-1-.03-1.91-.08-2.72s-.12-1.57-.23-2.28h7.55Z"/>
    <path class="cls-2" d="m109.25,40.05c.8.13,1.63.23,2.5.3.87.07,1.68.1,2.45.1h32.95c.9,0,1.75-.04,2.55-.12.8-.08,1.52-.18,2.15-.28v7.25c-.73-.1-1.55-.17-2.45-.2-.9-.03-1.65-.05-2.25-.05h-32.95c-.73,0-1.53.02-2.4.05-.87.04-1.72.1-2.55.2v-7.25Zm3.25-26.65c.67.07,1.45.13,2.35.2.9.07,1.7.1,2.4.1h27.2c.77,0,1.57-.03,2.4-.1.83-.07,1.6-.13,2.3-.2v6.85c-.73-.07-1.52-.12-2.35-.15-.83-.03-1.62-.05-2.35-.05h-27.2c-.67,0-1.47.02-2.4.05-.93.04-1.72.08-2.35.15v-6.85Zm14.4,30.75v-26.9h7v26.9h-7Z"/>
    <path class="cls-2" d="m160.65,28.85c4.5-1.17,8.58-2.52,12.23-4.07,3.65-1.55,6.86-3.18,9.62-4.88,1.73-1.07,3.47-2.29,5.22-3.68,1.75-1.38,3.4-2.81,4.95-4.27s2.86-2.87,3.92-4.2l5.4,5.15c-1.53,1.5-3.21,3.02-5.03,4.55-1.82,1.53-3.71,3-5.67,4.4-1.97,1.4-3.92,2.68-5.85,3.85-1.9,1.1-4.03,2.23-6.38,3.4-2.35,1.17-4.83,2.27-7.43,3.3-2.6,1.03-5.22,1.95-7.85,2.75l-3.15-6.3Zm20.8-5.75l7.1-1.65v22.5c0,.73.02,1.53.05,2.4.03.87.08,1.68.15,2.43.07.75.15,1.32.25,1.72h-7.9c.07-.4.12-.97.17-1.72.05-.75.09-1.56.12-2.43.03-.87.05-1.67.05-2.4v-20.85Z"/>
    <path class="cls-2" d="m238,8.7c-.6.87-1.19,1.8-1.78,2.8s-1.02,1.77-1.33,2.3c-1.13,2-2.57,4.12-4.3,6.38s-3.67,4.44-5.83,6.57c-2.15,2.13-4.42,4.03-6.82,5.7l-5.4-4.15c2.93-1.83,5.42-3.76,7.47-5.78,2.05-2.02,3.76-3.97,5.12-5.85s2.47-3.56,3.3-5.03c.4-.6.82-1.41,1.27-2.43.45-1.02.79-1.94,1.03-2.77l7.25,2.25Zm16.5,7.7c-.3.47-.6,1.02-.9,1.65s-.55,1.27-.75,1.9c-.5,1.53-1.17,3.24-2.02,5.12-.85,1.88-1.86,3.8-3.03,5.75-1.17,1.95-2.5,3.86-4,5.72-2.37,2.93-5.21,5.72-8.53,8.35s-7.38,4.87-12.17,6.7l-5.8-5.05c3.5-1.07,6.53-2.33,9.1-3.8s4.79-3.03,6.68-4.7c1.88-1.67,3.52-3.33,4.92-5,1.13-1.3,2.21-2.76,3.22-4.38s1.9-3.23,2.65-4.85,1.27-3.06,1.58-4.33h-16.9l2.3-5.7h14.2c.8,0,1.59-.05,2.38-.15s1.44-.23,1.97-.4l5.1,3.15Zm-23.5,8.5c1.53.87,3.21,1.89,5.02,3.07,1.82,1.18,3.66,2.41,5.53,3.68,1.87,1.27,3.62,2.5,5.28,3.7,1.65,1.2,3.04,2.27,4.17,3.2l-4.75,5.65c-1.1-1-2.46-2.16-4.08-3.48-1.62-1.32-3.36-2.67-5.22-4.05-1.87-1.38-3.71-2.71-5.53-3.97-1.82-1.27-3.44-2.35-4.88-3.25l4.45-4.55Z"/>
    <path class="cls-2" d="m266.15,25.15c.6.03,1.37.07,2.3.12.93.05,1.91.09,2.92.12,1.02.03,1.96.05,2.83.05h26.85c1.17,0,2.27-.04,3.3-.12,1.03-.08,1.88-.14,2.55-.18v7.85c-.57-.03-1.42-.08-2.55-.15-1.13-.07-2.23-.1-3.3-.1h-26.85c-1.43,0-2.9.03-4.4.08-1.5.05-2.72.11-3.65.17v-7.85Z"/>
    <path class="cls-2" d="m314.85,31.2c1.53-.3,3.26-.68,5.17-1.12,1.92-.45,3.94-.93,6.08-1.45,2.13-.52,4.25-1.04,6.35-1.57l.75,5.45c-2.87.8-5.78,1.59-8.73,2.38s-5.64,1.47-8.08,2.08l-1.55-5.75Zm.65-15.85h17.3v5.55h-17.3v-5.55Zm6.2-9.55h5.85v40.25c0,1.43-.15,2.56-.45,3.38-.3.82-.88,1.44-1.75,1.88-.83.43-1.88.72-3.12.88s-2.76.22-4.52.22c-.1-.77-.31-1.68-.62-2.72-.32-1.05-.66-1.96-1.03-2.72.97.03,1.91.05,2.83.05h1.88c.37,0,.62-.07.75-.22.13-.15.2-.39.2-.72V5.8Zm9.2,39.7h30.9v5.6h-30.9v-5.6Zm3.45-36.5h24.4v31.6h-24.4V9Zm5.75,5.6v7.35h12.6v-7.35h-12.6Zm0,12.9v7.55h12.6v-7.55h-12.6Z"/>
    <path class="cls-2" d="m370.85,9.9l5.45-2.1c.9,1.13,1.75,2.38,2.55,3.72s1.52,2.68,2.15,4c.63,1.32,1.13,2.51,1.5,3.57l-5.8,2.45c-.3-1.07-.76-2.28-1.38-3.65-.62-1.37-1.31-2.75-2.08-4.15-.77-1.4-1.57-2.68-2.4-3.85Zm.05,34.85h35.9v5.95h-35.9v-5.95Zm1.1-21.6h37.9v29.6h-6.4v-23.55h-31.5v-6.05Zm1.75,10.65h32.05v5.75h-32.05v-5.75Zm13.5-28h6.6v20.5h-6.6V5.8Zm16.8,1.5l6.7,2c-.73,1.47-1.5,2.96-2.3,4.47-.8,1.52-1.59,2.96-2.38,4.32-.78,1.37-1.54,2.58-2.28,3.65l-5.3-1.9c.67-1.13,1.35-2.42,2.05-3.85.7-1.43,1.36-2.91,1.97-4.42.62-1.52,1.12-2.94,1.53-4.28Z"/>
    <path class="cls-2" d="m458.15,7.25l5.15,2.7c-3.23,4.53-7.03,8.67-11.4,12.4-4.37,3.73-9.07,7.04-14.12,9.9-5.05,2.87-10.27,5.3-15.67,7.3-.23-.43-.57-.96-1-1.58-.43-.62-.89-1.24-1.38-1.88-.48-.63-.91-1.13-1.27-1.5,5.43-1.73,10.62-3.93,15.57-6.6,4.95-2.67,9.48-5.75,13.6-9.25,4.12-3.5,7.62-7.33,10.52-11.5Zm-38.1,13.75h45v5.25h-45v-5.25Zm4.3-9.8h28.6v5.2h-28.6v-5.2Zm5.45,19.05h29.5v22.35h-6.25v-17.4h-17.25v17.6h-6v-22.55Zm3.4,8.15h22.3v4.55h-22.3v-4.55Zm0,7.9h22.3v5.05h-22.3v-5.05Zm2.95-40.5h5.95v18.15h-5.95V5.8Z"/>
    <path class="cls-2" d="m499.1,14.05c-.33,2.53-.77,5.23-1.3,8.1s-1.25,5.77-2.15,8.7c-.97,3.37-2.1,6.27-3.4,8.7s-2.73,4.31-4.28,5.62-3.24,1.97-5.08,1.97-3.52-.62-5.07-1.88c-1.55-1.25-2.78-2.97-3.7-5.18-.92-2.2-1.38-4.7-1.38-7.5s.58-5.63,1.75-8.2c1.17-2.57,2.79-4.84,4.88-6.82,2.08-1.98,4.52-3.54,7.3-4.68s5.79-1.7,9.03-1.7,5.89.5,8.38,1.5c2.48,1,4.61,2.38,6.38,4.15,1.77,1.77,3.12,3.83,4.05,6.2.93,2.37,1.4,4.92,1.4,7.65,0,3.5-.72,6.63-2.15,9.4-1.43,2.77-3.56,5.05-6.38,6.85-2.82,1.8-6.33,3.03-10.53,3.7l-3.75-5.95c.97-.1,1.82-.22,2.55-.35.73-.13,1.43-.28,2.1-.45,1.6-.4,3.09-.97,4.47-1.72,1.38-.75,2.59-1.68,3.62-2.8,1.03-1.12,1.84-2.42,2.42-3.92s.88-3.15.88-4.95c0-1.97-.3-3.77-.9-5.4-.6-1.63-1.48-3.06-2.65-4.27s-2.58-2.15-4.25-2.8-3.58-.97-5.75-.97c-2.67,0-5.02.47-7.05,1.42-2.03.95-3.75,2.18-5.15,3.68-1.4,1.5-2.46,3.12-3.17,4.85-.72,1.73-1.08,3.38-1.08,4.95,0,1.67.2,3.06.6,4.17.4,1.12.89,1.95,1.47,2.5.58.55,1.21.83,1.88.83.7,0,1.39-.36,2.08-1.08.68-.72,1.36-1.81,2.03-3.28.67-1.46,1.33-3.32,2-5.55.77-2.4,1.42-4.97,1.95-7.7.53-2.73.92-5.4,1.15-8l6.8.2Z"/>
    <path class="cls-2" d="m543.35,7.7c-.03.27-.08.67-.15,1.22-.07.55-.12,1.1-.18,1.65-.05.55-.09,1.04-.12,1.47-.07.97-.12,2.03-.17,3.17-.05,1.15-.09,2.33-.12,3.55s-.06,2.44-.08,3.68c-.02,1.23-.02,2.43-.02,3.6,0,1.37.02,2.88.05,4.53.03,1.65.08,3.28.12,4.9.05,1.62.08,3.09.1,4.43.02,1.33.03,2.37.03,3.1,0,2.07-.22,3.67-.67,4.8s-1.09,1.92-1.92,2.38c-.83.45-1.8.67-2.9.67-1.2,0-2.48-.24-3.85-.72-1.37-.48-2.64-1.16-3.83-2.03-1.18-.87-2.15-1.88-2.9-3.02-.75-1.15-1.12-2.39-1.12-3.73,0-1.6.61-3.19,1.83-4.77,1.22-1.58,2.83-3.04,4.85-4.38,2.02-1.33,4.19-2.4,6.53-3.2,2.23-.83,4.53-1.44,6.9-1.82,2.37-.38,4.5-.58,6.4-.58,2.57,0,4.88.43,6.95,1.28,2.07.85,3.72,2.09,4.95,3.72,1.23,1.63,1.85,3.6,1.85,5.9,0,1.93-.37,3.72-1.1,5.35-.73,1.63-1.91,3.04-3.53,4.23-1.62,1.18-3.76,2.11-6.42,2.77-1.13.23-2.26.41-3.38.53-1.12.12-2.17.21-3.17.28l-2.3-6.45c1.13,0,2.22-.03,3.27-.08,1.05-.05,2.01-.14,2.88-.28,1.37-.27,2.6-.67,3.7-1.2s1.97-1.23,2.6-2.1.95-1.9.95-3.1c0-1.13-.31-2.1-.92-2.9-.62-.8-1.47-1.42-2.58-1.85-1.1-.43-2.38-.65-3.85-.65-2.1,0-4.23.22-6.38.65-2.15.43-4.21,1.03-6.17,1.8-1.47.57-2.78,1.22-3.95,1.97-1.17.75-2.08,1.53-2.75,2.33-.67.8-1,1.57-1,2.3,0,.4.12.78.38,1.12.25.35.58.66.97.93.4.27.81.47,1.23.62.42.15.77.22,1.07.22.47,0,.85-.14,1.15-.42s.45-.84.45-1.68c0-.9-.03-2.19-.08-3.88s-.1-3.56-.15-5.62c-.05-2.07-.07-4.12-.07-6.15,0-1.4,0-2.82.02-4.25.02-1.43.03-2.8.03-4.1s0-2.45.02-3.45.03-1.78.03-2.35c0-.37-.02-.83-.05-1.4-.03-.57-.08-1.14-.12-1.73-.05-.58-.11-1.01-.17-1.27h6.9Zm-16.4,8.15c1.47.17,2.76.28,3.88.33,1.12.05,2.12.07,3.02.07,1.3,0,2.73-.06,4.3-.17s3.17-.28,4.8-.5c1.63-.22,3.22-.48,4.77-.78,1.55-.3,2.96-.63,4.23-1l.15,6.2c-1.4.33-2.92.62-4.55.88-1.63.25-3.28.47-4.92.68-1.65.2-3.22.35-4.7.45-1.48.1-2.78.15-3.88.15-1.67,0-3.03-.02-4.1-.05-1.07-.03-2.03-.1-2.9-.2l-.1-6.05Zm30.65-2.75c1.27.6,2.69,1.33,4.28,2.2,1.58.87,3.1,1.72,4.55,2.57s2.61,1.61,3.47,2.28l-3,5.1c-.63-.53-1.46-1.13-2.47-1.8-1.02-.67-2.12-1.35-3.3-2.05-1.18-.7-2.33-1.36-3.42-1.97-1.1-.62-2.05-1.11-2.85-1.47l2.75-4.85Z"/>
    <path class="cls-2" d="m577.95,14.2c1.47,0,3.13-.02,5-.05,1.87-.03,3.82-.07,5.85-.1s4.03-.07,6-.1,3.82-.06,5.55-.08c1.73-.02,3.23-.03,4.5-.03s2.65,0,4.15-.02c1.5-.02,2.98-.03,4.45-.03h6.85l-.05,5.9c-1.57-.07-3.63-.12-6.2-.18-2.57-.05-5.7-.07-9.4-.07-2.27,0-4.57.02-6.9.07-2.33.05-4.65.11-6.95.18s-4.52.14-6.65.22-4.15.19-6.05.32l-.15-6.05Zm27.05,14.8c0,2.73-.33,5-.98,6.8-.65,1.8-1.62,3.16-2.92,4.07-1.3.92-2.92,1.38-4.85,1.38-.93,0-1.91-.2-2.92-.6-1.02-.4-1.96-.98-2.83-1.75-.87-.77-1.56-1.72-2.08-2.85-.52-1.13-.78-2.47-.78-4,0-1.9.45-3.54,1.35-4.93.9-1.38,2.11-2.47,3.62-3.25,1.52-.78,3.19-1.17,5.02-1.17,2.2,0,4.04.49,5.53,1.47,1.48.98,2.6,2.31,3.35,3.97.75,1.67,1.12,3.55,1.12,5.65,0,1.63-.27,3.33-.8,5.1-.53,1.77-1.41,3.49-2.62,5.18s-2.85,3.21-4.9,4.57c-2.05,1.37-4.61,2.48-7.68,3.35l-5.35-5.3c2.13-.43,4.12-1,5.95-1.7,1.83-.7,3.44-1.58,4.83-2.65,1.38-1.07,2.47-2.38,3.25-3.95.78-1.57,1.17-3.45,1.17-5.65,0-1.6-.39-2.8-1.17-3.6-.78-.8-1.73-1.2-2.83-1.2-.63,0-1.25.15-1.85.45-.6.3-1.08.75-1.45,1.35-.37.6-.55,1.33-.55,2.2,0,1.13.39,2.04,1.18,2.72.78.68,1.67,1.03,2.67,1.03.8,0,1.51-.25,2.12-.75.62-.5,1.02-1.33,1.22-2.5.2-1.17.03-2.73-.5-4.7l4.65,1.25Zm1.2-21c-.03.27-.08.69-.12,1.28-.05.58-.09,1.17-.12,1.75-.03.58-.07,1.01-.1,1.28-.03.67-.05,1.56-.05,2.67v3.73c0,1.37,0,2.74.03,4.12.02,1.38.03,2.68.05,3.9.02,1.22.02,2.23.02,3.03l-6.25-2.1v-5.97c0-1.25,0-2.49-.02-3.72-.02-1.23-.04-2.35-.08-3.35s-.07-1.75-.1-2.25c-.07-1.03-.15-1.94-.25-2.72-.1-.78-.18-1.32-.25-1.62h7.25Z"/>
    <path class="cls-2" d="m629.95,14.2c1.47,0,3.13-.02,5-.05,1.87-.03,3.82-.07,5.85-.1s4.03-.07,6-.1,3.82-.06,5.55-.08c1.73-.02,3.23-.03,4.5-.03s2.65,0,4.15-.02c1.5-.02,2.98-.03,4.45-.03h6.85l-.05,5.9c-1.57-.07-3.63-.12-6.2-.18-2.57-.05-5.7-.07-9.4-.07-2.27,0-4.57.02-6.9.07-2.33.05-4.65.11-6.95.18s-4.52.14-6.65.22-4.15.19-6.05.32l-.15-6.05Zm27.05,14.8c0,2.73-.33,5-.98,6.8-.65,1.8-1.62,3.16-2.92,4.07-1.3.92-2.92,1.38-4.85,1.38-.93,0-1.91-.2-2.92-.6-1.02-.4-1.96-.98-2.83-1.75-.87-.77-1.56-1.72-2.08-2.85-.52-1.13-.78-2.47-.78-4,0-1.9.45-3.54,1.35-4.93.9-1.38,2.11-2.47,3.62-3.25,1.52-.78,3.19-1.17,5.02-1.17,2.2,0,4.04.49,5.53,1.47,1.48.98,2.6,2.31,3.35,3.97.75,1.67,1.12,3.55,1.12,5.65,0,1.63-.27,3.33-.8,5.1-.53,1.77-1.41,3.49-2.62,5.18s-2.85,3.21-4.9,4.57c-2.05,1.37-4.61,2.48-7.68,3.35l-5.35-5.3c2.13-.43,4.12-1,5.95-1.7,1.83-.7,3.44-1.58,4.83-2.65,1.38-1.07,2.47-2.38,3.25-3.95.78-1.57,1.17-3.45,1.17-5.65,0-1.6-.39-2.8-1.17-3.6-.78-.8-1.73-1.2-2.83-1.2-.63,0-1.25.15-1.85.45-.6.3-1.08.75-1.45,1.35-.37.6-.55,1.33-.55,2.2,0,1.13.39,2.04,1.18,2.72.78.68,1.67,1.03,2.67,1.03.8,0,1.51-.25,2.12-.75.62-.5,1.02-1.33,1.22-2.5.2-1.17.03-2.73-.5-4.7l4.65,1.25Zm1.2-21c-.03.27-.08.69-.12,1.28-.05.58-.09,1.17-.12,1.75-.03.58-.07,1.01-.1,1.28-.03.67-.05,1.56-.05,2.67v3.73c0,1.37,0,2.74.03,4.12.02,1.38.03,2.68.05,3.9.02,1.22.02,2.23.02,3.03l-6.25-2.1v-5.97c0-1.25,0-2.49-.02-3.72-.02-1.23-.04-2.35-.08-3.35s-.07-1.75-.1-2.25c-.07-1.03-.15-1.94-.25-2.72-.1-.78-.18-1.32-.25-1.62h7.25Z"/>
    <path class="cls-2" d="m712.5,9.1c-.1.43-.23.97-.38,1.6-.15.63-.29,1.27-.42,1.9-.13.63-.25,1.15-.35,1.55-.53,2.23-1.13,4.51-1.8,6.82-.67,2.32-1.42,4.61-2.25,6.88-.83,2.27-1.76,4.38-2.78,6.35s-2.14,3.72-3.38,5.25c-1.5,1.93-2.91,3.52-4.22,4.75-1.32,1.23-2.62,2.14-3.92,2.72s-2.72.88-4.25.88c-1.37,0-2.66-.38-3.88-1.12-1.22-.75-2.2-1.87-2.95-3.35-.75-1.48-1.12-3.31-1.12-5.48s.41-4.46,1.22-6.67,1.95-4.28,3.4-6.18,3.16-3.48,5.12-4.75c2.67-1.73,5.28-2.95,7.85-3.65,2.57-.7,5.18-1.05,7.85-1.05,3.47,0,6.53.72,9.2,2.17,2.67,1.45,4.75,3.48,6.25,6.08s2.25,5.65,2.25,9.15-.78,6.52-2.33,9.07-3.67,4.58-6.38,6.1c-2.7,1.52-5.78,2.54-9.25,3.08l-3.85-5.8c2.77-.23,5.12-.73,7.08-1.5,1.95-.77,3.53-1.73,4.75-2.9,1.22-1.17,2.11-2.47,2.67-3.9.57-1.43.85-2.93.85-4.5,0-2.27-.49-4.26-1.48-5.97s-2.36-3.07-4.12-4.05c-1.77-.98-3.85-1.48-6.25-1.48-2.63,0-4.98.43-7.05,1.28-2.07.85-3.97,1.91-5.7,3.18-1.3.93-2.42,2.06-3.35,3.38-.93,1.32-1.65,2.71-2.15,4.17-.5,1.47-.75,2.88-.75,4.25,0,1.2.26,2.17.78,2.9.52.73,1.21,1.1,2.08,1.1.63,0,1.28-.19,1.95-.57.67-.38,1.33-.9,2-1.55.67-.65,1.33-1.41,2-2.27.67-.87,1.33-1.78,2-2.75.93-1.43,1.82-3.03,2.65-4.8.83-1.77,1.59-3.62,2.28-5.55.68-1.93,1.26-3.81,1.72-5.62.47-1.82.83-3.49,1.1-5.02.17-.73.27-1.57.32-2.5.05-.93.08-1.68.08-2.25l6.9.65Zm-21.1,1.65c.17.83.34,1.65.53,2.45.18.8.38,1.58.58,2.35.37,1.37.8,2.84,1.3,4.42.5,1.58,1.04,3.16,1.62,4.73.58,1.57,1.17,3.01,1.78,4.32.6,1.32,1.2,2.44,1.8,3.38.87,1.33,1.85,2.72,2.95,4.18,1.1,1.45,2.23,2.74,3.4,3.88l-5.05,4c-1-1.1-1.89-2.16-2.67-3.18-.78-1.02-1.59-2.16-2.42-3.43-.73-1.13-1.48-2.45-2.23-3.95s-1.48-3.13-2.2-4.9c-.72-1.77-1.4-3.58-2.05-5.45-.65-1.87-1.27-3.72-1.88-5.55-.27-.9-.56-1.77-.88-2.6-.32-.83-.69-1.7-1.12-2.6l6.55-2.05Z"/>
    <path class="cls-2" d="m746.6,30.35c-.57,1.13-1.25,2.35-2.05,3.65-.8,1.3-1.66,2.6-2.58,3.9s-1.81,2.51-2.67,3.62c-.87,1.12-1.65,2.04-2.35,2.78l-5.4-3.7c.83-.77,1.69-1.67,2.58-2.72.88-1.05,1.75-2.16,2.6-3.32.85-1.17,1.63-2.33,2.35-3.5.72-1.17,1.34-2.28,1.88-3.35l5.65,2.65Zm-12.75-13.55c.77.1,1.57.19,2.4.28.83.08,1.65.12,2.45.12h30.85c.7,0,1.53-.03,2.47-.1.95-.07,1.78-.15,2.48-.25v6.55c-.77-.07-1.6-.11-2.5-.12-.9-.02-1.7-.03-2.4-.03h-30.9c-.73,0-1.54.02-2.43.05s-1.69.08-2.42.15v-6.65Zm24.5-7.95c-.03.23-.08.62-.15,1.15-.07.53-.13,1.09-.2,1.68-.07.58-.1,1.09-.1,1.53v33.3c0,1.43-.42,2.58-1.27,3.43-.85.85-2.16,1.28-3.92,1.28-.9,0-1.82-.02-2.75-.05-.93-.03-1.85-.08-2.75-.15-.9-.07-1.78-.15-2.65-.25l-.6-6.2c1.07.2,2.11.35,3.12.45,1.02.1,1.82.15,2.42.15.67,0,1.13-.14,1.4-.43.27-.28.42-.74.45-1.38,0-.3,0-.95.03-1.95.02-1,.02-2.18.02-3.55V13.2c0-.67-.05-1.46-.15-2.38-.1-.92-.2-1.58-.3-1.98h7.4Zm9.75,18.7c.63.8,1.34,1.75,2.12,2.85s1.58,2.28,2.38,3.53,1.55,2.47,2.25,3.65,1.3,2.22,1.8,3.12l-5.9,3.2c-.53-1.07-1.14-2.22-1.83-3.45-.68-1.23-1.39-2.47-2.12-3.7-.73-1.23-1.46-2.39-2.17-3.47-.72-1.08-1.38-2.01-1.98-2.78l5.45-2.95Zm-2.85-16.75c0-1.07.26-2.03.77-2.9s1.22-1.57,2.1-2.1c.88-.53,1.86-.8,2.92-.8s2.03.27,2.9.8c.87.53,1.56,1.23,2.07,2.1s.78,1.83.78,2.9-.26,2.04-.78,2.92c-.52.88-1.21,1.58-2.07,2.1-.87.52-1.83.77-2.9.77s-2.04-.26-2.92-.77c-.88-.52-1.58-1.22-2.1-2.1-.52-.88-.77-1.86-.77-2.92Zm3.05,0c0,.77.27,1.41.8,1.92.53.52,1.18.78,1.95.78s1.37-.26,1.9-.78c.53-.52.8-1.16.8-1.92s-.27-1.37-.8-1.9c-.53-.53-1.17-.8-1.9-.8s-1.42.27-1.95.8-.8,1.17-.8,1.9Z"/>
    <path class="cls-2" d="m784.65,28.85c4.5-1.17,8.58-2.52,12.23-4.07,3.65-1.55,6.86-3.18,9.62-4.88,1.73-1.07,3.47-2.29,5.22-3.68,1.75-1.38,3.4-2.81,4.95-4.27s2.86-2.87,3.92-4.2l5.4,5.15c-1.53,1.5-3.21,3.02-5.03,4.55-1.82,1.53-3.71,3-5.67,4.4-1.97,1.4-3.92,2.68-5.85,3.85-1.9,1.1-4.03,2.23-6.38,3.4-2.35,1.17-4.83,2.27-7.43,3.3-2.6,1.03-5.22,1.95-7.85,2.75l-3.15-6.3Zm20.8-5.75l7.1-1.65v22.5c0,.73.02,1.53.05,2.4.03.87.08,1.68.15,2.43.07.75.15,1.32.25,1.72h-7.9c.07-.4.12-.97.17-1.72.05-.75.09-1.56.12-2.43.03-.87.05-1.67.05-2.4v-20.85Z"/>
    <path class="cls-2" d="m839.35,43.6c2.6-.37,5.05-.88,7.35-1.55,2.3-.67,4.43-1.43,6.4-2.3,1.97-.87,3.77-1.77,5.4-2.7,2.83-1.7,5.43-3.63,7.8-5.8,2.37-2.17,4.43-4.42,6.2-6.78,1.77-2.35,3.17-4.64,4.2-6.88l3.9,7.05c-1.27,2.23-2.83,4.47-4.67,6.7-1.85,2.23-3.94,4.36-6.28,6.38-2.33,2.02-4.85,3.83-7.55,5.43-1.7,1.03-3.53,2.01-5.5,2.93-1.97.92-4.04,1.73-6.22,2.45-2.18.72-4.46,1.28-6.83,1.68l-4.2-6.6Zm6.25-33.3c.87.6,1.88,1.33,3.05,2.2,1.17.87,2.38,1.81,3.62,2.83,1.25,1.02,2.43,2.01,3.53,2.97s2,1.83,2.7,2.6l-5.1,5.2c-.63-.7-1.47-1.53-2.5-2.5-1.03-.96-2.15-1.96-3.35-3-1.2-1.03-2.38-2.02-3.55-2.95-1.17-.93-2.2-1.72-3.1-2.35l4.7-5Z"/>
    <path class="cls-2" d="m901.25,43.5V14.75c0-.87-.04-1.87-.12-3-.08-1.13-.21-2.13-.38-3h7.8c-.1.87-.2,1.83-.3,2.88-.1,1.05-.15,2.09-.15,3.12v28.75c0,.47.02,1.12.05,1.97.03.85.1,1.73.2,2.62.1.9.17,1.7.2,2.4h-7.8c.13-1,.25-2.17.35-3.5.1-1.33.15-2.5.15-3.5Zm5.35-21.8c1.67.43,3.53.99,5.6,1.67,2.07.68,4.15,1.41,6.25,2.18,2.1.77,4.07,1.53,5.92,2.28,1.85.75,3.39,1.44,4.62,2.07l-2.85,6.9c-1.4-.73-2.95-1.47-4.65-2.22s-3.42-1.48-5.17-2.18-3.47-1.35-5.15-1.95c-1.68-.6-3.21-1.13-4.58-1.6v-7.15Z"/>
  </g>
  <g>
    <path class="cls-2" d="m15.95,56.6c-1.21,0-2.41-.44-3.34-1.28l-5.9-5.3c-1.35-1.21-1.94-3.06-1.54-4.83.4-1.77,1.73-3.18,3.46-3.69,3.07-.9,5.72-1.94,7.88-3.08,2.16-1.14,4.06-2.36,5.64-3.64,1.59-1.28,3.02-2.66,4.25-4.1.02-.03.04-.05.07-.08.94-1.05,1.82-2.26,2.61-3.62.33-.57.65-1.13.94-1.7h-4.39c-1.47,1.77-3.09,3.51-4.83,5.18-2.27,2.18-4.72,4.2-7.28,6.01-.86.61-1.87.91-2.88.91s-2.08-.32-2.96-.97l-5.65-4.15C.7,31.3-.06,29.71,0,28.05c.06-1.66.95-3.18,2.36-4.05,1.97-1.22,3.73-2.49,5.22-3.76,1.49-1.27,2.78-2.53,3.84-3.75,1.09-1.25,2.03-2.46,2.79-3.6.84-1.26,1.57-2.38,2.16-3.35.21-.34.51-.87.91-1.82.35-.81.61-1.54.78-2.16.37-1.31,1.26-2.42,2.46-3.06.73-.39,1.54-.59,2.35-.59.53,0,1.05.08,1.56.25l7.3,2.4c1.5.49,2.68,1.66,3.18,3.16.21.63.29,1.29.25,1.94h1.86c.55,0,1.12-.04,1.7-.11.56-.07.86-.16,1-.21.54-.19,1.1-.28,1.66-.28.92,0,1.83.25,2.63.75l5.1,3.15c2.29,1.42,3.05,4.4,1.71,6.74-.19.33-.41.77-.65,1.29-.22.47-.42.95-.59,1.42-.48,1.59-1.13,3.39-1.95,5.36-.86,2.06-1.92,4.21-3.17,6.4-1.28,2.24-2.77,4.42-4.42,6.48-2.71,3.24-5.82,6.14-9.32,8.7-3.5,2.57-7.86,4.9-12.93,6.91-.6.24-1.22.35-1.85.35Z"/>
    <path class="cls-2" d="m75.55,56.1c-1.34,0-2.66-.54-3.62-1.55l-5.25-5.5c-1.24-1.3-1.69-3.17-1.17-4.9.52-1.72,1.93-3.04,3.68-3.43,2.09-.47,3.99-1.13,5.63-1.96,1.49-.75,2.74-1.68,3.84-2.84.59-.67,1.07-1.32,1.41-1.94.31-.57.56-1.23.74-1.97.22-.92.38-2.01.48-3.25.11-1.36.16-2.97.16-4.76v-9.5c0-.89-.02-1.7-.07-2.42-.04-.68-.1-1.31-.18-1.87-.21-1.44.22-2.89,1.17-3.99.95-1.09,2.33-1.72,3.78-1.72h7.55c1.37,0,2.68.56,3.62,1.55.94.99,1.44,2.33,1.37,3.69-.04.72-.08,1.5-.13,2.34-.04.71-.07,1.52-.07,2.42v9.9c0,2.86-.14,5.42-.41,7.62-.29,2.32-.74,4.41-1.34,6.21-.62,1.86-1.4,3.56-2.33,5.04-.87,1.39-1.88,2.73-3.01,3.98-1.4,1.53-2.99,2.88-4.75,4.04-1.64,1.09-3.34,2.03-5.04,2.79-1.61.72-3.14,1.32-4.53,1.77-.5.16-1.02.24-1.54.24Zm-12.3-16.1c-1.39,0-2.71-.58-3.66-1.59-.95-1.01-1.43-2.37-1.33-3.76.03-.48.08-1.15.15-2.04.06-.74.09-1.42.09-2.02V13.75c0-.41-.02-.95-.04-1.61-.03-.62-.07-1.19-.12-1.69-.16-1.41.3-2.83,1.25-3.89.95-1.06,2.3-1.67,3.72-1.67h7.2c1.38,0,2.69.57,3.63,1.57s1.44,2.34,1.36,3.72l-.1,1.78c-.03.5-.04,1.1-.04,1.79v16.9c0,.58.02,1.24.05,2,.03.8.06,1.49.1,2.07.08,1.37-.41,2.72-1.36,3.72s-2.26,1.57-3.63,1.57h-7.25Z"/>
    <path class="cls-2" d="m151.85,52.3c-.22,0-.45-.01-.67-.05-.57-.08-1.23-.13-1.97-.16-.81-.03-1.5-.04-2.05-.04h-32.95c-.68,0-1.42.02-2.22.05-.72.03-1.45.09-2.14.17-.2.02-.4.04-.59.04-1.22,0-2.4-.44-3.32-1.26-1.07-.95-1.68-2.31-1.68-3.74v-7.25c0-1.47.65-2.86,1.77-3.81.91-.77,2.06-1.19,3.23-1.19.27,0,.55.02.82.07.65.11,1.35.19,2.06.25.74.06,1.43.09,2.07.09h7.7v-10.4h-4.65c-.62,0-1.37.02-2.23.05-.82.03-1.49.07-2,.13-.17.02-.35.03-.52.03-1.23,0-2.42-.45-3.35-1.28-1.05-.95-1.65-2.3-1.65-3.72v-6.85c0-1.41.6-2.76,1.64-3.71.92-.84,2.12-1.29,3.36-1.29.17,0,.33,0,.5.02.63.06,1.37.13,2.22.19.77.06,1.45.09,2.03.09h27.2c.63,0,1.3-.03,1.99-.08.82-.07,1.56-.13,2.24-.19.16-.01.32-.02.47-.02,1.24,0,2.44.46,3.36,1.3,1.04.95,1.64,2.29,1.64,3.7v6.85c0,1.4-.59,2.74-1.63,3.69-.92.85-2.13,1.31-3.37,1.31-.15,0-.3,0-.45-.02-.66-.06-1.36-.1-2.11-.13-.74-.03-1.46-.04-2.14-.04h-5.55v10.4h8.25c.71,0,1.4-.03,2.04-.1.69-.07,1.32-.15,1.88-.24.26-.04.52-.06.78-.06,1.18,0,2.34.42,3.25,1.2,1.11.95,1.75,2.34,1.75,3.8v7.25c0,1.44-.62,2.82-1.71,3.77-.92.8-2.09,1.23-3.29,1.23Z"/>
    <path class="cls-2" d="m181.1,55.5c-1.47,0-2.86-.65-3.81-1.77-.95-1.12-1.36-2.6-1.12-4.05.01-.08.06-.43.12-1.24.05-.71.09-1.47.12-2.29.03-.8.05-1.53.05-2.21v-8.13c-.97.42-1.96.83-2.96,1.22-2.71,1.08-5.48,2.05-8.24,2.89-.48.15-.97.22-1.46.22-1.85,0-3.61-1.04-4.47-2.76l-3.15-6.3c-.68-1.35-.7-2.93-.08-4.31.62-1.37,1.84-2.39,3.3-2.77,4.24-1.1,8.12-2.39,11.52-3.84,3.4-1.45,6.42-2.97,8.96-4.53,1.56-.96,3.16-2.08,4.74-3.34,1.63-1.29,3.19-2.63,4.62-3.98,1.37-1.3,2.54-2.54,3.46-3.69.88-1.09,2.17-1.77,3.57-1.86.11,0,.22-.01.33-.01,1.28,0,2.52.49,3.45,1.38l5.4,5.15c.98.94,1.54,2.23,1.55,3.59s-.53,2.66-1.5,3.61c-1.62,1.58-3.4,3.2-5.3,4.8-1.92,1.62-3.94,3.19-6,4.65-.22.15-.43.31-.65.46v17.57c0,.67.02,1.41.05,2.21.03.78.07,1.5.13,2.17.06.7.12.95.12.96.35,1.49,0,3.09-.94,4.28-.95,1.2-2.38,1.93-3.91,1.93h-7.9Z"/>
    <path class="cls-2" d="m223.1,56.6c-1.19,0-2.36-.42-3.28-1.23l-5.8-5.05c-1.37-1.19-1.99-3.04-1.61-4.82.38-1.78,1.69-3.21,3.43-3.74,3.12-.95,5.84-2.08,8.08-3.36,1.31-.75,2.51-1.52,3.61-2.32-1.18-.81-2.27-1.54-3.25-2.16-1.13.93-2.29,1.8-3.47,2.63-.86.6-1.86.89-2.85.89-1.08,0-2.15-.35-3.05-1.04l-5.4-4.15c-1.3-1-2.03-2.57-1.95-4.21.08-1.64.95-3.13,2.34-4,2.62-1.64,4.84-3.35,6.62-5.1,1.84-1.81,3.38-3.56,4.59-5.22,1.25-1.72,2.26-3.25,3-4.56.06-.1.12-.2.19-.3.13-.2.43-.69.86-1.68.35-.79.61-1.5.78-2.1.37-1.3,1.24-2.4,2.42-3.04.74-.4,1.56-.61,2.39-.61.5,0,1,.07,1.48.22l7.25,2.25c1.52.47,2.73,1.64,3.24,3.15.19.56.28,1.15.27,1.73h2.05c.58,0,1.17-.04,1.74-.11.66-.08.99-.17,1.1-.21.49-.16,1-.23,1.5-.23.92,0,1.83.25,2.63.75l5.1,3.15c1.14.71,1.95,1.84,2.25,3.15.3,1.31.06,2.68-.67,3.81-.18.29-.38.65-.59,1.09-.2.42-.37.85-.5,1.27-.57,1.74-1.32,3.64-2.23,5.67-.89,1.97-1.95,3.99-3.15,6.02.71.54,1.35,1.06,1.94,1.54,1.03.85,1.68,2.07,1.8,3.4.12,1.33-.29,2.65-1.15,3.67l-4.75,5.65c-.88,1.04-2.14,1.68-3.49,1.77-.11,0-.22.01-.33.01-1.24,0-2.44-.46-3.36-1.3-.49-.45-1.05-.94-1.67-1.47-.91.81-1.86,1.6-2.84,2.38-3.7,2.94-8.25,5.45-13.5,7.45-.58.22-1.18.33-1.78.33Z"/>
    <path class="cls-2" d="m266.15,38c-1.26,0-2.48-.48-3.41-1.34-1.01-.95-1.59-2.27-1.59-3.66v-7.85c0-1.37.57-2.69,1.56-3.63.93-.88,2.16-1.37,3.44-1.37.09,0,.18,0,.28,0l2.3.12c.9.05,1.84.09,2.82.12.96.03,1.84.05,2.66.05h26.85c1.01,0,1.99-.04,2.9-.11,1.09-.09,1.99-.15,2.7-.19.08,0,.17,0,.25,0,1.28,0,2.51.49,3.45,1.38.99.94,1.55,2.25,1.55,3.62v7.85c0,1.38-.57,2.69-1.57,3.64-.93.88-2.16,1.36-3.43,1.36-.1,0-.19,0-.29,0l-2.56-.15c-1.02-.06-2.04-.09-3-.09h-26.85c-1.37,0-2.79.02-4.23.07-1.42.05-2.58.1-3.46.16-.12,0-.24.01-.35.01Z"/>
    <path class="cls-2" d="m317.7,57.4c-2.51,0-4.63-1.86-4.96-4.35-.04-.34-.16-.95-.45-1.93-.24-.8-.49-1.48-.75-2.01-.75-1.58-.63-3.43.33-4.9.93-1.41,2.5-2.26,4.18-2.26.06,0,.49.01.65.02v-.03c-.1,0-.2,0-.3,0-2.21,0-4.22-1.47-4.82-3.7l-1.55-5.75c-.36-1.34-.15-2.77.58-3.94.73-1.18,1.92-2,3.28-2.26.6-.12,1.24-.25,1.92-.39h-.3c-2.76,0-5-2.24-5-5v-5.55c0-2.76,2.24-5,5-5h1.2v-4.55c0-2.76,2.24-5,5-5h5.85c2.28,0,4.2,1.53,4.8,3.61.61-.27,1.29-.41,2-.41h24.4c2.76,0,5,2.24,5,5v31.6c0,.1,0,.2,0,.29,1.8.76,3.06,2.54,3.06,4.61v5.6c0,2.76-2.24,5-5,5h-30.9c-.95,0-1.84-.27-2.6-.73-.23.14-.47.27-.72.4-1.3.68-2.93,1.15-4.77,1.37-1.46.18-3.13.26-5.12.26Z"/>
    <path class="cls-2" d="m403.5,57.75c-1.66,0-3.13-.81-4.04-2.05h-28.56c-2.76,0-5-2.24-5-5v-5.95c0-2.01,1.19-3.74,2.89-4.54-.03-.22-.04-.44-.04-.66v-5.75c0-.26.02-.51.06-.75-1.1-.92-1.81-2.3-1.81-3.85v-6.05c0-2.09,1.28-3.88,3.09-4.62-.38-.79-.79-1.58-1.23-2.38-.67-1.21-1.37-2.34-2.08-3.35-.9-1.26-1.16-2.86-.72-4.34.45-1.48,1.55-2.67,2.99-3.23l5.45-2.1c.59-.23,1.19-.33,1.8-.33,1.49,0,2.95.67,3.92,1.89.7.88,1.38,1.83,2.04,2.84v-1.72c0-2.76,2.24-5,5-5h6.6c2.76,0,5,2.24,5,5v1.34c.15-.44.29-.87.41-1.28.65-2.17,2.64-3.56,4.79-3.56.47,0,.96.07,1.43.21l6.7,2c1.42.42,2.57,1.45,3.16,2.8s.54,2.9-.12,4.22c-.75,1.5-1.53,3.02-2.35,4.57-.42.79-.84,1.58-1.26,2.34,1.92.7,3.29,2.54,3.29,4.7v29.6c0,2.76-2.24,5-5,5h-6.4Z"/>
    <path class="cls-2" d="m429.8,57.8c-2.76,0-5-2.24-5-5v-8.92c-.32.12-.64.24-.96.36-.57.21-1.16.31-1.74.31-1.79,0-3.51-.97-4.4-2.63-.08-.14-.27-.48-.69-1.08-.39-.56-.81-1.13-1.26-1.72-.45-.59-.72-.88-.84-1-1.23-1.23-1.73-3.02-1.32-4.71.39-1.6,1.54-2.9,3.07-3.49-.99-.91-1.61-2.22-1.61-3.68v-5.25c0-2.52,1.87-4.61,4.3-4.95v-4.85c0-2.76,2.24-5,5-5h6.8v-.4c0-2.76,2.24-5,5-5h5.95c2.76,0,5,2.24,5,5v.4h5.63c.45-.6.89-1.2,1.32-1.81.96-1.38,2.52-2.15,4.11-2.15.79,0,1.58.19,2.32.57l5.15,2.7c1.28.67,2.21,1.86,2.54,3.27.34,1.41.05,2.89-.79,4.06-.76,1.07-1.55,2.12-2.38,3.15h.06c2.76,0,5,2.24,5,5v5.25c0,2.76-2.24,5-5,5h-.75v21.35c0,2.76-2.24,5-5,5h-6.25c-1.27,0-2.43-.47-3.31-1.25h-10.42c-.9.9-2.15,1.45-3.52,1.45h-6Z"/>
    <path class="cls-2" d="m496.85,55.65c-1.7,0-3.3-.87-4.23-2.33l-2.29-3.64c-2.24,1.62-4.78,2.47-7.43,2.47-3,0-5.76-1-8.21-2.98-2.2-1.77-3.94-4.18-5.18-7.15-1.17-2.8-1.76-5.97-1.76-9.42s.74-7.06,2.2-10.27c1.43-3.14,3.44-5.96,5.98-8.38,2.53-2.41,5.51-4.32,8.86-5.68,3.37-1.37,7.04-2.07,10.91-2.07s7.17.63,10.24,1.86c3.1,1.25,5.8,3.01,8.04,5.25,2.25,2.25,3.99,4.91,5.17,7.9,1.16,2.94,1.75,6.13,1.75,9.48,0,4.29-.91,8.23-2.71,11.7-1.83,3.54-4.57,6.49-8.12,8.76-3.39,2.16-7.57,3.65-12.43,4.42-.26.04-.53.06-.79.06Zm5.54-30.92c-.52,2.51-1.18,5.05-1.96,7.58-.63,2.21-1.36,4.28-2.16,6.18.55-.21,1.07-.45,1.57-.72.91-.49,1.67-1.08,2.34-1.8.61-.66,1.08-1.42,1.44-2.34.36-.91.54-1.97.54-3.14,0-1.37-.2-2.6-.59-3.68-.29-.79-.67-1.47-1.17-2.09Z"/>
    <path class="cls-2" d="m537.3,55.85c-1.76,0-3.62-.34-5.51-1.01-1.82-.64-3.54-1.55-5.12-2.71-1.66-1.21-3.05-2.67-4.13-4.32-1.29-1.97-1.94-4.15-1.94-6.46,0-2.72.96-5.35,2.86-7.82,1.55-2.02,3.59-3.87,6.06-5.5.47-.31.95-.61,1.45-.9-.43,0-.82-.02-1.18-.03-1.16-.03-2.28-.11-3.31-.23-2.49-.29-4.39-2.38-4.43-4.88l-.1-6.05c-.02-1.44.57-2.82,1.64-3.79.92-.84,2.12-1.3,3.36-1.3.19,0,.38.01.57.03,1.33.15,2.52.25,3.53.3.25.01.48.02.72.03,0-.07,0-.15-.01-.22-.03-.51-.07-1.04-.11-1.59-.02-.24-.04-.44-.07-.58-.37-1.49-.03-3.03.92-4.24.95-1.21,2.41-1.88,3.95-1.88h6.9c1.43,0,2.8.62,3.75,1.69s1.39,2.51,1.21,3.93c0,0-.15,1.26-.16,1.28.87-.19,1.67-.4,2.4-.61.46-.13.93-.2,1.39-.2.8,0,1.6.19,2.32.57.92-.82,2.11-1.27,3.33-1.27.72,0,1.45.16,2.14.48,1.36.65,2.89,1.43,4.53,2.33,1.64.9,3.21,1.79,4.68,2.65,1.63.96,2.94,1.82,3.99,2.62,2,1.54,2.54,4.33,1.26,6.5l-3,5.1c-.55.94-1.38,1.66-2.37,2.07,1.33,2.24,2.01,4.8,2.01,7.64,0,2.63-.52,5.12-1.54,7.4-1.09,2.43-2.82,4.52-5.13,6.21-2.16,1.58-4.83,2.76-8.17,3.59-.07.02-.13.03-.2.05-1.28.26-2.58.47-3.86.6-1.18.12-2.31.22-3.37.29-.11,0-.22.01-.33.01-1.66,0-3.19-.83-4.12-2.16-.54.48-1.08.83-1.55,1.08-1.58.85-3.35,1.28-5.28,1.28Zm10.46-16.67c.41-.01.82-.03,1.22-.05.83-.04,1.59-.11,2.25-.21.9-.18,1.7-.44,2.38-.77.34-.17.58-.34.73-.53,0,0,0-.04,0-.11-.07-.04-.18-.1-.33-.16-.5-.2-1.2-.3-2.02-.3-1.4,0-2.83.12-4.27.35.01.62.03,1.21.04,1.78Z"/>
    <path class="cls-2" d="m591.65,57c-1.3,0-2.57-.51-3.52-1.45l-5.35-5.3c-1.31-1.3-1.8-3.21-1.27-4.98.53-1.77,1.99-3.1,3.79-3.47.29-.06.57-.12.85-.18-.92-1.01-1.68-2.19-2.27-3.49-.81-1.78-1.23-3.82-1.23-6.07,0-2.65.62-5.05,1.84-7.13h-.14c-2.09.09-4.08.19-5.9.32-.12,0-.23.01-.35.01-1.24,0-2.44-.46-3.36-1.3-1.01-.92-1.6-2.21-1.63-3.58l-.15-6.05c-.03-1.35.48-2.65,1.42-3.61.94-.96,2.23-1.51,3.58-1.51,1.44,0,3.08-.02,4.91-.05l11.18-.19c-.27-1.44.1-2.95,1.03-4.09.95-1.17,2.37-1.87,3.88-1.87h7.25c1.44,0,2.8.62,3.75,1.7s1.39,2.51,1.21,3.94c0,.05-.01.11-.02.17.77,0,1.54,0,2.31,0h6.85c1.33,0,2.61.53,3.55,1.48.94.95,1.46,2.23,1.45,3.56l-.05,5.9c-.01,1.36-.57,2.65-1.56,3.58-.93.88-2.17,1.38-3.44,1.38-.07,0-.14,0-.21,0-1.52-.06-3.57-.12-6.09-.17-.95-.02-1.98-.03-3.11-.05,0,.39,0,.77.01,1.14.08.16.15.32.22.47,1.04,2.31,1.57,4.9,1.57,7.7,0,2.12-.34,4.32-1.01,6.54-.69,2.29-1.82,4.53-3.36,6.66-1.56,2.16-3.64,4.11-6.18,5.8-2.47,1.65-5.53,3-9.09,4-.45.13-.91.19-1.36.19Z"/>
    <path class="cls-2" d="m643.65,57c-1.3,0-2.57-.51-3.52-1.45l-5.35-5.3c-1.31-1.3-1.8-3.21-1.27-4.98.53-1.77,1.99-3.1,3.79-3.47.29-.06.57-.12.85-.18-.92-1.01-1.68-2.19-2.27-3.49-.81-1.78-1.23-3.82-1.23-6.07,0-2.65.62-5.05,1.84-7.13h-.14c-2.09.09-4.08.19-5.9.32-.12,0-.23.01-.35.01-1.24,0-2.44-.46-3.36-1.3-1.01-.92-1.6-2.21-1.63-3.58l-.15-6.05c-.03-1.35.48-2.65,1.42-3.61.94-.96,2.23-1.51,3.58-1.51,1.44,0,3.08-.02,4.91-.05l11.18-.19c-.27-1.44.1-2.95,1.03-4.09.95-1.17,2.37-1.87,3.88-1.87h7.25c1.44,0,2.8.62,3.75,1.7s1.39,2.51,1.21,3.94c0,.05-.01.11-.02.17.77,0,1.54,0,2.31,0h6.85c1.33,0,2.61.53,3.55,1.48.94.95,1.46,2.23,1.45,3.56l-.05,5.9c-.01,1.36-.57,2.65-1.56,3.58-.93.88-2.17,1.38-3.44,1.38-.07,0-.14,0-.21,0-1.52-.06-3.57-.12-6.09-.17-.95-.02-1.98-.03-3.11-.05,0,.39,0,.77.01,1.14.08.16.15.32.22.47,1.04,2.31,1.57,4.9,1.57,7.7,0,2.12-.34,4.32-1.01,6.54-.69,2.29-1.82,4.53-3.36,6.66-1.56,2.16-3.64,4.11-6.18,5.8-2.47,1.65-5.53,3-9.09,4-.45.13-.91.19-1.36.19Z"/>
    <path class="cls-2" d="m706,56.2c-1.66,0-3.23-.83-4.17-2.23l-3.13-4.71c-1.2.93-2.42,1.68-3.66,2.23-1.94.87-4.06,1.31-6.3,1.31s-4.49-.63-6.5-1.87c-2-1.24-3.62-3.04-4.79-5.35-1.1-2.19-1.66-4.79-1.66-7.73s.52-5.64,1.53-8.4c.99-2.67,2.37-5.19,4.12-7.48.33-.43.67-.85,1.03-1.26-.13-.38-.41-1.24-.42-1.29-.23-.77-.48-1.52-.76-2.25-.26-.69-.59-1.44-.96-2.21-.63-1.31-.66-2.83-.08-4.16.58-1.33,1.71-2.35,3.09-2.78l6.55-2.05c.49-.15.99-.23,1.49-.23.89,0,1.77.24,2.55.7,1.22.72,2.08,1.93,2.35,3.32.14.71.29,1.41.45,2.1.11-.03.22-.06.33-.09,1.12-.31,2.26-.55,3.41-.75.02-.19.03-.39.04-.59.04-.83.07-1.49.07-1.98,0-1.41.59-2.75,1.63-3.7.92-.84,2.13-1.3,3.37-1.3.16,0,.31,0,.47.02l6.9.65c1.44.14,2.74.88,3.59,2.05.84,1.17,1.14,2.65.82,4.05,0,0-.53,2.25-.6,2.56.36.17.71.35,1.06.54,3.48,1.89,6.23,4.57,8.19,7.97,1.94,3.36,2.92,7.28,2.92,11.65s-1.03,8.34-3.05,11.67c-2,3.28-4.75,5.93-8.2,7.86-3.21,1.8-6.88,3.03-10.93,3.66-.25.04-.51.06-.76.06Zm2.83-19.34c.36.35.66.74.89,1.17.29-.21.55-.42.79-.64.7-.67,1.19-1.37,1.49-2.13.34-.85.5-1.72.5-2.66,0-1.13-.18-2.1-.54-2.94-.89,2.42-1.9,4.72-3,6.84-.06.11-.11.22-.17.33.01.01.03.03.04.04Z"/>
    <path class="cls-2" d="m752.7,56.2c-.96,0-1.93-.02-2.93-.05-1-.04-1.98-.09-2.94-.16-.97-.07-1.92-.16-2.85-.27-2.34-.27-4.18-2.14-4.41-4.49l-.25-2.53c-.74.4-1.56.6-2.38.6-.98,0-1.97-.29-2.82-.88l-5.4-3.7c-1.26-.86-2.05-2.25-2.16-3.77-.11-1.52.48-3.01,1.6-4.04.67-.62,1.39-1.38,2.13-2.26.8-.95,1.6-1.98,2.38-3.05.76-1.04,1.48-2.11,2.13-3.18l.03-.04c-.19.01-.37.03-.54.04-.15.01-.3.02-.45.02-1.24,0-2.45-.46-3.37-1.31-1.04-.95-1.63-2.29-1.63-3.69v-6.65c0-1.44.62-2.81,1.7-3.76.92-.81,2.09-1.24,3.3-1.24.21,0,.43.01.64.04.72.09,1.47.18,2.26.26.67.07,1.33.1,1.95.1h7.66c-.02-.26-.04-.54-.08-.83-.11-.99-.18-1.3-.18-1.32-.34-1.49,0-3.08.95-4.28.95-1.19,2.38-1.92,3.91-1.92h7.4c1.29,0,2.52.5,3.45,1.38.93-1.52,2.19-2.77,3.75-3.71,1.67-1.01,3.52-1.52,5.51-1.52s3.86.52,5.52,1.54c1.56.96,2.82,2.24,3.75,3.8.98,1.65,1.48,3.48,1.48,5.46s-.49,3.79-1.46,5.45c-.25.44-.54.85-.84,1.24v5.91c0,1.4-.59,2.74-1.62,3.68-.82.75-1.87,1.21-2.96,1.3.63.91,1.26,1.86,1.89,2.85.83,1.29,1.62,2.57,2.34,3.8.73,1.23,1.35,2.31,1.87,3.24.65,1.17.8,2.54.43,3.83-.37,1.28-1.24,2.36-2.42,3l-5.9,3.2c-.74.4-1.56.6-2.38.6-.5,0-1.01-.08-1.5-.23-1.29-.41-2.36-1.32-2.97-2.53-.5-1.01-1.09-2.11-1.73-3.27-.54-.97-1.09-1.93-1.65-2.9v6.52c0,3.49-1.49,5.71-2.74,6.96-1.82,1.82-4.33,2.74-7.46,2.74Z"/>
    <path class="cls-2" d="m805.1,55.5c-1.47,0-2.86-.65-3.81-1.77-.95-1.12-1.36-2.6-1.12-4.05.01-.08.06-.43.12-1.24.05-.71.09-1.47.12-2.29.03-.8.05-1.53.05-2.21v-8.13c-.97.42-1.96.83-2.96,1.22-2.71,1.08-5.48,2.05-8.24,2.89-.48.15-.97.22-1.46.22-1.85,0-3.61-1.04-4.47-2.76l-3.15-6.3c-.68-1.35-.7-2.93-.08-4.31.62-1.37,1.84-2.39,3.3-2.77,4.24-1.1,8.12-2.39,11.52-3.84,3.4-1.45,6.42-2.97,8.96-4.53,1.56-.96,3.16-2.08,4.74-3.34,1.63-1.29,3.19-2.63,4.62-3.98,1.37-1.3,2.54-2.54,3.46-3.69.88-1.09,2.17-1.77,3.57-1.86.11,0,.22-.01.33-.01,1.28,0,2.52.49,3.45,1.38l5.4,5.15c.98.94,1.54,2.23,1.55,3.59s-.53,2.66-1.5,3.61c-1.62,1.58-3.4,3.2-5.3,4.8-1.92,1.62-3.94,3.19-6,4.65-.22.15-.43.31-.65.46v17.57c0,.67.02,1.41.05,2.21.03.78.07,1.5.13,2.17.06.7.12.95.12.96.35,1.49,0,3.09-.94,4.28-.95,1.2-2.38,1.93-3.91,1.93h-7.9Z"/>
    <path class="cls-2" d="m843.55,55.2c-1.69,0-3.29-.86-4.22-2.32l-4.2-6.6c-.91-1.43-1.03-3.23-.32-4.78.71-1.54,2.16-2.62,3.84-2.86,2.34-.33,4.58-.8,6.66-1.4,2.07-.6,4.01-1.3,5.77-2.07,1.78-.78,3.42-1.6,4.89-2.44,2.52-1.52,4.86-3.26,6.95-5.17,2.13-1.95,4.01-4,5.58-6.09,1.55-2.06,2.78-4.07,3.66-5.97.79-1.71,2.48-2.83,4.36-2.9.06,0,.12,0,.18,0,1.81,0,3.49.98,4.37,2.58l3.9,7.05c.84,1.52.83,3.37-.03,4.89-1.4,2.48-3.14,4.97-5.17,7.42-2.01,2.43-4.32,4.78-6.86,6.97-2.54,2.2-5.33,4.2-8.27,5.94-1.8,1.09-3.81,2.16-5.93,3.16-2.14,1-4.42,1.89-6.78,2.67-2.41.79-4.95,1.42-7.55,1.86-.28.05-.56.07-.83.07Zm9.75-24.1c-1.38-.03-2.68-.62-3.61-1.64-.53-.58-1.27-1.33-2.21-2.21-.98-.91-2.05-1.88-3.2-2.86-1.16-1-2.31-1.95-3.41-2.83-1.08-.87-2.04-1.59-2.85-2.16-1.19-.83-1.95-2.14-2.1-3.58-.15-1.44.34-2.88,1.33-3.93l4.7-5c.98-1.04,2.31-1.58,3.65-1.58.99,0,1.98.29,2.84.89.9.63,1.96,1.39,3.18,2.29,1.23.91,2.51,1.91,3.8,2.96,1.29,1.05,2.53,2.09,3.67,3.1,1.25,1.1,2.26,2.07,3.09,2.98,1.79,1.96,1.74,4.98-.12,6.88l-5.1,5.2c-.94.96-2.23,1.5-3.57,1.5-.03,0-.07,0-.1,0Z"/>
    <path class="cls-2" d="m900.75,55.5c-1.44,0-2.81-.62-3.76-1.71-.95-1.08-1.39-2.52-1.2-3.95.12-.91.23-1.99.32-3.21.09-1.2.14-2.25.14-3.13V14.75c0-.74-.04-1.62-.11-2.63-.07-.93-.17-1.75-.3-2.42-.28-1.46.11-2.98,1.06-4.13.95-1.15,2.36-1.81,3.85-1.81h7.8c1.43,0,2.78.61,3.73,1.67.95,1.06,1.4,2.48,1.24,3.9-.1.84-.19,1.76-.29,2.78-.08.89-.13,1.78-.13,2.65v3.66c.22.07.44.14.67.22,2.13.7,4.28,1.45,6.4,2.23,2.16.79,4.21,1.58,6.09,2.34,2.01.81,3.65,1.55,5.03,2.26,2.32,1.19,3.33,3.95,2.34,6.36l-2.85,6.9c-.54,1.3-1.59,2.31-2.91,2.79-.55.2-1.13.3-1.71.3-.8,0-1.6-.19-2.32-.57-1.3-.68-2.77-1.38-4.35-2.08-1.67-.74-3.36-1.45-5.01-2.11-.46-.18-.92-.36-1.37-.54v7c0,.42.02,1.01.05,1.78.03.72.09,1.48.17,2.27.11.99.19,1.91.22,2.71.07,1.37-.43,2.7-1.38,3.69-.94.99-2.25,1.55-3.62,1.55h-7.8Z"/>
  </g>
  <g>
    <path class="cls-1" d="m30.2,9.3c-.6.87-1.18,1.8-1.75,2.8-.57,1-1,1.77-1.3,2.3-1.13,2-2.52,4.07-4.17,6.22-1.65,2.15-3.52,4.23-5.62,6.25-2.1,2.02-4.33,3.86-6.7,5.53l-5.65-4.15c2.2-1.37,4.14-2.77,5.83-4.2,1.68-1.43,3.14-2.86,4.38-4.28,1.23-1.42,2.29-2.78,3.17-4.1.88-1.32,1.64-2.49,2.27-3.53.4-.63.82-1.46,1.25-2.47s.77-1.94,1-2.78l7.3,2.4Zm16.3,7.9c-.27.47-.55,1.02-.85,1.67-.3.65-.57,1.29-.8,1.93-.43,1.47-1.04,3.14-1.83,5.03s-1.75,3.83-2.9,5.85c-1.15,2.02-2.48,3.96-3.98,5.82-2.4,2.87-5.19,5.47-8.38,7.8s-7.12,4.43-11.82,6.3l-5.9-5.3c3.4-1,6.33-2.15,8.8-3.45,2.47-1.3,4.62-2.69,6.45-4.17,1.83-1.48,3.47-3.06,4.9-4.72,1.17-1.3,2.23-2.78,3.2-4.43s1.8-3.29,2.5-4.93c.7-1.63,1.17-3.07,1.4-4.3h-16.85l2.3-5.65h14.3c.77,0,1.54-.05,2.33-.15.78-.1,1.46-.25,2.02-.45l5.1,3.15Z"/>
    <path class="cls-1" d="m70.5,9.9c-.03.6-.07,1.19-.1,1.78s-.05,1.28-.05,2.07v16.9c0,.63.02,1.37.05,2.2.03.83.07,1.55.1,2.15h-7.25c.03-.47.08-1.13.15-2,.07-.87.1-1.67.1-2.4V13.75c0-.47-.02-1.07-.05-1.82-.03-.75-.08-1.43-.15-2.03h7.2Zm23.2-.4c-.03.7-.08,1.46-.12,2.28-.05.82-.08,1.72-.08,2.72v9.9c0,2.67-.12,5-.38,7s-.62,3.75-1.12,5.25-1.11,2.82-1.83,3.97-1.54,2.24-2.47,3.28c-1.1,1.2-2.37,2.28-3.8,3.22-1.43.95-2.88,1.75-4.32,2.4-1.45.65-2.79,1.18-4.03,1.57l-5.25-5.5c2.5-.57,4.76-1.36,6.78-2.38,2.02-1.02,3.77-2.32,5.27-3.92.87-.97,1.57-1.93,2.1-2.9.53-.97.94-2.04,1.22-3.22s.48-2.53.6-4.03.18-3.22.18-5.15v-9.5c0-1-.03-1.91-.08-2.72s-.12-1.57-.23-2.28h7.55Z"/>
    <path class="cls-1" d="m109.25,40.05c.8.13,1.63.23,2.5.3.87.07,1.68.1,2.45.1h32.95c.9,0,1.75-.04,2.55-.12.8-.08,1.52-.18,2.15-.28v7.25c-.73-.1-1.55-.17-2.45-.2-.9-.03-1.65-.05-2.25-.05h-32.95c-.73,0-1.53.02-2.4.05-.87.04-1.72.1-2.55.2v-7.25Zm3.25-26.65c.67.07,1.45.13,2.35.2.9.07,1.7.1,2.4.1h27.2c.77,0,1.57-.03,2.4-.1.83-.07,1.6-.13,2.3-.2v6.85c-.73-.07-1.52-.12-2.35-.15-.83-.03-1.62-.05-2.35-.05h-27.2c-.67,0-1.47.02-2.4.05-.93.04-1.72.08-2.35.15v-6.85Zm14.4,30.75v-26.9h7v26.9h-7Z"/>
    <path class="cls-1" d="m160.65,28.85c4.5-1.17,8.58-2.52,12.23-4.07,3.65-1.55,6.86-3.18,9.62-4.88,1.73-1.07,3.47-2.29,5.22-3.68,1.75-1.38,3.4-2.81,4.95-4.27s2.86-2.87,3.92-4.2l5.4,5.15c-1.53,1.5-3.21,3.02-5.03,4.55-1.82,1.53-3.71,3-5.67,4.4-1.97,1.4-3.92,2.68-5.85,3.85-1.9,1.1-4.03,2.23-6.38,3.4-2.35,1.17-4.83,2.27-7.43,3.3-2.6,1.03-5.22,1.95-7.85,2.75l-3.15-6.3Zm20.8-5.75l7.1-1.65v22.5c0,.73.02,1.53.05,2.4.03.87.08,1.68.15,2.43.07.75.15,1.32.25,1.72h-7.9c.07-.4.12-.97.17-1.72.05-.75.09-1.56.12-2.43.03-.87.05-1.67.05-2.4v-20.85Z"/>
    <path class="cls-1" d="m238,8.7c-.6.87-1.19,1.8-1.78,2.8s-1.02,1.77-1.33,2.3c-1.13,2-2.57,4.12-4.3,6.38s-3.67,4.44-5.83,6.57c-2.15,2.13-4.42,4.03-6.82,5.7l-5.4-4.15c2.93-1.83,5.42-3.76,7.47-5.78,2.05-2.02,3.76-3.97,5.12-5.85s2.47-3.56,3.3-5.03c.4-.6.82-1.41,1.27-2.43.45-1.02.79-1.94,1.03-2.77l7.25,2.25Zm16.5,7.7c-.3.47-.6,1.02-.9,1.65s-.55,1.27-.75,1.9c-.5,1.53-1.17,3.24-2.02,5.12-.85,1.88-1.86,3.8-3.03,5.75-1.17,1.95-2.5,3.86-4,5.72-2.37,2.93-5.21,5.72-8.53,8.35s-7.38,4.87-12.17,6.7l-5.8-5.05c3.5-1.07,6.53-2.33,9.1-3.8s4.79-3.03,6.68-4.7c1.88-1.67,3.52-3.33,4.92-5,1.13-1.3,2.21-2.76,3.22-4.38s1.9-3.23,2.65-4.85,1.27-3.06,1.58-4.33h-16.9l2.3-5.7h14.2c.8,0,1.59-.05,2.38-.15s1.44-.23,1.97-.4l5.1,3.15Zm-23.5,8.5c1.53.87,3.21,1.89,5.02,3.07,1.82,1.18,3.66,2.41,5.53,3.68,1.87,1.27,3.62,2.5,5.28,3.7,1.65,1.2,3.04,2.27,4.17,3.2l-4.75,5.65c-1.1-1-2.46-2.16-4.08-3.48-1.62-1.32-3.36-2.67-5.22-4.05-1.87-1.38-3.71-2.71-5.53-3.97-1.82-1.27-3.44-2.35-4.88-3.25l4.45-4.55Z"/>
    <path class="cls-1" d="m266.15,25.15c.6.03,1.37.07,2.3.12.93.05,1.91.09,2.92.12,1.02.03,1.96.05,2.83.05h26.85c1.17,0,2.27-.04,3.3-.12,1.03-.08,1.88-.14,2.55-.18v7.85c-.57-.03-1.42-.08-2.55-.15-1.13-.07-2.23-.1-3.3-.1h-26.85c-1.43,0-2.9.03-4.4.08-1.5.05-2.72.11-3.65.17v-7.85Z"/>
    <path class="cls-1" d="m314.85,31.2c1.53-.3,3.26-.68,5.17-1.12,1.92-.45,3.94-.93,6.08-1.45,2.13-.52,4.25-1.04,6.35-1.57l.75,5.45c-2.87.8-5.78,1.59-8.73,2.38s-5.64,1.47-8.08,2.08l-1.55-5.75Zm.65-15.85h17.3v5.55h-17.3v-5.55Zm6.2-9.55h5.85v40.25c0,1.43-.15,2.56-.45,3.38-.3.82-.88,1.44-1.75,1.88-.83.43-1.88.72-3.12.88s-2.76.22-4.52.22c-.1-.77-.31-1.68-.62-2.72-.32-1.05-.66-1.96-1.03-2.72.97.03,1.91.05,2.83.05h1.88c.37,0,.62-.07.75-.22.13-.15.2-.39.2-.72V5.8Zm9.2,39.7h30.9v5.6h-30.9v-5.6Zm3.45-36.5h24.4v31.6h-24.4V9Zm5.75,5.6v7.35h12.6v-7.35h-12.6Zm0,12.9v7.55h12.6v-7.55h-12.6Z"/>
    <path class="cls-1" d="m370.85,9.9l5.45-2.1c.9,1.13,1.75,2.38,2.55,3.72s1.52,2.68,2.15,4c.63,1.32,1.13,2.51,1.5,3.57l-5.8,2.45c-.3-1.07-.76-2.28-1.38-3.65-.62-1.37-1.31-2.75-2.08-4.15-.77-1.4-1.57-2.68-2.4-3.85Zm.05,34.85h35.9v5.95h-35.9v-5.95Zm1.1-21.6h37.9v29.6h-6.4v-23.55h-31.5v-6.05Zm1.75,10.65h32.05v5.75h-32.05v-5.75Zm13.5-28h6.6v20.5h-6.6V5.8Zm16.8,1.5l6.7,2c-.73,1.47-1.5,2.96-2.3,4.47-.8,1.52-1.59,2.96-2.38,4.32-.78,1.37-1.54,2.58-2.28,3.65l-5.3-1.9c.67-1.13,1.35-2.42,2.05-3.85.7-1.43,1.36-2.91,1.97-4.42.62-1.52,1.12-2.94,1.53-4.28Z"/>
    <path class="cls-1" d="m458.15,7.25l5.15,2.7c-3.23,4.53-7.03,8.67-11.4,12.4-4.37,3.73-9.07,7.04-14.12,9.9-5.05,2.87-10.27,5.3-15.67,7.3-.23-.43-.57-.96-1-1.58-.43-.62-.89-1.24-1.38-1.88-.48-.63-.91-1.13-1.27-1.5,5.43-1.73,10.62-3.93,15.57-6.6,4.95-2.67,9.48-5.75,13.6-9.25,4.12-3.5,7.62-7.33,10.52-11.5Zm-38.1,13.75h45v5.25h-45v-5.25Zm4.3-9.8h28.6v5.2h-28.6v-5.2Zm5.45,19.05h29.5v22.35h-6.25v-17.4h-17.25v17.6h-6v-22.55Zm3.4,8.15h22.3v4.55h-22.3v-4.55Zm0,7.9h22.3v5.05h-22.3v-5.05Zm2.95-40.5h5.95v18.15h-5.95V5.8Z"/>
    <path class="cls-1" d="m499.1,14.05c-.33,2.53-.77,5.23-1.3,8.1s-1.25,5.77-2.15,8.7c-.97,3.37-2.1,6.27-3.4,8.7s-2.73,4.31-4.28,5.62-3.24,1.97-5.08,1.97-3.52-.62-5.07-1.88c-1.55-1.25-2.78-2.97-3.7-5.18-.92-2.2-1.38-4.7-1.38-7.5s.58-5.63,1.75-8.2c1.17-2.57,2.79-4.84,4.88-6.82,2.08-1.98,4.52-3.54,7.3-4.68s5.79-1.7,9.03-1.7,5.89.5,8.38,1.5c2.48,1,4.61,2.38,6.38,4.15,1.77,1.77,3.12,3.83,4.05,6.2.93,2.37,1.4,4.92,1.4,7.65,0,3.5-.72,6.63-2.15,9.4-1.43,2.77-3.56,5.05-6.38,6.85-2.82,1.8-6.33,3.03-10.53,3.7l-3.75-5.95c.97-.1,1.82-.22,2.55-.35.73-.13,1.43-.28,2.1-.45,1.6-.4,3.09-.97,4.47-1.72,1.38-.75,2.59-1.68,3.62-2.8,1.03-1.12,1.84-2.42,2.42-3.92s.88-3.15.88-4.95c0-1.97-.3-3.77-.9-5.4-.6-1.63-1.48-3.06-2.65-4.27s-2.58-2.15-4.25-2.8-3.58-.97-5.75-.97c-2.67,0-5.02.47-7.05,1.42-2.03.95-3.75,2.18-5.15,3.68-1.4,1.5-2.46,3.12-3.17,4.85-.72,1.73-1.08,3.38-1.08,4.95,0,1.67.2,3.06.6,4.17.4,1.12.89,1.95,1.47,2.5.58.55,1.21.83,1.88.83.7,0,1.39-.36,2.08-1.08.68-.72,1.36-1.81,2.03-3.28.67-1.46,1.33-3.32,2-5.55.77-2.4,1.42-4.97,1.95-7.7.53-2.73.92-5.4,1.15-8l6.8.2Z"/>
    <path class="cls-1" d="m543.35,7.7c-.03.27-.08.67-.15,1.22-.07.55-.12,1.1-.18,1.65-.05.55-.09,1.04-.12,1.47-.07.97-.12,2.03-.17,3.17-.05,1.15-.09,2.33-.12,3.55s-.06,2.44-.08,3.68c-.02,1.23-.02,2.43-.02,3.6,0,1.37.02,2.88.05,4.53.03,1.65.08,3.28.12,4.9.05,1.62.08,3.09.1,4.43.02,1.33.03,2.37.03,3.1,0,2.07-.22,3.67-.67,4.8s-1.09,1.92-1.92,2.38c-.83.45-1.8.67-2.9.67-1.2,0-2.48-.24-3.85-.72-1.37-.48-2.64-1.16-3.83-2.03-1.18-.87-2.15-1.88-2.9-3.02-.75-1.15-1.12-2.39-1.12-3.73,0-1.6.61-3.19,1.83-4.77,1.22-1.58,2.83-3.04,4.85-4.38,2.02-1.33,4.19-2.4,6.53-3.2,2.23-.83,4.53-1.44,6.9-1.82,2.37-.38,4.5-.58,6.4-.58,2.57,0,4.88.43,6.95,1.28,2.07.85,3.72,2.09,4.95,3.72,1.23,1.63,1.85,3.6,1.85,5.9,0,1.93-.37,3.72-1.1,5.35-.73,1.63-1.91,3.04-3.53,4.23-1.62,1.18-3.76,2.11-6.42,2.77-1.13.23-2.26.41-3.38.53-1.12.12-2.17.21-3.17.28l-2.3-6.45c1.13,0,2.22-.03,3.27-.08,1.05-.05,2.01-.14,2.88-.28,1.37-.27,2.6-.67,3.7-1.2s1.97-1.23,2.6-2.1.95-1.9.95-3.1c0-1.13-.31-2.1-.92-2.9-.62-.8-1.47-1.42-2.58-1.85-1.1-.43-2.38-.65-3.85-.65-2.1,0-4.23.22-6.38.65-2.15.43-4.21,1.03-6.17,1.8-1.47.57-2.78,1.22-3.95,1.97-1.17.75-2.08,1.53-2.75,2.33-.67.8-1,1.57-1,2.3,0,.4.12.78.38,1.12.25.35.58.66.97.93.4.27.81.47,1.23.62.42.15.77.22,1.07.22.47,0,.85-.14,1.15-.42s.45-.84.45-1.68c0-.9-.03-2.19-.08-3.88s-.1-3.56-.15-5.62c-.05-2.07-.07-4.12-.07-6.15,0-1.4,0-2.82.02-4.25.02-1.43.03-2.8.03-4.1s0-2.45.02-3.45.03-1.78.03-2.35c0-.37-.02-.83-.05-1.4-.03-.57-.08-1.14-.12-1.73-.05-.58-.11-1.01-.17-1.27h6.9Zm-16.4,8.15c1.47.17,2.76.28,3.88.33,1.12.05,2.12.07,3.02.07,1.3,0,2.73-.06,4.3-.17s3.17-.28,4.8-.5c1.63-.22,3.22-.48,4.77-.78,1.55-.3,2.96-.63,4.23-1l.15,6.2c-1.4.33-2.92.62-4.55.88-1.63.25-3.28.47-4.92.68-1.65.2-3.22.35-4.7.45-1.48.1-2.78.15-3.88.15-1.67,0-3.03-.02-4.1-.05-1.07-.03-2.03-.1-2.9-.2l-.1-6.05Zm30.65-2.75c1.27.6,2.69,1.33,4.28,2.2,1.58.87,3.1,1.72,4.55,2.57s2.61,1.61,3.47,2.28l-3,5.1c-.63-.53-1.46-1.13-2.47-1.8-1.02-.67-2.12-1.35-3.3-2.05-1.18-.7-2.33-1.36-3.42-1.97-1.1-.62-2.05-1.11-2.85-1.47l2.75-4.85Z"/>
    <path class="cls-1" d="m577.95,14.2c1.47,0,3.13-.02,5-.05,1.87-.03,3.82-.07,5.85-.1s4.03-.07,6-.1,3.82-.06,5.55-.08c1.73-.02,3.23-.03,4.5-.03s2.65,0,4.15-.02c1.5-.02,2.98-.03,4.45-.03h6.85l-.05,5.9c-1.57-.07-3.63-.12-6.2-.18-2.57-.05-5.7-.07-9.4-.07-2.27,0-4.57.02-6.9.07-2.33.05-4.65.11-6.95.18s-4.52.14-6.65.22-4.15.19-6.05.32l-.15-6.05Zm27.05,14.8c0,2.73-.33,5-.98,6.8-.65,1.8-1.62,3.16-2.92,4.07-1.3.92-2.92,1.38-4.85,1.38-.93,0-1.91-.2-2.92-.6-1.02-.4-1.96-.98-2.83-1.75-.87-.77-1.56-1.72-2.08-2.85-.52-1.13-.78-2.47-.78-4,0-1.9.45-3.54,1.35-4.93.9-1.38,2.11-2.47,3.62-3.25,1.52-.78,3.19-1.17,5.02-1.17,2.2,0,4.04.49,5.53,1.47,1.48.98,2.6,2.31,3.35,3.97.75,1.67,1.12,3.55,1.12,5.65,0,1.63-.27,3.33-.8,5.1-.53,1.77-1.41,3.49-2.62,5.18s-2.85,3.21-4.9,4.57c-2.05,1.37-4.61,2.48-7.68,3.35l-5.35-5.3c2.13-.43,4.12-1,5.95-1.7,1.83-.7,3.44-1.58,4.83-2.65,1.38-1.07,2.47-2.38,3.25-3.95.78-1.57,1.17-3.45,1.17-5.65,0-1.6-.39-2.8-1.17-3.6-.78-.8-1.73-1.2-2.83-1.2-.63,0-1.25.15-1.85.45-.6.3-1.08.75-1.45,1.35-.37.6-.55,1.33-.55,2.2,0,1.13.39,2.04,1.18,2.72.78.68,1.67,1.03,2.67,1.03.8,0,1.51-.25,2.12-.75.62-.5,1.02-1.33,1.22-2.5.2-1.17.03-2.73-.5-4.7l4.65,1.25Zm1.2-21c-.03.27-.08.69-.12,1.28-.05.58-.09,1.17-.12,1.75-.03.58-.07,1.01-.1,1.28-.03.67-.05,1.56-.05,2.67v3.73c0,1.37,0,2.74.03,4.12.02,1.38.03,2.68.05,3.9.02,1.22.02,2.23.02,3.03l-6.25-2.1v-5.97c0-1.25,0-2.49-.02-3.72-.02-1.23-.04-2.35-.08-3.35s-.07-1.75-.1-2.25c-.07-1.03-.15-1.94-.25-2.72-.1-.78-.18-1.32-.25-1.62h7.25Z"/>
    <path class="cls-1" d="m629.95,14.2c1.47,0,3.13-.02,5-.05,1.87-.03,3.82-.07,5.85-.1s4.03-.07,6-.1,3.82-.06,5.55-.08c1.73-.02,3.23-.03,4.5-.03s2.65,0,4.15-.02c1.5-.02,2.98-.03,4.45-.03h6.85l-.05,5.9c-1.57-.07-3.63-.12-6.2-.18-2.57-.05-5.7-.07-9.4-.07-2.27,0-4.57.02-6.9.07-2.33.05-4.65.11-6.95.18s-4.52.14-6.65.22-4.15.19-6.05.32l-.15-6.05Zm27.05,14.8c0,2.73-.33,5-.98,6.8-.65,1.8-1.62,3.16-2.92,4.07-1.3.92-2.92,1.38-4.85,1.38-.93,0-1.91-.2-2.92-.6-1.02-.4-1.96-.98-2.83-1.75-.87-.77-1.56-1.72-2.08-2.85-.52-1.13-.78-2.47-.78-4,0-1.9.45-3.54,1.35-4.93.9-1.38,2.11-2.47,3.62-3.25,1.52-.78,3.19-1.17,5.02-1.17,2.2,0,4.04.49,5.53,1.47,1.48.98,2.6,2.31,3.35,3.97.75,1.67,1.12,3.55,1.12,5.65,0,1.63-.27,3.33-.8,5.1-.53,1.77-1.41,3.49-2.62,5.18s-2.85,3.21-4.9,4.57c-2.05,1.37-4.61,2.48-7.68,3.35l-5.35-5.3c2.13-.43,4.12-1,5.95-1.7,1.83-.7,3.44-1.58,4.83-2.65,1.38-1.07,2.47-2.38,3.25-3.95.78-1.57,1.17-3.45,1.17-5.65,0-1.6-.39-2.8-1.17-3.6-.78-.8-1.73-1.2-2.83-1.2-.63,0-1.25.15-1.85.45-.6.3-1.08.75-1.45,1.35-.37.6-.55,1.33-.55,2.2,0,1.13.39,2.04,1.18,2.72.78.68,1.67,1.03,2.67,1.03.8,0,1.51-.25,2.12-.75.62-.5,1.02-1.33,1.22-2.5.2-1.17.03-2.73-.5-4.7l4.65,1.25Zm1.2-21c-.03.27-.08.69-.12,1.28-.05.58-.09,1.17-.12,1.75-.03.58-.07,1.01-.1,1.28-.03.67-.05,1.56-.05,2.67v3.73c0,1.37,0,2.74.03,4.12.02,1.38.03,2.68.05,3.9.02,1.22.02,2.23.02,3.03l-6.25-2.1v-5.97c0-1.25,0-2.49-.02-3.72-.02-1.23-.04-2.35-.08-3.35s-.07-1.75-.1-2.25c-.07-1.03-.15-1.94-.25-2.72-.1-.78-.18-1.32-.25-1.62h7.25Z"/>
    <path class="cls-1" d="m712.5,9.1c-.1.43-.23.97-.38,1.6-.15.63-.29,1.27-.42,1.9-.13.63-.25,1.15-.35,1.55-.53,2.23-1.13,4.51-1.8,6.82-.67,2.32-1.42,4.61-2.25,6.88-.83,2.27-1.76,4.38-2.78,6.35s-2.14,3.72-3.38,5.25c-1.5,1.93-2.91,3.52-4.22,4.75-1.32,1.23-2.62,2.14-3.92,2.72s-2.72.88-4.25.88c-1.37,0-2.66-.38-3.88-1.12-1.22-.75-2.2-1.87-2.95-3.35-.75-1.48-1.12-3.31-1.12-5.48s.41-4.46,1.22-6.67,1.95-4.28,3.4-6.18,3.16-3.48,5.12-4.75c2.67-1.73,5.28-2.95,7.85-3.65,2.57-.7,5.18-1.05,7.85-1.05,3.47,0,6.53.72,9.2,2.17,2.67,1.45,4.75,3.48,6.25,6.08s2.25,5.65,2.25,9.15-.78,6.52-2.33,9.07-3.67,4.58-6.38,6.1c-2.7,1.52-5.78,2.54-9.25,3.08l-3.85-5.8c2.77-.23,5.12-.73,7.08-1.5,1.95-.77,3.53-1.73,4.75-2.9,1.22-1.17,2.11-2.47,2.67-3.9.57-1.43.85-2.93.85-4.5,0-2.27-.49-4.26-1.48-5.97s-2.36-3.07-4.12-4.05c-1.77-.98-3.85-1.48-6.25-1.48-2.63,0-4.98.43-7.05,1.28-2.07.85-3.97,1.91-5.7,3.18-1.3.93-2.42,2.06-3.35,3.38-.93,1.32-1.65,2.71-2.15,4.17-.5,1.47-.75,2.88-.75,4.25,0,1.2.26,2.17.78,2.9.52.73,1.21,1.1,2.08,1.1.63,0,1.28-.19,1.95-.57.67-.38,1.33-.9,2-1.55.67-.65,1.33-1.41,2-2.27.67-.87,1.33-1.78,2-2.75.93-1.43,1.82-3.03,2.65-4.8.83-1.77,1.59-3.62,2.28-5.55.68-1.93,1.26-3.81,1.72-5.62.47-1.82.83-3.49,1.1-5.02.17-.73.27-1.57.32-2.5.05-.93.08-1.68.08-2.25l6.9.65Zm-21.1,1.65c.17.83.34,1.65.53,2.45.18.8.38,1.58.58,2.35.37,1.37.8,2.84,1.3,4.42.5,1.58,1.04,3.16,1.62,4.73.58,1.57,1.17,3.01,1.78,4.32.6,1.32,1.2,2.44,1.8,3.38.87,1.33,1.85,2.72,2.95,4.18,1.1,1.45,2.23,2.74,3.4,3.88l-5.05,4c-1-1.1-1.89-2.16-2.67-3.18-.78-1.02-1.59-2.16-2.42-3.43-.73-1.13-1.48-2.45-2.23-3.95s-1.48-3.13-2.2-4.9c-.72-1.77-1.4-3.58-2.05-5.45-.65-1.87-1.27-3.72-1.88-5.55-.27-.9-.56-1.77-.88-2.6-.32-.83-.69-1.7-1.12-2.6l6.55-2.05Z"/>
    <path class="cls-1" d="m746.6,30.35c-.57,1.13-1.25,2.35-2.05,3.65-.8,1.3-1.66,2.6-2.58,3.9s-1.81,2.51-2.67,3.62c-.87,1.12-1.65,2.04-2.35,2.78l-5.4-3.7c.83-.77,1.69-1.67,2.58-2.72.88-1.05,1.75-2.16,2.6-3.32.85-1.17,1.63-2.33,2.35-3.5.72-1.17,1.34-2.28,1.88-3.35l5.65,2.65Zm-12.75-13.55c.77.1,1.57.19,2.4.28.83.08,1.65.12,2.45.12h30.85c.7,0,1.53-.03,2.47-.1.95-.07,1.78-.15,2.48-.25v6.55c-.77-.07-1.6-.11-2.5-.12-.9-.02-1.7-.03-2.4-.03h-30.9c-.73,0-1.54.02-2.43.05s-1.69.08-2.42.15v-6.65Zm24.5-7.95c-.03.23-.08.62-.15,1.15-.07.53-.13,1.09-.2,1.68-.07.58-.1,1.09-.1,1.53v33.3c0,1.43-.42,2.58-1.27,3.43-.85.85-2.16,1.28-3.92,1.28-.9,0-1.82-.02-2.75-.05-.93-.03-1.85-.08-2.75-.15-.9-.07-1.78-.15-2.65-.25l-.6-6.2c1.07.2,2.11.35,3.12.45,1.02.1,1.82.15,2.42.15.67,0,1.13-.14,1.4-.43.27-.28.42-.74.45-1.38,0-.3,0-.95.03-1.95.02-1,.02-2.18.02-3.55V13.2c0-.67-.05-1.46-.15-2.38-.1-.92-.2-1.58-.3-1.98h7.4Zm9.75,18.7c.63.8,1.34,1.75,2.12,2.85s1.58,2.28,2.38,3.53,1.55,2.47,2.25,3.65,1.3,2.22,1.8,3.12l-5.9,3.2c-.53-1.07-1.14-2.22-1.83-3.45-.68-1.23-1.39-2.47-2.12-3.7-.73-1.23-1.46-2.39-2.17-3.47-.72-1.08-1.38-2.01-1.98-2.78l5.45-2.95Zm-2.85-16.75c0-1.07.26-2.03.77-2.9s1.22-1.57,2.1-2.1c.88-.53,1.86-.8,2.92-.8s2.03.27,2.9.8c.87.53,1.56,1.23,2.07,2.1s.78,1.83.78,2.9-.26,2.04-.78,2.92c-.52.88-1.21,1.58-2.07,2.1-.87.52-1.83.77-2.9.77s-2.04-.26-2.92-.77c-.88-.52-1.58-1.22-2.1-2.1-.52-.88-.77-1.86-.77-2.92Zm3.05,0c0,.77.27,1.41.8,1.92.53.52,1.18.78,1.95.78s1.37-.26,1.9-.78c.53-.52.8-1.16.8-1.92s-.27-1.37-.8-1.9c-.53-.53-1.17-.8-1.9-.8s-1.42.27-1.95.8-.8,1.17-.8,1.9Z"/>
    <path class="cls-1" d="m784.65,28.85c4.5-1.17,8.58-2.52,12.23-4.07,3.65-1.55,6.86-3.18,9.62-4.88,1.73-1.07,3.47-2.29,5.22-3.68,1.75-1.38,3.4-2.81,4.95-4.27s2.86-2.87,3.92-4.2l5.4,5.15c-1.53,1.5-3.21,3.02-5.03,4.55-1.82,1.53-3.71,3-5.67,4.4-1.97,1.4-3.92,2.68-5.85,3.85-1.9,1.1-4.03,2.23-6.38,3.4-2.35,1.17-4.83,2.27-7.43,3.3-2.6,1.03-5.22,1.95-7.85,2.75l-3.15-6.3Zm20.8-5.75l7.1-1.65v22.5c0,.73.02,1.53.05,2.4.03.87.08,1.68.15,2.43.07.75.15,1.32.25,1.72h-7.9c.07-.4.12-.97.17-1.72.05-.75.09-1.56.12-2.43.03-.87.05-1.67.05-2.4v-20.85Z"/>
    <path class="cls-1" d="m839.35,43.6c2.6-.37,5.05-.88,7.35-1.55,2.3-.67,4.43-1.43,6.4-2.3,1.97-.87,3.77-1.77,5.4-2.7,2.83-1.7,5.43-3.63,7.8-5.8,2.37-2.17,4.43-4.42,6.2-6.78,1.77-2.35,3.17-4.64,4.2-6.88l3.9,7.05c-1.27,2.23-2.83,4.47-4.67,6.7-1.85,2.23-3.94,4.36-6.28,6.38-2.33,2.02-4.85,3.83-7.55,5.43-1.7,1.03-3.53,2.01-5.5,2.93-1.97.92-4.04,1.73-6.22,2.45-2.18.72-4.46,1.28-6.83,1.68l-4.2-6.6Zm6.25-33.3c.87.6,1.88,1.33,3.05,2.2,1.17.87,2.38,1.81,3.62,2.83,1.25,1.02,2.43,2.01,3.53,2.97s2,1.83,2.7,2.6l-5.1,5.2c-.63-.7-1.47-1.53-2.5-2.5-1.03-.96-2.15-1.96-3.35-3-1.2-1.03-2.38-2.02-3.55-2.95-1.17-.93-2.2-1.72-3.1-2.35l4.7-5Z"/>
    <path class="cls-1" d="m901.25,43.5V14.75c0-.87-.04-1.87-.12-3-.08-1.13-.21-2.13-.38-3h7.8c-.1.87-.2,1.83-.3,2.88-.1,1.05-.15,2.09-.15,3.12v28.75c0,.47.02,1.12.05,1.97.03.85.1,1.73.2,2.62.1.9.17,1.7.2,2.4h-7.8c.13-1,.25-2.17.35-3.5.1-1.33.15-2.5.15-3.5Zm5.35-21.8c1.67.43,3.53.99,5.6,1.67,2.07.68,4.15,1.41,6.25,2.18,2.1.77,4.07,1.53,5.92,2.28,1.85.75,3.39,1.44,4.62,2.07l-2.85,6.9c-1.4-.73-2.95-1.47-4.65-2.22s-3.42-1.48-5.17-2.18-3.47-1.35-5.15-1.95c-1.68-.6-3.21-1.13-4.58-1.6v-7.15Z"/>
  </g>
</svg>