<?xml version="1.0" encoding="UTF-8"?>
<svg id="_レイヤー_1" data-name="レイヤー 1" xmlns="http://www.w3.org/2000/svg" viewBox="0 0 326.05 57.1">
  <defs>
    <style>
      .cls-1 {
        fill: #fff;
      }

      .cls-2 {
        fill: #69b2ed;
      }
    </style>
  </defs>
  <g>
    <path class="cls-2" d="m18,55.5c-2.83,0-5.5-.36-7.94-1.08-2.9-.85-5.28-2.33-7.08-4.38-1.98-2.27-2.99-5.19-2.99-8.69,0-2.78.81-5.34,2.42-7.61,1.55-2.2,3.8-3.92,6.7-5.11,2.11-.87,4.5-1.38,7.28-1.56-.01-.39-.03-.79-.04-1.17-.07-1.75-.1-3.28-.1-4.54v-5.75c0-.81-.01-1.53-.04-2.16-.03-.82-.07-1.56-.12-2.25-.05-.71-.1-1.35-.14-1.92-.02-.27-.05-.38-.05-.38-.51-1.53-.24-3.18.7-4.48.94-1.3,2.46-2.05,4.06-2.05h7.55c1.45,0,2.83.63,3.78,1.73.95,1.1,1.38,2.55,1.17,3.99-.06.4-.11.9-.17,1.49-.06.6-.1,1.21-.13,1.84l-.02.31c1.29-.06,2.58-.13,3.85-.22,1.64-.11,3.16-.24,4.56-.37.15-.01.31-.02.46-.02,1.21,0,2.39.44,3.31,1.25,1.03.91,1.65,2.21,1.69,3.58l.2,5.95c.09,2.64-1.89,4.89-4.52,5.15-1.44.14-3.06.26-4.83.36-1.55.09-3.09.16-4.6.21.04.72.08,1.45.12,2.19.71.27,1.4.56,2.08.86,2.41,1.06,4.64,2.28,6.63,3.63,1.97,1.33,3.71,2.71,5.16,4.09,1.75,1.66,2.07,4.32.76,6.34l-3.85,5.95c-.82,1.27-2.17,2.1-3.67,2.26-.18.02-.35.03-.53.03-1.32,0-2.59-.52-3.53-1.46-1.08-1.08-2.35-2.19-3.76-3.29-.02-.02-.05-.04-.07-.05-.57,1.16-1.32,2.23-2.26,3.18-1.33,1.36-3.07,2.43-5.15,3.17-1.93.68-4.17,1.01-6.87,1.01Z"/>
    <path class="cls-2" d="m86.2,56.54c-1.33-.07-2.59-.67-3.48-1.66-1.35-1.51-2.76-3.02-4.19-4.48-.68-.68-1.63-1.58-2.78-2.64-1.17-1.07-2.47-2.23-3.85-3.44l-4.22-3.67c-1.38-1.2-2.64-2.29-3.76-3.24-2.28-1.92-3.8-3.81-4.6-5.74-1.05-2.53-.91-5.29.42-7.75.94-1.75,2.46-3.48,4.66-5.28.04-.03.08-.07.13-.1.94-.72,2.03-1.6,3.25-2.61,1.26-1.04,2.55-2.12,3.88-3.23,1.3-1.09,2.54-2.15,3.72-3.18,1.13-.99,2.1-1.87,2.88-2.62.64-.64,1.34-1.36,2.05-2.1.7-.73.98-1.13,1.07-1.26.79-1.22,2.07-2.04,3.51-2.24.23-.03.46-.05.68-.05,1.21,0,2.39.44,3.3,1.25l5.85,5.15c1.15,1.01,1.77,2.49,1.69,4.01-.08,1.53-.85,2.93-2.1,3.82-.73.52-1.44,1.05-2.11,1.59-.7.56-1.31,1.07-1.83,1.53-.09.08-.19.16-.29.24-.81.61-1.77,1.36-2.88,2.25-1.15.92-2.36,1.88-3.62,2.87-1.24.97-2.44,1.93-3.59,2.85-.5.4-.97.79-1.41,1.15.41.34.87.71,1.36,1.11,1.16.94,2.43,1.98,3.79,3.11,1.36,1.12,2.74,2.28,4.17,3.46,1.45,1.21,2.84,2.4,4.18,3.57,1.37,1.19,2.62,2.34,3.71,3.4.99.96,1.54,2.29,1.52,3.66-.02,1.38-.61,2.69-1.63,3.62l-5.85,5.35c-.92.84-2.13,1.31-3.37,1.31-.08,0-.17,0-.25,0Z"/>
    <path class="cls-2" d="m139.45,55.65c-1.7,0-3.31-.87-4.23-2.34l-.87-1.39-3.49,1.06c-.49.15-.98.22-1.46.22-1,0-1.98-.3-2.79-.85-1.85.53-3.73.8-5.61.8s-3.81-.42-5.53-1.25c-1.96-.95-3.52-2.43-4.64-4.4-1.05-1.84-1.58-4.06-1.58-6.6s.5-4.9,1.5-7.25c.92-2.17,2.2-4.25,3.81-6.19,1.37-1.65,2.95-3.15,4.71-4.48-.07,0-2.16-.1-2.92-.13-2.62-.11-4.71-2.24-4.78-4.87l-.15-5.8c-.04-1.45.56-2.85,1.63-3.83.93-.84,2.13-1.3,3.37-1.3.2,0,.39.01.59.04.55.07,1.35.16,2.4.27.99.11,2.07.2,3.22.28.14,0,.27.02.41.03,0-.1,0-.17,0-.23-.11-1.41.38-2.8,1.36-3.82.95-1,2.26-1.56,3.63-1.56.04,0,6.62.15,6.62.15,1.55.04,2.99.79,3.91,2.03.63.86.97,1.89.98,2.94.82-.08,1.64-.18,2.44-.28,2.38-.31,4.79-.76,7.17-1.35.4-.1.8-.15,1.2-.15,1.1,0,2.18.36,3.07,1.05,1.21.94,1.92,2.38,1.93,3.91l.05,5.8c.01,1.76-.89,3.34-2.29,4.25,1.91,1.28,3.52,2.84,4.81,4.65,2.01,2.82,3.03,6.12,3.03,9.8,0,2.3-.37,4.58-1.11,6.77-.78,2.33-2.06,4.48-3.79,6.42-1.71,1.91-3.92,3.54-6.59,4.85-2.55,1.25-5.64,2.16-9.2,2.71-.25.04-.5.06-.75.06Z"/>
    <path class="cls-2" d="m190.5,55.35c-2.87,0-5.53-.44-7.92-1.3-2.66-.96-4.84-2.4-6.46-4.28-1.5-1.74-2.43-3.82-2.72-6.08-1.26-.06-2.46-.6-3.34-1.52l-4.55-4.7c-.97-1.01-1.48-2.38-1.4-3.77.08-1.4.75-2.7,1.83-3.58.9-.74,1.92-1.56,3.06-2.49,1.11-.89,2.24-1.83,3.39-2.81l3.36-2.83c.57-.48,1.09-.91,1.56-1.31-.21.03-.41.06-.59.09-.28.05-.55.07-.83.07-1.15,0-2.27-.4-3.17-1.13-1.12-.92-1.78-2.27-1.83-3.71l-.2-6.5c-.04-1.48.56-2.9,1.66-3.88.92-.83,2.11-1.27,3.33-1.27.23,0,.47.02.7.05.54.08,1.13.13,1.75.15.74.03,1.43.05,2.1.05.51,0,1.29,0,2.32-.02,1.06-.02,2.25-.04,3.58-.07l4.03-.1c1.29-.03,2.47-.07,3.52-.12,1-.05,1.79-.08,2.37-.12.9-.09,1.61-.17,2.14-.24.23-.03.41-.06.55-.09.51-.17,1.03-.25,1.54-.25,1.55,0,3.02.75,3.99,2.07l3.25,4.45c.81,1.11,1.13,2.5.88,3.86s-1.04,2.54-2.2,3.29c-.6.39-1.23.78-1.87,1.17-.45.28-.89.58-1.31.9-.06.04-.11.08-.17.13-.27.19-.57.41-.89.65.51.2,1.01.42,1.5.66,3.01,1.47,5.45,3.53,7.25,6.1,1.91,2.73,2.88,5.87,2.88,9.34s-.93,6.87-2.76,9.8c-1.84,2.95-4.58,5.29-8.13,6.97-3.34,1.58-7.45,2.38-12.21,2.38Z"/>
    <path class="cls-2" d="m226.25,57.1c-1.38,0-2.72-.57-3.68-1.62-.36-.39-.79-.85-1.29-1.39-.46-.49-.95-.98-1.46-1.48-.54-.52-.88-.8-1.07-.95-1.56-1.2-2.27-3.21-1.81-5.12.46-1.92,2-3.38,3.94-3.75.77-.15,1.55-.3,2.33-.48v-12.6c-.85-.38-1.58-1-2.11-1.79-.04-.05-.18-.25-.53-.62-.39-.4-.79-.79-1.2-1.16-.29-.26-.43-.34-.43-.34-1.44-.78-2.41-2.22-2.59-3.85-.18-1.63.45-3.25,1.69-4.32.74-.64,1.25-1.27,1.54-1.86.38-.8.63-1.6.76-2.38.16-.99.24-1.91.24-2.74v-4.55c0-1.54.71-2.99,1.92-3.94.89-.69,1.98-1.06,3.08-1.06.4,0,.81.05,1.2.15l2.92.72c.49-.06.97-.13,1.46-.2,1.42-.2,2.81-.44,4.11-.71,1.23-.26,2.26-.53,3.08-.8.52-.17,1.05-.26,1.58-.26,1.28,0,2.54.49,3.49,1.42l.42.4c.76-.44,1.62-.67,2.5-.67.37,0,.74.04,1.11.12l3.16.72c.5-.06,1-.12,1.5-.19,1.59-.22,3.14-.47,4.61-.76,1.41-.27,2.59-.54,3.52-.8.45-.13.9-.19,1.36-.19,1.27,0,2.52.49,3.46,1.39l3.65,3.5c.97.93,1.51,2.2,1.54,3.51,1.21.91,2,2.37,2,4v4.35c0,2.76-2.24,5-5,5h-.48c.09.37.13.75.13,1.15,0,0,0,20.55,0,20.57,1.08.48,2.05.92,2.89,1.33,1.79.87,2.89,2.72,2.81,4.71-.08,1.99-1.34,3.74-3.2,4.46l-7,2.7c-.58.22-1.19.33-1.8.33-.86,0-1.71-.22-2.48-.66-.84-.48-1.94-1.06-3.26-1.72-1.32-.66-2.77-1.34-4.32-2.03-1.48-.66-3.04-1.27-4.63-1.82-.58-.2-1.1-.5-1.56-.88-1.46.92-3.14,1.83-5,2.69-1.93.89-3.94,1.71-5.96,2.44-2.01.72-3.95,1.34-5.77,1.84-.44.12-.88.18-1.33.18Z"/>
    <path class="cls-2" d="m308.4,56.95c-2.65,0-4.85-2.07-4.99-4.72,0-.06-.03-.3-.17-.76-.17-.54-.35-1.07-.54-1.62h-2.83c-.8,1.69-2.52,2.85-4.52,2.85h-5.55c-.07,0-.14,0-.21,0-.36,2.41-2.44,4.25-4.94,4.25h-5.95c-2.76,0-5-2.24-5-5V6.9c0-2.76,2.24-5,5-5h19.25c.59,0,1.15.1,1.67.29.52-.19,1.09-.29,1.68-.29h19.75c2.76,0,5,2.24,5,5v37.85c0,2.37-.33,4.29-1,5.87-.87,2.04-2.45,3.65-4.57,4.68-1.68.79-3.55,1.25-5.76,1.43-1.74.14-3.87.22-6.32.22Z"/>
  </g>
  <g>
    <path class="cls-1" d="m28.2,7.35c-.07.47-.13,1.04-.2,1.72-.07.68-.12,1.38-.15,2.1-.03.72-.07,1.39-.1,2.03-.03,1.2-.04,2.5-.02,3.9.02,1.4.02,2.82.02,4.25s.04,3.04.12,4.92c.08,1.88.19,3.83.33,5.83.13,2,.24,3.86.33,5.57.08,1.72.12,3.11.12,4.18s-.17,2.17-.5,3.2c-.33,1.03-.9,1.96-1.7,2.78s-1.88,1.47-3.25,1.95c-1.37.48-3.1.72-5.2.72-2.37,0-4.54-.29-6.52-.88-1.98-.58-3.56-1.54-4.73-2.88s-1.75-3.13-1.75-5.4c0-1.73.5-3.31,1.5-4.73,1-1.42,2.51-2.54,4.53-3.38,2.02-.83,4.56-1.25,7.62-1.25,2.6,0,5.12.3,7.58.9,2.45.6,4.75,1.38,6.9,2.33,2.15.95,4.1,2.02,5.85,3.2,1.75,1.18,3.26,2.38,4.52,3.58l-3.85,5.95c-1.23-1.23-2.64-2.47-4.22-3.7-1.58-1.23-3.31-2.35-5.18-3.35s-3.86-1.81-5.97-2.42c-2.12-.62-4.31-.93-6.58-.93-1.93,0-3.46.31-4.58.93s-1.67,1.47-1.67,2.57c0,1.23.57,2.1,1.7,2.6,1.13.5,2.58.75,4.35.75,1.57,0,2.68-.38,3.35-1.12.67-.75,1-1.96,1-3.62,0-.87-.03-2.08-.1-3.62s-.13-3.23-.2-5.05c-.07-1.82-.13-3.58-.2-5.28-.07-1.7-.1-3.15-.1-4.35v-5.75c0-.9-.02-1.7-.05-2.4-.03-.83-.08-1.62-.12-2.35s-.1-1.4-.15-2c-.05-.6-.14-1.1-.28-1.5h7.55Zm-3.85,9.55c.73,0,1.78,0,3.15-.03,1.37-.02,2.88-.06,4.53-.12,1.65-.07,3.32-.16,5-.27,1.68-.12,3.24-.24,4.67-.38l.2,5.95c-1.4.13-2.95.25-4.65.35-1.7.1-3.38.17-5.05.22s-3.19.09-4.58.12c-1.38.03-2.46.05-3.22.05l-.05-5.9Z"/>
    <path class="cls-1" d="m91.4,11.4c-.8.57-1.58,1.16-2.35,1.77-.77.62-1.43,1.18-2,1.68-.83.63-1.83,1.41-2.98,2.32-1.15.92-2.35,1.87-3.6,2.85s-2.46,1.94-3.62,2.88c-1.17.93-2.17,1.77-3,2.5-.87.77-1.45,1.39-1.75,1.88s-.29.96.02,1.42.93,1.1,1.83,1.9c.73.63,1.67,1.42,2.83,2.35,1.15.93,2.4,1.96,3.75,3.08,1.35,1.12,2.73,2.27,4.15,3.45,1.42,1.18,2.78,2.35,4.1,3.5,1.32,1.15,2.49,2.22,3.53,3.22l-5.85,5.35c-1.4-1.57-2.85-3.12-4.35-4.65-.77-.77-1.76-1.71-2.98-2.83-1.22-1.12-2.53-2.29-3.95-3.53-1.42-1.23-2.83-2.46-4.23-3.67-1.4-1.22-2.67-2.31-3.8-3.27-1.67-1.4-2.74-2.68-3.22-3.85-.48-1.17-.42-2.33.2-3.47.62-1.15,1.76-2.41,3.43-3.78,1-.77,2.13-1.67,3.4-2.72s2.57-2.13,3.9-3.25c1.33-1.12,2.6-2.2,3.8-3.25s2.22-1.98,3.05-2.78c.73-.73,1.47-1.48,2.2-2.25.73-.77,1.28-1.43,1.65-2l5.85,5.15Z"/>
    <path class="cls-1" d="m147.15,20.05c-.1.3-.25.72-.45,1.25-.2.53-.39,1.08-.58,1.65-.18.57-.32,1.02-.42,1.35-.97,3-2.14,5.74-3.52,8.23-1.38,2.48-2.88,4.65-4.48,6.5-1.6,1.85-3.18,3.36-4.75,4.52-1.63,1.23-3.5,2.31-5.6,3.23-2.1.92-4.22,1.38-6.35,1.38-1.2,0-2.32-.25-3.35-.75s-1.86-1.29-2.47-2.38c-.62-1.08-.93-2.46-.93-4.12,0-1.8.37-3.57,1.1-5.3.73-1.73,1.75-3.38,3.05-4.95,1.3-1.57,2.82-2.96,4.55-4.17s3.6-2.18,5.6-2.88c1.63-.6,3.42-1.08,5.38-1.45,1.95-.37,3.88-.55,5.77-.55,3.1,0,5.88.57,8.33,1.7,2.45,1.13,4.38,2.68,5.78,4.65,1.4,1.97,2.1,4.27,2.1,6.9,0,1.77-.28,3.49-.85,5.17-.57,1.68-1.49,3.24-2.78,4.67-1.28,1.43-2.97,2.67-5.08,3.7-2.1,1.03-4.68,1.78-7.75,2.25l-3.3-5.25c3.2-.37,5.8-1.09,7.8-2.17s3.46-2.39,4.38-3.93c.92-1.53,1.38-3.12,1.38-4.75,0-1.47-.39-2.78-1.17-3.95s-1.95-2.11-3.5-2.83-3.46-1.08-5.72-1.08-4.29.25-6.08.75c-1.78.5-3.28,1.03-4.48,1.6-1.67.8-3.15,1.81-4.45,3.03-1.3,1.22-2.32,2.49-3.05,3.83s-1.1,2.57-1.1,3.7c0,.8.18,1.41.55,1.82.37.42.95.62,1.75.62,1.2,0,2.58-.39,4.15-1.17,1.57-.78,3.12-1.89,4.65-3.33,1.8-1.67,3.5-3.67,5.1-6,1.6-2.33,2.92-5.23,3.95-8.7.1-.33.2-.77.3-1.3.1-.53.19-1.07.27-1.62.08-.55.14-.99.18-1.32l6.1,1.45Zm-21.55-7.3c3.17,0,6.14-.07,8.92-.2,2.78-.13,5.47-.37,8.05-.7s5.16-.82,7.73-1.45l.05,5.8c-1.73.3-3.64.58-5.73.83s-4.25.46-6.5.62-4.46.29-6.62.38-4.2.12-6.1.12c-.87,0-1.84-.02-2.92-.05-1.08-.03-2.15-.08-3.2-.12-1.05-.05-1.96-.09-2.72-.12l-.15-5.8c.57.07,1.38.16,2.45.28,1.07.12,2.21.22,3.42.3,1.22.08,2.33.12,3.33.12Zm8.9-5.55c-.13.47-.26.92-.38,1.38s-.22.88-.32,1.28c-.3,1.57-.58,3.36-.85,5.38s-.48,4.12-.65,6.3c-.17,2.18-.25,4.33-.25,6.42,0,2.6.13,4.99.4,7.17.27,2.18.64,4.2,1.12,6.05.48,1.85,1.01,3.61,1.58,5.28l-5.75,1.75c-.5-1.5-.97-3.28-1.42-5.35s-.83-4.29-1.12-6.68c-.3-2.38-.45-4.79-.45-7.22,0-1.67.06-3.34.17-5.03.12-1.68.24-3.35.38-5,.13-1.65.29-3.23.48-4.75.18-1.52.34-2.89.47-4.12.03-.47.07-.97.1-1.52s.03-1.04,0-1.48l6.5.15Z"/>
    <path class="cls-1" d="m175.7,9.35c.7.1,1.45.17,2.25.2.8.03,1.57.05,2.3.05.53,0,1.33,0,2.4-.03,1.07-.02,2.28-.04,3.62-.08,1.35-.03,2.69-.07,4.03-.1,1.33-.03,2.54-.08,3.62-.12,1.08-.05,1.92-.09,2.52-.12,1.03-.1,1.85-.19,2.45-.28.6-.08,1.05-.17,1.35-.27l3.25,4.45c-.57.37-1.15.73-1.75,1.1-.6.37-1.18.77-1.75,1.2-.67.47-1.47,1.07-2.4,1.82-.93.75-1.92,1.54-2.98,2.38-1.05.83-2.07,1.65-3.05,2.45s-1.88,1.52-2.67,2.15c.83-.2,1.63-.34,2.4-.42.77-.08,1.55-.12,2.35-.12,2.83,0,5.38.55,7.62,1.65,2.25,1.1,4.03,2.59,5.35,4.48s1.98,4.04,1.98,6.47c0,2.63-.67,5.02-2,7.15-1.33,2.13-3.34,3.83-6.03,5.1-2.68,1.27-6.04,1.9-10.08,1.9-2.3,0-4.38-.33-6.22-1-1.85-.67-3.31-1.62-4.38-2.85-1.07-1.23-1.6-2.68-1.6-4.35,0-1.37.38-2.64,1.12-3.83.75-1.18,1.8-2.14,3.15-2.88,1.35-.73,2.91-1.1,4.67-1.1,2.3,0,4.24.46,5.83,1.38s2.8,2.14,3.65,3.67c.85,1.53,1.29,3.22,1.33,5.05l-5.85.8c-.03-1.83-.49-3.31-1.38-4.42-.88-1.12-2.06-1.67-3.52-1.67-.93,0-1.68.24-2.25.72-.57.48-.85,1.04-.85,1.67,0,.93.47,1.68,1.4,2.25.93.57,2.15.85,3.65.85,2.83,0,5.2-.34,7.1-1.03,1.9-.68,3.33-1.67,4.27-2.95.95-1.28,1.43-2.81,1.43-4.57,0-1.5-.46-2.82-1.38-3.95-.92-1.13-2.16-2.02-3.73-2.65-1.57-.63-3.33-.95-5.3-.95s-3.7.24-5.3.73c-1.6.48-3.11,1.17-4.53,2.05-1.42.88-2.8,1.95-4.15,3.2-1.35,1.25-2.69,2.64-4.03,4.17l-4.55-4.7c.9-.73,1.92-1.56,3.05-2.47,1.13-.92,2.29-1.88,3.47-2.88s2.3-1.94,3.35-2.83c1.05-.88,1.94-1.62,2.67-2.22.7-.57,1.52-1.23,2.45-2,.93-.77,1.9-1.56,2.9-2.38s1.95-1.6,2.85-2.35c.9-.75,1.65-1.39,2.25-1.92-.5,0-1.15.02-1.95.05-.8.03-1.67.07-2.62.1s-1.9.07-2.85.1c-.95.03-1.83.08-2.65.12-.82.05-1.49.09-2.03.12-.67.03-1.37.08-2.1.15-.73.07-1.4.15-2,.25l-.2-6.5Z"/>
    <path class="cls-1" d="m225.55,6.1l6.45,1.6c-.03.4-.43.67-1.2.8v2.45c0,1.3-.15,2.79-.45,4.47-.3,1.68-.84,3.37-1.62,5.05-.78,1.68-1.94,3.24-3.48,4.67-.27-.4-.63-.84-1.1-1.33-.47-.48-.95-.95-1.45-1.4-.5-.45-.97-.79-1.4-1.02,1.27-1.1,2.19-2.27,2.77-3.5s.98-2.48,1.17-3.73c.2-1.25.3-2.42.3-3.52v-4.55Zm10.9,36.95l5.45,2.5c-1.33.87-2.9,1.72-4.7,2.55-1.8.83-3.65,1.59-5.55,2.27-1.9.68-3.7,1.26-5.4,1.73-.37-.4-.81-.88-1.32-1.43-.52-.55-1.06-1.1-1.62-1.65-.57-.55-1.07-.99-1.5-1.33,1.77-.33,3.56-.73,5.38-1.2,1.82-.47,3.53-1,5.15-1.6,1.62-.6,2.99-1.22,4.12-1.85Zm3.45-38.05l3.65,3.55c-1.4.4-2.96.77-4.68,1.1s-3.46.6-5.22.8c-1.77.2-3.47.35-5.1.45-.1-.5-.28-1.11-.53-1.83s-.53-1.31-.83-1.78c1.53-.17,3.08-.36,4.62-.57s3.03-.48,4.45-.78c1.42-.3,2.62-.62,3.62-.95Zm-12,7.45h16.65v4.35h-16.65v-4.35Zm.3,10.5h33.65v20.5h-33.65v-20.5Zm5.8,3.6v2.15h21.8v-2.15h-21.8Zm0,5.55v2.2h21.8v-2.2h-21.8Zm0,5.6v2.2h21.8v-2.2h-21.8Zm.5-23.8h5.3v8.1h-5.3v-8.1Zm11.8-7.75l6.4,1.45c-.03.47-.43.75-1.2.85v2.55c0,1.17-.17,2.49-.5,3.98s-.97,2.95-1.9,4.4c-.93,1.45-2.28,2.74-4.05,3.88-.2-.4-.52-.86-.95-1.38-.43-.52-.88-1.02-1.35-1.5-.47-.48-.92-.84-1.35-1.08,1.4-.87,2.44-1.78,3.12-2.75.68-.97,1.15-1.95,1.4-2.95s.38-1.97.38-2.9v-4.55Zm1.2,39.95l5-2.85c1.8.63,3.62,1.31,5.48,2.03,1.85.72,3.62,1.43,5.3,2.15,1.68.72,3.11,1.36,4.28,1.93l-7,2.7c-.93-.53-2.1-1.15-3.5-1.85-1.4-.7-2.91-1.41-4.53-2.12-1.62-.72-3.29-1.38-5.03-1.97Zm14.05-41.05l3.65,3.5c-1.5.47-3.17.86-5,1.18s-3.71.57-5.62.77-3.76.37-5.52.5c-.1-.53-.28-1.16-.55-1.88-.27-.72-.52-1.33-.75-1.83,1.63-.13,3.3-.32,5-.55,1.7-.23,3.33-.5,4.88-.8,1.55-.3,2.86-.6,3.93-.9Zm-13.05,7.4h18.7v4.35h-18.7v-4.35Zm7,1.45h5.35v8.15h-5.35v-8.15Z"/>
    <path class="cls-1" d="m278.7,6.9h5.95v45.05h-5.95V6.9Zm2.95,7.25h12.5v4.05h-12.5v-4.05Zm.45-7.25h15.85v18.7h-15.85v-4.55h10.2v-9.6h-10.2v-4.55Zm7.7,22.15h5.55v18.65h-5.55v-18.65Zm2.6,0h16.9v15.8h-16.9v-4.9h11.25v-5.95h-11.25v-4.95Zm25.8-22.15v4.55h-11.2v9.7h11.2v4.5h-16.9V6.9h16.9Zm-13.35,7.25h12.6v4.05h-12.6v-4.05Zm10.1-7.25h6.1v37.85c0,1.67-.2,2.97-.6,3.9-.4.93-1.12,1.65-2.15,2.15-1.07.5-2.4.82-4,.95-1.6.13-3.57.2-5.9.2-.03-.6-.17-1.27-.4-2-.23-.73-.48-1.47-.75-2.22s-.57-1.39-.9-1.93c1,.07,2,.11,3,.12,1,.02,1.89.02,2.67,0,.78-.02,1.34-.02,1.67-.02.47,0,.79-.09.98-.28s.27-.51.27-.97V6.9Z"/>
  </g>
</svg>