<?xml version="1.0" encoding="UTF-8"?>
<svg id="_レイヤー_1" data-name="レイヤー 1" xmlns="http://www.w3.org/2000/svg" viewBox="0 0 620 527">
  <defs>
    <style>
      .cls-1, .cls-2 {
        fill: #fff;
      }

      .cls-2, .cls-3 {
        fill-rule: evenodd;
      }

      .cls-4, .cls-3 {
        fill: #21a48f;
      }

      .cls-5 {
        fill: #d6bbf9;
      }

      .cls-6 {
        fill: #fcc3de;
      }
    </style>
  </defs>
  <g>
    <rect class="cls-6" x="40" y="40" width="580" height="487" rx="10" ry="10"/>
    <rect class="cls-5" x="20" y="20" width="580" height="487" rx="10" ry="10"/>
  </g>
  <g>
    <g>
      <rect class="cls-1" x="1" y="1" width="578" height="485" rx="9" ry="9"/>
      <path class="cls-4" d="m570,2c4.41,0,8,3.59,8,8v467c0,4.41-3.59,8-8,8H10c-4.41,0-8-3.59-8-8V10C2,5.59,5.59,2,10,2h560m0-2H10C4.48,0,0,4.48,0,10v467c0,5.52,4.48,10,10,10h560c5.52,0,10-4.48,10-10V10c0-5.52-4.48-10-10-10h0Z"/>
    </g>
    <path class="cls-4" d="m10,0h560c5.52,0,10,4.48,10,10v30H0V10C0,4.48,4.48,0,10,0Z"/>
    <g>
      <polygon class="cls-2" points="542.92 19.18 538 19.18 538 20.82 542.92 20.82 542.92 25.74 544.56 25.74 544.56 20.82 549.49 20.82 549.49 19.18 544.56 19.18 544.56 14.26 542.92 14.26 542.92 19.18 542.92 19.18"/>
      <polygon class="cls-2" points="528.97 14.26 517.49 14.26 517.49 25.74 528.97 25.74 528.97 14.26 528.97 14.26"/>
      <g>
        <polygon class="cls-2" points="563.37 20.88 558.51 20.88 558.51 25.74 563.37 25.74 563.37 20.88 563.37 20.88"/>
        <polygon class="cls-2" points="570 20.88 565.14 20.88 565.14 25.74 570 25.74 570 20.88 570 20.88"/>
        <polygon class="cls-2" points="570 14.26 565.14 14.26 565.14 19.12 570 19.12 570 14.26 570 14.26"/>
        <polygon class="cls-2" points="563.37 14.26 558.51 14.26 558.51 19.12 563.37 19.12 563.37 14.26 563.37 14.26"/>
      </g>
    </g>
    <g>
      <path class="cls-2" d="m415.81,14c0-1.06-.42-2.08-1.17-2.83-.75-.75-1.77-1.17-2.83-1.17h-222c-1.06,0-2.08.42-2.83,1.17-.75.75-1.17,1.77-1.17,2.83v12c0,1.06.42,2.08,1.17,2.83.75.75,1.77,1.17,2.83,1.17h222c1.06,0,2.08-.42,2.83-1.17.75-.75,1.17-1.77,1.17-2.83v-12h0Z"/>
      <path class="cls-2" d="m170.76,13.44c-3.62,0-6.56,2.94-6.56,6.56s2.94,6.56,6.56,6.56,6.56-2.94,6.56-6.56-2.94-6.56-6.56-6.56Zm0,11.58v-10.04c2.77,0,5.02,2.25,5.02,5.02s-2.25,5.02-5.02,5.02Z"/>
      <path class="cls-3" d="m405.08,16.51h-.57c-2.61,0-4.72,2.06-4.72,4.6s2.12,4.6,4.72,4.6,4.72-2.06,4.72-4.6h-1.23c0,1.88-1.56,3.4-3.49,3.4s-3.49-1.52-3.49-3.4,1.57-3.4,3.49-3.4h.57l-1.41,1.38.87.85,2.9-2.82-2.9-2.82-.87.85,1.41,1.38h0Z"/>
    </g>
    <g>
      <path class="cls-2" d="m53.9,13.85c3.4,0,6.15,2.76,6.15,6.15s-2.76,6.15-6.15,6.15-6.15-2.76-6.15-6.15,2.76-6.15,6.15-6.15h0Z"/>
      <path class="cls-2" d="m35.03,13.85c3.4,0,6.15,2.76,6.15,6.15s-2.76,6.15-6.15,6.15-6.15-2.76-6.15-6.15,2.76-6.15,6.15-6.15h0Z"/>
      <path class="cls-2" d="m16.15,13.85c3.4,0,6.15,2.76,6.15,6.15s-2.76,6.15-6.15,6.15-6.15-2.76-6.15-6.15,2.76-6.15,6.15-6.15h0Z"/>
    </g>
  </g>
</svg>