<?xml version="1.0" encoding="UTF-8"?>
<svg id="_レイヤー_1" data-name="レイヤー 1" xmlns="http://www.w3.org/2000/svg" viewBox="0 0 703.55 58.1">
  <defs>
    <style>
      .cls-1 {
        fill: #fff;
      }

      .cls-2 {
        fill: #21a48f;
      }
    </style>
  </defs>
  <g>
    <path class="cls-2" d="m41.75,14.1l-4.05,1.75c-.36-.75-.78-1.57-1.25-2.47v5.62c-1.17.06-2.57.15-4.23.25-1.65.1-3.36.18-5.15.25-1.78.06-3.47.1-5.07.1-2.6,0-5.02-.06-7.25-.18-2.23-.11-4.37-.24-6.4-.37v-6.65c1.83.23,3.9.4,6.2.5s4.77.15,7.4.15c1.67,0,3.37-.04,5.1-.1,1.73-.07,3.42-.16,5.05-.28,1.41-.1,2.69-.19,3.83-.28-.02-.03-.03-.06-.05-.09-.72-1.34-1.41-2.49-2.08-3.45l3.95-1.6c.43.6.89,1.31,1.38,2.15.48.83.95,1.66,1.42,2.5.47.83.87,1.56,1.2,2.2Z"/>
    <path class="cls-2" d="m102.1,25.65v5.7h-11.05v14.7c0,1.5-.18,2.68-.55,3.55-.37.86-1.03,1.53-2,2-1,.46-2.19.77-3.57.92-1.39.15-3,.21-4.83.18-.13-.84-.42-1.82-.85-2.95-.43-1.14-.87-2.12-1.3-2.95,1.27.03,2.48.06,3.65.1,1.17.03,1.97.03,2.4,0,.4,0,.68-.07.82-.2.15-.14.23-.37.23-.7v-14.65h-10.6v-5.7h10.6v-5.8h1.86c.84-.82,1.69-1.77,2.54-2.85.84-1.06,1.62-2.13,2.34-3.2h-15.64v-5.5h19.65l1.2-.35,3.9,2.95c-.97,1.46-2.06,2.99-3.27,4.57-1.22,1.59-2.5,3.1-3.83,4.55-.92,1.01-1.84,1.93-2.75,2.76v2.87h11.05Z"/>
    <path class="cls-2" d="m72.43,39.6c-.49-.41-.99-.83-1.5-1.24.66-1.66,1.25-3.44,1.75-5.34,1.25-4.71,2.05-10.32,2.42-16.82l-3.55-.6-1.05.1h-4.51c.06-.32.13-.63.19-.95.58-2.94,1.1-5.74,1.57-8.4l-5.6-.6c-.4,2.5-.86,5.14-1.37,7.92-.13.68-.25,1.35-.39,2.03h-4.99v5.6h3.9c-.05.26-.1.51-.15.77-.57,2.82-1.14,5.49-1.72,8.03-.59,2.53-1.16,4.78-1.73,6.75l4.9,2.55c.14-.52.28-1.05.42-1.59.91.66,1.83,1.35,2.76,2.09-.33.57-.67,1.12-1.03,1.65-1.97,2.9-4.37,5.1-7.2,6.6.63.53,1.3,1.27,2,2.22.7.95,1.23,1.79,1.6,2.53,3.33-2.07,6.11-4.72,8.32-7.95.28-.4.54-.81.81-1.24.23.2.45.41.67.61,1.6,1.49,2.87,2.86,3.8,4.13l3.6-4.85c-.97-1.27-2.28-2.6-3.92-4Zm-5.05-8.65c-.36,1.35-.77,2.63-1.23,3.85-1.3-.92-2.56-1.76-3.77-2.55.03-.09.05-.19.07-.28.63-2.71,1.27-5.53,1.9-8.45.16-.74.32-1.48.47-2.22h4.31c-.38,3.48-.96,6.7-1.75,9.65Z"/>
    <polygon class="cls-2" points="157.05 29.95 157.05 35.6 145.9 35.6 145.9 52.7 140 52.7 140 35.6 128.9 35.6 128.9 29.95 140 29.95 140 13.85 130.65 13.85 130.65 8.25 156.15 8.25 156.15 13.85 145.9 13.85 145.9 29.95 157.05 29.95"/>
    <path class="cls-2" d="m112.3,34.85v17.2h5.1v-1.95h10.45v-15.25h-15.55Zm10.4,10.5h-5.3v-5.75h5.3v5.75Z"/>
    <path class="cls-2" d="m194.53,32.43v.02c.01.96.04,1.97.07,3.02.03,1.05.07,2.08.1,3.08.03,1,.05,1.9.05,2.7h-6c.07-.57.11-1.24.13-2.03,0-.78.03-1.61.05-2.47.01-.53.02-1.05.02-1.56-.97.56-1.82,1.11-2.55,1.66-1.03.76-1.82,1.54-2.35,2.32-.53.79-.8,1.64-.8,2.58,0,.7.15,1.27.45,1.72.3.45.75.81,1.35,1.08.6.26,1.35.45,2.25.55.9.1,1.97.15,3.2.15,2.13,0,4.48-.13,7.05-.38s4.95-.59,7.15-1.02l-.2,6.45c-1.07.13-2.42.27-4.05.42s-3.32.26-5.07.33c-1.75.06-3.43.1-5.03.1-2.6,0-4.93-.25-7-.75-2.07-.5-3.69-1.36-4.88-2.58-1.18-1.21-1.77-2.89-1.77-5.02,0-1.74.39-3.3,1.18-4.7.78-1.4,1.82-2.67,3.12-3.8,1.3-1.14,2.72-2.16,4.28-3.08,1.05-.62,2.1-1.22,3.14-1.77-.18-.32-.42-.57-.7-.78-.84-.61-1.79-.92-2.82-.92-1.4,0-2.81.34-4.22,1.02-1.42.69-2.61,1.49-3.58,2.43-.73.73-1.47,1.55-2.22,2.45s-1.56,1.91-2.43,3.05l-5.35-4c2.17-2,4.04-3.94,5.62-5.8,1.59-1.87,2.93-3.72,4.03-5.55.49-.82.94-1.64,1.35-2.45h-.6c-.67,0-1.49,0-2.47-.03-.99,0-2-.05-3.03-.1-1.03-.05-2.02-.11-2.95-.17v-5.85c1.27.2,2.73.35,4.4.45,1.67.1,3.13.15,4.4.15.78,0,1.58-.01,2.41-.02.16-.54.3-1.1.42-1.66.31-1.45.5-2.81.57-4.07l6.6.55c-.17.9-.43,2.06-.8,3.5-.12.47-.26.97-.43,1.48,2.12-.1,4.26-.26,6.43-.46,2.7-.25,5.27-.57,7.7-.97l-.05,5.8c-1.77.23-3.67.44-5.73.62-2.04.19-4.13.34-6.25.45-1.48.08-2.92.15-4.31.2-.25.51-.51,1.03-.78,1.55-.69,1.32-1.38,2.49-2.08,3.53.43-.2.98-.38,1.65-.53s1.36-.26,2.08-.35c.71-.08,1.35-.12,1.92-.12,2.1,0,3.84.6,5.23,1.8.64.56,1.13,1.24,1.46,2.05.04-.02.07-.03.11-.05,1.23-.57,2.39-1.08,3.47-1.53,1.09-.45,2.13-.91,3.13-1.37.97-.44,1.9-.86,2.8-1.28.9-.41,1.82-.86,2.75-1.32l2.5,5.8c-.53.16-1.16.37-1.87.62-.72.25-1.44.5-2.15.75-.72.25-1.36.49-1.93.73-1.6.63-3.49,1.4-5.67,2.3-.82.34-1.65.7-2.5,1.08Z"/>
    <path class="cls-2" d="m265.2,42.8v-26.5h-10.53c.05-.13.1-.26.15-.4.41-1.03.8-2.09,1.17-3.15h10.81v-5h-27.75v5h10.19c-.1.6-.21,1.22-.34,1.87-.11.58-.23,1.14-.36,1.68h-7.89v26.5h5.15c-.76.6-1.73,1.25-2.9,1.92-1.3.75-2.69,1.45-4.18,2.1-1.48.65-2.92,1.19-4.32,1.63.6.56,1.26,1.25,1.98,2.05.71.8,1.27,1.5,1.67,2.1,1.47-.5,2.98-1.1,4.55-1.8,1.57-.7,3.08-1.47,4.53-2.3,1.44-.84,2.7-1.67,3.77-2.5l-4.56-3.2h18.86Zm-18.95-22.15h13.1v3.2h-13.1v-3.2Zm0,7.25h13.1v3.2h-13.1v-3.2Zm0,7.3h13.1v3.2h-13.1v-3.2Z"/>
    <path class="cls-2" d="m267.9,49.2l-4.75,3.55c-.67-.64-1.55-1.34-2.65-2.13-1.1-.78-2.27-1.58-3.5-2.4-1.23-.81-2.4-1.52-3.5-2.12l4.45-3.2c1.07.56,2.23,1.21,3.48,1.95,1.25.73,2.45,1.48,3.6,2.25,1.15.76,2.1,1.46,2.87,2.1Z"/>
    <path class="cls-2" d="m238.3,8.55v5.65h-5.45v30.35c0,1.53-.16,2.73-.47,3.6-.32.86-.95,1.53-1.88,2-.93.5-2.09.81-3.47.95-1.39.13-3.03.18-4.93.15-.1-.8-.32-1.77-.67-2.9-.36-1.14-.73-2.12-1.13-2.95,1.2.03,2.35.06,3.45.07,1.1.02,1.83.03,2.2.03.4,0,.68-.08.83-.23.15-.15.22-.41.22-.77V14.2h-7v-5.65h18.3Z"/>
    <path class="cls-2" d="m301.9,37.6c-1.1,2.9-2.19,5.21-3.27,6.92-1.09,1.72-2.21,2.95-3.38,3.7-1.17.75-2.43,1.13-3.8,1.13-1.8,0-3.51-.6-5.13-1.8-1.61-1.2-2.99-3.14-4.12-5.83-1.13-2.68-1.93-6.26-2.4-10.72-.17-1.54-.29-3.15-.37-4.85-.09-1.7-.14-3.32-.15-4.85-.02-1.54-.03-2.8-.03-3.8,0-.7-.03-1.54-.1-2.5-.07-.97-.17-1.84-.3-2.6l7.7.1c-.13.6-.24,1.28-.33,2.05-.08.76-.15,1.51-.19,2.25-.06.73-.08,1.33-.08,1.8-.03,1.1-.04,2.23-.02,3.4.01,1.16.04,2.36.1,3.57.04,1.22.12,2.43.22,3.63.23,2.4.57,4.51,1,6.35.43,1.83,1,3.26,1.7,4.27.7,1.02,1.58,1.53,2.65,1.53.57,0,1.12-.32,1.68-.95.54-.64,1.04-1.46,1.5-2.48.44-1.01.85-2.09,1.19-3.22.35-1.14.66-2.2.93-3.2l5,6.1Z"/>
    <path class="cls-2" d="m480.47,30.52c-1.31-1.88-3.09-3.37-5.34-4.47s-4.8-1.65-7.63-1.65c-.8,0-1.58.04-2.35.12-.77.09-1.57.23-2.4.43.8-.64,1.69-1.35,2.68-2.15.98-.8,2-1.62,3.04-2.45,1.06-.84,2.05-1.63,2.98-2.38s1.73-1.36,2.4-1.82c.57-.44,1.15-.84,1.75-1.2.6-.37,1.18-.74,1.75-1.1l-3.25-4.45c-.3.1-.75.19-1.35.27-.6.09-1.42.18-2.45.28-.6.03-1.44.07-2.52.12-1.09.05-2.3.09-3.63.13-1.33.03-2.68.06-4.02.1-1.35.03-2.56.06-3.63.07-1.07.02-1.87.03-2.4.03-.73,0-1.5-.02-2.3-.05-.8-.04-1.55-.1-2.25-.2l.2,6.5c.6-.1,1.27-.19,2-.25.73-.07,1.43-.12,2.1-.15.53-.04,1.21-.08,2.03-.13.81-.05,1.69-.09,2.65-.12.94-.04,1.9-.07,2.85-.1.94-.04,1.82-.07,2.62-.1.8-.04,1.45-.05,1.95-.05-.6.53-1.35,1.17-2.25,1.92s-1.85,1.54-2.85,2.35c-1,.82-1.97,1.61-2.9,2.38-.93.76-1.75,1.43-2.45,2-.73.6-1.62,1.34-2.68,2.22-1.04.89-2.16,1.83-3.35,2.83-1.18,1-2.34,1.96-3.47,2.87-1.13.92-2.15,1.74-3.05,2.48l4.55,4.7c1.33-1.54,2.68-2.93,4.03-4.18,1.35-1.25,2.73-2.31,4.15-3.2,1.41-.88,2.92-1.56,4.52-2.05,1.6-.48,3.37-.72,5.3-.72s3.73.31,5.3.95c1.57.63,2.81,1.51,3.73,2.65.91,1.13,1.37,2.45,1.37,3.95,0,1.76-.47,3.29-1.43,4.57-.66.91-1.56,1.66-2.7,2.26-.18-1.26-.58-2.43-1.2-3.53-.85-1.54-2.06-2.76-3.64-3.68-1.59-.91-3.53-1.37-5.83-1.37-1.77,0-3.32.36-4.67,1.1-1.36.73-2.4,1.69-3.15,2.87-.75,1.19-1.13,2.46-1.13,3.83,0,1.66.53,3.11,1.6,4.35,1.07,1.23,2.53,2.18,4.38,2.85,1.84.66,3.92,1,6.22,1,4.03,0,7.39-.64,10.08-1.9,2.68-1.27,4.69-2.97,6.02-5.1,1.33-2.14,2-4.52,2-7.15,0-2.44-.66-4.59-1.98-6.48Zm-17.37,14.93c-1.5,0-2.72-.29-3.65-.85-.93-.57-1.4-1.32-1.4-2.25,0-.64.28-1.19.85-1.68.57-.48,1.32-.72,2.25-.72,1.47,0,2.64.56,3.53,1.67.76.97,1.21,2.19,1.33,3.7-.91.08-1.88.13-2.91.13Z"/>
    <path class="cls-2" d="m568.7,33.09c.07-.02.13-.04.2-.07,2.1-.81,3.77-2.1,5-3.85,1.23-1.75,1.85-3.99,1.85-6.72s-.62-5.08-1.85-6.73c-1.23-1.65-2.9-2.81-5-3.5-2.1-.68-4.47-1.02-7.1-1.02h-12.85v37.05h7.4v-14h5.13l7.57,14h8.3l-8.65-15.16Zm-12.35-15.99h4.8c2.4,0,4.22.39,5.47,1.17,1.25.79,1.88,2.18,1.88,4.18s-.63,3.45-1.88,4.45-3.07,1.5-5.47,1.5h-4.8v-11.3Z"/>
    <path class="cls-2" d="m633.2,17.1c.07-3.35.1-6.85.1-10.5h-5.75c0,3.71-.02,7.21-.04,10.5h-4.71v-2.8h-9.65v-2.45c.66-.07,1.32-.15,1.97-.23,2.62-.31,4.98-.69,7.08-1.12l-2.6-4.45c-1.4.3-2.96.57-4.68.82-1.71.25-3.53.48-5.45.68-1.91.2-3.85.37-5.82.52-1.97.15-3.88.28-5.75.38.3.6.57,1.31.82,2.12.25.82.43,1.54.53,2.18,2.5-.07,5.12-.19,7.85-.38.2,0,.4-.03.6-.04v1.97h-9.9v4.35h9.9v1.95h-8.6v15.55h8.6v1.95h-8.8v4.25h8.8v2.97c-1.02.08-2.02.16-3,.23-2.7.2-5.1.36-7.2.5l.7,5.05c2.2-.24,4.62-.48,7.27-.73,2.65-.25,5.42-.52,8.3-.82,1.48-.15,2.94-.31,4.4-.46.28.23.56.49.85.78.52.52,1.02,1.06,1.5,1.63.49.56.88,1.1,1.18,1.6,2.3-1.8,4.18-3.89,5.65-6.25,1.47-2.37,2.61-4.99,3.42-7.88.82-2.88,1.4-6.01,1.75-9.4.23-2.22.4-4.55.52-6.97h4.54c-.06,3.04-.13,5.74-.21,8.1-.11,3.4-.25,6.17-.4,8.32-.15,2.15-.32,3.8-.52,4.95-.2,1.15-.43,1.93-.7,2.33-.23.3-.48.51-.75.65-.27.13-.6.2-1,.2-.47,0-1.15-.02-2.05-.05-.9-.04-1.88-.1-2.95-.2.47.8.86,1.75,1.17,2.85.32,1.1.5,2.06.53,2.9,1.2.03,2.35.04,3.45.02,1.1-.01,2.03-.09,2.8-.22.83-.17,1.56-.43,2.17-.78.62-.35,1.21-.94,1.78-1.77.4-.57.74-1.5,1.02-2.8.29-1.3.5-3.11.65-5.43.15-2.31.3-5.26.43-8.85.13-3.58.27-7.94.4-13.07v-2.65h-10.2Zm-20.05,13.05h3.9v2.25h-3.9v-2.25Zm0-3.55v-2.25h3.9v2.25h-3.9Zm-9.3-2.25h3.85v2.25h-3.85v-2.25Zm0,8.05v-2.25h3.85v2.25h-3.85Zm23.2-4.68c-.27,3.05-.75,5.85-1.45,8.4-.7,2.55-1.7,4.87-3,6.95-.23.37-.47.72-.72,1.07-2.86.24-5.73.49-8.61.73-.04,0-.08.01-.12.01v-2.53h9.1v-4.25h-9.1v-1.95h8.85v-15.55h-8.85v-1.95h9.6v3.95h4.63c-.07,1.78-.18,3.48-.33,5.12Z"/>
    <polygon class="cls-2" points="697 17.65 697 52.65 691.2 52.65 691.2 49.8 660.9 49.8 660.9 52.75 655.05 52.75 655.05 17.65 660.9 17.65 660.9 44.1 691.2 44.1 691.2 17.65 697 17.65"/>
    <path class="cls-2" d="m698.55,14.35v-5.6h-45.05v5.6h19.3v4.05h-8.75v22.8h23.85v-22.8h-9.05v-4.05h19.7Zm-29.6,8.95h4.3v4.2h-4.3v-4.2Zm0,8.75h4.3v4.25h-4.3v-4.25Zm13.8,4.25h-4.35v-4.25h4.35v4.25Zm0-13v4.2h-4.35v-4.2h4.35Z"/>
  </g>
  <g>
    <path class="cls-2" d="m22.2,55.95c-4.35,0-8.1-.52-11.14-1.54-3.45-1.16-6.15-2.93-8.02-5.25-2.01-2.46-3.04-5.48-3.04-8.96,0-1.72.15-3.37.44-4.91.23-1.2.43-2.27.59-3.19.44-2.39,2.52-4.1,4.91-4.1.15,0,.3,0,.46.02l6.6.6c1.47.13,2.8.91,3.65,2.12.84,1.21,1.11,2.73.73,4.15-.2.76-.38,1.52-.53,2.25-.08.4-.13.79-.14,1.19.02.01.04.03.07.04.15.1,1.33.77,5.18.77,2.04,0,4.13-.08,6.2-.24,2.07-.17,3.9-.38,5.58-.64,1.68-.25,3.17-.55,4.45-.9.43-.12.88-.18,1.31-.18,1.08,0,2.14.35,3.02,1.02,1.24.94,1.97,2.4,1.98,3.95l.05,7c.02,2.34-1.59,4.38-3.88,4.91-1.53.35-3.3.68-5.26.97-2.01.29-4.1.51-6.24.66-2.24.16-4.58.24-6.98.24Zm21.55-37.45c-1.83,0-3.58-1.01-4.46-2.73-.47-.92-1.05-1.98-1.82-3.38-.61-1.1-1.21-2.04-1.77-2.78-.94-1.24-1.24-2.85-.82-4.35.42-1.5,1.51-2.72,2.96-3.3l4-1.6c.6-.24,1.23-.36,1.86-.36,1.61,0,3.18.78,4.13,2.18.53.77,1.06,1.6,1.57,2.46.41.68.82,1.38,1.23,2.07l.24.41c.52.87.98,1.7,1.35,2.44.62,1.23.7,2.67.22,3.96-.48,1.29-1.47,2.33-2.74,2.87l-4,1.7c-.64.27-1.3.4-1.95.4Z"/>
    <path class="cls-2" d="m22,24.6c-2.68,0-5.21-.06-7.52-.19-2.23-.11-4.4-.24-6.45-.37-2.63-.17-4.68-2.35-4.68-4.99v-6.65c0-1.43.62-2.8,1.69-3.75.92-.81,2.1-1.25,3.31-1.25.21,0,.42.01.62.04,1.72.22,3.67.37,5.79.47,2.21.1,4.63.15,7.18.15,1.45,0,3.02-.03,4.93-.1.7-.03,1.37-.06,2.02-.09.03-.14.06-.29.11-.43.43-1.46,1.51-2.64,2.92-3.21l3.95-1.6c.61-.25,1.25-.37,1.88-.37,1.58,0,3.1.75,4.07,2.09.54.75,1.09,1.61,1.63,2.54.5.87.98,1.72,1.46,2.58.5.87.93,1.66,1.28,2.35.63,1.23.73,2.67.26,3.97-.47,1.3-1.45,2.36-2.72,2.9l-2.33,1.01c-.33,2.34-2.27,4.17-4.7,4.3-.85.04-1.81.1-2.91.17l-1.27.08c-1.68.1-3.43.18-5.25.26-2.11.07-3.77.1-5.27.1Z"/>
    <path class="cls-2" d="m80.02,57.7c-2.43-.04-4.48-1.83-4.86-4.23-.05-.31-.19-.9-.58-1.94-.34-.91-.7-1.72-1.07-2.43-.81-1.57-.74-3.45.2-4.95.91-1.47,2.52-2.35,4.24-2.35.04,0,1.45.03,2.1.05v-5.5h-5.6c-2.76,0-5-2.24-5-5v-5.7c0-2.76,2.24-5,5-5h5.6v-.8c0-.36.04-.71.11-1.05h-4.01c-2.76,0-5-2.24-5-5v-5.5c0-2.76,2.24-5,5-5h18.94l.51-.15c.46-.13.93-.2,1.4-.2,1.08,0,2.14.35,3.02,1.01l3.9,2.95c2.11,1.59,2.61,4.55,1.15,6.76-1.06,1.6-2.23,3.23-3.47,4.84-.55.71-1.12,1.43-1.71,2.14h2.21c2.76,0,5,2.24,5,5v5.7c0,2.76-2.24,5-5,5h-6.05v9.7c0,2.2-.31,4.01-.95,5.51-.85,1.99-2.38,3.55-4.42,4.54-.03.01-.06.03-.09.04-1.49.69-3.22,1.14-5.12,1.35-1.34.14-2.84.22-4.47.22-.32,0-.65,0-.98,0Z"/>
    <path class="cls-2" d="m59.15,57.9c-.46,0-.91-.06-1.36-.19-1.35-.38-2.48-1.32-3.11-2.58-.17-.33-.5-.92-1.15-1.8-.6-.81-1-1.2-1.19-1.36-1.27-1.07-1.93-2.7-1.75-4.36.18-1.65,1.16-3.11,2.63-3.89.76-.4,1.48-.88,2.16-1.42l-1.98-1.03c-2.11-1.1-3.16-3.54-2.49-5.83.52-1.78,1.06-3.91,1.66-6.5.23-1.02.46-2.06.7-3.15-1.69-.8-2.86-2.52-2.86-4.52v-5.6c0-2.76,2.24-5,5-5h.84c.37-2.07.69-3.96.98-5.74.39-2.45,2.51-4.21,4.93-4.21.18,0,.36,0,.54.03l5.6.6c1.38.15,2.63.86,3.46,1.97.83,1.11,1.17,2.51.93,3.87-.2,1.13-.41,2.27-.62,3.41.11.01.22.03.32.04l3.55.6c2.51.42,4.3,2.67,4.16,5.21-.39,6.84-1.26,12.84-2.58,17.82-.22.84-.46,1.66-.72,2.48,1.43,1.31,2.59,2.55,3.53,3.78,1.35,1.77,1.37,4.23.04,6.02l-3.6,4.85c-.94,1.27-2.43,2.02-4.01,2.02,0,0-.01,0-.02,0-1.59,0-3.08-.76-4.01-2.04-2.02,2.2-4.34,4.13-6.93,5.74-.8.5-1.72.75-2.64.75Z"/>
    <path class="cls-2" d="m112.45,37.45c-2.76,0-5-2.24-5-5v-4.5c0-.4.05-.78.13-1.15-.09-.37-.13-.75-.13-1.15v-2.58c-1.44-.88-2.4-2.46-2.4-4.27v-4.75c0-1.89,1.05-3.54,2.6-4.39v-2.31c0-2.76,2.24-5,5-5h15.2c2.76,0,5,2.24,5,5v2.82c.38.31.71.67.98,1.07l.99-.22c.36-.08.72-.12,1.08-.12,2.11,0,4.05,1.34,4.74,3.42.46,1.39.87,2.87,1.21,4.4.34,1.51.63,2.95.86,4.37.1.66.19,1.29.27,1.88.24-.77.47-1.61.7-2.52.31-1.24.62-2.56.92-4.04.27-1.3.49-2.53.65-3.66.19-1.37.95-2.6,2.08-3.4.85-.59,1.85-.9,2.87-.9.35,0,.69.04,1.04.11l5.65,1.2c1.36.29,2.53,1.13,3.25,2.31.71,1.19.9,2.62.52,3.95-.4,1.41-.83,2.85-1.26,4.32-.44,1.5-.9,2.94-1.34,4.29-.44,1.36-.9,2.64-1.36,3.78-.77,1.93-2.64,3.14-4.64,3.14-.4,0-.81-.05-1.21-.15l-4.6-1.15c-1.35-.34-2.5-1.23-3.17-2.45-.08-.15-.16-.31-.23-.47-.59,1.46-1.86,2.6-3.48,2.99l-5.05,1.2c-.38.09-.77.14-1.16.14-.11,0-.23,0-.34-.01-.53,2.19-2.51,3.81-4.86,3.81h-15.5Z"/>
    <path class="cls-2" d="m140,57.7c-2.76,0-5-2.24-5-5v-12.1h-6.1c-2.76,0-5-2.24-5-5v-5.65c0-2.76,2.24-5,5-5h6.1v-6.1h-4.35c-2.76,0-5-2.24-5-5v-5.6c0-2.76,2.24-5,5-5h25.5c2.76,0,5,2.24,5,5v5.6c0,2.76-2.24,5-5,5h-5.25v6.1h6.15c2.76,0,5,2.24,5,5v5.65c0,2.76-2.24,5-5,5h-6.15v12.1c0,2.76-2.24,5-5,5h-5.9Z"/>
    <path class="cls-2" d="m112.3,57.05c-2.76,0-5-2.24-5-5v-17.2c0-2.76,2.24-5,5-5h15.55c2.76,0,5,2.24,5,5v15.25c0,2.76-2.24,5-5,5h-6.49c-.91,1.19-2.35,1.95-3.96,1.95h-5.1Z"/>
    <path class="cls-2" d="m190.35,56.15c-2.98,0-5.73-.3-8.17-.89-2.98-.72-5.43-2.05-7.29-3.95-1.46-1.49-3.19-4.18-3.19-8.51,0-.39.01-.77.04-1.15-.8-.11-1.59-.43-2.29-.95l-5.35-4c-1.19-.89-1.92-2.26-2-3.75-.08-1.48.51-2.93,1.6-3.93,1.97-1.81,3.72-3.62,5.2-5.36.02-.02.03-.04.05-.06-.08,0-.15,0-.23-.01-2.63-.17-4.68-2.35-4.68-4.99v-5.85c0-1.46.64-2.85,1.75-3.8.91-.78,2.07-1.2,3.25-1.2.26,0,.52.02.78.06,1.11.18,2.43.31,3.92.4.87.05,1.68.09,2.42.11.04-.34.07-.68.08-1,.07-1.35.69-2.61,1.71-3.49.91-.79,2.08-1.23,3.28-1.23.14,0,.28,0,.42.02l6.6.55c1.41.12,2.71.83,3.56,1.96.57.75.91,1.63,1,2.55,2.54-.24,4.93-.54,7.11-.9.27-.04.54-.07.81-.07,1.18,0,2.34.42,3.25,1.2,1.12.96,1.76,2.37,1.75,3.84l-.04,4.43c.15-.01.29-.02.44-.02.58,0,1.17.1,1.73.31,1.29.47,2.32,1.45,2.87,2.71l2.5,5.8c.56,1.31.54,2.8-.06,4.09-.6,1.29-1.72,2.27-3.09,2.68-.47.14-1.03.33-1.66.55l-2.15.75c-.63.22-1.17.42-1.65.62-.04.01-.07.03-.11.04-1.41.56-3.05,1.22-4.92,1.99l.09,2.71c.01.41.02.81.03,1.19,1.41-.18,2.75-.4,4.01-.65.32-.06.64-.09.96-.09,1.18,0,2.33.42,3.24,1.19,1.16.99,1.81,2.44,1.76,3.96l-.2,6.45c-.08,2.47-1.94,4.51-4.4,4.81-1.11.13-2.51.28-4.19.44-1.71.16-3.51.27-5.33.35-2.08.07-3.73.1-5.23.1Z"/>
    <path class="cls-2" d="m238.05,57.6c-1.64,0-3.21-.81-4.16-2.23-.18-.27-.54-.76-1.25-1.55-.64-.71-1.19-1.28-1.65-1.72-1.3-1.21-1.86-3.03-1.46-4.76.39-1.73,1.68-3.13,3.38-3.66.9-.28,1.82-.62,2.75-.99v-26.27c-.98-.91-1.6-2.22-1.6-3.67v-5c0-2.76,2.24-5,5-5h27.75c2.76,0,5,2.24,5,5v5c0,1.45-.62,2.75-1.6,3.67v26.38c0,2.76-2.24,5-5,5h-9.63c-.32.84-.87,1.59-1.6,2.15-1.23.95-2.64,1.89-4.31,2.87-1.66.95-3.33,1.8-5.01,2.55-1.75.78-3.38,1.42-4.98,1.97-.53.18-1.07.27-1.61.27Z"/>
    <path class="cls-2" d="m263.15,57.75c-1.25,0-2.49-.47-3.46-1.39-.47-.45-1.18-1.01-2.11-1.68-1.04-.74-2.17-1.51-3.36-2.3-1.1-.72-2.16-1.36-3.12-1.89-1.51-.82-2.49-2.36-2.6-4.08-.11-1.72.68-3.37,2.07-4.37l4.45-3.2c.87-.62,1.89-.94,2.92-.94.79,0,1.59.19,2.32.57,1.14.6,2.39,1.3,3.71,2.08,1.31.76,2.61,1.57,3.84,2.4,1.24.82,2.35,1.63,3.28,2.41,1.18.98,1.84,2.44,1.8,3.97-.04,1.53-.78,2.96-2,3.88l-4.75,3.55c-.89.67-1.94,1-2.99,1Z"/>
    <path class="cls-2" d="m222.02,56.25c-2.49-.04-4.57-1.9-4.88-4.38-.05-.37-.17-1.02-.49-2.04-.29-.91-.58-1.68-.86-2.26-.76-1.57-.64-3.42.3-4.88.92-1.43,2.51-2.29,4.2-2.29.04,0,1.28.03,1.7.04v-21.24h-2c-2.76,0-5-2.24-5-5v-5.65c0-2.76,2.24-5,5-5h18.3c2.76,0,5,2.24,5,5v5.65c0,2.76-2.24,5-5,5h-.45v25.35c0,2.12-.25,3.84-.76,5.28-.78,2.09-2.25,3.71-4.28,4.75-1.5.8-3.23,1.28-5.28,1.49-1.32.12-2.78.18-4.4.18-.36,0-.73,0-1.12,0Z"/>
    <path class="cls-2" d="m314.05,47.1c-.93,0-1.85-.26-2.65-.76-1.33-.84-2.2-2.25-2.33-3.82-.15-1.86-.44-3.94-.84-6.18-.39-2.16-.93-4.41-1.62-6.69-.65-2.16-1.44-4.25-2.36-6.22-.82-1.74-1.76-3.23-2.81-4.42-1.11-1.27-1.51-3-1.06-4.63.45-1.62,1.68-2.91,3.28-3.43l6.35-2.05c.51-.16,1.02-.24,1.54-.24,1.47,0,2.89.65,3.86,1.82,1.14,1.39,2.24,3.07,3.26,4.99.95,1.78,1.84,3.73,2.64,5.77.77,1.97,1.48,4.04,2.09,6.13.62,2.14,1.12,4.22,1.49,6.2.39,2.07.64,3.93.75,5.66.14,2.18-1.15,4.2-3.19,4.99l-6.6,2.55c-.58.23-1.19.34-1.8.34Z"/>
    <path class="cls-2" d="m291.45,54.35c-2.89,0-5.61-.94-8.11-2.78-2.35-1.75-4.28-4.41-5.75-7.91-1.33-3.15-2.23-7.12-2.76-12.13-.18-1.59-.3-3.28-.39-5.14-.09-1.75-.15-3.46-.16-5.05-.02-1.53-.03-2.81-.03-3.83,0-.62-.03-1.36-.09-2.14-.06-.82-.14-1.53-.24-2.12-.25-1.46.16-2.96,1.13-4.09.95-1.11,2.34-1.75,3.8-1.75.02,0,7.76.1,7.76.1,1.5.02,2.91.71,3.85,1.89.93,1.17,1.29,2.71.97,4.17-.1.44-.18.97-.25,1.57-.06.62-.13,1.28-.16,1.94,0,.05,0,.09,0,.14-.04.51-.06.98-.06,1.39,0,.05,0,.09,0,.14-.03,1.12-.04,2.16-.02,3.18.01,1.23.04,2.36.09,3.41.04,1.09.1,2.2.21,3.46.1,1.05.23,2.07.38,3.03.17-.56.32-1.1.46-1.62.49-1.81,1.95-3.19,3.78-3.59.35-.07.7-.11,1.05-.11,1.48,0,2.91.66,3.87,1.83l5,6.1c1.13,1.38,1.44,3.27.81,4.94-1.23,3.25-2.45,5.81-3.72,7.82-1.51,2.38-3.11,4.09-4.91,5.24-1.99,1.27-4.17,1.92-6.5,1.92Z"/>
    <path class="cls-2" d="m366.4,55.45c-.11,0-.21,0-.32-.01-2.42-.15-4.81-.54-7.1-1.16-2.36-.63-4.59-1.52-6.64-2.64-2.16-1.17-4.09-2.63-5.74-4.35-1.73-1.79-3.09-3.87-4.06-6.19-.99-2.35-1.49-4.98-1.49-7.81,0-3.04.5-5.88,1.48-8.44.09-.24.19-.49.29-.73-.33.04-.66.08-.99.13-1.49.19-2.94.41-4.31.64-1.4.24-2.67.48-3.8.7-.33.06-.65.1-.98.1-1.07,0-2.11-.34-2.98-.99-1.14-.84-1.86-2.13-1.99-3.54l-.65-6.85c-.13-1.37.31-2.74,1.22-3.78.91-1.04,2.21-1.65,3.59-1.69.96-.03,1.87-.07,2.74-.12.83-.05,1.49-.08,1.97-.12,1.03-.1,2.28-.21,3.76-.35l5.08-.45c1.89-.17,12.68-1.1,12.68-1.1,1.8-.14,3.55-.26,5.3-.38,1.76-.12,3.42-.22,4.99-.3,1.6-.09,2.98-.15,4.15-.18.05,0,.1,0,.15,0,1.29,0,2.54.5,3.47,1.4.97.93,1.52,2.22,1.53,3.56l.05,6.4c.01,1.33-.51,2.61-1.45,3.56s-2.22,1.48-3.55,1.48c-.86,0-1.85.02-2.96.05-1.08.03-2.18.09-3.26.16-.85.06-1.61.16-2.24.3-.86.24-1.64.63-2.39,1.19-.89.66-1.66,1.43-2.34,2.34-.66.89-1.17,1.84-1.51,2.83-.33.96-.5,1.89-.5,2.83s.14,1.67.4,2.26c.27.59.63,1.08,1.1,1.49.62.54,1.38,1,2.26,1.38,1.03.44,2.17.78,3.39,1.01,1.37.26,2.81.43,4.29.52,1.56.09,2.99.91,3.86,2.21.87,1.3,1.08,2.93.58,4.41l-2.35,6.85c-.7,2.03-2.6,3.38-4.73,3.38Z"/>
    <path class="cls-2" d="m401.45,54.35c-2.89,0-5.62-.94-8.1-2.78-2.34-1.73-4.27-4.39-5.75-7.9-1.34-3.17-2.24-7.14-2.77-12.15-.17-1.6-.31-3.33-.4-5.13-.09-1.76-.14-3.46-.16-5.04-.02-1.55-.03-2.84-.03-3.85,0-.58-.03-1.3-.09-2.16-.05-.79-.14-1.49-.24-2.09-.25-1.46.16-2.97,1.12-4.1.95-1.11,2.34-1.76,3.8-1.76.02,0,7.77.1,7.77.1,1.51.02,2.92.72,3.86,1.9.93,1.18,1.29,2.72.96,4.19-.09.42-.17.92-.23,1.5-.08.7-.14,1.38-.18,2.05-.04.6-.06,1.08-.06,1.46,0,.05,0,.1,0,.15-.03,1.02-.04,2.09-.02,3.17.02,1.13.05,2.27.1,3.44.05,1.14.12,2.29.21,3.42.1,1.07.23,2.09.38,3.04.16-.56.31-1.1.45-1.62.48-1.81,1.94-3.2,3.77-3.6.35-.08.71-.11,1.06-.11,1.48,0,2.91.66,3.87,1.83l5,6.1c1.13,1.38,1.44,3.27.81,4.94-1.23,3.24-2.45,5.8-3.72,7.82-1.49,2.36-3.09,4.08-4.9,5.24-1.98,1.27-4.17,1.92-6.51,1.92Zm22.6-7.25c-.93,0-1.85-.26-2.66-.76-1.34-.84-2.2-2.26-2.33-3.83-.15-1.86-.43-3.94-.84-6.17-.4-2.2-.94-4.45-1.62-6.7-.66-2.19-1.46-4.28-2.36-6.22-.81-1.73-1.76-3.23-2.82-4.44-1.1-1.27-1.5-3-1.05-4.62.45-1.62,1.68-2.9,3.28-3.42l6.35-2.05c.51-.16,1.02-.24,1.54-.24,1.47,0,2.9.65,3.86,1.82,1.14,1.39,2.24,3.06,3.25,4.98.95,1.79,1.84,3.73,2.64,5.77.79,2,1.49,4.07,2.1,6.16.61,2.1,1.11,4.18,1.49,6.17.39,2.04.64,3.95.75,5.68.14,2.18-1.15,4.2-3.19,4.99l-6.6,2.55c-.58.22-1.19.34-1.8.34Z"/>
    <path class="cls-2" d="m464.35,56.15c-2.86,0-5.52-.44-7.91-1.29-2.66-.96-4.83-2.4-6.46-4.27-1.51-1.76-2.44-3.83-2.73-6.09-1.26-.06-2.46-.6-3.34-1.52l-4.55-4.7c-.97-1-1.48-2.37-1.4-3.76.08-1.39.74-2.69,1.82-3.58.56-.46,1.16-.95,1.81-1.47l1.26-1.02c1.12-.9,2.25-1.84,3.39-2.81l.28-.23c1.08-.91,2.1-1.77,3.05-2.58,0,0,1.25-1.03,1.6-1.33-.2.03-.4.06-.6.09-.27.05-.55.07-.82.07-1.15,0-2.27-.4-3.17-1.14-1.12-.92-1.78-2.27-1.82-3.71l-.2-6.5c-.05-1.48.56-2.9,1.66-3.88.92-.83,2.11-1.27,3.33-1.27.24,0,.47.02.71.05.48.07,1.07.12,1.79.16.67.02,1.38.04,2.05.04.51,0,1.28,0,2.3-.03.91,0,1.87-.03,2.92-.05l.69-.02c1.2-.04,2.45-.06,3.68-.09h.33c1.27-.05,2.45-.08,3.52-.13,1-.05,1.8-.08,2.38-.11.87-.08,1.56-.16,2.08-.24.28-.04.45-.06.58-.09.5-.16,1-.23,1.51-.23,1.57,0,3.08.74,4.04,2.05l3.25,4.45c.82,1.12,1.13,2.53.87,3.89-.26,1.36-1.07,2.55-2.24,3.29l-.39.25c-.46.29-.92.58-1.4.88-.48.29-.89.57-1.32.9-.07.06-.15.11-.23.17-.25.17-.54.38-.86.62.51.2,1.02.42,1.51.66,3.01,1.47,5.45,3.53,7.25,6.1,1.91,2.73,2.88,5.88,2.88,9.34s-.93,6.85-2.75,9.79c-1.84,2.95-4.58,5.3-8.13,6.98-3.38,1.58-7.49,2.38-12.22,2.38Z"/>
    <path class="cls-2" d="m510.6,53.25c-2.76,0-5-2.24-5-5V11.2c0-2.76,2.24-5,5-5h12.15c3.26,0,6.28.46,8.97,1.36,3.14,1.05,5.69,2.85,7.58,5.33,1.96,2.57,2.95,5.92,2.95,9.96s-.96,7.14-2.84,9.81c-1.84,2.61-4.32,4.55-7.37,5.78-2.72,1.1-5.76,1.66-9.04,1.66v8.15c0,2.76-2.24,5-5,5h-7.4Zm12.4-29.01c1.38-.06,1.84-.36,1.88-.39,0,0,.12-.28.12-1,0-.17,0-.31-.02-.42-.33-.11-.95-.26-1.98-.31v2.12Z"/>
    <path class="cls-2" d="m569.05,53.25c-1.84,0-3.52-1.01-4.4-2.62l-3.3-6.11v3.73c0,2.76-2.24,5-5,5h-7.4c-2.76,0-5-2.24-5-5V11.2c0-2.76,2.24-5,5-5h12.85c3.14,0,6.05.42,8.64,1.26,3.12,1.03,5.63,2.8,7.47,5.27,1.88,2.53,2.84,5.8,2.84,9.72s-.93,6.99-2.76,9.6c-.74,1.05-1.58,1.99-2.53,2.81l6.23,10.92c.88,1.55.88,3.45-.02,4.99-.89,1.54-2.54,2.49-4.32,2.49h-8.3Zm-7.7-29.85c1.36-.02,1.93-.27,2.09-.37.02-.09.06-.27.06-.58,0-.04,0-.08,0-.12-.39-.1-1.06-.22-2.15-.23v1.3Z"/>
    <path class="cls-2" d="m621.7,58.1c-.3,0-.61-.03-.91-.08-1.41-.26-2.64-1.12-3.38-2.35-.11-.19-.32-.5-.66-.88-.14-.17-.28-.33-.42-.48-.69.07-1.37.14-2.06.21-2.88.3-5.67.57-8.33.82-2.62.25-5.02.49-7.2.72-.18.02-.37.03-.55.03-2.46,0-4.6-1.82-4.95-4.31l-.7-5.05c-.19-1.37.2-2.77,1.07-3.84.09-.11.18-.22.28-.32,0-.07,0-.15,0-.22v-4.25c0-.51.08-1.01.22-1.48-.01-.16-.02-.31-.02-.47v-14.14c-.81-.89-1.3-2.07-1.3-3.36v-4.35c0-1.08.34-2.08.93-2.9-.12-.34-.23-.57-.3-.71-.75-1.51-.7-3.29.15-4.75.85-1.46,2.37-2.39,4.06-2.48,1.83-.1,3.71-.23,5.64-.37,2.06-.16,3.92-.32,5.68-.51,1.77-.18,3.53-.4,5.25-.65,1.68-.24,3.11-.49,4.35-.76.35-.08.7-.11,1.05-.11,1.67,0,3.25.84,4.18,2.26.92-1.05,2.26-1.71,3.77-1.71h5.75c2.76,0,5,2.24,5,5,0,1.93,0,3.75-.02,5.5h5.12c2.76,0,5,2.24,5,5,0,0,0,2.73,0,2.78-.12,4.54-.25,8.95-.4,13.13-.12,3.39-.27,6.41-.44,8.99-.17,2.64-.42,4.67-.76,6.19-.42,1.97-1,3.43-1.81,4.58-.99,1.44-2.12,2.52-3.42,3.25-1.03.59-2.27,1.05-3.62,1.32-.06.01-.11.02-.17.03-1.07.18-2.27.28-3.58.29-.37,0-.8.01-1.23.01-.77,0-1.57-.01-2.39-.03-1.65-.04-3.1-.88-3.98-2.15-.58.53-1.18,1.04-1.81,1.53-.89.69-1.97,1.06-3.08,1.06Z"/>
    <path class="cls-2" d="m655.05,57.75c-2.76,0-5-2.24-5-5V17.65c0-2.76,2.24-5,5-5h5.85c2.76,0,5,2.24,5,5v21.45h20.3v-21.45c0-2.76,2.24-5,5-5h5.8c2.76,0,5,2.24,5,5v35c0,2.76-2.24,5-5,5h-5.8c-1.99,0-3.71-1.16-4.52-2.85h-21.22c-.78,1.74-2.53,2.95-4.56,2.95h-5.85Z"/>
    <path class="cls-2" d="m664.05,46.2c-2.76,0-5-2.24-5-5v-21.85h-5.55c-2.76,0-5-2.24-5-5v-5.6c0-2.76,2.24-5,5-5h45.05c2.76,0,5,2.24,5,5v5.6c0,2.76-2.24,5-5,5h-5.65v21.85c0,2.76-2.24,5-5,5h-23.85Z"/>
  </g>
  <g>
    <path class="cls-1" d="m46.57,9.67c-.48-.81-.97-1.64-1.47-2.47-.5-.84-.97-1.57-1.4-2.2l-4,1.6c.7.93,1.42,2.06,2.15,3.37.73,1.32,1.37,2.49,1.9,3.53l4-1.7c-.3-.6-.69-1.31-1.18-2.13Zm-7.07,32.53c-1.47.4-3.13.74-5,1.02-1.87.29-3.86.51-5.97.68-2.12.16-4.31.25-6.58.25-3.6,0-6.21-.51-7.82-1.53-1.62-1.01-2.43-2.34-2.43-3.97,0-.84.08-1.67.25-2.5.17-.84.37-1.69.6-2.55l-6.6-.6c-.17.93-.37,2.01-.6,3.22-.23,1.22-.35,2.54-.35,3.98,0,2.3.64,4.24,1.93,5.82,1.28,1.59,3.19,2.8,5.72,3.65,2.53.85,5.72,1.28,9.55,1.28,2.33,0,4.54-.08,6.62-.23,2.09-.15,4.04-.36,5.86-.62,1.81-.27,3.44-.57,4.87-.9l-.05-7Z"/>
    <path class="cls-1" d="m41.75,14.1l-4.05,1.75c-.36-.75-.78-1.57-1.25-2.47v5.62c-1.17.06-2.57.15-4.23.25-1.65.1-3.36.18-5.15.25-1.78.06-3.47.1-5.07.1-2.6,0-5.02-.06-7.25-.18-2.23-.11-4.37-.24-6.4-.37v-6.65c1.83.23,3.9.4,6.2.5s4.77.15,7.4.15c1.67,0,3.37-.04,5.1-.1,1.73-.07,3.42-.16,5.05-.28,1.41-.1,2.69-.19,3.83-.28-.02-.03-.03-.06-.05-.09-.72-1.34-1.41-2.49-2.08-3.45l3.95-1.6c.43.6.89,1.31,1.38,2.15.48.83.95,1.66,1.42,2.5.47.83.87,1.56,1.2,2.2Z"/>
    <path class="cls-1" d="m102.1,25.65v5.7h-11.05v14.7c0,1.5-.18,2.68-.55,3.55-.37.86-1.03,1.53-2,2-1,.46-2.19.77-3.57.92-1.39.15-3,.21-4.83.18-.13-.84-.42-1.82-.85-2.95-.43-1.14-.87-2.12-1.3-2.95,1.27.03,2.48.06,3.65.1,1.17.03,1.97.03,2.4,0,.4,0,.68-.07.82-.2.15-.14.23-.37.23-.7v-14.65h-10.6v-5.7h10.6v-5.8h1.86c.84-.82,1.69-1.77,2.54-2.85.84-1.06,1.62-2.13,2.34-3.2h-15.64v-5.5h19.65l1.2-.35,3.9,2.95c-.97,1.46-2.06,2.99-3.27,4.57-1.22,1.59-2.5,3.1-3.83,4.55-.92,1.01-1.84,1.93-2.75,2.76v2.87h11.05Z"/>
    <path class="cls-1" d="m72.43,39.6c-.49-.41-.99-.83-1.5-1.24.66-1.66,1.25-3.44,1.75-5.34,1.25-4.71,2.05-10.32,2.42-16.82l-3.55-.6-1.05.1h-4.51c.06-.32.13-.63.19-.95.58-2.94,1.1-5.74,1.57-8.4l-5.6-.6c-.4,2.5-.86,5.14-1.37,7.92-.13.68-.25,1.35-.39,2.03h-4.99v5.6h3.9c-.05.26-.1.51-.15.77-.57,2.82-1.14,5.49-1.72,8.03-.59,2.53-1.16,4.78-1.73,6.75l4.9,2.55c.14-.52.28-1.05.42-1.59.91.66,1.83,1.35,2.76,2.09-.33.57-.67,1.12-1.03,1.65-1.97,2.9-4.37,5.1-7.2,6.6.63.53,1.3,1.27,2,2.22.7.95,1.23,1.79,1.6,2.53,3.33-2.07,6.11-4.72,8.32-7.95.28-.4.54-.81.81-1.24.23.2.45.41.67.61,1.6,1.49,2.87,2.86,3.8,4.13l3.6-4.85c-.97-1.27-2.28-2.6-3.92-4Zm-5.05-8.65c-.36,1.35-.77,2.63-1.23,3.85-1.3-.92-2.56-1.76-3.77-2.55.03-.09.05-.19.07-.28.63-2.71,1.27-5.53,1.9-8.45.16-.74.32-1.48.47-2.22h4.31c-.38,3.48-.96,6.7-1.75,9.65Z"/>
    <path class="cls-1" d="m150.2,15.45c-.17,1.2-.4,2.52-.7,3.97-.3,1.45-.62,2.87-.97,4.25-.35,1.39-.71,2.63-1.08,3.73l4.6,1.15c.4-1,.82-2.16,1.25-3.48.43-1.31.87-2.7,1.3-4.15.43-1.45.85-2.87,1.25-4.27l-5.65-1.2Zm-12.42,8.45c-.22-1.34-.49-2.7-.81-4.1-.31-1.4-.67-2.7-1.07-3.9l-4.75,1.05c.33,1.2.64,2.51.92,3.92.29,1.42.53,2.8.73,4.15.2,1.35.32,2.56.35,3.63l5.05-1.2c-.07-1.04-.21-2.22-.42-3.55Zm-25.13-16.55v4.5h15.2v-4.5h-15.2Zm-.2,20.6v4.5h15.5v-4.5h-15.5Zm0-6.85v4.55h15.5v-4.55h-15.5Zm-2.4-7.05v4.75h19.65v-4.75h-19.65Z"/>
    <polygon class="cls-1" points="157.05 29.95 157.05 35.6 145.9 35.6 145.9 52.7 140 52.7 140 35.6 128.9 35.6 128.9 29.95 140 29.95 140 13.85 130.65 13.85 130.65 8.25 156.15 8.25 156.15 13.85 145.9 13.85 145.9 29.95 157.05 29.95"/>
    <path class="cls-1" d="m112.3,34.85v17.2h5.1v-1.95h10.45v-15.25h-15.55Zm10.4,10.5h-5.3v-5.75h5.3v5.75Z"/>
    <path class="cls-1" d="m194.53,32.43v.02c.01.96.04,1.97.07,3.02.03,1.05.07,2.08.1,3.08.03,1,.05,1.9.05,2.7h-6c.07-.57.11-1.24.13-2.03,0-.78.03-1.61.05-2.47.01-.53.02-1.05.02-1.56-.97.56-1.82,1.11-2.55,1.66-1.03.76-1.82,1.54-2.35,2.32-.53.79-.8,1.64-.8,2.58,0,.7.15,1.27.45,1.72.3.45.75.81,1.35,1.08.6.26,1.35.45,2.25.55.9.1,1.97.15,3.2.15,2.13,0,4.48-.13,7.05-.38s4.95-.59,7.15-1.02l-.2,6.45c-1.07.13-2.42.27-4.05.42s-3.32.26-5.07.33c-1.75.06-3.43.1-5.03.1-2.6,0-4.93-.25-7-.75-2.07-.5-3.69-1.36-4.88-2.58-1.18-1.21-1.77-2.89-1.77-5.02,0-1.74.39-3.3,1.18-4.7.78-1.4,1.82-2.67,3.12-3.8,1.3-1.14,2.72-2.16,4.28-3.08,1.05-.62,2.1-1.22,3.14-1.77-.18-.32-.42-.57-.7-.78-.84-.61-1.79-.92-2.82-.92-1.4,0-2.81.34-4.22,1.02-1.42.69-2.61,1.49-3.58,2.43-.73.73-1.47,1.55-2.22,2.45s-1.56,1.91-2.43,3.05l-5.35-4c2.17-2,4.04-3.94,5.62-5.8,1.59-1.87,2.93-3.72,4.03-5.55.49-.82.94-1.64,1.35-2.45h-.6c-.67,0-1.49,0-2.47-.03-.99,0-2-.05-3.03-.1-1.03-.05-2.02-.11-2.95-.17v-5.85c1.27.2,2.73.35,4.4.45,1.67.1,3.13.15,4.4.15.78,0,1.58-.01,2.41-.02.16-.54.3-1.1.42-1.66.31-1.45.5-2.81.57-4.07l6.6.55c-.17.9-.43,2.06-.8,3.5-.12.47-.26.97-.43,1.48,2.12-.1,4.26-.26,6.43-.46,2.7-.25,5.27-.57,7.7-.97l-.05,5.8c-1.77.23-3.67.44-5.73.62-2.04.19-4.13.34-6.25.45-1.48.08-2.92.15-4.31.2-.25.51-.51,1.03-.78,1.55-.69,1.32-1.38,2.49-2.08,3.53.43-.2.98-.38,1.65-.53s1.36-.26,2.08-.35c.71-.08,1.35-.12,1.92-.12,2.1,0,3.84.6,5.23,1.8.64.56,1.13,1.24,1.46,2.05.04-.02.07-.03.11-.05,1.23-.57,2.39-1.08,3.47-1.53,1.09-.45,2.13-.91,3.13-1.37.97-.44,1.9-.86,2.8-1.28.9-.41,1.82-.86,2.75-1.32l2.5,5.8c-.53.16-1.16.37-1.87.62-.72.25-1.44.5-2.15.75-.72.25-1.36.49-1.93.73-1.6.63-3.49,1.4-5.67,2.3-.82.34-1.65.7-2.5,1.08Z"/>
    <path class="cls-1" d="m265.2,42.8v-26.5h-10.53c.05-.13.1-.26.15-.4.41-1.03.8-2.09,1.17-3.15h10.81v-5h-27.75v5h10.19c-.1.6-.21,1.22-.34,1.87-.11.58-.23,1.14-.36,1.68h-7.89v26.5h5.15c-.76.6-1.73,1.25-2.9,1.92-1.3.75-2.69,1.45-4.18,2.1-1.48.65-2.92,1.19-4.32,1.63.6.56,1.26,1.25,1.98,2.05.71.8,1.27,1.5,1.67,2.1,1.47-.5,2.98-1.1,4.55-1.8,1.57-.7,3.08-1.47,4.53-2.3,1.44-.84,2.7-1.67,3.77-2.5l-4.56-3.2h18.86Zm-18.95-22.15h13.1v3.2h-13.1v-3.2Zm0,7.25h13.1v3.2h-13.1v-3.2Zm0,7.3h13.1v3.2h-13.1v-3.2Z"/>
    <path class="cls-1" d="m267.9,49.2l-4.75,3.55c-.67-.64-1.55-1.34-2.65-2.13-1.1-.78-2.27-1.58-3.5-2.4-1.23-.81-2.4-1.52-3.5-2.12l4.45-3.2c1.07.56,2.23,1.21,3.48,1.95,1.25.73,2.45,1.48,3.6,2.25,1.15.76,2.1,1.46,2.87,2.1Z"/>
    <path class="cls-1" d="m238.3,8.55v5.65h-5.45v30.35c0,1.53-.16,2.73-.47,3.6-.32.86-.95,1.53-1.88,2-.93.5-2.09.81-3.47.95-1.39.13-3.03.18-4.93.15-.1-.8-.32-1.77-.67-2.9-.36-1.14-.73-2.12-1.13-2.95,1.2.03,2.35.06,3.45.07,1.1.02,1.83.03,2.2.03.4,0,.68-.08.83-.23.15-.15.22-.41.22-.77V14.2h-7v-5.65h18.3Z"/>
    <path class="cls-1" d="m319.97,34.47c-.34-1.85-.8-3.75-1.37-5.7-.57-1.95-1.22-3.86-1.95-5.72-.73-1.87-1.53-3.62-2.4-5.25-.87-1.64-1.77-3.02-2.7-4.15l-6.35,2.05c1.37,1.56,2.56,3.43,3.58,5.6,1.01,2.16,1.89,4.46,2.62,6.9.73,2.43,1.32,4.85,1.75,7.25.43,2.4.73,4.61.9,6.65l6.6-2.55c-.1-1.54-.33-3.23-.68-5.08Z"/>
    <path class="cls-1" d="m301.9,37.6c-1.1,2.9-2.19,5.21-3.27,6.92-1.09,1.72-2.21,2.95-3.38,3.7-1.17.75-2.43,1.13-3.8,1.13-1.8,0-3.51-.6-5.13-1.8-1.61-1.2-2.99-3.14-4.12-5.83-1.13-2.68-1.93-6.26-2.4-10.72-.17-1.54-.29-3.15-.37-4.85-.09-1.7-.14-3.32-.15-4.85-.02-1.54-.03-2.8-.03-3.8,0-.7-.03-1.54-.1-2.5-.07-.97-.17-1.84-.3-2.6l7.7.1c-.13.6-.24,1.28-.33,2.05-.08.76-.15,1.51-.19,2.25-.06.73-.08,1.33-.08,1.8-.03,1.1-.04,2.23-.02,3.4.01,1.16.04,2.36.1,3.57.04,1.22.12,2.43.22,3.63.23,2.4.57,4.51,1,6.35.43,1.83,1,3.26,1.7,4.27.7,1.02,1.58,1.53,2.65,1.53.57,0,1.12-.32,1.68-.95.54-.64,1.04-1.46,1.5-2.48.44-1.01.85-2.09,1.19-3.22.35-1.14.66-2.2.93-3.2l5,6.1Z"/>
    <path class="cls-1" d="m332.1,13.85c1-.03,1.95-.07,2.85-.12.9-.05,1.6-.09,2.1-.12,1.03-.1,2.3-.22,3.8-.35,1.5-.13,3.19-.28,5.08-.45,1.88-.17,3.89-.34,6.02-.53,2.13-.18,4.35-.38,6.65-.58,1.73-.13,3.47-.26,5.2-.38,1.73-.12,3.38-.22,4.92-.3,1.55-.08,2.89-.14,4.03-.18l.05,6.4c-.9,0-1.93.02-3.1.05-1.17.03-2.32.09-3.48.17-1.15.08-2.17.22-3.07.43-1.5.4-2.89,1.07-4.18,2.03-1.28.95-2.41,2.07-3.38,3.38-.97,1.3-1.71,2.69-2.22,4.17-.52,1.48-.78,2.97-.78,4.47,0,1.63.28,3.08.85,4.33.57,1.25,1.36,2.32,2.38,3.2,1.02.88,2.21,1.62,3.58,2.2,1.37.58,2.84,1.02,4.42,1.32,1.58.3,3.23.5,4.93.6l-2.35,6.85c-2.1-.13-4.14-.47-6.12-1-1.98-.53-3.83-1.27-5.55-2.2-1.72-.93-3.22-2.07-4.52-3.43-1.3-1.35-2.32-2.9-3.05-4.65-.73-1.75-1.1-3.71-1.1-5.88,0-2.43.38-4.65,1.15-6.65.77-2,1.72-3.76,2.85-5.28,1.13-1.52,2.27-2.69,3.4-3.53-.93.1-2.06.22-3.38.38-1.32.15-2.73.32-4.25.5-1.52.18-3.06.38-4.62.58-1.57.2-3.07.42-4.52.67s-2.76.49-3.92.72l-.65-6.85Z"/>
    <path class="cls-1" d="m396.55,12.5c-.13.6-.24,1.28-.33,2.05-.08.77-.15,1.52-.2,2.25-.05.73-.08,1.33-.08,1.8-.03,1.1-.04,2.23-.02,3.4.02,1.17.05,2.36.1,3.57.05,1.22.12,2.43.23,3.62.23,2.4.57,4.52,1,6.35.43,1.83,1,3.26,1.7,4.27.7,1.02,1.58,1.53,2.65,1.53.57,0,1.12-.32,1.68-.95.55-.63,1.05-1.46,1.5-2.47.45-1.02.85-2.09,1.2-3.23.35-1.13.66-2.2.93-3.2l5,6.1c-1.1,2.9-2.19,5.21-3.27,6.93-1.08,1.72-2.21,2.95-3.38,3.7-1.17.75-2.43,1.12-3.8,1.12-1.8,0-3.51-.6-5.12-1.8-1.62-1.2-2.99-3.14-4.12-5.83-1.13-2.68-1.93-6.26-2.4-10.72-.17-1.53-.29-3.15-.38-4.85-.08-1.7-.13-3.32-.15-4.85-.02-1.53-.02-2.8-.02-3.8,0-.7-.03-1.53-.1-2.5-.07-.97-.17-1.83-.3-2.6l7.7.1Zm25,1.15c.93,1.13,1.83,2.52,2.7,4.15.87,1.63,1.67,3.38,2.4,5.25.73,1.87,1.38,3.77,1.95,5.72.57,1.95,1.03,3.85,1.38,5.7.35,1.85.58,3.54.68,5.08l-6.6,2.55c-.17-2.03-.47-4.25-.9-6.65-.43-2.4-1.02-4.82-1.75-7.25-.73-2.43-1.61-4.73-2.62-6.9-1.02-2.17-2.21-4.03-3.58-5.6l6.35-2.05Z"/>
    <path class="cls-1" d="m480.47,30.52c-1.31-1.88-3.09-3.37-5.34-4.47s-4.8-1.65-7.63-1.65c-.8,0-1.58.04-2.35.12-.77.09-1.57.23-2.4.43.8-.64,1.69-1.35,2.68-2.15.98-.8,2-1.62,3.04-2.45,1.06-.84,2.05-1.63,2.98-2.38s1.73-1.36,2.4-1.82c.57-.44,1.15-.84,1.75-1.2.6-.37,1.18-.74,1.75-1.1l-3.25-4.45c-.3.1-.75.19-1.35.27-.6.09-1.42.18-2.45.28-.6.03-1.44.07-2.52.12-1.09.05-2.3.09-3.63.13-1.33.03-2.68.06-4.02.1-1.35.03-2.56.06-3.63.07-1.07.02-1.87.03-2.4.03-.73,0-1.5-.02-2.3-.05-.8-.04-1.55-.1-2.25-.2l.2,6.5c.6-.1,1.27-.19,2-.25.73-.07,1.43-.12,2.1-.15.53-.04,1.21-.08,2.03-.13.81-.05,1.69-.09,2.65-.12.94-.04,1.9-.07,2.85-.1.94-.04,1.82-.07,2.62-.1.8-.04,1.45-.05,1.95-.05-.6.53-1.35,1.17-2.25,1.92s-1.85,1.54-2.85,2.35c-1,.82-1.97,1.61-2.9,2.38-.93.76-1.75,1.43-2.45,2-.73.6-1.62,1.34-2.68,2.22-1.04.89-2.16,1.83-3.35,2.83-1.18,1-2.34,1.96-3.47,2.87-1.13.92-2.15,1.74-3.05,2.48l4.55,4.7c1.33-1.54,2.68-2.93,4.03-4.18,1.35-1.25,2.73-2.31,4.15-3.2,1.41-.88,2.92-1.56,4.52-2.05,1.6-.48,3.37-.72,5.3-.72s3.73.31,5.3.95c1.57.63,2.81,1.51,3.73,2.65.91,1.13,1.37,2.45,1.37,3.95,0,1.76-.47,3.29-1.43,4.57-.66.91-1.56,1.66-2.7,2.26-.18-1.26-.58-2.43-1.2-3.53-.85-1.54-2.06-2.76-3.64-3.68-1.59-.91-3.53-1.37-5.83-1.37-1.77,0-3.32.36-4.67,1.1-1.36.73-2.4,1.69-3.15,2.87-.75,1.19-1.13,2.46-1.13,3.83,0,1.66.53,3.11,1.6,4.35,1.07,1.23,2.53,2.18,4.38,2.85,1.84.66,3.92,1,6.22,1,4.03,0,7.39-.64,10.08-1.9,2.68-1.27,4.69-2.97,6.02-5.1,1.33-2.14,2-4.52,2-7.15,0-2.44-.66-4.59-1.98-6.48Zm-17.37,14.93c-1.5,0-2.72-.29-3.65-.85-.93-.57-1.4-1.32-1.4-2.25,0-.64.28-1.19.85-1.68.57-.48,1.32-.72,2.25-.72,1.47,0,2.64.56,3.53,1.67.76.97,1.21,2.19,1.33,3.7-.91.08-1.88.13-2.91.13Z"/>
    <path class="cls-1" d="m510.6,48.25V11.2h12.15c2.73,0,5.19.37,7.38,1.1,2.18.73,3.92,1.94,5.2,3.62,1.28,1.68,1.93,3.99,1.93,6.92s-.64,5.11-1.93,6.93c-1.28,1.82-3,3.16-5.15,4.03-2.15.87-4.56,1.3-7.23,1.3h-4.95v13.15h-7.4Zm7.4-19h4.45c2.53,0,4.43-.53,5.68-1.6,1.25-1.07,1.88-2.67,1.88-4.8s-.66-3.62-1.98-4.47c-1.32-.85-3.26-1.28-5.83-1.28h-4.2v12.15Z"/>
    <path class="cls-1" d="m568.7,33.09c.07-.02.13-.04.2-.07,2.1-.81,3.77-2.1,5-3.85,1.23-1.75,1.85-3.99,1.85-6.72s-.62-5.08-1.85-6.73c-1.23-1.65-2.9-2.81-5-3.5-2.1-.68-4.47-1.02-7.1-1.02h-12.85v37.05h7.4v-14h5.13l7.57,14h8.3l-8.65-15.16Zm-12.35-15.99h4.8c2.4,0,4.22.39,5.47,1.17,1.25.79,1.88,2.18,1.88,4.18s-.63,3.45-1.88,4.45-3.07,1.5-5.47,1.5h-4.8v-11.3Z"/>
    <path class="cls-1" d="m633.2,17.1c.07-3.35.1-6.85.1-10.5h-5.75c0,3.71-.02,7.21-.04,10.5h-4.71v-2.8h-9.65v-2.45c.66-.07,1.32-.15,1.97-.23,2.62-.31,4.98-.69,7.08-1.12l-2.6-4.45c-1.4.3-2.96.57-4.68.82-1.71.25-3.53.48-5.45.68-1.91.2-3.85.37-5.82.52-1.97.15-3.88.28-5.75.38.3.6.57,1.31.82,2.12.25.82.43,1.54.53,2.18,2.5-.07,5.12-.19,7.85-.38.2,0,.4-.03.6-.04v1.97h-9.9v4.35h9.9v1.95h-8.6v15.55h8.6v1.95h-8.8v4.25h8.8v2.97c-1.02.08-2.02.16-3,.23-2.7.2-5.1.36-7.2.5l.7,5.05c2.2-.24,4.62-.48,7.27-.73,2.65-.25,5.42-.52,8.3-.82,1.48-.15,2.94-.31,4.4-.46.28.23.56.49.85.78.52.52,1.02,1.06,1.5,1.63.49.56.88,1.1,1.18,1.6,2.3-1.8,4.18-3.89,5.65-6.25,1.47-2.37,2.61-4.99,3.42-7.88.82-2.88,1.4-6.01,1.75-9.4.23-2.22.4-4.55.52-6.97h4.54c-.06,3.04-.13,5.74-.21,8.1-.11,3.4-.25,6.17-.4,8.32-.15,2.15-.32,3.8-.52,4.95-.2,1.15-.43,1.93-.7,2.33-.23.3-.48.51-.75.65-.27.13-.6.2-1,.2-.47,0-1.15-.02-2.05-.05-.9-.04-1.88-.1-2.95-.2.47.8.86,1.75,1.17,2.85.32,1.1.5,2.06.53,2.9,1.2.03,2.35.04,3.45.02,1.1-.01,2.03-.09,2.8-.22.83-.17,1.56-.43,2.17-.78.62-.35,1.21-.94,1.78-1.77.4-.57.74-1.5,1.02-2.8.29-1.3.5-3.11.65-5.43.15-2.31.3-5.26.43-8.85.13-3.58.27-7.94.4-13.07v-2.65h-10.2Zm-20.05,13.05h3.9v2.25h-3.9v-2.25Zm0-3.55v-2.25h3.9v2.25h-3.9Zm-9.3-2.25h3.85v2.25h-3.85v-2.25Zm0,8.05v-2.25h3.85v2.25h-3.85Zm23.2-4.68c-.27,3.05-.75,5.85-1.45,8.4-.7,2.55-1.7,4.87-3,6.95-.23.37-.47.72-.72,1.07-2.86.24-5.73.49-8.61.73-.04,0-.08.01-.12.01v-2.53h9.1v-4.25h-9.1v-1.95h8.85v-15.55h-8.85v-1.95h9.6v3.95h4.63c-.07,1.78-.18,3.48-.33,5.12Z"/>
    <polygon class="cls-1" points="697 17.65 697 52.65 691.2 52.65 691.2 49.8 660.9 49.8 660.9 52.75 655.05 52.75 655.05 17.65 660.9 17.65 660.9 44.1 691.2 44.1 691.2 17.65 697 17.65"/>
    <path class="cls-1" d="m698.55,14.35v-5.6h-45.05v5.6h19.3v4.05h-8.75v22.8h23.85v-22.8h-9.05v-4.05h19.7Zm-29.6,8.95h4.3v4.2h-4.3v-4.2Zm0,8.75h4.3v4.25h-4.3v-4.25Zm13.8,4.25h-4.35v-4.25h4.35v4.25Zm0-13v4.2h-4.35v-4.2h4.35Z"/>
  </g>
</svg>