<?xml version="1.0" encoding="UTF-8"?>
<svg id="_レイヤー_1" data-name=" レイヤー 1" xmlns="http://www.w3.org/2000/svg" viewBox="0 0 356.3 80">
  <defs>
    <style>
      .cls-1 {
        fill: #2f2f2f;
      }
    </style>
  </defs>
  <polygon class="cls-1" points="117.09 31.68 111.46 11.24 101.96 11.24 112.32 47.57 112.32 80 121.71 80 121.71 47.57 132.24 11.24 122.91 11.24 117.09 31.68"/>
  <polygon class="cls-1" points="150.06 80 177.73 80 177.73 70.95 159.45 70.95 159.45 50.08 168.37 50.08 168.37 41.15 159.45 41.15 159.45 20.4 177.73 20.4 177.73 11.24 150.06 11.24 150.06 80"/>
  <polygon class="cls-1" points="195.56 80 223.23 80 223.23 70.95 204.95 70.95 204.95 50.08 213.86 50.08 213.86 41.15 204.95 41.15 204.95 20.4 223.23 20.4 223.23 11.24 195.56 11.24 195.56 80"/>
  <polygon class="cls-1" points="241.05 80 268.72 80 268.72 70.95 250.45 70.95 250.45 50.08 259.36 50.08 259.36 41.15 250.45 41.15 250.45 20.4 268.72 20.4 268.72 11.24 241.05 11.24 241.05 80"/>
  <polygon class="cls-1" points="339.58 70.78 339.58 11.24 330.18 11.24 330.18 80 356.3 80 356.3 70.78 339.58 70.78"/>
  <polygon class="cls-1" points="295.63 11.24 286.24 11.24 286.24 80 312.36 80 312.36 70.78 295.63 70.78 295.63 11.24"/>
  <path class="cls-1" d="m18.68,40.39c-4.23,2.5-9.76,6.23-13.18,12.12,10.42-5.52,33.06,2.59,33.06,2.59-8.03-5.18-13.2-8.58-19.89-14.72h.01Z"/>
  <path class="cls-1" d="m56.02,57.66s-7.89-13.46-5.26-26.01c3.54-16.89,28.47-20.42,28.47-20.42,0,0-15.89-7.26-30.13-5.11-15.95,2.42-21.79,12.27-34.03,12.33-4.48.02-9.4-1.79-15.07-6.78,17.44,26.92,42.97,37.55,56.02,45.99Z"/>
  <polygon class="cls-1" points="47.37 80 51.19 80 87.17 11.24 83.35 11.24 47.37 80"/>
  <polygon class="cls-1" points="93.05 0 89.24 0 87.99 2.39 84.03 .32 84.03 4.13 86.42 5.38 84.35 9.34 88.17 9.34 89.42 6.95 93.37 9.02 93.37 5.2 90.98 3.95 93.05 0"/>
</svg>